<?xml version="1.0" encoding="UTF-8" standalone="no"?>
<!DOCTYPE svg PUBLIC "-//W3C//DTD SVG 1.1//EN"
 "http://www.w3.org/Graphics/SVG/1.1/DTD/svg11.dtd">
<!-- Generated by graphviz version 2.26.3 (20100126.1600)
 -->
<!-- Title: IItem Pages: 1 -->
<svg width="82pt" height="264pt"
 viewBox="0.00 0.00 82.00 264.00" xmlns="http://www.w3.org/2000/svg" xmlns:xlink="http://www.w3.org/1999/xlink">
<g id="graph1" class="graph" transform="scale(1 1) rotate(0) translate(4 260)">
<title>IItem</title>
<polygon fill="white" stroke="white" points="-4,5 -4,-260 79,-260 79,5 -4,5"/>
<!-- Node1 -->
<g id="node1" class="node"><title>Node1</title>
<polygon fill="#bfbfbf" stroke="black" points="-0.5,-166.5 -0.5,-255.5 74.5,-255.5 74.5,-166.5 -0.5,-166.5"/>
<text text-anchor="middle" x="37" y="-242.5" font-family="Helvetica,sans-Serif" font-size="10.00">IItem</text>
<polyline fill="none" stroke="black" points="-0.5,-234.5 74.5,-234.5 "/>
<text text-anchor="start" x="7.5" y="-221.5" font-family="Helvetica,sans-Serif" font-size="10.00">+ Id</text>
<text text-anchor="start" x="7.5" y="-208.5" font-family="Helvetica,sans-Serif" font-size="10.00">+ Name</text>
<text text-anchor="start" x="7.5" y="-195.5" font-family="Helvetica,sans-Serif" font-size="10.00">+ Description</text>
<polyline fill="none" stroke="black" points="-0.5,-187.5 74.5,-187.5 "/>
<text text-anchor="middle" x="37" y="-174.5" font-family="Helvetica,sans-Serif" font-size="10.00"> </text>
</g>
<!-- Node2 -->
<g id="node3" class="node"><title>Node2</title>
<a xlink:href="../../d3/dfb/class_action_rpg_kit_1_1_item_1_1_base_item.xhtml" target="_top" xlink:title="{BaseItem\n|+ Id\l+ Name\l+ Description\l&#45; _id\l&#45; _name\l&#45; _description\l|}">
<polygon fill="white" stroke="black" points="-0.5,-1 -0.5,-129 74.5,-129 74.5,-1 -0.5,-1"/>
<text text-anchor="middle" x="37" y="-116" font-family="Helvetica,sans-Serif" font-size="10.00">BaseItem</text>
<polyline fill="none" stroke="black" points="-0.5,-108 74.5,-108 "/>
<text text-anchor="start" x="7.5" y="-95" font-family="Helvetica,sans-Serif" font-size="10.00">+ Id</text>
<text text-anchor="start" x="7.5" y="-82" font-family="Helvetica,sans-Serif" font-size="10.00">+ Name</text>
<text text-anchor="start" x="7.5" y="-69" font-family="Helvetica,sans-Serif" font-size="10.00">+ Description</text>
<text text-anchor="start" x="7.5" y="-56" font-family="Helvetica,sans-Serif" font-size="10.00">&#45; _id</text>
<text text-anchor="start" x="7.5" y="-43" font-family="Helvetica,sans-Serif" font-size="10.00">&#45; _name</text>
<text text-anchor="start" x="7.5" y="-30" font-family="Helvetica,sans-Serif" font-size="10.00">&#45; _description</text>
<polyline fill="none" stroke="black" points="-0.5,-22 74.5,-22 "/>
<text text-anchor="middle" x="37" y="-9" font-family="Helvetica,sans-Serif" font-size="10.00"> </text>
</a>
</g>
<!-- Node1&#45;&gt;Node2 -->
<g id="edge2" class="edge"><title>Node1&#45;&gt;Node2</title>
<path fill="none" stroke="midnightblue" d="M37,-156.254C37,-147.432 37,-138.231 37,-129.21"/>
<polygon fill="none" stroke="midnightblue" points="33.5001,-156.402 37,-166.402 40.5001,-156.402 33.5001,-156.402"/>
</g>
</g>
</svg>
