<?xml version="1.0" encoding="UTF-8" standalone="no"?>
<!DOCTYPE svg PUBLIC "-//W3C//DTD SVG 1.1//EN"
 "http://www.w3.org/Graphics/SVG/1.1/DTD/svg11.dtd">
<!-- Generated by graphviz version 2.26.3 (20100126.1600)
 -->
<!-- Title: MeleeSkill Pages: 1 -->
<svg width="216pt" height="442pt"
 viewBox="0.00 0.00 216.00 442.00" xmlns="http://www.w3.org/2000/svg" xmlns:xlink="http://www.w3.org/1999/xlink">
<g id="graph1" class="graph" transform="scale(1 1) rotate(0) translate(4 438)">
<title>MeleeSkill</title>
<polygon fill="white" stroke="white" points="-4,5 -4,-438 213,-438 213,5 -4,5"/>
<!-- Node1 -->
<g id="node1" class="node"><title>Node1</title>
<polygon fill="#bfbfbf" stroke="black" points="50.5,-0.5 50.5,-115.5 151.5,-115.5 151.5,-0.5 50.5,-0.5"/>
<text text-anchor="middle" x="101" y="-102.5" font-family="Helvetica,sans-Serif" font-size="10.00">MeleeSkill</text>
<polyline fill="none" stroke="black" points="50.5,-94.5 151.5,-94.5 "/>
<text text-anchor="start" x="58.5" y="-81.5" font-family="Helvetica,sans-Serif" font-size="10.00">+ Damage</text>
<text text-anchor="start" x="58.5" y="-68.5" font-family="Helvetica,sans-Serif" font-size="10.00">+ MaximumTargets</text>
<polyline fill="none" stroke="black" points="50.5,-60.5 151.5,-60.5 "/>
<text text-anchor="start" x="58.5" y="-47.5" font-family="Helvetica,sans-Serif" font-size="10.00">+ MeleeSkill()</text>
<text text-anchor="start" x="58.5" y="-34.5" font-family="Helvetica,sans-Serif" font-size="10.00">+ ToString()</text>
<text text-anchor="start" x="58.5" y="-21.5" font-family="Helvetica,sans-Serif" font-size="10.00">+ Match()</text>
<text text-anchor="start" x="58.5" y="-8.5" font-family="Helvetica,sans-Serif" font-size="10.00">+ Use()</text>
</g>
<!-- Node2 -->
<g id="node2" class="node"><title>Node2</title>
<a xlink:href="../../dc/db7/class_action_rpg_kit_1_1_character_1_1_skill_1_1_base_skill.xhtml" target="_top" xlink:title="A basic Skill implementation.">
<polygon fill="white" stroke="black" points="-0.5,-153 -0.5,-281 90.5,-281 90.5,-153 -0.5,-153"/>
<text text-anchor="middle" x="45" y="-268" font-family="Helvetica,sans-Serif" font-size="10.00">BaseSkill</text>
<polyline fill="none" stroke="black" points="-0.5,-260 90.5,-260 "/>
<text text-anchor="start" x="7.5" y="-247" font-family="Helvetica,sans-Serif" font-size="10.00">+ Id</text>
<text text-anchor="start" x="7.5" y="-234" font-family="Helvetica,sans-Serif" font-size="10.00">+ Name</text>
<text text-anchor="start" x="7.5" y="-221" font-family="Helvetica,sans-Serif" font-size="10.00">+ Description</text>
<text text-anchor="start" x="7.5" y="-208" font-family="Helvetica,sans-Serif" font-size="10.00">+ CooldownTime</text>
<text text-anchor="start" x="7.5" y="-195" font-family="Helvetica,sans-Serif" font-size="10.00">+ PreUseTime</text>
<polyline fill="none" stroke="black" points="-0.5,-187 90.5,-187 "/>
<text text-anchor="start" x="7.5" y="-174" font-family="Helvetica,sans-Serif" font-size="10.00">+ BaseSkill()</text>
<text text-anchor="start" x="7.5" y="-161" font-family="Helvetica,sans-Serif" font-size="10.00">+ Match()</text>
</a>
</g>
<!-- Node2&#45;&gt;Node1 -->
<g id="edge2" class="edge"><title>Node2&#45;&gt;Node1</title>
<path fill="none" stroke="midnightblue" d="M71.0016,-143.174C74.2703,-133.893 77.5755,-124.509 80.7379,-115.53"/>
<polygon fill="none" stroke="midnightblue" points="67.6368,-142.192 67.6159,-152.787 74.2392,-144.518 67.6368,-142.192"/>
</g>
<!-- Node3 -->
<g id="node4" class="node"><title>Node3</title>
<a xlink:href="../../d5/dc7/interface_action_rpg_kit_1_1_character_1_1_skill_1_1_i_skill.xhtml" target="_top" xlink:title="Interface for Skills.">
<polygon fill="white" stroke="black" points="55.5,-318.5 55.5,-433.5 146.5,-433.5 146.5,-318.5 55.5,-318.5"/>
<text text-anchor="middle" x="101" y="-420.5" font-family="Helvetica,sans-Serif" font-size="10.00">ISkill</text>
<polyline fill="none" stroke="black" points="55.5,-412.5 146.5,-412.5 "/>
<text text-anchor="start" x="63.5" y="-399.5" font-family="Helvetica,sans-Serif" font-size="10.00">+ Id</text>
<text text-anchor="start" x="63.5" y="-386.5" font-family="Helvetica,sans-Serif" font-size="10.00">+ Name</text>
<text text-anchor="start" x="63.5" y="-373.5" font-family="Helvetica,sans-Serif" font-size="10.00">+ Description</text>
<text text-anchor="start" x="63.5" y="-360.5" font-family="Helvetica,sans-Serif" font-size="10.00">+ PreUseTime</text>
<text text-anchor="start" x="63.5" y="-347.5" font-family="Helvetica,sans-Serif" font-size="10.00">+ CooldownTime</text>
<polyline fill="none" stroke="black" points="55.5,-339.5 146.5,-339.5 "/>
<text text-anchor="start" x="63.5" y="-326.5" font-family="Helvetica,sans-Serif" font-size="10.00">+ Match()</text>
</a>
</g>
<!-- Node3&#45;&gt;Node2 -->
<g id="edge4" class="edge"><title>Node3&#45;&gt;Node2</title>
<path fill="none" stroke="midnightblue" d="M77.215,-308.468C74.039,-299.45 70.7889,-290.222 67.6333,-281.262"/>
<polygon fill="none" stroke="midnightblue" points="74.001,-309.878 80.6243,-318.148 80.6035,-307.553 74.001,-309.878"/>
</g>
<!-- Node4 -->
<g id="node6" class="node"><title>Node4</title>
<a xlink:href="../../d4/dbe/interface_action_rpg_kit_1_1_character_1_1_skill_1_1_i_combat_skill.xhtml" target="_top" xlink:title="A Skill to be used as an Attack in Combat.">
<polygon fill="white" stroke="black" points="107.5,-179 107.5,-255 208.5,-255 208.5,-179 107.5,-179"/>
<text text-anchor="middle" x="158" y="-242" font-family="Helvetica,sans-Serif" font-size="10.00">ICombatSkill</text>
<polyline fill="none" stroke="black" points="107.5,-234 208.5,-234 "/>
<text text-anchor="start" x="115.5" y="-221" font-family="Helvetica,sans-Serif" font-size="10.00">+ Damage</text>
<text text-anchor="start" x="115.5" y="-208" font-family="Helvetica,sans-Serif" font-size="10.00">+ MaximumTargets</text>
<polyline fill="none" stroke="black" points="107.5,-200 208.5,-200 "/>
<text text-anchor="start" x="115.5" y="-187" font-family="Helvetica,sans-Serif" font-size="10.00">+ Use()</text>
</a>
</g>
<!-- Node3&#45;&gt;Node4 -->
<g id="edge8" class="edge"><title>Node3&#45;&gt;Node4</title>
<path fill="none" stroke="midnightblue" d="M125.129,-308.694C131.679,-290.421 138.545,-271.268 144.298,-255.22"/>
<polygon fill="none" stroke="midnightblue" points="121.82,-307.553 121.74,-318.148 128.409,-309.915 121.82,-307.553"/>
</g>
<!-- Node4&#45;&gt;Node1 -->
<g id="edge6" class="edge"><title>Node4&#45;&gt;Node1</title>
<path fill="none" stroke="midnightblue" d="M140.892,-169.279C134.846,-152.414 127.982,-133.265 121.672,-115.664"/>
<polygon fill="none" stroke="midnightblue" points="137.678,-170.683 144.347,-178.916 144.267,-168.321 137.678,-170.683"/>
</g>
</g>
</svg>
