<?xml version="1.0" encoding="UTF-8" standalone="no"?>
<!DOCTYPE svg PUBLIC "-//W3C//DTD SVG 1.1//EN"
 "http://www.w3.org/Graphics/SVG/1.1/DTD/svg11.dtd">
<!-- Generated by graphviz version 2.26.3 (20100126.1600)
 -->
<!-- Title: PassiveMagicSkill Pages: 1 -->
<svg width="180pt" height="494pt"
 viewBox="0.00 0.00 180.00 494.00" xmlns="http://www.w3.org/2000/svg" xmlns:xlink="http://www.w3.org/1999/xlink">
<g id="graph1" class="graph" transform="scale(1 1) rotate(0) translate(4 490)">
<title>PassiveMagicSkill</title>
<polygon fill="white" stroke="white" points="-4,5 -4,-490 177,-490 177,5 -4,5"/>
<!-- Node1 -->
<g id="node1" class="node"><title>Node1</title>
<polygon fill="#bfbfbf" stroke="black" points="28,-0.5 28,-167.5 156,-167.5 156,-0.5 28,-0.5"/>
<text text-anchor="middle" x="92" y="-154.5" font-family="Helvetica,sans-Serif" font-size="10.00">PassiveMagicSkill</text>
<polyline fill="none" stroke="black" points="28,-146.5 156,-146.5 "/>
<text text-anchor="start" x="36" y="-133.5" font-family="Helvetica,sans-Serif" font-size="10.00">+ Cost</text>
<text text-anchor="start" x="36" y="-120.5" font-family="Helvetica,sans-Serif" font-size="10.00">&#45; _duration</text>
<text text-anchor="start" x="36" y="-107.5" font-family="Helvetica,sans-Serif" font-size="10.00">&#45; _endTime</text>
<text text-anchor="start" x="36" y="-94.5" font-family="Helvetica,sans-Serif" font-size="10.00">&#45; _modifierValue</text>
<text text-anchor="start" x="36" y="-81.5" font-family="Helvetica,sans-Serif" font-size="10.00">&#45; _modifiedAttributeName</text>
<polyline fill="none" stroke="black" points="28,-73.5 156,-73.5 "/>
<text text-anchor="start" x="36" y="-60.5" font-family="Helvetica,sans-Serif" font-size="10.00">+ PassiveMagicSkill()</text>
<text text-anchor="start" x="36" y="-47.5" font-family="Helvetica,sans-Serif" font-size="10.00">+ ToString()</text>
<text text-anchor="start" x="36" y="-34.5" font-family="Helvetica,sans-Serif" font-size="10.00">+ Match()</text>
<text text-anchor="start" x="36" y="-21.5" font-family="Helvetica,sans-Serif" font-size="10.00">+ Use()</text>
<text text-anchor="start" x="36" y="-8.5" font-family="Helvetica,sans-Serif" font-size="10.00">&#45; GetModifier()</text>
</g>
<!-- Node2 -->
<g id="node2" class="node"><title>Node2</title>
<a xlink:href="../../dc/db7/class_action_rpg_kit_1_1_character_1_1_skill_1_1_base_skill.xhtml" target="_top" xlink:title="A basic Skill implementation.">
<polygon fill="white" stroke="black" points="-0.5,-205 -0.5,-333 90.5,-333 90.5,-205 -0.5,-205"/>
<text text-anchor="middle" x="45" y="-320" font-family="Helvetica,sans-Serif" font-size="10.00">BaseSkill</text>
<polyline fill="none" stroke="black" points="-0.5,-312 90.5,-312 "/>
<text text-anchor="start" x="7.5" y="-299" font-family="Helvetica,sans-Serif" font-size="10.00">+ Id</text>
<text text-anchor="start" x="7.5" y="-286" font-family="Helvetica,sans-Serif" font-size="10.00">+ Name</text>
<text text-anchor="start" x="7.5" y="-273" font-family="Helvetica,sans-Serif" font-size="10.00">+ Description</text>
<text text-anchor="start" x="7.5" y="-260" font-family="Helvetica,sans-Serif" font-size="10.00">+ CooldownTime</text>
<text text-anchor="start" x="7.5" y="-247" font-family="Helvetica,sans-Serif" font-size="10.00">+ PreUseTime</text>
<polyline fill="none" stroke="black" points="-0.5,-239 90.5,-239 "/>
<text text-anchor="start" x="7.5" y="-226" font-family="Helvetica,sans-Serif" font-size="10.00">+ BaseSkill()</text>
<text text-anchor="start" x="7.5" y="-213" font-family="Helvetica,sans-Serif" font-size="10.00">+ Match()</text>
</a>
</g>
<!-- Node2&#45;&gt;Node1 -->
<g id="edge2" class="edge"><title>Node2&#45;&gt;Node1</title>
<path fill="none" stroke="midnightblue" d="M63.7696,-195.12C66.0663,-186.079 68.4259,-176.792 70.7557,-167.621"/>
<polygon fill="none" stroke="midnightblue" points="60.3766,-194.261 61.3064,-204.815 67.161,-195.985 60.3766,-194.261"/>
</g>
<!-- Node3 -->
<g id="node4" class="node"><title>Node3</title>
<a xlink:href="../../d5/dc7/interface_action_rpg_kit_1_1_character_1_1_skill_1_1_i_skill.xhtml" target="_top" xlink:title="Interface for Skills.">
<polygon fill="white" stroke="black" points="46.5,-370.5 46.5,-485.5 137.5,-485.5 137.5,-370.5 46.5,-370.5"/>
<text text-anchor="middle" x="92" y="-472.5" font-family="Helvetica,sans-Serif" font-size="10.00">ISkill</text>
<polyline fill="none" stroke="black" points="46.5,-464.5 137.5,-464.5 "/>
<text text-anchor="start" x="54.5" y="-451.5" font-family="Helvetica,sans-Serif" font-size="10.00">+ Id</text>
<text text-anchor="start" x="54.5" y="-438.5" font-family="Helvetica,sans-Serif" font-size="10.00">+ Name</text>
<text text-anchor="start" x="54.5" y="-425.5" font-family="Helvetica,sans-Serif" font-size="10.00">+ Description</text>
<text text-anchor="start" x="54.5" y="-412.5" font-family="Helvetica,sans-Serif" font-size="10.00">+ PreUseTime</text>
<text text-anchor="start" x="54.5" y="-399.5" font-family="Helvetica,sans-Serif" font-size="10.00">+ CooldownTime</text>
<polyline fill="none" stroke="black" points="46.5,-391.5 137.5,-391.5 "/>
<text text-anchor="start" x="54.5" y="-378.5" font-family="Helvetica,sans-Serif" font-size="10.00">+ Match()</text>
</a>
</g>
<!-- Node3&#45;&gt;Node2 -->
<g id="edge4" class="edge"><title>Node3&#45;&gt;Node2</title>
<path fill="none" stroke="midnightblue" d="M72.0376,-360.468C69.372,-351.45 66.6442,-342.222 63.9958,-333.262"/>
<polygon fill="none" stroke="midnightblue" points="68.7077,-361.55 74.899,-370.148 75.4206,-359.566 68.7077,-361.55"/>
</g>
<!-- Node4 -->
<g id="node6" class="node"><title>Node4</title>
<a xlink:href="../../d7/dd4/interface_action_rpg_kit_1_1_character_1_1_skill_1_1_i_magic_skill.xhtml" target="_top" xlink:title="A magic Skill costs magic energy on each use.">
<polygon fill="white" stroke="black" points="107.5,-237.5 107.5,-300.5 172.5,-300.5 172.5,-237.5 107.5,-237.5"/>
<text text-anchor="middle" x="140" y="-287.5" font-family="Helvetica,sans-Serif" font-size="10.00">IMagicSkill</text>
<polyline fill="none" stroke="black" points="107.5,-279.5 172.5,-279.5 "/>
<text text-anchor="start" x="115.5" y="-266.5" font-family="Helvetica,sans-Serif" font-size="10.00">+ Cost</text>
<polyline fill="none" stroke="black" points="107.5,-258.5 172.5,-258.5 "/>
<text text-anchor="start" x="115.5" y="-245.5" font-family="Helvetica,sans-Serif" font-size="10.00">+ Use()</text>
</a>
</g>
<!-- Node3&#45;&gt;Node4 -->
<g id="edge8" class="edge"><title>Node3&#45;&gt;Node4</title>
<path fill="none" stroke="midnightblue" d="M112.406,-360.404C118.665,-339.671 125.258,-317.834 130.429,-300.705"/>
<polygon fill="none" stroke="midnightblue" points="109.004,-359.563 109.465,-370.148 115.706,-361.586 109.004,-359.563"/>
</g>
<!-- Node4&#45;&gt;Node1 -->
<g id="edge6" class="edge"><title>Node4&#45;&gt;Node1</title>
<path fill="none" stroke="midnightblue" d="M129.172,-227.266C124.6,-209.646 119.105,-188.466 113.759,-167.863"/>
<polygon fill="none" stroke="midnightblue" points="125.849,-228.397 131.749,-237.197 132.625,-226.639 125.849,-228.397"/>
</g>
</g>
</svg>
