<?xml version="1.0" encoding="UTF-8" standalone="no"?>
<!DOCTYPE svg PUBLIC "-//W3C//DTD SVG 1.1//EN"
 "http://www.w3.org/Graphics/SVG/1.1/DTD/svg11.dtd">
<!-- Generated by graphviz version 2.26.3 (20100126.1600)
 -->
<!-- Title: G Pages: 1 -->
<!--zoomable 558 -->
<svg id="main" version="1.1" xmlns="http://www.w3.org/2000/svg" xmlns:xlink="http://www.w3.org/1999/xlink" xml:space="preserve" onload="init(evt)">
        <defs>
                <circle id="rim" cx="0" cy="0" r="7"/>
                <circle id="rim2" cx="0" cy="0" r="3.5"/>
                <g id="zoomPlus">
                        <use xlink:href="#rim" fill="#404040">
                                <set attributeName="fill" to="#808080" begin="zoomplus.mouseover" end="zoomplus.mouseout"/>
                        </use>
                        <path d="M-4,0h8M0,-4v8" fill="none" stroke="white" stroke-width="1.5" pointer-events="none"/>
                </g>
                <g id="zoomMin">
                        <use xlink:href="#rim" fill="#404040">
                                <set attributeName="fill" to="#808080" begin="zoomminus.mouseover" end="zoomminus.mouseout"/>
                        </use>
                        <path d="M-4,0h8" fill="none" stroke="white" stroke-width="1.5" pointer-events="none"/>
                </g>
                <g id="dirArrow">
                        <path fill="none" stroke="white" stroke-width="1.5" d="M0,-3.0v7 M-2.5,-0.5L0,-3.0L2.5,-0.5"/>
                </g>
               <g id="resetDef">
                       <use xlink:href="#rim2" fill="#404040">
                               <set attributeName="fill" to="#808080" begin="reset.mouseover" end="reset.mouseout"/>
                       </use>
               </g>
        </defs>

<script type="text/javascript">
var viewWidth = 180;
var viewHeight = 558;
var sectionId = 'dynsection-0';
</script>
<script xlink:href="../../svgpan.js"/>
<svg id="graph" class="graph">
<g id="viewport">
<title>G</title>
<polygon fill="white" stroke="white" points="-4,5 -4,-554 177,-554 177,5 -4,5"/>
<!-- Node1 -->
<g id="node1" class="node"><title>Node1</title>
<polygon fill="#bfbfbf" stroke="black" points="28,-0.5 28,-167.5 156,-167.5 156,-0.5 28,-0.5"/>
<text text-anchor="middle" x="92" y="-154.5" font-family="Helvetica,sans-Serif" font-size="10.00">PassiveMagicSkill</text>
<polyline fill="none" stroke="black" points="28,-146.5 156,-146.5 "/>
<text text-anchor="start" x="36" y="-133.5" font-family="Helvetica,sans-Serif" font-size="10.00">+ Cost</text>
<text text-anchor="start" x="36" y="-120.5" font-family="Helvetica,sans-Serif" font-size="10.00">&#45; _cost</text>
<text text-anchor="start" x="36" y="-107.5" font-family="Helvetica,sans-Serif" font-size="10.00">&#45; _duration</text>
<text text-anchor="start" x="36" y="-94.5" font-family="Helvetica,sans-Serif" font-size="10.00">&#45; _endTime</text>
<text text-anchor="start" x="36" y="-81.5" font-family="Helvetica,sans-Serif" font-size="10.00">&#45; _modifierValue</text>
<text text-anchor="start" x="36" y="-68.5" font-family="Helvetica,sans-Serif" font-size="10.00">&#45; _modifiedAttributeName</text>
<polyline fill="none" stroke="black" points="28,-60.5 156,-60.5 "/>
<text text-anchor="start" x="36" y="-47.5" font-family="Helvetica,sans-Serif" font-size="10.00">+ PassiveMagicSkill()</text>
<text text-anchor="start" x="36" y="-34.5" font-family="Helvetica,sans-Serif" font-size="10.00">+ Match()</text>
<text text-anchor="start" x="36" y="-21.5" font-family="Helvetica,sans-Serif" font-size="10.00">+ Use()</text>
<text text-anchor="start" x="36" y="-8.5" font-family="Helvetica,sans-Serif" font-size="10.00">&#45; GetModifier()</text>
</g>
<!-- Node2 -->
<g id="node2" class="node"><title>Node2</title>
<a xlink:href="../../dc/db7/class_action_rpg_kit_1_1_character_1_1_skill_1_1_base_skill.xhtml" target="_top" xlink:title="A basic Skill implementation.">
<polygon fill="white" stroke="black" points="-0.5,-204.5 -0.5,-397.5 90.5,-397.5 90.5,-204.5 -0.5,-204.5"/>
<text text-anchor="middle" x="45" y="-384.5" font-family="Helvetica,sans-Serif" font-size="10.00">BaseSkill</text>
<polyline fill="none" stroke="black" points="-0.5,-376.5 90.5,-376.5 "/>
<text text-anchor="start" x="7.5" y="-363.5" font-family="Helvetica,sans-Serif" font-size="10.00">+ Id</text>
<text text-anchor="start" x="7.5" y="-350.5" font-family="Helvetica,sans-Serif" font-size="10.00">+ Name</text>
<text text-anchor="start" x="7.5" y="-337.5" font-family="Helvetica,sans-Serif" font-size="10.00">+ Description</text>
<text text-anchor="start" x="7.5" y="-324.5" font-family="Helvetica,sans-Serif" font-size="10.00">+ CooldownTime</text>
<text text-anchor="start" x="7.5" y="-311.5" font-family="Helvetica,sans-Serif" font-size="10.00">+ PreUseTime</text>
<text text-anchor="start" x="7.5" y="-298.5" font-family="Helvetica,sans-Serif" font-size="10.00">&#45; _id</text>
<text text-anchor="start" x="7.5" y="-285.5" font-family="Helvetica,sans-Serif" font-size="10.00">&#45; _name</text>
<text text-anchor="start" x="7.5" y="-272.5" font-family="Helvetica,sans-Serif" font-size="10.00">&#45; _description</text>
<text text-anchor="start" x="7.5" y="-259.5" font-family="Helvetica,sans-Serif" font-size="10.00">&#45; _preUseTime</text>
<text text-anchor="start" x="7.5" y="-246.5" font-family="Helvetica,sans-Serif" font-size="10.00">&#45; _cooldownTime</text>
<polyline fill="none" stroke="black" points="-0.5,-238.5 90.5,-238.5 "/>
<text text-anchor="start" x="7.5" y="-225.5" font-family="Helvetica,sans-Serif" font-size="10.00">+ BaseSkill()</text>
<text text-anchor="start" x="7.5" y="-212.5" font-family="Helvetica,sans-Serif" font-size="10.00">+ Match()</text>
</a>
</g>
<!-- Node2&#45;&gt;Node1 -->
<g id="edge2" class="edge"><title>Node2&#45;&gt;Node1</title>
<path fill="none" stroke="midnightblue" d="M68.1327,-194.196C70.0635,-185.281 71.9975,-176.352 73.8827,-167.648"/>
<polygon fill="none" stroke="midnightblue" points="64.6533,-193.726 65.9571,-204.241 71.4947,-195.208 64.6533,-193.726"/>
</g>
<!-- Node3 -->
<g id="node4" class="node"><title>Node3</title>
<a xlink:href="../../d5/dc7/interface_action_rpg_kit_1_1_character_1_1_skill_1_1_i_skill.xhtml" target="_top" xlink:title="Interface for Skills.">
<polygon fill="white" stroke="black" points="46.5,-434.5 46.5,-549.5 137.5,-549.5 137.5,-434.5 46.5,-434.5"/>
<text text-anchor="middle" x="92" y="-536.5" font-family="Helvetica,sans-Serif" font-size="10.00">ISkill</text>
<polyline fill="none" stroke="black" points="46.5,-528.5 137.5,-528.5 "/>
<text text-anchor="start" x="54.5" y="-515.5" font-family="Helvetica,sans-Serif" font-size="10.00">+ Id</text>
<text text-anchor="start" x="54.5" y="-502.5" font-family="Helvetica,sans-Serif" font-size="10.00">+ Name</text>
<text text-anchor="start" x="54.5" y="-489.5" font-family="Helvetica,sans-Serif" font-size="10.00">+ Description</text>
<text text-anchor="start" x="54.5" y="-476.5" font-family="Helvetica,sans-Serif" font-size="10.00">+ PreUseTime</text>
<text text-anchor="start" x="54.5" y="-463.5" font-family="Helvetica,sans-Serif" font-size="10.00">+ CooldownTime</text>
<polyline fill="none" stroke="black" points="46.5,-455.5 137.5,-455.5 "/>
<text text-anchor="start" x="54.5" y="-442.5" font-family="Helvetica,sans-Serif" font-size="10.00">+ Match()</text>
</a>
</g>
<!-- Node3&#45;&gt;Node2 -->
<g id="edge4" class="edge"><title>Node3&#45;&gt;Node2</title>
<path fill="none" stroke="midnightblue" d="M75.4393,-424.7C73.2814,-415.931 71.0378,-406.813 68.7907,-397.681"/>
<polygon fill="none" stroke="midnightblue" points="72.0466,-425.561 77.8347,-434.435 78.8438,-423.888 72.0466,-425.561"/>
</g>
<!-- Node4 -->
<g id="node6" class="node"><title>Node4</title>
<a xlink:href="../../d7/dd4/interface_action_rpg_kit_1_1_character_1_1_skill_1_1_i_magic_skill.xhtml" target="_top" xlink:title="A magic Skill costs magic energy on each use.">
<polygon fill="white" stroke="black" points="107.5,-269.5 107.5,-332.5 172.5,-332.5 172.5,-269.5 107.5,-269.5"/>
<text text-anchor="middle" x="140" y="-319.5" font-family="Helvetica,sans-Serif" font-size="10.00">IMagicSkill</text>
<polyline fill="none" stroke="black" points="107.5,-311.5 172.5,-311.5 "/>
<text text-anchor="start" x="115.5" y="-298.5" font-family="Helvetica,sans-Serif" font-size="10.00">+ Cost</text>
<polyline fill="none" stroke="black" points="107.5,-290.5 172.5,-290.5 "/>
<text text-anchor="start" x="115.5" y="-277.5" font-family="Helvetica,sans-Serif" font-size="10.00">+ Use()</text>
</a>
</g>
<!-- Node3&#45;&gt;Node4 -->
<g id="edge8" class="edge"><title>Node3&#45;&gt;Node4</title>
<path fill="none" stroke="midnightblue" d="M108.973,-424.46C116.828,-393.204 125.785,-357.565 132.049,-332.64"/>
<polygon fill="none" stroke="midnightblue" points="105.51,-423.883 106.467,-434.435 112.299,-425.589 105.51,-423.883"/>
</g>
<!-- Node4&#45;&gt;Node1 -->
<g id="edge6" class="edge"><title>Node4&#45;&gt;Node1</title>
<path fill="none" stroke="midnightblue" d="M130.835,-259.565C125.083,-233.563 117.461,-199.106 110.494,-167.608"/>
<polygon fill="none" stroke="midnightblue" points="127.443,-260.438 133.02,-269.446 134.278,-258.926 127.443,-260.438"/>
</g>
</g>
</svg>
        <g id="navigator" transform="translate(0 0)" fill="#404254">
                <rect fill="#f2f5e9" fill-opacity="0.5" stroke="#606060" stroke-width=".5" x="0" y="0" width="60" height="60"/>
                <use id="zoomplus" xlink:href="#zoomPlus" x="17" y="9" onmousedown="handleZoom(evt,'in')"/>
                <use id="zoomminus" xlink:href="#zoomMin" x="42" y="9" onmousedown="handleZoom(evt,'out')"/>
                <use id="reset" xlink:href="#resetDef" x="30" y="36" onmousedown="handleReset()"/>
                <g id="arrowUp" xlink:href="#dirArrow" transform="translate(30 24)" onmousedown="handlePan(0,-1)">
                  <use xlink:href="#rim" fill="#404040">
                        <set attributeName="fill" to="#808080" begin="arrowUp.mouseover" end="arrowUp.mouseout"/>
                  </use>
                  <path fill="none" stroke="white" stroke-width="1.5" d="M0,-3.0v7 M-2.5,-0.5L0,-3.0L2.5,-0.5"/>
                </g>
                <g id="arrowRight" xlink:href="#dirArrow" transform="rotate(90) translate(36 -43)" onmousedown="handlePan(1,0)">
                  <use xlink:href="#rim" fill="#404040">
                        <set attributeName="fill" to="#808080" begin="arrowRight.mouseover" end="arrowRight.mouseout"/>
                  </use>
                  <path fill="none" stroke="white" stroke-width="1.5" d="M0,-3.0v7 M-2.5,-0.5L0,-3.0L2.5,-0.5"/>
                </g>
                <g id="arrowDown" xlink:href="#dirArrow" transform="rotate(180) translate(-30 -48)" onmousedown="handlePan(0,1)">
                  <use xlink:href="#rim" fill="#404040">
                        <set attributeName="fill" to="#808080" begin="arrowDown.mouseover" end="arrowDown.mouseout"/>
                  </use>
                  <path fill="none" stroke="white" stroke-width="1.5" d="M0,-3.0v7 M-2.5,-0.5L0,-3.0L2.5,-0.5"/>
                </g>
                <g id="arrowLeft" xlink:href="#dirArrow" transform="rotate(270) translate(-36 17)" onmousedown="handlePan(-1,0)">
                  <use xlink:href="#rim" fill="#404040">
                        <set attributeName="fill" to="#808080" begin="arrowLeft.mouseover" end="arrowLeft.mouseout"/>
                  </use>
                  <path fill="none" stroke="white" stroke-width="1.5" d="M0,-3.0v7 M-2.5,-0.5L0,-3.0L2.5,-0.5"/>
                </g>
        </g>
</svg>
