<?xml version="1.0" encoding="UTF-8" standalone="no"?>
<!DOCTYPE svg PUBLIC "-//W3C//DTD SVG 1.1//EN"
 "http://www.w3.org/Graphics/SVG/1.1/DTD/svg11.dtd">
<!-- Generated by graphviz version 2.38.0 (20140413.2041)
 -->
<!-- Title: SimpleVolumeAttribute Pages: 1 -->
<svg width="139pt" height="529pt"
 viewBox="0.00 0.00 139.00 529.00" xmlns="http://www.w3.org/2000/svg" xmlns:xlink="http://www.w3.org/1999/xlink">
<g id="graph0" class="graph" transform="scale(1 1) rotate(0) translate(4 525)">
<title>SimpleVolumeAttribute</title>
<polygon fill="white" stroke="none" points="-4,4 -4,-525 135,-525 135,4 -4,4"/>
<!-- Node1 -->
<g id="node1" class="node"><title>Node1</title>
<polygon fill="#bfbfbf" stroke="black" points="0,-0.5 0,-90.5 131,-90.5 131,-0.5 0,-0.5"/>
<text text-anchor="middle" x="65.5" y="-78.5" font-family="Helvetica,sans-Serif" font-size="10.00">SimpleVolumeAttribute</text>
<polyline fill="none" stroke="black" points="0,-71.5 131,-71.5 "/>
<text text-anchor="start" x="8" y="-59.5" font-family="Helvetica,sans-Serif" font-size="10.00">+ Value</text>
<text text-anchor="start" x="8" y="-48.5" font-family="Helvetica,sans-Serif" font-size="10.00">+ MaxValue</text>
<text text-anchor="start" x="8" y="-37.5" font-family="Helvetica,sans-Serif" font-size="10.00">&#45; _currentValue</text>
<text text-anchor="start" x="8" y="-26.5" font-family="Helvetica,sans-Serif" font-size="10.00">&#45; _absoluteMaxValue</text>
<polyline fill="none" stroke="black" points="0,-19.5 131,-19.5 "/>
<text text-anchor="start" x="8" y="-7.5" font-family="Helvetica,sans-Serif" font-size="10.00">+ SimpleVolumeAttribute()</text>
</g>
<!-- Node2 -->
<g id="node2" class="node"><title>Node2</title>
<g id="a_node2"><a xlink:href="../../d3/db7/class_character_1_1_attribute_1_1_primary_attribute.xhtml" target="_top" xlink:title="Represents a simple float value. ">
<polygon fill="white" stroke="black" points="14.5,-127.5 14.5,-349.5 116.5,-349.5 116.5,-127.5 14.5,-127.5"/>
<text text-anchor="middle" x="65.5" y="-337.5" font-family="Helvetica,sans-Serif" font-size="10.00">PrimaryAttribute</text>
<polyline fill="none" stroke="black" points="14.5,-330.5 116.5,-330.5 "/>
<text text-anchor="start" x="22.5" y="-318.5" font-family="Helvetica,sans-Serif" font-size="10.00">+ Name</text>
<text text-anchor="start" x="22.5" y="-307.5" font-family="Helvetica,sans-Serif" font-size="10.00">+ BaseValue</text>
<text text-anchor="start" x="22.5" y="-296.5" font-family="Helvetica,sans-Serif" font-size="10.00">+ Value</text>
<text text-anchor="start" x="22.5" y="-285.5" font-family="Helvetica,sans-Serif" font-size="10.00">+ MaxValue</text>
<text text-anchor="start" x="22.5" y="-274.5" font-family="Helvetica,sans-Serif" font-size="10.00">+ MinValue</text>
<text text-anchor="start" x="22.5" y="-263.5" font-family="Helvetica,sans-Serif" font-size="10.00">+ Modifiers</text>
<text text-anchor="start" x="22.5" y="-252.5" font-family="Helvetica,sans-Serif" font-size="10.00">+ IsModified</text>
<text text-anchor="start" x="22.5" y="-241.5" font-family="Helvetica,sans-Serif" font-size="10.00">&#45; _name</text>
<text text-anchor="start" x="22.5" y="-230.5" font-family="Helvetica,sans-Serif" font-size="10.00">&#45; _value</text>
<text text-anchor="start" x="22.5" y="-219.5" font-family="Helvetica,sans-Serif" font-size="10.00">&#45; _minValue</text>
<text text-anchor="start" x="22.5" y="-208.5" font-family="Helvetica,sans-Serif" font-size="10.00">&#45; _maxValue</text>
<text text-anchor="start" x="22.5" y="-197.5" font-family="Helvetica,sans-Serif" font-size="10.00">&#45; _modifiers</text>
<polyline fill="none" stroke="black" points="14.5,-190.5 116.5,-190.5 "/>
<text text-anchor="start" x="22.5" y="-178.5" font-family="Helvetica,sans-Serif" font-size="10.00">+ PrimaryAttribute()</text>
<text text-anchor="start" x="22.5" y="-167.5" font-family="Helvetica,sans-Serif" font-size="10.00">+ PrimaryAttribute()</text>
<text text-anchor="start" x="22.5" y="-156.5" font-family="Helvetica,sans-Serif" font-size="10.00">+ AddModifier()</text>
<text text-anchor="start" x="22.5" y="-145.5" font-family="Helvetica,sans-Serif" font-size="10.00">+ RemoveModifier()</text>
<text text-anchor="start" x="22.5" y="-134.5" font-family="Helvetica,sans-Serif" font-size="10.00">+ ToString()</text>
</a>
</g>
</g>
<!-- Node2&#45;&gt;Node1 -->
<g id="edge1" class="edge"><title>Node2&#45;&gt;Node1</title>
<path fill="none" stroke="midnightblue" d="M65.5,-117.039C65.5,-107.757 65.5,-98.8141 65.5,-90.5947"/>
<polygon fill="none" stroke="midnightblue" points="62.0001,-117.224 65.5,-127.224 69.0001,-117.224 62.0001,-117.224"/>
</g>
<!-- Node3 -->
<g id="node3" class="node"><title>Node3</title>
<g id="a_node3"><a xlink:href="../../d7/df4/interface_character_1_1_attribute_1_1_i_attribute.xhtml" target="_top" xlink:title="Interface for Attributes. ">
<polygon fill="white" stroke="black" points="15.5,-386.5 15.5,-520.5 115.5,-520.5 115.5,-386.5 15.5,-386.5"/>
<text text-anchor="middle" x="65.5" y="-508.5" font-family="Helvetica,sans-Serif" font-size="10.00">IAttribute</text>
<polyline fill="none" stroke="black" points="15.5,-501.5 115.5,-501.5 "/>
<text text-anchor="start" x="23.5" y="-489.5" font-family="Helvetica,sans-Serif" font-size="10.00">+ Name</text>
<text text-anchor="start" x="23.5" y="-478.5" font-family="Helvetica,sans-Serif" font-size="10.00">+ BaseValue</text>
<text text-anchor="start" x="23.5" y="-467.5" font-family="Helvetica,sans-Serif" font-size="10.00">+ Value</text>
<text text-anchor="start" x="23.5" y="-456.5" font-family="Helvetica,sans-Serif" font-size="10.00">+ MaxValue</text>
<text text-anchor="start" x="23.5" y="-445.5" font-family="Helvetica,sans-Serif" font-size="10.00">+ MinValue</text>
<text text-anchor="start" x="23.5" y="-434.5" font-family="Helvetica,sans-Serif" font-size="10.00">+ Modifiers</text>
<text text-anchor="start" x="23.5" y="-423.5" font-family="Helvetica,sans-Serif" font-size="10.00">+ IsModified</text>
<polyline fill="none" stroke="black" points="15.5,-416.5 115.5,-416.5 "/>
<text text-anchor="start" x="23.5" y="-404.5" font-family="Helvetica,sans-Serif" font-size="10.00">+ AddModifier()</text>
<text text-anchor="start" x="23.5" y="-393.5" font-family="Helvetica,sans-Serif" font-size="10.00">+ RemoveModifier()</text>
</a>
</g>
</g>
<!-- Node3&#45;&gt;Node2 -->
<g id="edge2" class="edge"><title>Node3&#45;&gt;Node2</title>
<path fill="none" stroke="midnightblue" d="M65.5,-376.215C65.5,-367.52 65.5,-358.532 65.5,-349.51"/>
<polygon fill="none" stroke="midnightblue" points="62.0001,-376.273 65.5,-386.273 69.0001,-376.273 62.0001,-376.273"/>
</g>
</g>
</svg>
