<?xml version="1.0" encoding="UTF-8" standalone="no"?>
<!DOCTYPE svg PUBLIC "-//W3C//DTD SVG 1.1//EN"
 "http://www.w3.org/Graphics/SVG/1.1/DTD/svg11.dtd">
<!-- Generated by graphviz version 2.38.0 (20140413.2041)
 -->
<!-- Title: IFighter Pages: 1 -->
<svg width="148pt" height="452pt"
 viewBox="0.00 0.00 147.50 452.00" xmlns="http://www.w3.org/2000/svg" xmlns:xlink="http://www.w3.org/1999/xlink">
<g id="graph0" class="graph" transform="scale(1 1) rotate(0) translate(4 448)">
<title>IFighter</title>
<polygon fill="white" stroke="none" points="-4,4 -4,-448 143.5,-448 143.5,4 -4,4"/>
<!-- Node1 -->
<g id="node1" class="node"><title>Node1</title>
<polygon fill="#bfbfbf" stroke="black" points="13.5,-364.5 13.5,-443.5 126.5,-443.5 126.5,-364.5 13.5,-364.5"/>
<text text-anchor="middle" x="70" y="-431.5" font-family="Helvetica,sans-Serif" font-size="10.00">IFighter</text>
<polyline fill="none" stroke="black" points="13.5,-424.5 126.5,-424.5 "/>
<text text-anchor="start" x="21.5" y="-412.5" font-family="Helvetica,sans-Serif" font-size="10.00">+ Enemies</text>
<text text-anchor="start" x="21.5" y="-401.5" font-family="Helvetica,sans-Serif" font-size="10.00">+ CombatSkills</text>
<polyline fill="none" stroke="black" points="13.5,-394.5 126.5,-394.5 "/>
<text text-anchor="start" x="21.5" y="-382.5" font-family="Helvetica,sans-Serif" font-size="10.00">+ LearnCombatSkill()</text>
<text text-anchor="start" x="21.5" y="-371.5" font-family="Helvetica,sans-Serif" font-size="10.00">+ TriggerCombatSkill()</text>
</g>
<!-- Node2 -->
<g id="node2" class="node"><title>Node2</title>
<g id="a_node2"><a xlink:href="../../d0/dd4/class_character_1_1_base_character.xhtml" target="_top" xlink:title="Base implementation of a Character.">
<polygon fill="white" stroke="black" points="7.5,-94.5 7.5,-327.5 132.5,-327.5 132.5,-94.5 7.5,-94.5"/>
<text text-anchor="middle" x="70" y="-315.5" font-family="Helvetica,sans-Serif" font-size="10.00">BaseCharacter</text>
<polyline fill="none" stroke="black" points="7.5,-308.5 132.5,-308.5 "/>
<text text-anchor="start" x="15.5" y="-296.5" font-family="Helvetica,sans-Serif" font-size="10.00">+ Name</text>
<text text-anchor="start" x="15.5" y="-285.5" font-family="Helvetica,sans-Serif" font-size="10.00">+ Stats</text>
<text text-anchor="start" x="15.5" y="-274.5" font-family="Helvetica,sans-Serif" font-size="10.00">+ MagicSkills</text>
<text text-anchor="start" x="15.5" y="-263.5" font-family="Helvetica,sans-Serif" font-size="10.00">+ Enemies</text>
<text text-anchor="start" x="15.5" y="-252.5" font-family="Helvetica,sans-Serif" font-size="10.00">+ CombatSkills</text>
<text text-anchor="start" x="15.5" y="-241.5" font-family="Helvetica,sans-Serif" font-size="10.00">&#45; _name</text>
<text text-anchor="start" x="15.5" y="-230.5" font-family="Helvetica,sans-Serif" font-size="10.00">&#45; _stats</text>
<text text-anchor="start" x="15.5" y="-219.5" font-family="Helvetica,sans-Serif" font-size="10.00">&#45; _magicSkills</text>
<text text-anchor="start" x="15.5" y="-208.5" font-family="Helvetica,sans-Serif" font-size="10.00">&#45; _magicSkillEndTimes</text>
<text text-anchor="start" x="15.5" y="-197.5" font-family="Helvetica,sans-Serif" font-size="10.00">&#45; _combatSkills</text>
<polyline fill="none" stroke="black" points="7.5,-190.5 132.5,-190.5 "/>
<text text-anchor="start" x="15.5" y="-178.5" font-family="Helvetica,sans-Serif" font-size="10.00">+ BaseCharacter()</text>
<text text-anchor="start" x="15.5" y="-167.5" font-family="Helvetica,sans-Serif" font-size="10.00">+ LearnMagicSkill()</text>
<text text-anchor="start" x="15.5" y="-156.5" font-family="Helvetica,sans-Serif" font-size="10.00">+ TriggerMagicSkill()</text>
<text text-anchor="start" x="15.5" y="-145.5" font-family="Helvetica,sans-Serif" font-size="10.00">+ PreUseCountdown()</text>
<text text-anchor="start" x="15.5" y="-134.5" font-family="Helvetica,sans-Serif" font-size="10.00">+ LearnCombatSkill()</text>
<text text-anchor="start" x="15.5" y="-123.5" font-family="Helvetica,sans-Serif" font-size="10.00">+ TriggerCombatSkill()</text>
<text text-anchor="start" x="15.5" y="-112.5" font-family="Helvetica,sans-Serif" font-size="10.00">&#45; MagicSkillCanBeUsed()</text>
<text text-anchor="start" x="15.5" y="-101.5" font-family="Helvetica,sans-Serif" font-size="10.00">&#45; UseMagicSkill()</text>
</a>
</g>
</g>
<!-- Node1&#45;&gt;Node2 -->
<g id="edge1" class="edge"><title>Node1&#45;&gt;Node2</title>
<path fill="none" stroke="midnightblue" d="M70,-354.151C70,-345.814 70,-336.848 70,-327.619"/>
<polygon fill="none" stroke="midnightblue" points="66.5001,-354.348 70,-364.348 73.5001,-354.348 66.5001,-354.348"/>
</g>
<!-- Node3 -->
<g id="node3" class="node"><title>Node3</title>
<g id="a_node3"><a xlink:href="../../d9/dfd/class_character_1_1_enemy.xhtml" target="_top" xlink:title="Representation of a Hostile, game controlled character.">
<polygon fill="white" stroke="black" points="0,-0.5 0,-57.5 62,-57.5 62,-0.5 0,-0.5"/>
<text text-anchor="middle" x="31" y="-45.5" font-family="Helvetica,sans-Serif" font-size="10.00">Enemy</text>
<polyline fill="none" stroke="black" points="0,-38.5 62,-38.5 "/>
<text text-anchor="middle" x="31" y="-26.5" font-family="Helvetica,sans-Serif" font-size="10.00"> </text>
<polyline fill="none" stroke="black" points="0,-19.5 62,-19.5 "/>
<text text-anchor="start" x="8" y="-7.5" font-family="Helvetica,sans-Serif" font-size="10.00">+ Enemy()</text>
</a>
</g>
</g>
<!-- Node2&#45;&gt;Node3 -->
<g id="edge2" class="edge"><title>Node2&#45;&gt;Node3</title>
<path fill="none" stroke="midnightblue" d="M42.8058,-84.4882C40.6853,-74.7016 38.7095,-65.5822 37.004,-57.7105"/>
<polygon fill="none" stroke="midnightblue" points="39.4315,-85.4436 44.9697,-94.4757 46.2728,-83.9613 39.4315,-85.4436"/>
</g>
<!-- Node4 -->
<g id="node4" class="node"><title>Node4</title>
<g id="a_node4"><a xlink:href="../../d7/daf/class_character_1_1_player.xhtml" target="_top" xlink:title="Representation of a Player controllable character.">
<polygon fill="white" stroke="black" points="80.5,-0.5 80.5,-57.5 139.5,-57.5 139.5,-0.5 80.5,-0.5"/>
<text text-anchor="middle" x="110" y="-45.5" font-family="Helvetica,sans-Serif" font-size="10.00">Player</text>
<polyline fill="none" stroke="black" points="80.5,-38.5 139.5,-38.5 "/>
<text text-anchor="middle" x="110" y="-26.5" font-family="Helvetica,sans-Serif" font-size="10.00"> </text>
<polyline fill="none" stroke="black" points="80.5,-19.5 139.5,-19.5 "/>
<text text-anchor="start" x="88.5" y="-7.5" font-family="Helvetica,sans-Serif" font-size="10.00">+ Player()</text>
</a>
</g>
</g>
<!-- Node2&#45;&gt;Node4 -->
<g id="edge3" class="edge"><title>Node2&#45;&gt;Node4</title>
<path fill="none" stroke="midnightblue" d="M97.8915,-84.4882C100.066,-74.7016 102.093,-65.5822 103.842,-57.7105"/>
<polygon fill="none" stroke="midnightblue" points="94.4248,-83.9546 95.6721,-94.4757 101.258,-85.4731 94.4248,-83.9546"/>
</g>
</g>
</svg>
