<?xml version="1.0" encoding="UTF-8" standalone="no"?>
<!DOCTYPE svg PUBLIC "-//W3C//DTD SVG 1.1//EN"
 "http://www.w3.org/Graphics/SVG/1.1/DTD/svg11.dtd">
<!-- Generated by graphviz version 2.38.0 (20140413.2041)
 -->
<!-- Title: VolumeAttribute Pages: 1 -->
<svg width="123pt" height="667pt"
 viewBox="0.00 0.00 123.00 667.00" xmlns="http://www.w3.org/2000/svg" xmlns:xlink="http://www.w3.org/1999/xlink">
<g id="graph0" class="graph" transform="scale(1 1) rotate(0) translate(4 663)">
<title>VolumeAttribute</title>
<polygon fill="white" stroke="none" points="-4,4 -4,-663 119,-663 119,4 -4,4"/>
<!-- Node1 -->
<g id="node1" class="node"><title>Node1</title>
<polygon fill="#bfbfbf" stroke="black" points="3.5,-0.5 3.5,-90.5 111.5,-90.5 111.5,-0.5 3.5,-0.5"/>
<text text-anchor="middle" x="57.5" y="-78.5" font-family="Helvetica,sans-Serif" font-size="10.00">VolumeAttribute</text>
<polyline fill="none" stroke="black" points="3.5,-71.5 111.5,-71.5 "/>
<text text-anchor="start" x="11.5" y="-59.5" font-family="Helvetica,sans-Serif" font-size="10.00">+ Value</text>
<text text-anchor="start" x="11.5" y="-48.5" font-family="Helvetica,sans-Serif" font-size="10.00">+ MaxValue</text>
<text text-anchor="start" x="11.5" y="-37.5" font-family="Helvetica,sans-Serif" font-size="10.00">&#45; _currentValue</text>
<text text-anchor="start" x="11.5" y="-26.5" font-family="Helvetica,sans-Serif" font-size="10.00">&#45; _absoluteMaxValue</text>
<polyline fill="none" stroke="black" points="3.5,-19.5 111.5,-19.5 "/>
<text text-anchor="start" x="11.5" y="-7.5" font-family="Helvetica,sans-Serif" font-size="10.00">+ VolumeAttribute()</text>
</g>
<!-- Node2 -->
<g id="node2" class="node"><title>Node2</title>
<g id="a_node2"><a xlink:href="../../df/dc9/class_character_1_1_attribute_1_1_secondary_attribute.xhtml" target="_top" xlink:title="The Value is calculated through a given formula. ">
<polygon fill="white" stroke="black" points="0,-127.5 0,-228.5 115,-228.5 115,-127.5 0,-127.5"/>
<text text-anchor="middle" x="57.5" y="-216.5" font-family="Helvetica,sans-Serif" font-size="10.00">SecondaryAttribute</text>
<polyline fill="none" stroke="black" points="0,-209.5 115,-209.5 "/>
<text text-anchor="start" x="8" y="-197.5" font-family="Helvetica,sans-Serif" font-size="10.00">+ BaseValue</text>
<text text-anchor="start" x="8" y="-186.5" font-family="Helvetica,sans-Serif" font-size="10.00"># _formula</text>
<text text-anchor="start" x="8" y="-175.5" font-family="Helvetica,sans-Serif" font-size="10.00"># _attributes</text>
<polyline fill="none" stroke="black" points="0,-168.5 115,-168.5 "/>
<text text-anchor="start" x="8" y="-156.5" font-family="Helvetica,sans-Serif" font-size="10.00">+ Formula()</text>
<text text-anchor="start" x="8" y="-145.5" font-family="Helvetica,sans-Serif" font-size="10.00">+ SecondaryAttribute()</text>
<text text-anchor="start" x="8" y="-134.5" font-family="Helvetica,sans-Serif" font-size="10.00">+ SecondaryAttribute()</text>
</a>
</g>
</g>
<!-- Node2&#45;&gt;Node1 -->
<g id="edge1" class="edge"><title>Node2&#45;&gt;Node1</title>
<path fill="none" stroke="midnightblue" d="M57.5,-117.232C57.5,-108.236 57.5,-99.1012 57.5,-90.5165"/>
<polygon fill="none" stroke="midnightblue" points="54.0001,-117.291 57.5,-127.291 61.0001,-117.291 54.0001,-117.291"/>
</g>
<!-- Node3 -->
<g id="node3" class="node"><title>Node3</title>
<g id="a_node3"><a xlink:href="../../d3/db7/class_character_1_1_attribute_1_1_primary_attribute.xhtml" target="_top" xlink:title="Represents a simple float value. ">
<polygon fill="white" stroke="black" points="6.5,-265.5 6.5,-487.5 108.5,-487.5 108.5,-265.5 6.5,-265.5"/>
<text text-anchor="middle" x="57.5" y="-475.5" font-family="Helvetica,sans-Serif" font-size="10.00">PrimaryAttribute</text>
<polyline fill="none" stroke="black" points="6.5,-468.5 108.5,-468.5 "/>
<text text-anchor="start" x="14.5" y="-456.5" font-family="Helvetica,sans-Serif" font-size="10.00">+ Name</text>
<text text-anchor="start" x="14.5" y="-445.5" font-family="Helvetica,sans-Serif" font-size="10.00">+ BaseValue</text>
<text text-anchor="start" x="14.5" y="-434.5" font-family="Helvetica,sans-Serif" font-size="10.00">+ Value</text>
<text text-anchor="start" x="14.5" y="-423.5" font-family="Helvetica,sans-Serif" font-size="10.00">+ MaxValue</text>
<text text-anchor="start" x="14.5" y="-412.5" font-family="Helvetica,sans-Serif" font-size="10.00">+ MinValue</text>
<text text-anchor="start" x="14.5" y="-401.5" font-family="Helvetica,sans-Serif" font-size="10.00">+ Modifiers</text>
<text text-anchor="start" x="14.5" y="-390.5" font-family="Helvetica,sans-Serif" font-size="10.00">+ IsModified</text>
<text text-anchor="start" x="14.5" y="-379.5" font-family="Helvetica,sans-Serif" font-size="10.00">&#45; _name</text>
<text text-anchor="start" x="14.5" y="-368.5" font-family="Helvetica,sans-Serif" font-size="10.00">&#45; _value</text>
<text text-anchor="start" x="14.5" y="-357.5" font-family="Helvetica,sans-Serif" font-size="10.00">&#45; _minValue</text>
<text text-anchor="start" x="14.5" y="-346.5" font-family="Helvetica,sans-Serif" font-size="10.00">&#45; _maxValue</text>
<text text-anchor="start" x="14.5" y="-335.5" font-family="Helvetica,sans-Serif" font-size="10.00">&#45; _modifiers</text>
<polyline fill="none" stroke="black" points="6.5,-328.5 108.5,-328.5 "/>
<text text-anchor="start" x="14.5" y="-316.5" font-family="Helvetica,sans-Serif" font-size="10.00">+ PrimaryAttribute()</text>
<text text-anchor="start" x="14.5" y="-305.5" font-family="Helvetica,sans-Serif" font-size="10.00">+ PrimaryAttribute()</text>
<text text-anchor="start" x="14.5" y="-294.5" font-family="Helvetica,sans-Serif" font-size="10.00">+ AddModifier()</text>
<text text-anchor="start" x="14.5" y="-283.5" font-family="Helvetica,sans-Serif" font-size="10.00">+ RemoveModifier()</text>
<text text-anchor="start" x="14.5" y="-272.5" font-family="Helvetica,sans-Serif" font-size="10.00">+ ToString()</text>
</a>
</g>
</g>
<!-- Node3&#45;&gt;Node2 -->
<g id="edge2" class="edge"><title>Node3&#45;&gt;Node2</title>
<path fill="none" stroke="midnightblue" d="M57.5,-255.345C57.5,-246.093 57.5,-237.115 57.5,-228.761"/>
<polygon fill="none" stroke="midnightblue" points="54.0001,-255.474 57.5,-265.474 61.0001,-255.474 54.0001,-255.474"/>
</g>
<!-- Node4 -->
<g id="node4" class="node"><title>Node4</title>
<g id="a_node4"><a xlink:href="../../d7/df4/interface_character_1_1_attribute_1_1_i_attribute.xhtml" target="_top" xlink:title="Interface for Attributes. ">
<polygon fill="white" stroke="black" points="7.5,-524.5 7.5,-658.5 107.5,-658.5 107.5,-524.5 7.5,-524.5"/>
<text text-anchor="middle" x="57.5" y="-646.5" font-family="Helvetica,sans-Serif" font-size="10.00">IAttribute</text>
<polyline fill="none" stroke="black" points="7.5,-639.5 107.5,-639.5 "/>
<text text-anchor="start" x="15.5" y="-627.5" font-family="Helvetica,sans-Serif" font-size="10.00">+ Name</text>
<text text-anchor="start" x="15.5" y="-616.5" font-family="Helvetica,sans-Serif" font-size="10.00">+ BaseValue</text>
<text text-anchor="start" x="15.5" y="-605.5" font-family="Helvetica,sans-Serif" font-size="10.00">+ Value</text>
<text text-anchor="start" x="15.5" y="-594.5" font-family="Helvetica,sans-Serif" font-size="10.00">+ MaxValue</text>
<text text-anchor="start" x="15.5" y="-583.5" font-family="Helvetica,sans-Serif" font-size="10.00">+ MinValue</text>
<text text-anchor="start" x="15.5" y="-572.5" font-family="Helvetica,sans-Serif" font-size="10.00">+ Modifiers</text>
<text text-anchor="start" x="15.5" y="-561.5" font-family="Helvetica,sans-Serif" font-size="10.00">+ IsModified</text>
<polyline fill="none" stroke="black" points="7.5,-554.5 107.5,-554.5 "/>
<text text-anchor="start" x="15.5" y="-542.5" font-family="Helvetica,sans-Serif" font-size="10.00">+ AddModifier()</text>
<text text-anchor="start" x="15.5" y="-531.5" font-family="Helvetica,sans-Serif" font-size="10.00">+ RemoveModifier()</text>
</a>
</g>
</g>
<!-- Node4&#45;&gt;Node3 -->
<g id="edge3" class="edge"><title>Node4&#45;&gt;Node3</title>
<path fill="none" stroke="midnightblue" d="M57.5,-514.215C57.5,-505.52 57.5,-496.532 57.5,-487.51"/>
<polygon fill="none" stroke="midnightblue" points="54.0001,-514.273 57.5,-524.273 61.0001,-514.273 54.0001,-514.273"/>
</g>
</g>
</svg>
