<?xml version="1.0" encoding="UTF-8" standalone="no"?>
<!DOCTYPE svg PUBLIC "-//W3C//DTD SVG 1.1//EN"
 "http://www.w3.org/Graphics/SVG/1.1/DTD/svg11.dtd">
<!-- Generated by graphviz version 2.38.0 (20140413.2041)
 -->
<!-- Title: Use Pages: 1 -->
<svg width="537pt" height="39pt"
 viewBox="0.00 0.00 537.00 39.00" xmlns="http://www.w3.org/2000/svg" xmlns:xlink="http://www.w3.org/1999/xlink">
<g id="graph0" class="graph" transform="scale(1 1) rotate(0) translate(4 35)">
<title>Use</title>
<polygon fill="white" stroke="none" points="-4,4 -4,-35 533,-35 533,4 -4,4"/>
<!-- Node1 -->
<g id="node1" class="node"><title>Node1</title>
<polygon fill="#bfbfbf" stroke="black" points="0,-6 0,-25 34,-25 34,-6 0,-6"/>
<text text-anchor="middle" x="17" y="-13" font-family="Helvetica,sans-Serif" font-size="10.00">Use</text>
</g>
<!-- Node2 -->
<g id="node2" class="node"><title>Node2</title>
<g id="a_node2"><a xlink:href="../../d0/dd4/class_character_1_1_base_character.xhtml#a3600fb9e5435e3769e23d2d6774a223c" target="_top" xlink:title="Triggers the use of the Skill">
<polygon fill="white" stroke="black" points="70,-0.5 70,-30.5 199,-30.5 199,-0.5 70,-0.5"/>
<text text-anchor="start" x="78" y="-18.5" font-family="Helvetica,sans-Serif" font-size="10.00">Character.BaseCharacter.</text>
<text text-anchor="middle" x="134.5" y="-7.5" font-family="Helvetica,sans-Serif" font-size="10.00">UseMagicSkill</text>
</a>
</g>
</g>
<!-- Node1&#45;&gt;Node2 -->
<g id="edge1" class="edge"><title>Node1&#45;&gt;Node2</title>
<path fill="none" stroke="midnightblue" d="M44.2122,-15.5C51.9772,-15.5 60.8393,-15.5 69.8955,-15.5"/>
<polygon fill="midnightblue" stroke="midnightblue" points="44.0598,-12.0001 34.0598,-15.5 44.0597,-19.0001 44.0598,-12.0001"/>
</g>
<!-- Node3 -->
<g id="node3" class="node"><title>Node3</title>
<g id="a_node3"><a xlink:href="../../d0/dd4/class_character_1_1_base_character.xhtml#a659e03205f114d34aaf956e0a04ecf0e" target="_top" xlink:title="A countdown before the Skill takes action.">
<polygon fill="white" stroke="black" points="235,-0.5 235,-30.5 364,-30.5 364,-0.5 235,-0.5"/>
<text text-anchor="start" x="243" y="-18.5" font-family="Helvetica,sans-Serif" font-size="10.00">Character.BaseCharacter.</text>
<text text-anchor="middle" x="299.5" y="-7.5" font-family="Helvetica,sans-Serif" font-size="10.00">PreUseCountdown</text>
</a>
</g>
</g>
<!-- Node2&#45;&gt;Node3 -->
<g id="edge2" class="edge"><title>Node2&#45;&gt;Node3</title>
<path fill="none" stroke="midnightblue" d="M209.688,-15.5C218.141,-15.5 226.701,-15.5 234.998,-15.5"/>
<polygon fill="midnightblue" stroke="midnightblue" points="209.454,-12.0001 199.454,-15.5 209.454,-19.0001 209.454,-12.0001"/>
</g>
<!-- Node4 -->
<g id="node4" class="node"><title>Node4</title>
<g id="a_node4"><a xlink:href="../../d0/dd4/class_character_1_1_base_character.xhtml#a0e5eb777b972a974cdedad228429369e" target="_top" xlink:title="Trigger the given MagicSkill.">
<polygon fill="white" stroke="black" points="400,-0.5 400,-30.5 529,-30.5 529,-0.5 400,-0.5"/>
<text text-anchor="start" x="408" y="-18.5" font-family="Helvetica,sans-Serif" font-size="10.00">Character.BaseCharacter.</text>
<text text-anchor="middle" x="464.5" y="-7.5" font-family="Helvetica,sans-Serif" font-size="10.00">TriggerMagicSkill</text>
</a>
</g>
</g>
<!-- Node3&#45;&gt;Node4 -->
<g id="edge3" class="edge"><title>Node3&#45;&gt;Node4</title>
<path fill="none" stroke="midnightblue" d="M374.688,-15.5C383.141,-15.5 391.701,-15.5 399.998,-15.5"/>
<polygon fill="midnightblue" stroke="midnightblue" points="374.454,-12.0001 364.454,-15.5 374.454,-19.0001 374.454,-12.0001"/>
</g>
</g>
</svg>
