<?xml version="1.0" encoding="UTF-8" standalone="no"?>
<!DOCTYPE svg PUBLIC "-//W3C//DTD SVG 1.1//EN"
 "http://www.w3.org/Graphics/SVG/1.1/DTD/svg11.dtd">
<!-- Generated by graphviz version 2.38.0 (20140413.2041)
 -->
<!-- Title: ISkill Pages: 1 -->
<svg width="242pt" height="507pt"
 viewBox="0.00 0.00 241.50 507.00" xmlns="http://www.w3.org/2000/svg" xmlns:xlink="http://www.w3.org/1999/xlink">
<g id="graph0" class="graph" transform="scale(1 1) rotate(0) translate(4 503)">
<title>ISkill</title>
<polygon fill="white" stroke="none" points="-4,4 -4,-503 237.5,-503 237.5,4 -4,4"/>
<!-- Node1 -->
<g id="node1" class="node"><title>Node1</title>
<polygon fill="#bfbfbf" stroke="black" points="63,-386.5 63,-498.5 152,-498.5 152,-386.5 63,-386.5"/>
<text text-anchor="middle" x="107.5" y="-486.5" font-family="Helvetica,sans-Serif" font-size="10.00">ISkill</text>
<polyline fill="none" stroke="black" points="63,-479.5 152,-479.5 "/>
<text text-anchor="start" x="71" y="-467.5" font-family="Helvetica,sans-Serif" font-size="10.00">+ Id</text>
<text text-anchor="start" x="71" y="-456.5" font-family="Helvetica,sans-Serif" font-size="10.00">+ Name</text>
<text text-anchor="start" x="71" y="-445.5" font-family="Helvetica,sans-Serif" font-size="10.00">+ Description</text>
<text text-anchor="start" x="71" y="-434.5" font-family="Helvetica,sans-Serif" font-size="10.00">+ PreUseTime</text>
<text text-anchor="start" x="71" y="-423.5" font-family="Helvetica,sans-Serif" font-size="10.00">+ CooldownTime</text>
<polyline fill="none" stroke="black" points="63,-416.5 152,-416.5 "/>
<text text-anchor="start" x="71" y="-404.5" font-family="Helvetica,sans-Serif" font-size="10.00">+ Match()</text>
<text text-anchor="start" x="71" y="-393.5" font-family="Helvetica,sans-Serif" font-size="10.00">+ Use()</text>
</g>
<!-- Node2 -->
<g id="node2" class="node"><title>Node2</title>
<g id="a_node2"><a xlink:href="../../df/dff/interface_character_1_1_skill_1_1_i_combat_skill.xhtml" target="_top" xlink:title="A Skill to be used as an Attack in Combat.">
<polygon fill="white" stroke="black" points="19,-292.5 19,-349.5 90,-349.5 90,-292.5 19,-292.5"/>
<text text-anchor="middle" x="54.5" y="-337.5" font-family="Helvetica,sans-Serif" font-size="10.00">ICombatSkill</text>
<polyline fill="none" stroke="black" points="19,-330.5 90,-330.5 "/>
<text text-anchor="start" x="27" y="-318.5" font-family="Helvetica,sans-Serif" font-size="10.00">+ Damage</text>
<polyline fill="none" stroke="black" points="19,-311.5 90,-311.5 "/>
<text text-anchor="middle" x="54.5" y="-299.5" font-family="Helvetica,sans-Serif" font-size="10.00"> </text>
</a>
</g>
</g>
<!-- Node1&#45;&gt;Node2 -->
<g id="edge1" class="edge"><title>Node1&#45;&gt;Node2</title>
<path fill="none" stroke="midnightblue" d="M78.9109,-377.04C74.6365,-367.402 70.435,-357.929 66.755,-349.631"/>
<polygon fill="none" stroke="midnightblue" points="75.763,-378.575 83.0168,-386.297 82.1619,-375.737 75.763,-378.575"/>
</g>
<!-- Node4 -->
<g id="node4" class="node"><title>Node4</title>
<g id="a_node4"><a xlink:href="../../d1/d20/interface_character_1_1_skill_1_1_i_magic_skill.xhtml" target="_top" xlink:title="A magic Skill costs magic energy on each use.">
<polygon fill="white" stroke="black" points="128.5,-292.5 128.5,-349.5 192.5,-349.5 192.5,-292.5 128.5,-292.5"/>
<text text-anchor="middle" x="160.5" y="-337.5" font-family="Helvetica,sans-Serif" font-size="10.00">IMagicSkill</text>
<polyline fill="none" stroke="black" points="128.5,-330.5 192.5,-330.5 "/>
<text text-anchor="start" x="136.5" y="-318.5" font-family="Helvetica,sans-Serif" font-size="10.00">+ Cost</text>
<polyline fill="none" stroke="black" points="128.5,-311.5 192.5,-311.5 "/>
<text text-anchor="middle" x="160.5" y="-299.5" font-family="Helvetica,sans-Serif" font-size="10.00"> </text>
</a>
</g>
</g>
<!-- Node1&#45;&gt;Node4 -->
<g id="edge3" class="edge"><title>Node1&#45;&gt;Node4</title>
<path fill="none" stroke="midnightblue" d="M136.089,-377.04C140.364,-367.402 144.565,-357.929 148.245,-349.631"/>
<polygon fill="none" stroke="midnightblue" points="132.838,-375.737 131.983,-386.297 139.237,-378.575 132.838,-375.737"/>
</g>
<!-- Node3 -->
<g id="node3" class="node"><title>Node3</title>
<g id="a_node3"><a xlink:href="../../d7/ddb/class_character_1_1_skill_1_1_melee_skill.xhtml" target="_top" xlink:title="{MeleeSkill\n|+ Id\l+ Name\l+ Description\l+ CooldownTime\l+ PreUseTime\l+ Damage\l&#45; _id\l&#45; _name\l&#45; _description\l&#45; _preUseTime\l&#45; _cooldownTime\l&#45; _damage\l|+ MeleeSkill()\l+ Match()\l+ Use()\l}">
<polygon fill="white" stroke="black" points="0,-28 0,-228 89,-228 89,-28 0,-28"/>
<text text-anchor="middle" x="44.5" y="-216" font-family="Helvetica,sans-Serif" font-size="10.00">MeleeSkill</text>
<polyline fill="none" stroke="black" points="0,-209 89,-209 "/>
<text text-anchor="start" x="8" y="-197" font-family="Helvetica,sans-Serif" font-size="10.00">+ Id</text>
<text text-anchor="start" x="8" y="-186" font-family="Helvetica,sans-Serif" font-size="10.00">+ Name</text>
<text text-anchor="start" x="8" y="-175" font-family="Helvetica,sans-Serif" font-size="10.00">+ Description</text>
<text text-anchor="start" x="8" y="-164" font-family="Helvetica,sans-Serif" font-size="10.00">+ CooldownTime</text>
<text text-anchor="start" x="8" y="-153" font-family="Helvetica,sans-Serif" font-size="10.00">+ PreUseTime</text>
<text text-anchor="start" x="8" y="-142" font-family="Helvetica,sans-Serif" font-size="10.00">+ Damage</text>
<text text-anchor="start" x="8" y="-131" font-family="Helvetica,sans-Serif" font-size="10.00">&#45; _id</text>
<text text-anchor="start" x="8" y="-120" font-family="Helvetica,sans-Serif" font-size="10.00">&#45; _name</text>
<text text-anchor="start" x="8" y="-109" font-family="Helvetica,sans-Serif" font-size="10.00">&#45; _description</text>
<text text-anchor="start" x="8" y="-98" font-family="Helvetica,sans-Serif" font-size="10.00">&#45; _preUseTime</text>
<text text-anchor="start" x="8" y="-87" font-family="Helvetica,sans-Serif" font-size="10.00">&#45; _cooldownTime</text>
<text text-anchor="start" x="8" y="-76" font-family="Helvetica,sans-Serif" font-size="10.00">&#45; _damage</text>
<polyline fill="none" stroke="black" points="0,-69 89,-69 "/>
<text text-anchor="start" x="8" y="-57" font-family="Helvetica,sans-Serif" font-size="10.00">+ MeleeSkill()</text>
<text text-anchor="start" x="8" y="-46" font-family="Helvetica,sans-Serif" font-size="10.00">+ Match()</text>
<text text-anchor="start" x="8" y="-35" font-family="Helvetica,sans-Serif" font-size="10.00">+ Use()</text>
</a>
</g>
</g>
<!-- Node2&#45;&gt;Node3 -->
<g id="edge2" class="edge"><title>Node2&#45;&gt;Node3</title>
<path fill="none" stroke="midnightblue" d="M52.5088,-281.969C51.6907,-266.342 50.7015,-247.448 49.7015,-228.348"/>
<polygon fill="none" stroke="midnightblue" points="49.0278,-282.424 53.0459,-292.227 56.0182,-282.058 49.0278,-282.424"/>
</g>
<!-- Node5 -->
<g id="node5" class="node"><title>Node5</title>
<g id="a_node5"><a xlink:href="../../d2/d37/class_character_1_1_skill_1_1_passive_magic_skill.xhtml" target="_top" xlink:title="A passive Skill acts on the User itself.">
<polygon fill="white" stroke="black" points="107.5,-0.5 107.5,-255.5 233.5,-255.5 233.5,-0.5 107.5,-0.5"/>
<text text-anchor="middle" x="170.5" y="-243.5" font-family="Helvetica,sans-Serif" font-size="10.00">PassiveMagicSkill</text>
<polyline fill="none" stroke="black" points="107.5,-236.5 233.5,-236.5 "/>
<text text-anchor="start" x="115.5" y="-224.5" font-family="Helvetica,sans-Serif" font-size="10.00">+ Id</text>
<text text-anchor="start" x="115.5" y="-213.5" font-family="Helvetica,sans-Serif" font-size="10.00">+ Name</text>
<text text-anchor="start" x="115.5" y="-202.5" font-family="Helvetica,sans-Serif" font-size="10.00">+ Description</text>
<text text-anchor="start" x="115.5" y="-191.5" font-family="Helvetica,sans-Serif" font-size="10.00">+ Cost</text>
<text text-anchor="start" x="115.5" y="-180.5" font-family="Helvetica,sans-Serif" font-size="10.00">+ CooldownTime</text>
<text text-anchor="start" x="115.5" y="-169.5" font-family="Helvetica,sans-Serif" font-size="10.00">+ PreUseTime</text>
<text text-anchor="start" x="115.5" y="-158.5" font-family="Helvetica,sans-Serif" font-size="10.00">&#45; _id</text>
<text text-anchor="start" x="115.5" y="-147.5" font-family="Helvetica,sans-Serif" font-size="10.00">&#45; _name</text>
<text text-anchor="start" x="115.5" y="-136.5" font-family="Helvetica,sans-Serif" font-size="10.00">&#45; _description</text>
<text text-anchor="start" x="115.5" y="-125.5" font-family="Helvetica,sans-Serif" font-size="10.00">&#45; _cost</text>
<text text-anchor="start" x="115.5" y="-114.5" font-family="Helvetica,sans-Serif" font-size="10.00">&#45; _duration</text>
<text text-anchor="start" x="115.5" y="-103.5" font-family="Helvetica,sans-Serif" font-size="10.00">&#45; _preUseTime</text>
<text text-anchor="start" x="115.5" y="-92.5" font-family="Helvetica,sans-Serif" font-size="10.00">&#45; _cooldownTime</text>
<text text-anchor="start" x="115.5" y="-81.5" font-family="Helvetica,sans-Serif" font-size="10.00">&#45; _endTime</text>
<text text-anchor="start" x="115.5" y="-70.5" font-family="Helvetica,sans-Serif" font-size="10.00">&#45; _modifierValue</text>
<text text-anchor="start" x="115.5" y="-59.5" font-family="Helvetica,sans-Serif" font-size="10.00">&#45; _modifiedAttributeName</text>
<polyline fill="none" stroke="black" points="107.5,-52.5 233.5,-52.5 "/>
<text text-anchor="start" x="115.5" y="-40.5" font-family="Helvetica,sans-Serif" font-size="10.00">+ PassiveMagicSkill()</text>
<text text-anchor="start" x="115.5" y="-29.5" font-family="Helvetica,sans-Serif" font-size="10.00">+ Match()</text>
<text text-anchor="start" x="115.5" y="-18.5" font-family="Helvetica,sans-Serif" font-size="10.00">+ Use()</text>
<text text-anchor="start" x="115.5" y="-7.5" font-family="Helvetica,sans-Serif" font-size="10.00">&#45; GetModifier()</text>
</a>
</g>
</g>
<!-- Node4&#45;&gt;Node5 -->
<g id="edge4" class="edge"><title>Node4&#45;&gt;Node5</title>
<path fill="none" stroke="midnightblue" d="M162.479,-282.196C162.9,-274.157 163.367,-265.246 163.857,-255.881"/>
<polygon fill="none" stroke="midnightblue" points="158.982,-282.058 161.954,-292.227 165.972,-282.424 158.982,-282.058"/>
</g>
</g>
</svg>
