<?xml version="1.0" encoding="UTF-8" standalone="no"?>
<!DOCTYPE svg PUBLIC "-//W3C//DTD SVG 1.1//EN"
 "http://www.w3.org/Graphics/SVG/1.1/DTD/svg11.dtd">
<!-- Generated by graphviz version 2.26.3 (20100126.1600)
 -->
<!-- Title: G Pages: 1 -->
<svg width="216pt" height="290pt"
 viewBox="0.00 0.00 216.00 290.00" xmlns="http://www.w3.org/2000/svg" xmlns:xlink="http://www.w3.org/1999/xlink">
<g id="graph1" class="graph" transform="scale(1 1) rotate(0) translate(4 286)">
<title>G</title>
<polygon fill="white" stroke="white" points="-4,5 -4,-286 213,-286 213,5 -4,5"/>
<!-- Node1 -->
<g id="node1" class="node"><title>Node1</title>
<polygon fill="#bfbfbf" stroke="black" points="64.5,-192.5 64.5,-281.5 135.5,-281.5 135.5,-192.5 64.5,-192.5"/>
<text text-anchor="middle" x="100" y="-268.5" font-family="Helvetica,sans-Serif" font-size="10.00">IInventory</text>
<polyline fill="none" stroke="black" points="64.5,-260.5 135.5,-260.5 "/>
<text text-anchor="start" x="72.5" y="-247.5" font-family="Helvetica,sans-Serif" font-size="10.00">+ Items</text>
<text text-anchor="start" x="72.5" y="-234.5" font-family="Helvetica,sans-Serif" font-size="10.00">+ Quantities</text>
<text text-anchor="start" x="72.5" y="-221.5" font-family="Helvetica,sans-Serif" font-size="10.00">+ ItemCount</text>
<polyline fill="none" stroke="black" points="64.5,-213.5 135.5,-213.5 "/>
<text text-anchor="middle" x="100" y="-200.5" font-family="Helvetica,sans-Serif" font-size="10.00"> </text>
</g>
<!-- Node2 -->
<g id="node3" class="node"><title>Node2</title>
<a xlink:href="../../d7/d0f/class_action_rpg_kit_1_1_character_1_1_player_inventory.xhtml" target="_top" xlink:title="Inventory allows to add and remove items.">
<polygon fill="white" stroke="black" points="-0.5,-1 -0.5,-155 88.5,-155 88.5,-1 -0.5,-1"/>
<text text-anchor="middle" x="44" y="-142" font-family="Helvetica,sans-Serif" font-size="10.00">PlayerInventory</text>
<polyline fill="none" stroke="black" points="-0.5,-134 88.5,-134 "/>
<text text-anchor="start" x="7.5" y="-121" font-family="Helvetica,sans-Serif" font-size="10.00">+ Items</text>
<text text-anchor="start" x="7.5" y="-108" font-family="Helvetica,sans-Serif" font-size="10.00">+ Quantities</text>
<text text-anchor="start" x="7.5" y="-95" font-family="Helvetica,sans-Serif" font-size="10.00">+ ItemCount</text>
<text text-anchor="start" x="7.5" y="-82" font-family="Helvetica,sans-Serif" font-size="10.00">&#45; _items</text>
<text text-anchor="start" x="7.5" y="-69" font-family="Helvetica,sans-Serif" font-size="10.00">&#45; _quantities</text>
<polyline fill="none" stroke="black" points="-0.5,-61 88.5,-61 "/>
<text text-anchor="start" x="7.5" y="-48" font-family="Helvetica,sans-Serif" font-size="10.00">+ AddItem()</text>
<text text-anchor="start" x="7.5" y="-35" font-family="Helvetica,sans-Serif" font-size="10.00">+ RemoveItem()</text>
<text text-anchor="start" x="7.5" y="-22" font-family="Helvetica,sans-Serif" font-size="10.00">+ AddInventory()</text>
<text text-anchor="start" x="7.5" y="-9" font-family="Helvetica,sans-Serif" font-size="10.00">+ ToString()</text>
</a>
</g>
<!-- Node1&#45;&gt;Node2 -->
<g id="edge2" class="edge"><title>Node1&#45;&gt;Node2</title>
<path fill="none" stroke="midnightblue" d="M80.9209,-182.829C77.783,-173.919 74.4781,-164.536 71.1881,-155.195"/>
<polygon fill="none" stroke="midnightblue" points="77.6286,-184.017 84.2519,-192.287 84.231,-181.692 77.6286,-184.017"/>
</g>
<!-- Node3 -->
<g id="node5" class="node"><title>Node3</title>
<a xlink:href="../../de/def/class_action_rpg_kit_1_1_character_1_1_simple_inventory.xhtml" target="_top" xlink:title="This inventory holds afixed size array of items.">
<polygon fill="white" stroke="black" points="106,-7.5 106,-148.5 208,-148.5 208,-7.5 106,-7.5"/>
<text text-anchor="middle" x="157" y="-135.5" font-family="Helvetica,sans-Serif" font-size="10.00">SimpleInventory</text>
<polyline fill="none" stroke="black" points="106,-127.5 208,-127.5 "/>
<text text-anchor="start" x="114" y="-114.5" font-family="Helvetica,sans-Serif" font-size="10.00">+ Items</text>
<text text-anchor="start" x="114" y="-101.5" font-family="Helvetica,sans-Serif" font-size="10.00">+ Quantities</text>
<text text-anchor="start" x="114" y="-88.5" font-family="Helvetica,sans-Serif" font-size="10.00">+ ItemCount</text>
<text text-anchor="start" x="114" y="-75.5" font-family="Helvetica,sans-Serif" font-size="10.00">&#45; _items</text>
<text text-anchor="start" x="114" y="-62.5" font-family="Helvetica,sans-Serif" font-size="10.00">&#45; _quantities</text>
<polyline fill="none" stroke="black" points="106,-54.5 208,-54.5 "/>
<text text-anchor="start" x="114" y="-41.5" font-family="Helvetica,sans-Serif" font-size="10.00">+ SimpleInventory()</text>
<text text-anchor="start" x="114" y="-28.5" font-family="Helvetica,sans-Serif" font-size="10.00">+ SimpleInventory()</text>
<text text-anchor="start" x="114" y="-15.5" font-family="Helvetica,sans-Serif" font-size="10.00">+ ToString()</text>
</a>
</g>
<!-- Node1&#45;&gt;Node3 -->
<g id="edge4" class="edge"><title>Node1&#45;&gt;Node3</title>
<path fill="none" stroke="midnightblue" d="M119.426,-182.811C123.378,-171.788 127.589,-160.041 131.71,-148.546"/>
<polygon fill="none" stroke="midnightblue" points="116.109,-181.692 116.029,-192.287 122.699,-184.054 116.109,-181.692"/>
</g>
</g>
</svg>
