<?xml version="1.0" encoding="UTF-8" standalone="no"?>
<!DOCTYPE svg PUBLIC "-//W3C//DTD SVG 1.1//EN"
 "http://www.w3.org/Graphics/SVG/1.1/DTD/svg11.dtd">
<!-- Generated by graphviz version 2.26.3 (20100126.1600)
 -->
<!-- Title: G Pages: 1 -->
<svg width="216pt" height="342pt"
 viewBox="0.00 0.00 216.00 342.00" xmlns="http://www.w3.org/2000/svg" xmlns:xlink="http://www.w3.org/1999/xlink">
<g id="graph1" class="graph" transform="scale(1 1) rotate(0) translate(4 338)">
<title>G</title>
<polygon fill="white" stroke="white" points="-4,5 -4,-338 213,-338 213,5 -4,5"/>
<!-- Node1 -->
<g id="node1" class="node"><title>Node1</title>
<polygon fill="#bfbfbf" stroke="black" points="56,-218.5 56,-333.5 144,-333.5 144,-218.5 56,-218.5"/>
<text text-anchor="middle" x="100" y="-320.5" font-family="Helvetica,sans-Serif" font-size="10.00">IInventory</text>
<polyline fill="none" stroke="black" points="56,-312.5 144,-312.5 "/>
<text text-anchor="start" x="64" y="-299.5" font-family="Helvetica,sans-Serif" font-size="10.00">+ Items</text>
<text text-anchor="start" x="64" y="-286.5" font-family="Helvetica,sans-Serif" font-size="10.00">+ Quantities</text>
<text text-anchor="start" x="64" y="-273.5" font-family="Helvetica,sans-Serif" font-size="10.00">+ ItemCount</text>
<polyline fill="none" stroke="black" points="56,-265.5 144,-265.5 "/>
<text text-anchor="start" x="64" y="-252.5" font-family="Helvetica,sans-Serif" font-size="10.00">+ AddItem()</text>
<text text-anchor="start" x="64" y="-239.5" font-family="Helvetica,sans-Serif" font-size="10.00">+ RemoveItem()</text>
<text text-anchor="start" x="64" y="-226.5" font-family="Helvetica,sans-Serif" font-size="10.00">+ GetQuantity()</text>
</g>
<!-- Node2 -->
<g id="node3" class="node"><title>Node2</title>
<a xlink:href="../../d7/d0f/class_action_rpg_kit_1_1_character_1_1_player_inventory.xhtml" target="_top" xlink:title="Inventory allows to add and remove items.">
<polygon fill="white" stroke="black" points="-0.5,-7.5 -0.5,-174.5 88.5,-174.5 88.5,-7.5 -0.5,-7.5"/>
<text text-anchor="middle" x="44" y="-161.5" font-family="Helvetica,sans-Serif" font-size="10.00">PlayerInventory</text>
<polyline fill="none" stroke="black" points="-0.5,-153.5 88.5,-153.5 "/>
<text text-anchor="start" x="7.5" y="-140.5" font-family="Helvetica,sans-Serif" font-size="10.00">+ Items</text>
<text text-anchor="start" x="7.5" y="-127.5" font-family="Helvetica,sans-Serif" font-size="10.00">+ Quantities</text>
<text text-anchor="start" x="7.5" y="-114.5" font-family="Helvetica,sans-Serif" font-size="10.00">+ ItemCount</text>
<text text-anchor="start" x="7.5" y="-101.5" font-family="Helvetica,sans-Serif" font-size="10.00">&#45; _items</text>
<text text-anchor="start" x="7.5" y="-88.5" font-family="Helvetica,sans-Serif" font-size="10.00">&#45; _quantities</text>
<polyline fill="none" stroke="black" points="-0.5,-80.5 88.5,-80.5 "/>
<text text-anchor="start" x="7.5" y="-67.5" font-family="Helvetica,sans-Serif" font-size="10.00">+ GetQuantity()</text>
<text text-anchor="start" x="7.5" y="-54.5" font-family="Helvetica,sans-Serif" font-size="10.00">+ AddItem()</text>
<text text-anchor="start" x="7.5" y="-41.5" font-family="Helvetica,sans-Serif" font-size="10.00">+ RemoveItem()</text>
<text text-anchor="start" x="7.5" y="-28.5" font-family="Helvetica,sans-Serif" font-size="10.00">+ AddInventory()</text>
<text text-anchor="start" x="7.5" y="-15.5" font-family="Helvetica,sans-Serif" font-size="10.00">+ ToString()</text>
</a>
</g>
<!-- Node1&#45;&gt;Node2 -->
<g id="edge2" class="edge"><title>Node1&#45;&gt;Node2</title>
<path fill="none" stroke="midnightblue" d="M79.6773,-208.862C76.3117,-197.744 72.7857,-186.096 69.3152,-174.631"/>
<polygon fill="none" stroke="midnightblue" points="76.3411,-209.922 82.5882,-218.479 83.0408,-207.894 76.3411,-209.922"/>
</g>
<!-- Node3 -->
<g id="node5" class="node"><title>Node3</title>
<a xlink:href="../../de/def/class_action_rpg_kit_1_1_character_1_1_simple_inventory.xhtml" target="_top" xlink:title="This inventory holds afixed size array of items.">
<polygon fill="white" stroke="black" points="106,-1 106,-181 208,-181 208,-1 106,-1"/>
<text text-anchor="middle" x="157" y="-168" font-family="Helvetica,sans-Serif" font-size="10.00">SimpleInventory</text>
<polyline fill="none" stroke="black" points="106,-160 208,-160 "/>
<text text-anchor="start" x="114" y="-147" font-family="Helvetica,sans-Serif" font-size="10.00">+ Items</text>
<text text-anchor="start" x="114" y="-134" font-family="Helvetica,sans-Serif" font-size="10.00">+ Quantities</text>
<text text-anchor="start" x="114" y="-121" font-family="Helvetica,sans-Serif" font-size="10.00">+ ItemCount</text>
<text text-anchor="start" x="114" y="-108" font-family="Helvetica,sans-Serif" font-size="10.00">&#45; _items</text>
<text text-anchor="start" x="114" y="-95" font-family="Helvetica,sans-Serif" font-size="10.00">&#45; _quantities</text>
<polyline fill="none" stroke="black" points="106,-87 208,-87 "/>
<text text-anchor="start" x="114" y="-74" font-family="Helvetica,sans-Serif" font-size="10.00">+ SimpleInventory()</text>
<text text-anchor="start" x="114" y="-61" font-family="Helvetica,sans-Serif" font-size="10.00">+ SimpleInventory()</text>
<text text-anchor="start" x="114" y="-48" font-family="Helvetica,sans-Serif" font-size="10.00">+ GetQuantity()</text>
<text text-anchor="start" x="114" y="-35" font-family="Helvetica,sans-Serif" font-size="10.00">+ AddItem()</text>
<text text-anchor="start" x="114" y="-22" font-family="Helvetica,sans-Serif" font-size="10.00">+ RemoveItem()</text>
<text text-anchor="start" x="114" y="-9" font-family="Helvetica,sans-Serif" font-size="10.00">+ ToString()</text>
</a>
</g>
<!-- Node1&#45;&gt;Node3 -->
<g id="edge4" class="edge"><title>Node1&#45;&gt;Node3</title>
<path fill="none" stroke="midnightblue" d="M120.693,-208.839C123.474,-199.813 126.362,-190.438 129.241,-181.095"/>
<polygon fill="none" stroke="midnightblue" points="117.322,-207.892 117.723,-218.479 124.012,-209.953 117.322,-207.892"/>
</g>
</g>
</svg>
