<?xml version="1.0" encoding="UTF-8" standalone="no"?>
<!DOCTYPE svg PUBLIC "-//W3C//DTD SVG 1.1//EN"
 "http://www.w3.org/Graphics/SVG/1.1/DTD/svg11.dtd">
<!-- Generated by graphviz version 2.26.3 (20100126.1600)
 -->
<!-- Title: G Pages: 1 -->
<svg width="196pt" height="186pt"
 viewBox="0.00 0.00 196.00 186.00" xmlns="http://www.w3.org/2000/svg" xmlns:xlink="http://www.w3.org/1999/xlink">
<g id="graph1" class="graph" transform="scale(1 1) rotate(0) translate(4 182)">
<title>G</title>
<polygon fill="white" stroke="white" points="-4,5 -4,-182 193,-182 193,5 -4,5"/>
<!-- Node1 -->
<g id="node1" class="node"><title>Node1</title>
<polygon fill="#bfbfbf" stroke="black" points="63,-114.5 63,-177.5 123,-177.5 123,-114.5 63,-114.5"/>
<text text-anchor="middle" x="93" y="-164.5" font-family="Helvetica,sans-Serif" font-size="10.00">IInventory</text>
<polyline fill="none" stroke="black" points="63,-156.5 123,-156.5 "/>
<text text-anchor="start" x="71" y="-143.5" font-family="Helvetica,sans-Serif" font-size="10.00">+ Items</text>
<polyline fill="none" stroke="black" points="63,-135.5 123,-135.5 "/>
<text text-anchor="middle" x="93" y="-122.5" font-family="Helvetica,sans-Serif" font-size="10.00"> </text>
</g>
<!-- Node2 -->
<g id="node3" class="node"><title>Node2</title>
<a xlink:href="../../d7/d0f/class_action_rpg_kit_1_1_character_1_1_player_inventory.xhtml" target="_top" xlink:title="Inventory allows to add and remove items.">
<polygon fill="white" stroke="black" points="-0.5,-1 -0.5,-77 84.5,-77 84.5,-1 -0.5,-1"/>
<text text-anchor="middle" x="42" y="-64" font-family="Helvetica,sans-Serif" font-size="10.00">PlayerInventory</text>
<polyline fill="none" stroke="black" points="-0.5,-56 84.5,-56 "/>
<text text-anchor="start" x="7.5" y="-43" font-family="Helvetica,sans-Serif" font-size="10.00">+ Items</text>
<text text-anchor="start" x="7.5" y="-30" font-family="Helvetica,sans-Serif" font-size="10.00">&#45; _items</text>
<polyline fill="none" stroke="black" points="-0.5,-22 84.5,-22 "/>
<text text-anchor="middle" x="42" y="-9" font-family="Helvetica,sans-Serif" font-size="10.00"> </text>
</a>
</g>
<!-- Node1&#45;&gt;Node2 -->
<g id="edge2" class="edge"><title>Node1&#45;&gt;Node2</title>
<path fill="none" stroke="midnightblue" d="M73.6566,-105.417C69.2299,-96.1293 64.5398,-86.2895 60.1647,-77.1103"/>
<polygon fill="none" stroke="midnightblue" points="70.512,-106.954 77.9742,-114.475 76.831,-103.942 70.512,-106.954"/>
</g>
<!-- Node3 -->
<g id="node5" class="node"><title>Node3</title>
<a xlink:href="../../de/def/class_action_rpg_kit_1_1_character_1_1_simple_inventory.xhtml" target="_top" xlink:title="This inventory holds afixed size array of items.">
<polygon fill="white" stroke="black" points="101.5,-1 101.5,-77 188.5,-77 188.5,-1 101.5,-1"/>
<text text-anchor="middle" x="145" y="-64" font-family="Helvetica,sans-Serif" font-size="10.00">SimpleInventory</text>
<polyline fill="none" stroke="black" points="101.5,-56 188.5,-56 "/>
<text text-anchor="start" x="109.5" y="-43" font-family="Helvetica,sans-Serif" font-size="10.00">+ Items</text>
<text text-anchor="start" x="109.5" y="-30" font-family="Helvetica,sans-Serif" font-size="10.00">&#45; _items</text>
<polyline fill="none" stroke="black" points="101.5,-22 188.5,-22 "/>
<text text-anchor="middle" x="145" y="-9" font-family="Helvetica,sans-Serif" font-size="10.00"> </text>
</a>
</g>
<!-- Node1&#45;&gt;Node3 -->
<g id="edge4" class="edge"><title>Node1&#45;&gt;Node3</title>
<path fill="none" stroke="midnightblue" d="M112.723,-105.417C117.236,-96.1293 122.018,-86.2895 126.479,-77.1103"/>
<polygon fill="none" stroke="midnightblue" points="109.544,-103.951 108.32,-114.475 115.839,-107.011 109.544,-103.951"/>
</g>
</g>
</svg>
