<?xml version="1.0" encoding="UTF-8" standalone="no"?>
<!DOCTYPE svg PUBLIC "-//W3C//DTD SVG 1.1//EN"
 "http://www.w3.org/Graphics/SVG/1.1/DTD/svg11.dtd">
<!-- Generated by graphviz version 2.38.0 (20140413.2041)
 -->
<!-- Title: Core Pages: 1 -->
<svg width="332pt" height="111pt"
 viewBox="0.00 0.00 332.00 111.00" xmlns="http://www.w3.org/2000/svg" xmlns:xlink="http://www.w3.org/1999/xlink">
<g id="graph0" class="graph" transform="scale(1 1) rotate(0) translate(4 107)">
<title>Core</title>
<polygon fill="white" stroke="none" points="-4,4 -4,-107 328,-107 328,4 -4,4"/>
<g id="clust1" class="cluster"><title>clusterdir_9ecb837a21b60474ce98456d518a780a</title>
<g id="a_clust1"><a xlink:href="dir_9ecb837a21b60474ce98456d518a780a.xhtml" target="_top" xlink:title="ActionRpgKit">
<polygon fill="#ddddee" stroke="black" points="8,-8 8,-95 316,-95 316,-8 8,-8"/>
<text text-anchor="middle" x="162" y="-83" font-family="Helvetica,sans-Serif" font-size="10.00">ActionRpgKit</text>
</a>
</g>
</g>
<g id="clust2" class="cluster"><title>clusterdir_08cc5c503820d31914a2f2729a36eee6</title>
<g id="a_clust2"><a xlink:href="dir_08cc5c503820d31914a2f2729a36eee6.xhtml" target="_top">
<polygon fill="#eeeeff" stroke="black" points="16,-16 16,-68 308,-68 308,-16 16,-16"/>
</a>
</g>
</g>
<!-- dir_08cc5c503820d31914a2f2729a36eee6 -->
<g id="node1" class="node"><title>dir_08cc5c503820d31914a2f2729a36eee6</title>
<text text-anchor="middle" x="273" y="-39.5" font-family="Helvetica,sans-Serif" font-size="10.00">Core</text>
</g>
<!-- dir_51aa3327c24c42ac0a4d2f2ce0d4381c -->
<g id="node2" class="node"><title>dir_51aa3327c24c42ac0a4d2f2ce0d4381c</title>
<g id="a_node2"><a xlink:href="dir_51aa3327c24c42ac0a4d2f2ce0d4381c.xhtml" target="_top" xlink:title="Character">
<polygon fill="white" stroke="black" points="227.5,-60 168.5,-60 168.5,-24 227.5,-24 227.5,-60"/>
<text text-anchor="middle" x="198" y="-39.5" font-family="Helvetica,sans-Serif" font-size="10.00">Character</text>
</a>
</g>
</g>
<!-- dir_8207dc692c6f22639351b525b75cafa5 -->
<g id="node3" class="node"><title>dir_8207dc692c6f22639351b525b75cafa5</title>
<g id="a_node3"><a xlink:href="dir_8207dc692c6f22639351b525b75cafa5.xhtml" target="_top" xlink:title="Item">
<polygon fill="white" stroke="black" points="150,-60 96,-60 96,-24 150,-24 150,-60"/>
<text text-anchor="middle" x="123" y="-39.5" font-family="Helvetica,sans-Serif" font-size="10.00">Item</text>
</a>
</g>
</g>
<!-- dir_4739576f810d48e6e0c06f46288922b6 -->
<g id="node4" class="node"><title>dir_4739576f810d48e6e0c06f46288922b6</title>
<g id="a_node4"><a xlink:href="dir_4739576f810d48e6e0c06f46288922b6.xhtml" target="_top" xlink:title="Quest">
<polygon fill="white" stroke="black" points="78,-60 24,-60 24,-24 78,-24 78,-60"/>
<text text-anchor="middle" x="51" y="-39.5" font-family="Helvetica,sans-Serif" font-size="10.00">Quest</text>
</a>
</g>
</g>
</g>
</svg>
