<?xml version="1.0" encoding="UTF-8" standalone="no"?>
<!DOCTYPE svg PUBLIC "-//W3C//DTD SVG 1.1//EN"
 "http://www.w3.org/Graphics/SVG/1.1/DTD/svg11.dtd">
<!-- Generated by graphviz version 2.38.0 (20140413.2041)
 -->
<!-- Title: ActionRpgKit Pages: 1 -->
<svg width="338pt" height="76pt"
 viewBox="0.00 0.00 338.00 76.00" xmlns="http://www.w3.org/2000/svg" xmlns:xlink="http://www.w3.org/1999/xlink">
<g id="graph0" class="graph" transform="scale(1 1) rotate(0) translate(4 72)">
<title>ActionRpgKit</title>
<polygon fill="white" stroke="none" points="-4,4 -4,-72 334,-72 334,4 -4,4"/>
<g id="clust1" class="cluster"><title>clusterdir_9ecb837a21b60474ce98456d518a780a</title>
<g id="a_clust1"><a xlink:href="dir_9ecb837a21b60474ce98456d518a780a.xhtml" target="_top">
<polygon fill="#eeeeff" stroke="black" points="8,-8 8,-60 322,-60 322,-8 8,-8"/>
</a>
</g>
</g>
<!-- dir_9ecb837a21b60474ce98456d518a780a -->
<g id="node1" class="node"><title>dir_9ecb837a21b60474ce98456d518a780a</title>
<text text-anchor="middle" x="277" y="-31.5" font-family="Helvetica,sans-Serif" font-size="10.00">ActionRpgKit</text>
</g>
<!-- dir_08cc5c503820d31914a2f2729a36eee6 -->
<g id="node2" class="node"><title>dir_08cc5c503820d31914a2f2729a36eee6</title>
<g id="a_node2"><a xlink:href="dir_08cc5c503820d31914a2f2729a36eee6.xhtml" target="_top" xlink:title="Core">
<polygon fill="white" stroke="red" points="222,-52 168,-52 168,-16 222,-16 222,-52"/>
<text text-anchor="middle" x="195" y="-31.5" font-family="Helvetica,sans-Serif" font-size="10.00">Core</text>
</a>
</g>
</g>
<!-- dir_8aced4f5cb2570e3fc4d1c2659f00981 -->
<g id="node3" class="node"><title>dir_8aced4f5cb2570e3fc4d1c2659f00981</title>
<g id="a_node3"><a xlink:href="dir_8aced4f5cb2570e3fc4d1c2659f00981.xhtml" target="_top" xlink:title="obj">
<polygon fill="white" stroke="red" points="150,-52 96,-52 96,-16 150,-16 150,-52"/>
<text text-anchor="middle" x="123" y="-31.5" font-family="Helvetica,sans-Serif" font-size="10.00">obj</text>
</a>
</g>
</g>
<!-- dir_9dd54d8903da8692d636818bcc9c555e -->
<g id="node4" class="node"><title>dir_9dd54d8903da8692d636818bcc9c555e</title>
<g id="a_node4"><a xlink:href="dir_9dd54d8903da8692d636818bcc9c555e.xhtml" target="_top" xlink:title="Properties">
<polygon fill="white" stroke="black" points="77.5,-52 16.5,-52 16.5,-16 77.5,-16 77.5,-52"/>
<text text-anchor="middle" x="47" y="-31.5" font-family="Helvetica,sans-Serif" font-size="10.00">Properties</text>
</a>
</g>
</g>
</g>
</svg>
