<?xml version="1.0" encoding="UTF-8" standalone="no"?>
<!DOCTYPE svg PUBLIC "-//W3C//DTD SVG 1.1//EN"
 "http://www.w3.org/Graphics/SVG/1.1/DTD/svg11.dtd">
<!-- Generated by graphviz version 2.26.3 (20100126.1600)
 -->
<!-- Title: ActionRpgKit Pages: 1 -->
<svg width="730pt" height="76pt"
 viewBox="0.00 0.00 730.00 76.00" xmlns="http://www.w3.org/2000/svg" xmlns:xlink="http://www.w3.org/1999/xlink">
<g id="graph1" class="graph" transform="scale(1 1) rotate(0) translate(4 72)">
<title>ActionRpgKit</title>
<polygon fill="white" stroke="white" points="-4,5 -4,-72 727,-72 727,5 -4,5"/>
<g id="graph2" class="cluster"><title>clusterdir_9ecb837a21b60474ce98456d518a780a</title>
<a xlink:href="dir_9ecb837a21b60474ce98456d518a780a.xhtml" target="_top">
<polygon fill="#eeeeff" stroke="black" points="8,-8 8,-60 714,-60 714,-8 8,-8"/>
</a>
</g>
<!-- dir_9ecb837a21b60474ce98456d518a780a -->
<g id="node2" class="node"><title>dir_9ecb837a21b60474ce98456d518a780a</title>
<text text-anchor="middle" x="669" y="-31.5" font-family="Helvetica,sans-Serif" font-size="10.00">ActionRpgKit</text>
</g>
<!-- dir_5b63fb5974cb1ed5868418ec510a1c8d -->
<g id="node3" class="node"><title>dir_5b63fb5974cb1ed5868418ec510a1c8d</title>
<a xlink:href="dir_5b63fb5974cb1ed5868418ec510a1c8d.xhtml" target="_top" xlink:title="Character">
<polygon fill="white" stroke="black" points="614,-52 556,-52 556,-16 614,-16 614,-52"/>
<text text-anchor="middle" x="585" y="-31.5" font-family="Helvetica,sans-Serif" font-size="10.00">Character</text>
</a>
</g>
<!-- dir_08cc5c503820d31914a2f2729a36eee6 -->
<g id="node4" class="node"><title>dir_08cc5c503820d31914a2f2729a36eee6</title>
<a xlink:href="dir_08cc5c503820d31914a2f2729a36eee6.xhtml" target="_top" xlink:title="Core">
<polygon fill="white" stroke="black" points="538,-52 484,-52 484,-16 538,-16 538,-52"/>
<text text-anchor="middle" x="511" y="-31.5" font-family="Helvetica,sans-Serif" font-size="10.00">Core</text>
</a>
</g>
<!-- dir_48705c1daef4b9d39bb6940ef38a7f2c -->
<g id="node5" class="node"><title>dir_48705c1daef4b9d39bb6940ef38a7f2c</title>
<a xlink:href="dir_48705c1daef4b9d39bb6940ef38a7f2c.xhtml" target="_top" xlink:title="GameController">
<polygon fill="white" stroke="black" points="466,-52 382,-52 382,-16 466,-16 466,-52"/>
<text text-anchor="middle" x="424" y="-31.5" font-family="Helvetica,sans-Serif" font-size="10.00">GameController</text>
</a>
</g>
<!-- dir_82f1619cc2cd5b1e15ccb552710268a6 -->
<g id="node6" class="node"><title>dir_82f1619cc2cd5b1e15ccb552710268a6</title>
<a xlink:href="dir_82f1619cc2cd5b1e15ccb552710268a6.xhtml" target="_top" xlink:title="Item">
<polygon fill="white" stroke="black" points="364,-52 310,-52 310,-16 364,-16 364,-52"/>
<text text-anchor="middle" x="337" y="-31.5" font-family="Helvetica,sans-Serif" font-size="10.00">Item</text>
</a>
</g>
<!-- dir_8aced4f5cb2570e3fc4d1c2659f00981 -->
<g id="node7" class="node"><title>dir_8aced4f5cb2570e3fc4d1c2659f00981</title>
<a xlink:href="dir_8aced4f5cb2570e3fc4d1c2659f00981.xhtml" target="_top" xlink:title="obj">
<polygon fill="white" stroke="red" points="292,-52 238,-52 238,-16 292,-16 292,-52"/>
<text text-anchor="middle" x="265" y="-31.5" font-family="Helvetica,sans-Serif" font-size="10.00">obj</text>
</a>
</g>
<!-- dir_9dd54d8903da8692d636818bcc9c555e -->
<g id="node8" class="node"><title>dir_9dd54d8903da8692d636818bcc9c555e</title>
<a xlink:href="dir_9dd54d8903da8692d636818bcc9c555e.xhtml" target="_top" xlink:title="Properties">
<polygon fill="white" stroke="black" points="220,-52 160,-52 160,-16 220,-16 220,-52"/>
<text text-anchor="middle" x="190" y="-31.5" font-family="Helvetica,sans-Serif" font-size="10.00">Properties</text>
</a>
</g>
<!-- dir_ed0b67d673b419dc884987f7178aa28a -->
<g id="node9" class="node"><title>dir_ed0b67d673b419dc884987f7178aa28a</title>
<a xlink:href="dir_ed0b67d673b419dc884987f7178aa28a.xhtml" target="_top" xlink:title="Story">
<polygon fill="white" stroke="black" points="142,-52 88,-52 88,-16 142,-16 142,-52"/>
<text text-anchor="middle" x="115" y="-31.5" font-family="Helvetica,sans-Serif" font-size="10.00">Story</text>
</a>
</g>
<!-- dir_85c4bcfa5ceba710e89aab0b6a79eab3 -->
<g id="node10" class="node"><title>dir_85c4bcfa5ceba710e89aab0b6a79eab3</title>
<a xlink:href="dir_85c4bcfa5ceba710e89aab0b6a79eab3.xhtml" target="_top" xlink:title="Tests">
<polygon fill="white" stroke="red" points="70,-52 16,-52 16,-16 70,-16 70,-52"/>
<text text-anchor="middle" x="43" y="-31.5" font-family="Helvetica,sans-Serif" font-size="10.00">Tests</text>
</a>
</g>
</g>
</svg>
