<?xml version="1.0" encoding="UTF-8" standalone="no"?>
<!DOCTYPE svg PUBLIC "-//W3C//DTD SVG 1.1//EN"
 "http://www.w3.org/Graphics/SVG/1.1/DTD/svg11.dtd">
<!-- Generated by graphviz version 2.26.3 (20100126.1600)
 -->
<!-- Title: G Pages: 1 -->
<svg width="176pt" height="70pt"
 viewBox="0.00 0.00 176.00 70.00" xmlns="http://www.w3.org/2000/svg" xmlns:xlink="http://www.w3.org/1999/xlink">
<g id="graph1" class="graph" transform="scale(1 1) rotate(0) translate(4 66)">
<title>G</title>
<polygon fill="white" stroke="white" points="-4,5 -4,-66 173,-66 173,5 -4,5"/>
<!-- Node1 -->
<g id="node1" class="node"><title>Node1</title>
<a xlink:href="d0/d8d/class_action_rpg_kit_1_1_story_1_1_chapter.xhtml" target="_top" xlink:title="A step in the progression of the story.">
<polygon fill="white" stroke="black" points="0.5,-20.5 0.5,-41.5 51.5,-41.5 51.5,-20.5 0.5,-20.5"/>
<text text-anchor="middle" x="26" y="-28.5" font-family="Helvetica,sans-Serif" font-size="10.00">Chapter</text>
</a>
</g>
<!-- Node2 -->
<g id="node3" class="node"><title>Node2</title>
<a xlink:href="d2/d12/class_action_rpg_kit_1_1_tests_1_1_story_1_1_epilog_chapter.xhtml" target="_top" xlink:title="EpilogChapter">
<polygon fill="white" stroke="black" points="89,-40.5 89,-61.5 167,-61.5 167,-40.5 89,-40.5"/>
<text text-anchor="middle" x="128" y="-48.5" font-family="Helvetica,sans-Serif" font-size="10.00">EpilogChapter</text>
</a>
</g>
<!-- Node1&#45;&gt;Node2 -->
<g id="edge2" class="edge"><title>Node1&#45;&gt;Node2</title>
<path fill="none" stroke="midnightblue" d="M61.647,-37.9896C70.4079,-39.7074 79.8355,-41.556 88.7556,-43.305"/>
<polygon fill="midnightblue" stroke="midnightblue" points="62.2255,-34.5365 51.7389,-36.0468 60.8786,-41.4057 62.2255,-34.5365"/>
</g>
<!-- Node3 -->
<g id="node5" class="node"><title>Node3</title>
<a xlink:href="d5/d4f/class_action_rpg_kit_1_1_tests_1_1_story_1_1_prolog_chapter.xhtml" target="_top" xlink:title="PrologChapter">
<polygon fill="white" stroke="black" points="88.5,-0.5 88.5,-21.5 167.5,-21.5 167.5,-0.5 88.5,-0.5"/>
<text text-anchor="middle" x="128" y="-8.5" font-family="Helvetica,sans-Serif" font-size="10.00">PrologChapter</text>
</a>
</g>
<!-- Node1&#45;&gt;Node3 -->
<g id="edge4" class="edge"><title>Node1&#45;&gt;Node3</title>
<path fill="none" stroke="midnightblue" d="M61.8215,-23.9762C70.4046,-22.2932 79.6188,-20.4865 88.3634,-18.7719"/>
<polygon fill="midnightblue" stroke="midnightblue" points="60.8786,-20.5943 51.7389,-25.9532 62.2255,-27.4635 60.8786,-20.5943"/>
</g>
</g>
</svg>
