<?xml version="1.0" encoding="UTF-8" standalone="no"?>
<!DOCTYPE svg PUBLIC "-//W3C//DTD SVG 1.1//EN"
 "http://www.w3.org/Graphics/SVG/1.1/DTD/svg11.dtd">
<!-- Generated by graphviz version 2.26.3 (20100126.1600)
 -->
<!-- Title: G Pages: 1 -->
<svg width="248pt" height="30pt"
 viewBox="0.00 0.00 248.00 30.00" xmlns="http://www.w3.org/2000/svg" xmlns:xlink="http://www.w3.org/1999/xlink">
<g id="graph1" class="graph" transform="scale(1 1) rotate(0) translate(4 26)">
<title>G</title>
<polygon fill="white" stroke="white" points="-4,5 -4,-26 245,-26 245,5 -4,5"/>
<!-- Node1 -->
<g id="node1" class="node"><title>Node1</title>
<a xlink:href="d3/d77/interface_action_rpg_kit_1_1_item_1_1_i_item.xhtml" target="_top" xlink:title="An Item is something that is usable by Characters.">
<polygon fill="white" stroke="black" points="0.5,-0.5 0.5,-21.5 39.5,-21.5 39.5,-0.5 0.5,-0.5"/>
<text text-anchor="middle" x="20" y="-8.5" font-family="Helvetica,sans-Serif" font-size="10.00">IItem</text>
</a>
</g>
<!-- Node2 -->
<g id="node3" class="node"><title>Node2</title>
<a xlink:href="d3/dfb/class_action_rpg_kit_1_1_item_1_1_base_item.xhtml" target="_top" xlink:title="Basic implementation of the IItem.">
<polygon fill="white" stroke="black" points="76.5,-0.5 76.5,-21.5 135.5,-21.5 135.5,-0.5 76.5,-0.5"/>
<text text-anchor="middle" x="106" y="-8.5" font-family="Helvetica,sans-Serif" font-size="10.00">BaseItem</text>
</a>
</g>
<!-- Node1&#45;&gt;Node2 -->
<g id="edge2" class="edge"><title>Node1&#45;&gt;Node2</title>
<path fill="none" stroke="midnightblue" d="M49.5889,-11C58.2664,-11 67.7537,-11 76.43,-11"/>
<polygon fill="midnightblue" stroke="midnightblue" points="49.5148,-7.5001 39.5147,-11 49.5147,-14.5001 49.5148,-7.5001"/>
</g>
<!-- Node3 -->
<g id="node5" class="node"><title>Node3</title>
<a xlink:href="d3/dc8/class_action_rpg_kit_1_1_item_1_1_usable_item.xhtml" target="_top" xlink:title="This item is usable for Skills.">
<polygon fill="white" stroke="black" points="172.5,-0.5 172.5,-21.5 239.5,-21.5 239.5,-0.5 172.5,-0.5"/>
<text text-anchor="middle" x="206" y="-8.5" font-family="Helvetica,sans-Serif" font-size="10.00">UsableItem</text>
</a>
</g>
<!-- Node2&#45;&gt;Node3 -->
<g id="edge4" class="edge"><title>Node2&#45;&gt;Node3</title>
<path fill="none" stroke="midnightblue" d="M145.789,-11C154.586,-11 163.824,-11 172.349,-11"/>
<polygon fill="midnightblue" stroke="midnightblue" points="145.733,-7.5001 135.733,-11 145.733,-14.5001 145.733,-7.5001"/>
</g>
</g>
</svg>
