<?xml version="1.0" encoding="UTF-8" standalone="no"?>
<!DOCTYPE svg PUBLIC "-//W3C//DTD SVG 1.1//EN"
 "http://www.w3.org/Graphics/SVG/1.1/DTD/svg11.dtd">
<!-- Generated by graphviz version 2.26.3 (20100126.1600)
 -->
<!-- Title: G Pages: 1 -->
<svg width="292pt" height="70pt"
 viewBox="0.00 0.00 292.00 70.00" xmlns="http://www.w3.org/2000/svg" xmlns:xlink="http://www.w3.org/1999/xlink">
<g id="graph1" class="graph" transform="scale(1 1) rotate(0) translate(4 66)">
<title>G</title>
<polygon fill="white" stroke="white" points="-4,5 -4,-66 289,-66 289,5 -4,5"/>
<!-- Node1 -->
<g id="node1" class="node"><title>Node1</title>
<a xlink:href="dd/dd3/interface_action_rpg_kit_1_1_story_1_1_quest_1_1_i_quest.xhtml" target="_top" xlink:title="Interface for Quests.">
<polygon fill="white" stroke="black" points="0,-20.5 0,-41.5 46,-41.5 46,-20.5 0,-20.5"/>
<text text-anchor="middle" x="23" y="-28.5" font-family="Helvetica,sans-Serif" font-size="10.00">IQuest</text>
</a>
</g>
<!-- Node2 -->
<g id="node3" class="node"><title>Node2</title>
<a xlink:href="d8/d88/class_action_rpg_kit_1_1_story_1_1_quest_1_1_base_quest.xhtml" target="_top" xlink:title="BaseQuest">
<polygon fill="white" stroke="black" points="82.5,-20.5 82.5,-41.5 147.5,-41.5 147.5,-20.5 82.5,-20.5"/>
<text text-anchor="middle" x="115" y="-28.5" font-family="Helvetica,sans-Serif" font-size="10.00">BaseQuest</text>
</a>
</g>
<!-- Node1&#45;&gt;Node2 -->
<g id="edge2" class="edge"><title>Node1&#45;&gt;Node2</title>
<path fill="none" stroke="midnightblue" d="M56.2162,-31C64.746,-31 73.9128,-31 82.4105,-31"/>
<polygon fill="midnightblue" stroke="midnightblue" points="56.2155,-27.5001 46.2155,-31 56.2154,-34.5001 56.2155,-27.5001"/>
</g>
<!-- Node3 -->
<g id="node5" class="node"><title>Node3</title>
<a xlink:href="dc/d01/class_action_rpg_kit_1_1_tests_1_1_integration_tests_1_1_cleanse_the_cellars.xhtml" target="_top" xlink:title="CleanseTheCellars">
<polygon fill="white" stroke="black" points="184,-40.5 184,-61.5 284,-61.5 284,-40.5 184,-40.5"/>
<text text-anchor="middle" x="234" y="-48.5" font-family="Helvetica,sans-Serif" font-size="10.00">CleanseTheCellars</text>
</a>
</g>
<!-- Node2&#45;&gt;Node3 -->
<g id="edge4" class="edge"><title>Node2&#45;&gt;Node3</title>
<path fill="none" stroke="midnightblue" d="M157.535,-38.1488C165.993,-39.5703 174.95,-41.0757 183.641,-42.5363"/>
<polygon fill="midnightblue" stroke="midnightblue" points="157.959,-34.671 147.517,-36.4651 156.799,-41.5742 157.959,-34.671"/>
</g>
<!-- Node4 -->
<g id="node7" class="node"><title>Node4</title>
<a xlink:href="d0/dc5/class_action_rpg_kit_1_1_tests_1_1_story_1_1_cleanse_the_cellars.xhtml" target="_top" xlink:title="CleanseTheCellars">
<polygon fill="white" stroke="black" points="184,-0.5 184,-21.5 284,-21.5 284,-0.5 184,-0.5"/>
<text text-anchor="middle" x="234" y="-8.5" font-family="Helvetica,sans-Serif" font-size="10.00">CleanseTheCellars</text>
</a>
</g>
<!-- Node2&#45;&gt;Node4 -->
<g id="edge6" class="edge"><title>Node2&#45;&gt;Node4</title>
<path fill="none" stroke="midnightblue" d="M157.535,-23.8512C165.993,-22.4297 174.95,-20.9243 183.641,-19.4637"/>
<polygon fill="midnightblue" stroke="midnightblue" points="156.799,-20.4258 147.517,-25.5349 157.959,-27.329 156.799,-20.4258"/>
</g>
</g>
</svg>
