<?xml version="1.0" encoding="UTF-8" standalone="no"?>
<!DOCTYPE svg PUBLIC "-//W3C//DTD SVG 1.1//EN"
 "http://www.w3.org/Graphics/SVG/1.1/DTD/svg11.dtd">
<!-- Generated by graphviz version 2.26.3 (20100126.1600)
 -->
<!-- Title: G Pages: 1 -->
<svg width="462pt" height="70pt"
 viewBox="0.00 0.00 462.00 70.00" xmlns="http://www.w3.org/2000/svg" xmlns:xlink="http://www.w3.org/1999/xlink">
<g id="graph1" class="graph" transform="scale(1 1) rotate(0) translate(4 66)">
<title>G</title>
<polygon fill="white" stroke="white" points="-4,5 -4,-66 459,-66 459,5 -4,5"/>
<!-- Node1 -->
<g id="node1" class="node"><title>Node1</title>
<a xlink:href="d5/d7e/interface_action_rpg_kit_1_1_character_1_1_attribute_1_1_i_attribute.xhtml" target="_top" xlink:title="Interface for Attributes.">
<polygon fill="white" stroke="black" points="0,-20.5 0,-41.5 56,-41.5 56,-20.5 0,-20.5"/>
<text text-anchor="middle" x="28" y="-28.5" font-family="Helvetica,sans-Serif" font-size="10.00">IAttribute</text>
</a>
</g>
<!-- Node2 -->
<g id="node3" class="node"><title>Node2</title>
<a xlink:href="d5/ddc/class_action_rpg_kit_1_1_character_1_1_attribute_1_1_primary_attribute.xhtml" target="_top" xlink:title="Represents a simple float value.">
<polygon fill="white" stroke="black" points="92.5,-20.5 92.5,-41.5 179.5,-41.5 179.5,-20.5 92.5,-20.5"/>
<text text-anchor="middle" x="136" y="-28.5" font-family="Helvetica,sans-Serif" font-size="10.00">PrimaryAttribute</text>
</a>
</g>
<!-- Node1&#45;&gt;Node2 -->
<g id="edge2" class="edge"><title>Node1&#45;&gt;Node2</title>
<path fill="none" stroke="midnightblue" d="M66.3198,-31C74.6782,-31 83.5854,-31 92.1404,-31"/>
<polygon fill="midnightblue" stroke="midnightblue" points="66.0938,-27.5001 56.0938,-31 66.0938,-34.5001 66.0938,-27.5001"/>
</g>
<!-- Node3 -->
<g id="node5" class="node"><title>Node3</title>
<a xlink:href="df/d43/class_action_rpg_kit_1_1_character_1_1_attribute_1_1_secondary_attribute.xhtml" target="_top" xlink:title="The Value is calculated through a given formula.">
<polygon fill="white" stroke="black" points="224,-40.5 224,-61.5 324,-61.5 324,-40.5 224,-40.5"/>
<text text-anchor="middle" x="274" y="-48.5" font-family="Helvetica,sans-Serif" font-size="10.00">SecondaryAttribute</text>
</a>
</g>
<!-- Node2&#45;&gt;Node3 -->
<g id="edge4" class="edge"><title>Node2&#45;&gt;Node3</title>
<path fill="none" stroke="midnightblue" d="M189.779,-38.794C201.006,-40.4211 212.798,-42.1302 223.886,-43.7371"/>
<polygon fill="midnightblue" stroke="midnightblue" points="190.063,-35.2987 179.664,-37.3281 189.059,-42.2263 190.063,-35.2987"/>
</g>
<!-- Node5 -->
<g id="node9" class="node"><title>Node5</title>
<a xlink:href="db/d9c/class_action_rpg_kit_1_1_character_1_1_attribute_1_1_simple_volume_attribute.xhtml" target="_top" xlink:title="The base value is a simple float as opposed to a formula based.">
<polygon fill="white" stroke="black" points="216,-0.5 216,-21.5 332,-21.5 332,-0.5 216,-0.5"/>
<text text-anchor="middle" x="274" y="-8.5" font-family="Helvetica,sans-Serif" font-size="10.00">SimpleVolumeAttribute</text>
</a>
</g>
<!-- Node2&#45;&gt;Node5 -->
<g id="edge8" class="edge"><title>Node2&#45;&gt;Node5</title>
<path fill="none" stroke="midnightblue" d="M189.617,-23.2295C198.257,-21.9772 207.237,-20.6758 215.975,-19.4094"/>
<polygon fill="midnightblue" stroke="midnightblue" points="189.059,-19.7737 179.664,-24.6719 190.063,-26.7013 189.059,-19.7737"/>
</g>
<!-- Node4 -->
<g id="node7" class="node"><title>Node4</title>
<a xlink:href="d6/ddf/class_action_rpg_kit_1_1_character_1_1_attribute_1_1_volume_attribute.xhtml" target="_top" xlink:title="Represents a volume of something, e.g. magic, life. The base value is derived through a formula and s...">
<polygon fill="white" stroke="black" points="368,-40.5 368,-61.5 454,-61.5 454,-40.5 368,-40.5"/>
<text text-anchor="middle" x="411" y="-48.5" font-family="Helvetica,sans-Serif" font-size="10.00">VolumeAttribute</text>
</a>
</g>
<!-- Node3&#45;&gt;Node4 -->
<g id="edge6" class="edge"><title>Node3&#45;&gt;Node4</title>
<path fill="none" stroke="midnightblue" d="M334.485,-51C345.774,-51 357.358,-51 367.987,-51"/>
<polygon fill="midnightblue" stroke="midnightblue" points="334.236,-47.5001 324.236,-51 334.236,-54.5001 334.236,-47.5001"/>
</g>
</g>
</svg>
