<?xml version="1.0" encoding="UTF-8" standalone="no"?>
<!DOCTYPE svg PUBLIC "-//W3C//DTD SVG 1.1//EN"
 "http://www.w3.org/Graphics/SVG/1.1/DTD/svg11.dtd">
<!-- Generated by graphviz version 2.26.3 (20100126.1600)
 -->
<!-- Title: G Pages: 1 -->
<svg width="152pt" height="70pt"
 viewBox="0.00 0.00 152.00 70.00" xmlns="http://www.w3.org/2000/svg" xmlns:xlink="http://www.w3.org/1999/xlink">
<g id="graph1" class="graph" transform="scale(1 1) rotate(0) translate(4 66)">
<title>G</title>
<polygon fill="white" stroke="white" points="-4,5 -4,-66 149,-66 149,5 -4,5"/>
<!-- Node1 -->
<g id="node1" class="node"><title>Node1</title>
<a xlink:href="db/d3f/interface_action_rpg_kit_1_1_character_1_1_i_state.xhtml" target="_top" xlink:title="IState">
<polygon fill="white" stroke="black" points="0.5,-20.5 0.5,-41.5 43.5,-41.5 43.5,-20.5 0.5,-20.5"/>
<text text-anchor="middle" x="22" y="-28.5" font-family="Helvetica,sans-Serif" font-size="10.00">IState</text>
</a>
</g>
<!-- Node2 -->
<g id="node3" class="node"><title>Node2</title>
<a xlink:href="da/d80/class_action_rpg_kit_1_1_character_1_1_idle_state.xhtml" target="_top" xlink:title="IdleState">
<polygon fill="white" stroke="black" points="84,-40.5 84,-61.5 140,-61.5 140,-40.5 84,-40.5"/>
<text text-anchor="middle" x="112" y="-48.5" font-family="Helvetica,sans-Serif" font-size="10.00">IdleState</text>
</a>
</g>
<!-- Node1&#45;&gt;Node2 -->
<g id="edge2" class="edge"><title>Node1&#45;&gt;Node2</title>
<path fill="none" stroke="midnightblue" d="M53.643,-38.0318C63.5154,-40.2256 74.3309,-42.6291 83.9398,-44.7644"/>
<polygon fill="midnightblue" stroke="midnightblue" points="54.3076,-34.5942 43.7865,-35.8414 52.7891,-41.4275 54.3076,-34.5942"/>
</g>
<!-- Node3 -->
<g id="node5" class="node"><title>Node3</title>
<a xlink:href="d2/d59/class_action_rpg_kit_1_1_character_1_1_move_state.xhtml" target="_top" xlink:title="MoveState">
<polygon fill="white" stroke="black" points="80,-0.5 80,-21.5 144,-21.5 144,-0.5 80,-0.5"/>
<text text-anchor="middle" x="112" y="-8.5" font-family="Helvetica,sans-Serif" font-size="10.00">MoveState</text>
</a>
</g>
<!-- Node1&#45;&gt;Node3 -->
<g id="edge4" class="edge"><title>Node1&#45;&gt;Node3</title>
<path fill="none" stroke="midnightblue" d="M53.6968,-23.9563C62.1781,-22.0715 71.3522,-20.0328 79.8574,-18.1428"/>
<polygon fill="midnightblue" stroke="midnightblue" points="52.7891,-20.5725 43.7865,-26.1586 54.3076,-27.4058 52.7891,-20.5725"/>
</g>
</g>
</svg>
