<?xml version="1.0" encoding="UTF-8" standalone="no"?>
<!DOCTYPE svg PUBLIC "-//W3C//DTD SVG 1.1//EN"
 "http://www.w3.org/Graphics/SVG/1.1/DTD/svg11.dtd">
<!-- Generated by graphviz version 2.38.0 (20140413.2041)
 -->
<!-- Title: Graphical Class Hierarchy Pages: 1 -->
<svg width="461pt" height="66pt"
 viewBox="0.00 0.00 461.00 66.00" xmlns="http://www.w3.org/2000/svg" xmlns:xlink="http://www.w3.org/1999/xlink">
<g id="graph0" class="graph" transform="scale(1 1) rotate(0) translate(4 62)">
<title>Graphical Class Hierarchy</title>
<polygon fill="white" stroke="none" points="-4,4 -4,-62 457,-62 457,4 -4,4"/>
<!-- Node1 -->
<g id="node1" class="node"><title>Node1</title>
<g id="a_node1"><a xlink:href="d7/df4/interface_character_1_1_attribute_1_1_i_attribute.xhtml" target="_top" xlink:title="Interface for Attributes. ">
<polygon fill="white" stroke="black" points="0,-19.5 0,-38.5 56,-38.5 56,-19.5 0,-19.5"/>
<text text-anchor="middle" x="28" y="-26.5" font-family="Helvetica,sans-Serif" font-size="10.00">IAttribute</text>
</a>
</g>
</g>
<!-- Node2 -->
<g id="node2" class="node"><title>Node2</title>
<g id="a_node2"><a xlink:href="d3/db7/class_character_1_1_attribute_1_1_primary_attribute.xhtml" target="_top" xlink:title="Represents a simple float value. ">
<polygon fill="white" stroke="black" points="92,-19.5 92,-38.5 179,-38.5 179,-19.5 92,-19.5"/>
<text text-anchor="middle" x="135.5" y="-26.5" font-family="Helvetica,sans-Serif" font-size="10.00">PrimaryAttribute</text>
</a>
</g>
</g>
<!-- Node1&#45;&gt;Node2 -->
<g id="edge1" class="edge"><title>Node1&#45;&gt;Node2</title>
<path fill="none" stroke="midnightblue" d="M66.2838,-29C74.5591,-29 83.3914,-29 91.8623,-29"/>
<polygon fill="midnightblue" stroke="midnightblue" points="66.1689,-25.5001 56.1689,-29 66.1688,-32.5001 66.1689,-25.5001"/>
</g>
<!-- Node3 -->
<g id="node3" class="node"><title>Node3</title>
<g id="a_node3"><a xlink:href="df/dc9/class_character_1_1_attribute_1_1_secondary_attribute.xhtml" target="_top" xlink:title="The Value is calculated through a given formula. ">
<polygon fill="white" stroke="black" points="223,-38.5 223,-57.5 323,-57.5 323,-38.5 223,-38.5"/>
<text text-anchor="middle" x="273" y="-45.5" font-family="Helvetica,sans-Serif" font-size="10.00">SecondaryAttribute</text>
</a>
</g>
</g>
<!-- Node2&#45;&gt;Node3 -->
<g id="edge2" class="edge"><title>Node2&#45;&gt;Node3</title>
<path fill="none" stroke="midnightblue" d="M188.948,-36.3544C199.994,-37.9032 211.612,-39.5323 222.544,-41.0652"/>
<polygon fill="midnightblue" stroke="midnightblue" points="189.39,-32.8822 179.001,-34.9596 188.418,-39.8144 189.39,-32.8822"/>
</g>
<!-- Node5 -->
<g id="node5" class="node"><title>Node5</title>
<g id="a_node5"><a xlink:href="d9/d62/class_character_1_1_attribute_1_1_simple_volume_attribute.xhtml" target="_top" xlink:title="The base value is a simple float as opposed to a formula based. ">
<polygon fill="white" stroke="black" points="215,-0.5 215,-19.5 331,-19.5 331,-0.5 215,-0.5"/>
<text text-anchor="middle" x="273" y="-7.5" font-family="Helvetica,sans-Serif" font-size="10.00">SimpleVolumeAttribute</text>
</a>
</g>
</g>
<!-- Node2&#45;&gt;Node5 -->
<g id="edge4" class="edge"><title>Node2&#45;&gt;Node5</title>
<path fill="none" stroke="midnightblue" d="M189.066,-21.6291C197.482,-20.449 206.227,-19.2227 214.746,-18.0282"/>
<polygon fill="midnightblue" stroke="midnightblue" points="188.418,-18.1856 179.001,-23.0404 189.39,-25.1178 188.418,-18.1856"/>
</g>
<!-- Node4 -->
<g id="node4" class="node"><title>Node4</title>
<g id="a_node4"><a xlink:href="db/df3/class_character_1_1_attribute_1_1_volume_attribute.xhtml" target="_top" xlink:title="Represents a volume of something, e.g. magic, life. The base value is derived through a formula and s...">
<polygon fill="white" stroke="black" points="367,-38.5 367,-57.5 453,-57.5 453,-38.5 367,-38.5"/>
<text text-anchor="middle" x="410" y="-45.5" font-family="Helvetica,sans-Serif" font-size="10.00">VolumeAttribute</text>
</a>
</g>
</g>
<!-- Node3&#45;&gt;Node4 -->
<g id="edge3" class="edge"><title>Node3&#45;&gt;Node4</title>
<path fill="none" stroke="midnightblue" d="M333.352,-48C344.627,-48 356.211,-48 366.819,-48"/>
<polygon fill="midnightblue" stroke="midnightblue" points="333.12,-44.5001 323.12,-48 333.12,-51.5001 333.12,-44.5001"/>
</g>
</g>
</svg>
