<?xml version="1.0" encoding="UTF-8" standalone="no"?>
<!DOCTYPE svg PUBLIC "-//W3C//DTD SVG 1.1//EN"
 "http://www.w3.org/Graphics/SVG/1.1/DTD/svg11.dtd">
<!-- Generated by graphviz version 2.26.3 (20100126.1600)
 -->
<!-- Title: G Pages: 1 -->
<svg width="176pt" height="150pt"
 viewBox="0.00 0.00 176.00 150.00" xmlns="http://www.w3.org/2000/svg" xmlns:xlink="http://www.w3.org/1999/xlink">
<g id="graph1" class="graph" transform="scale(1 1) rotate(0) translate(4 146)">
<title>G</title>
<polygon fill="white" stroke="white" points="-4,5 -4,-146 173,-146 173,5 -4,5"/>
<!-- Node1 -->
<g id="node1" class="node"><title>Node1</title>
<a xlink:href="d0/d8d/class_action_rpg_kit_1_1_story_1_1_chapter.xhtml" target="_top" xlink:title="A step in the progression of the story.">
<polygon fill="white" stroke="black" points="0.5,-60.5 0.5,-81.5 51.5,-81.5 51.5,-60.5 0.5,-60.5"/>
<text text-anchor="middle" x="26" y="-68.5" font-family="Helvetica,sans-Serif" font-size="10.00">Chapter</text>
</a>
</g>
<!-- Node2 -->
<g id="node3" class="node"><title>Node2</title>
<a xlink:href="d8/d3d/class_action_rpg_kit_1_1_tests_1_1_integration_tests_1_1_epilog_chapter.xhtml" target="_top" xlink:title="EpilogChapter">
<polygon fill="white" stroke="black" points="89,-120.5 89,-141.5 167,-141.5 167,-120.5 89,-120.5"/>
<text text-anchor="middle" x="128" y="-128.5" font-family="Helvetica,sans-Serif" font-size="10.00">EpilogChapter</text>
</a>
</g>
<!-- Node1&#45;&gt;Node2 -->
<g id="edge2" class="edge"><title>Node1&#45;&gt;Node2</title>
<path fill="none" stroke="midnightblue" d="M49.768,-87.201C61.1543,-94.7368 75.0933,-103.639 88,-111 93.6653,-114.231 99.9194,-117.495 105.766,-120.422"/>
<polygon fill="midnightblue" stroke="midnightblue" points="51.5104,-84.1558 41.2523,-81.506 47.6191,-89.9745 51.5104,-84.1558"/>
</g>
<!-- Node3 -->
<g id="node5" class="node"><title>Node3</title>
<a xlink:href="d4/db9/class_action_rpg_kit_1_1_tests_1_1_integration_tests_1_1_prolog_chapter.xhtml" target="_top" xlink:title="PrologChapter">
<polygon fill="white" stroke="black" points="88.5,-80.5 88.5,-101.5 167.5,-101.5 167.5,-80.5 88.5,-80.5"/>
<text text-anchor="middle" x="128" y="-88.5" font-family="Helvetica,sans-Serif" font-size="10.00">PrologChapter</text>
</a>
</g>
<!-- Node1&#45;&gt;Node3 -->
<g id="edge4" class="edge"><title>Node1&#45;&gt;Node3</title>
<path fill="none" stroke="midnightblue" d="M61.8215,-78.0238C70.4046,-79.7068 79.6188,-81.5135 88.3634,-83.2281"/>
<polygon fill="midnightblue" stroke="midnightblue" points="62.2255,-74.5365 51.7389,-76.0468 60.8786,-81.4057 62.2255,-74.5365"/>
</g>
<!-- Node4 -->
<g id="node7" class="node"><title>Node4</title>
<a xlink:href="d2/d12/class_action_rpg_kit_1_1_tests_1_1_story_1_1_epilog_chapter.xhtml" target="_top" xlink:title="EpilogChapter">
<polygon fill="white" stroke="black" points="89,-40.5 89,-61.5 167,-61.5 167,-40.5 89,-40.5"/>
<text text-anchor="middle" x="128" y="-48.5" font-family="Helvetica,sans-Serif" font-size="10.00">EpilogChapter</text>
</a>
</g>
<!-- Node1&#45;&gt;Node4 -->
<g id="edge6" class="edge"><title>Node1&#45;&gt;Node4</title>
<path fill="none" stroke="midnightblue" d="M61.647,-64.0104C70.4079,-62.2926 79.8355,-60.444 88.7556,-58.695"/>
<polygon fill="midnightblue" stroke="midnightblue" points="60.8786,-60.5943 51.7389,-65.9532 62.2255,-67.4635 60.8786,-60.5943"/>
</g>
<!-- Node5 -->
<g id="node9" class="node"><title>Node5</title>
<a xlink:href="d5/d4f/class_action_rpg_kit_1_1_tests_1_1_story_1_1_prolog_chapter.xhtml" target="_top" xlink:title="PrologChapter">
<polygon fill="white" stroke="black" points="88.5,-0.5 88.5,-21.5 167.5,-21.5 167.5,-0.5 88.5,-0.5"/>
<text text-anchor="middle" x="128" y="-8.5" font-family="Helvetica,sans-Serif" font-size="10.00">PrologChapter</text>
</a>
</g>
<!-- Node1&#45;&gt;Node5 -->
<g id="edge8" class="edge"><title>Node1&#45;&gt;Node5</title>
<path fill="none" stroke="midnightblue" d="M49.768,-54.799C61.1543,-47.2632 75.0933,-38.3609 88,-31 93.6653,-27.769 99.9194,-24.505 105.766,-21.5776"/>
<polygon fill="midnightblue" stroke="midnightblue" points="47.6191,-52.0255 41.2523,-60.494 51.5104,-57.8442 47.6191,-52.0255"/>
</g>
</g>
</svg>
