<?xml version="1.0" encoding="UTF-8" standalone="no"?>
<!DOCTYPE svg PUBLIC "-//W3C//DTD SVG 1.1//EN"
 "http://www.w3.org/Graphics/SVG/1.1/DTD/svg11.dtd">
<!-- Generated by graphviz version 2.38.0 (20140413.2041)
 -->
<!-- Title: Graphical Class Hierarchy Pages: 1 -->
<svg width="273pt" height="104pt"
 viewBox="0.00 0.00 273.00 104.00" xmlns="http://www.w3.org/2000/svg" xmlns:xlink="http://www.w3.org/1999/xlink">
<g id="graph0" class="graph" transform="scale(1 1) rotate(0) translate(4 100)">
<title>Graphical Class Hierarchy</title>
<polygon fill="white" stroke="none" points="-4,4 -4,-100 269,-100 269,4 -4,4"/>
<!-- Node1 -->
<g id="node1" class="node"><title>Node1</title>
<g id="a_node1"><a xlink:href="dd/d20/interface_character_1_1_i_character.xhtml" target="_top" xlink:title="Characters populate the game world. They are defined by Stats.">
<polygon fill="white" stroke="black" points="2,-76.5 2,-95.5 63,-95.5 63,-76.5 2,-76.5"/>
<text text-anchor="middle" x="32.5" y="-83.5" font-family="Helvetica,sans-Serif" font-size="10.00">ICharacter</text>
</a>
</g>
</g>
<!-- Node2 -->
<g id="node2" class="node"><title>Node2</title>
<g id="a_node2"><a xlink:href="d0/dd4/class_character_1_1_base_character.xhtml" target="_top" xlink:title="Base implementation of a Character.">
<polygon fill="white" stroke="black" points="101,-38.5 101,-57.5 182,-57.5 182,-38.5 101,-38.5"/>
<text text-anchor="middle" x="141.5" y="-45.5" font-family="Helvetica,sans-Serif" font-size="10.00">BaseCharacter</text>
</a>
</g>
</g>
<!-- Node1&#45;&gt;Node2 -->
<g id="edge1" class="edge"><title>Node1&#45;&gt;Node2</title>
<path fill="none" stroke="midnightblue" d="M70.0258,-73.0282C84.2812,-67.9656 100.33,-62.2659 113.508,-57.5859"/>
<polygon fill="midnightblue" stroke="midnightblue" points="68.7527,-69.7661 60.5006,-76.411 71.0953,-76.3625 68.7527,-69.7661"/>
</g>
<!-- Node3 -->
<g id="node3" class="node"><title>Node3</title>
<g id="a_node3"><a xlink:href="d9/dfd/class_character_1_1_enemy.xhtml" target="_top" xlink:title="Representation of a Hostile, game controlled character.">
<polygon fill="white" stroke="black" points="218,-57.5 218,-76.5 265,-76.5 265,-57.5 218,-57.5"/>
<text text-anchor="middle" x="241.5" y="-64.5" font-family="Helvetica,sans-Serif" font-size="10.00">Enemy</text>
</a>
</g>
</g>
<!-- Node2&#45;&gt;Node3 -->
<g id="edge2" class="edge"><title>Node2&#45;&gt;Node3</title>
<path fill="none" stroke="midnightblue" d="M191.926,-57.5826C201.05,-59.3516 210.155,-61.1167 217.974,-62.6326"/>
<polygon fill="midnightblue" stroke="midnightblue" points="192.561,-54.1407 182.078,-55.6733 191.229,-61.0127 192.561,-54.1407"/>
</g>
<!-- Node4 -->
<g id="node4" class="node"><title>Node4</title>
<g id="a_node4"><a xlink:href="d7/daf/class_character_1_1_player.xhtml" target="_top" xlink:title="Representation of a Player controllable character.">
<polygon fill="white" stroke="black" points="219.5,-19.5 219.5,-38.5 263.5,-38.5 263.5,-19.5 219.5,-19.5"/>
<text text-anchor="middle" x="241.5" y="-26.5" font-family="Helvetica,sans-Serif" font-size="10.00">Player</text>
</a>
</g>
</g>
<!-- Node2&#45;&gt;Node4 -->
<g id="edge3" class="edge"><title>Node2&#45;&gt;Node4</title>
<path fill="none" stroke="midnightblue" d="M192.053,-38.3928C201.675,-36.5274 211.268,-34.6674 219.349,-33.1008"/>
<polygon fill="midnightblue" stroke="midnightblue" points="191.229,-34.9873 182.078,-40.3267 192.561,-41.8593 191.229,-34.9873"/>
</g>
<!-- Node5 -->
<g id="node5" class="node"><title>Node5</title>
<g id="a_node5"><a xlink:href="d2/d26/interface_character_1_1_i_fighter.xhtml" target="_top" xlink:title="Character can fight.">
<polygon fill="white" stroke="black" points="8,-38.5 8,-57.5 57,-57.5 57,-38.5 8,-38.5"/>
<text text-anchor="middle" x="32.5" y="-45.5" font-family="Helvetica,sans-Serif" font-size="10.00">IFighter</text>
</a>
</g>
</g>
<!-- Node5&#45;&gt;Node2 -->
<g id="edge4" class="edge"><title>Node5&#45;&gt;Node2</title>
<path fill="none" stroke="midnightblue" d="M67.4014,-48C78.0306,-48 89.8575,-48 100.847,-48"/>
<polygon fill="midnightblue" stroke="midnightblue" points="67.2468,-44.5001 57.2468,-48 67.2467,-51.5001 67.2468,-44.5001"/>
</g>
<!-- Node6 -->
<g id="node6" class="node"><title>Node6</title>
<g id="a_node6"><a xlink:href="d7/dd1/interface_character_1_1_i_magic_user.xhtml" target="_top" xlink:title="Character can use Magic.">
<polygon fill="white" stroke="black" points="0,-0.5 0,-19.5 65,-19.5 65,-0.5 0,-0.5"/>
<text text-anchor="middle" x="32.5" y="-7.5" font-family="Helvetica,sans-Serif" font-size="10.00">IMagicUser</text>
</a>
</g>
</g>
<!-- Node6&#45;&gt;Node2 -->
<g id="edge5" class="edge"><title>Node6&#45;&gt;Node2</title>
<path fill="none" stroke="midnightblue" d="M70.0258,-22.9718C84.2812,-28.0344 100.33,-33.7341 113.508,-38.4141"/>
<polygon fill="midnightblue" stroke="midnightblue" points="71.0953,-19.6375 60.5006,-19.589 68.7527,-26.2339 71.0953,-19.6375"/>
</g>
</g>
</svg>
