<?xml version="1.0" encoding="UTF-8" standalone="no"?>
<!DOCTYPE svg PUBLIC "-//W3C//DTD SVG 1.1//EN"
 "http://www.w3.org/Graphics/SVG/1.1/DTD/svg11.dtd">
<!-- Generated by graphviz version 2.26.3 (20100126.1600)
 -->
<!-- Title: G Pages: 1 -->
<svg width="192pt" height="70pt"
 viewBox="0.00 0.00 192.00 70.00" xmlns="http://www.w3.org/2000/svg" xmlns:xlink="http://www.w3.org/1999/xlink">
<g id="graph1" class="graph" transform="scale(1 1) rotate(0) translate(4 66)">
<title>G</title>
<polygon fill="white" stroke="white" points="-4,5 -4,-66 189,-66 189,5 -4,5"/>
<!-- Node1 -->
<g id="node1" class="node"><title>Node1</title>
<a xlink:href="d4/d07/interface_action_rpg_kit_1_1_character_1_1_i_inventory.xhtml" target="_top" xlink:title="An inventory holds Items.">
<polygon fill="white" stroke="black" points="0,-20.5 0,-41.5 60,-41.5 60,-20.5 0,-20.5"/>
<text text-anchor="middle" x="30" y="-28.5" font-family="Helvetica,sans-Serif" font-size="10.00">IInventory</text>
</a>
</g>
<!-- Node2 -->
<g id="node3" class="node"><title>Node2</title>
<a xlink:href="d7/d0f/class_action_rpg_kit_1_1_character_1_1_player_inventory.xhtml" target="_top" xlink:title="Inventory allows to add and remove items.">
<polygon fill="white" stroke="black" points="97.5,-40.5 97.5,-61.5 182.5,-61.5 182.5,-40.5 97.5,-40.5"/>
<text text-anchor="middle" x="140" y="-48.5" font-family="Helvetica,sans-Serif" font-size="10.00">PlayerInventory</text>
</a>
</g>
<!-- Node1&#45;&gt;Node2 -->
<g id="edge2" class="edge"><title>Node1&#45;&gt;Node2</title>
<path fill="none" stroke="midnightblue" d="M70.093,-38.2896C78.9089,-39.8925 88.2775,-41.5959 97.1955,-43.2174"/>
<polygon fill="midnightblue" stroke="midnightblue" points="70.5228,-34.8105 60.058,-36.4651 69.2706,-41.6976 70.5228,-34.8105"/>
</g>
<!-- Node3 -->
<g id="node5" class="node"><title>Node3</title>
<a xlink:href="de/def/class_action_rpg_kit_1_1_character_1_1_simple_inventory.xhtml" target="_top" xlink:title="This inventory holds afixed size array of items.">
<polygon fill="white" stroke="black" points="96.5,-0.5 96.5,-21.5 183.5,-21.5 183.5,-0.5 96.5,-0.5"/>
<text text-anchor="middle" x="140" y="-8.5" font-family="Helvetica,sans-Serif" font-size="10.00">SimpleInventory</text>
</a>
</g>
<!-- Node1&#45;&gt;Node3 -->
<g id="edge4" class="edge"><title>Node1&#45;&gt;Node3</title>
<path fill="none" stroke="midnightblue" d="M70.1442,-23.7011C78.6725,-22.1505 87.716,-20.5062 96.3671,-18.9333"/>
<polygon fill="midnightblue" stroke="midnightblue" points="69.2706,-20.3024 60.058,-25.5349 70.5228,-27.1895 69.2706,-20.3024"/>
</g>
</g>
</svg>
