<?xml version="1.0" encoding="UTF-8" standalone="no"?>
<!DOCTYPE svg PUBLIC "-//W3C//DTD SVG 1.1//EN"
 "http://www.w3.org/Graphics/SVG/1.1/DTD/svg11.dtd">
<!-- Generated by graphviz version 2.26.3 (20100126.1600)
 -->
<!-- Title: G Pages: 1 -->
<svg width="156pt" height="150pt"
 viewBox="0.00 0.00 156.00 150.00" xmlns="http://www.w3.org/2000/svg" xmlns:xlink="http://www.w3.org/1999/xlink">
<g id="graph1" class="graph" transform="scale(1 1) rotate(0) translate(4 146)">
<title>G</title>
<polygon fill="white" stroke="white" points="-4,5 -4,-146 153,-146 153,5 -4,5"/>
<!-- Node1 -->
<g id="node1" class="node"><title>Node1</title>
<a xlink:href="db/d3f/interface_action_rpg_kit_1_1_character_1_1_i_state.xhtml" target="_top" xlink:title="Determine the state of a Character.">
<polygon fill="white" stroke="black" points="0.5,-60.5 0.5,-81.5 43.5,-81.5 43.5,-60.5 0.5,-60.5"/>
<text text-anchor="middle" x="22" y="-68.5" font-family="Helvetica,sans-Serif" font-size="10.00">IState</text>
</a>
</g>
<!-- Node2 -->
<g id="node3" class="node"><title>Node2</title>
<a xlink:href="df/d02/class_action_rpg_kit_1_1_character_1_1_alert_state.xhtml" target="_top" xlink:title="AlertState">
<polygon fill="white" stroke="black" points="84,-120.5 84,-141.5 144,-141.5 144,-120.5 84,-120.5"/>
<text text-anchor="middle" x="114" y="-128.5" font-family="Helvetica,sans-Serif" font-size="10.00">AlertState</text>
</a>
</g>
<!-- Node1&#45;&gt;Node2 -->
<g id="edge2" class="edge"><title>Node1&#45;&gt;Node2</title>
<path fill="none" stroke="midnightblue" d="M45.3053,-87.6399C55.7921,-94.9796 68.3979,-103.6 80,-111 84.9656,-114.167 90.432,-117.463 95.5023,-120.444"/>
<polygon fill="midnightblue" stroke="midnightblue" points="47.2535,-84.7311 37.0633,-81.8308 43.2207,-90.4527 47.2535,-84.7311"/>
</g>
<!-- Node3 -->
<g id="node5" class="node"><title>Node3</title>
<a xlink:href="d4/d2e/class_action_rpg_kit_1_1_character_1_1_attack_state.xhtml" target="_top" xlink:title="AttackState">
<polygon fill="white" stroke="black" points="80,-80.5 80,-101.5 148,-101.5 148,-80.5 80,-80.5"/>
<text text-anchor="middle" x="114" y="-88.5" font-family="Helvetica,sans-Serif" font-size="10.00">AttackState</text>
</a>
</g>
<!-- Node1&#45;&gt;Node3 -->
<g id="edge4" class="edge"><title>Node1&#45;&gt;Node3</title>
<path fill="none" stroke="midnightblue" d="M53.6394,-77.8781C62.0657,-79.7099 71.2066,-81.6971 79.7651,-83.5576"/>
<polygon fill="midnightblue" stroke="midnightblue" points="54.318,-74.444 43.8027,-75.7397 52.831,-81.2842 54.318,-74.444"/>
</g>
<!-- Node4 -->
<g id="node7" class="node"><title>Node4</title>
<a xlink:href="d7/d11/class_action_rpg_kit_1_1_character_1_1_chase_state.xhtml" target="_top" xlink:title="ChaseState">
<polygon fill="white" stroke="black" points="80,-40.5 80,-61.5 148,-61.5 148,-40.5 80,-40.5"/>
<text text-anchor="middle" x="114" y="-48.5" font-family="Helvetica,sans-Serif" font-size="10.00">ChaseState</text>
</a>
</g>
<!-- Node1&#45;&gt;Node4 -->
<g id="edge6" class="edge"><title>Node1&#45;&gt;Node4</title>
<path fill="none" stroke="midnightblue" d="M53.6394,-64.1219C62.0657,-62.2901 71.2066,-60.3029 79.7651,-58.4424"/>
<polygon fill="midnightblue" stroke="midnightblue" points="52.831,-60.7158 43.8027,-66.2603 54.318,-67.556 52.831,-60.7158"/>
</g>
<!-- Node5 -->
<g id="node9" class="node"><title>Node5</title>
<a xlink:href="da/d80/class_action_rpg_kit_1_1_character_1_1_idle_state.xhtml" target="_top" xlink:title="The initial State of a Character.">
<polygon fill="white" stroke="black" points="86,-0.5 86,-21.5 142,-21.5 142,-0.5 86,-0.5"/>
<text text-anchor="middle" x="114" y="-8.5" font-family="Helvetica,sans-Serif" font-size="10.00">IdleState</text>
</a>
</g>
<!-- Node1&#45;&gt;Node5 -->
<g id="edge8" class="edge"><title>Node1&#45;&gt;Node5</title>
<path fill="none" stroke="midnightblue" d="M45.3053,-54.3601C55.7921,-47.0204 68.3979,-38.3996 80,-31 84.9656,-27.8331 90.432,-24.5368 95.5023,-21.5556"/>
<polygon fill="midnightblue" stroke="midnightblue" points="43.2207,-51.5473 37.0633,-60.1692 47.2535,-57.2689 43.2207,-51.5473"/>
</g>
</g>
</svg>
