<?xml version="1.0" encoding="UTF-8" standalone="no"?>
<!DOCTYPE svg PUBLIC "-//W3C//DTD SVG 1.1//EN"
 "http://www.w3.org/Graphics/SVG/1.1/DTD/svg11.dtd">
<!-- Generated by graphviz version 2.26.3 (20100126.1600)
 -->
<!-- Title: G Pages: 1 -->
<svg width="278pt" height="110pt"
 viewBox="0.00 0.00 278.00 110.00" xmlns="http://www.w3.org/2000/svg" xmlns:xlink="http://www.w3.org/1999/xlink">
<g id="graph1" class="graph" transform="scale(1 1) rotate(0) translate(4 106)">
<title>G</title>
<polygon fill="white" stroke="white" points="-4,5 -4,-106 275,-106 275,5 -4,5"/>
<!-- Node1 -->
<g id="node1" class="node"><title>Node1</title>
<a xlink:href="dc/d2f/interface_action_rpg_kit_1_1_core_1_1_character_1_1_i_character.xhtml" target="_top" xlink:title="Characters populate the game world. They are defined by Stats.">
<polygon fill="white" stroke="black" points="3,-80.5 3,-101.5 65,-101.5 65,-80.5 3,-80.5"/>
<text text-anchor="middle" x="34" y="-88.5" font-family="Helvetica,sans-Serif" font-size="10.00">ICharacter</text>
</a>
</g>
<!-- Node2 -->
<g id="node3" class="node"><title>Node2</title>
<a xlink:href="d7/d90/class_action_rpg_kit_1_1_core_1_1_character_1_1_base_character.xhtml" target="_top" xlink:title="Base implementation of a Character.">
<polygon fill="white" stroke="black" points="104,-40.5 104,-61.5 186,-61.5 186,-40.5 104,-40.5"/>
<text text-anchor="middle" x="145" y="-48.5" font-family="Helvetica,sans-Serif" font-size="10.00">BaseCharacter</text>
</a>
</g>
<!-- Node1&#45;&gt;Node2 -->
<g id="edge2" class="edge"><title>Node1&#45;&gt;Node2</title>
<path fill="none" stroke="midnightblue" d="M72.6283,-77.0799C86.7441,-71.9931 102.469,-66.3265 115.645,-61.5782"/>
<polygon fill="midnightblue" stroke="midnightblue" points="71.3852,-73.8075 63.1639,-80.4905 73.7583,-80.3929 71.3852,-73.8075"/>
</g>
<!-- Node3 -->
<g id="node5" class="node"><title>Node3</title>
<a xlink:href="d0/da7/class_action_rpg_kit_1_1_core_1_1_character_1_1_enemy.xhtml" target="_top" xlink:title="Representation of a Hostile, game controlled character.">
<polygon fill="white" stroke="black" points="222.5,-60.5 222.5,-81.5 269.5,-81.5 269.5,-60.5 222.5,-60.5"/>
<text text-anchor="middle" x="246" y="-68.5" font-family="Helvetica,sans-Serif" font-size="10.00">Enemy</text>
</a>
</g>
<!-- Node2&#45;&gt;Node3 -->
<g id="edge4" class="edge"><title>Node2&#45;&gt;Node3</title>
<path fill="none" stroke="midnightblue" d="M196.023,-61.1036C205.231,-62.9269 214.415,-64.7456 222.352,-66.3172"/>
<polygon fill="midnightblue" stroke="midnightblue" points="196.57,-57.644 186.081,-59.1348 195.21,-64.5107 196.57,-57.644"/>
</g>
<!-- Node4 -->
<g id="node7" class="node"><title>Node4</title>
<a xlink:href="db/d7e/class_action_rpg_kit_1_1_core_1_1_character_1_1_player.xhtml" target="_top" xlink:title="Representation of a Player controllable character.">
<polygon fill="white" stroke="black" points="224,-20.5 224,-41.5 268,-41.5 268,-20.5 224,-20.5"/>
<text text-anchor="middle" x="246" y="-28.5" font-family="Helvetica,sans-Serif" font-size="10.00">Player</text>
</a>
</g>
<!-- Node2&#45;&gt;Node4 -->
<g id="edge6" class="edge"><title>Node2&#45;&gt;Node4</title>
<path fill="none" stroke="midnightblue" d="M196.158,-40.8697C205.875,-38.9455 215.56,-37.0277 223.773,-35.4015"/>
<polygon fill="midnightblue" stroke="midnightblue" points="195.21,-37.4893 186.081,-42.8652 196.57,-44.356 195.21,-37.4893"/>
</g>
<!-- Node5 -->
<g id="node8" class="node"><title>Node5</title>
<a xlink:href="d6/d4d/interface_action_rpg_kit_1_1_core_1_1_character_1_1_i_fighter.xhtml" target="_top" xlink:title="Character can fight.">
<polygon fill="white" stroke="black" points="9,-40.5 9,-61.5 59,-61.5 59,-40.5 9,-40.5"/>
<text text-anchor="middle" x="34" y="-48.5" font-family="Helvetica,sans-Serif" font-size="10.00">IFighter</text>
</a>
</g>
<!-- Node5&#45;&gt;Node2 -->
<g id="edge8" class="edge"><title>Node5&#45;&gt;Node2</title>
<path fill="none" stroke="midnightblue" d="M69.272,-51C80.252,-51 92.4557,-51 103.803,-51"/>
<polygon fill="midnightblue" stroke="midnightblue" points="69.1877,-47.5001 59.1876,-51 69.1876,-54.5001 69.1877,-47.5001"/>
</g>
<!-- Node6 -->
<g id="node10" class="node"><title>Node6</title>
<a xlink:href="d9/d26/interface_action_rpg_kit_1_1_core_1_1_character_1_1_i_magic_user.xhtml" target="_top" xlink:title="Character can use Magic.">
<polygon fill="white" stroke="black" points="0.5,-0.5 0.5,-21.5 67.5,-21.5 67.5,-0.5 0.5,-0.5"/>
<text text-anchor="middle" x="34" y="-8.5" font-family="Helvetica,sans-Serif" font-size="10.00">IMagicUser</text>
</a>
</g>
<!-- Node6&#45;&gt;Node2 -->
<g id="edge10" class="edge"><title>Node6&#45;&gt;Node2</title>
<path fill="none" stroke="midnightblue" d="M72.6283,-24.9201C86.7441,-30.0069 102.469,-35.6735 115.645,-40.4218"/>
<polygon fill="midnightblue" stroke="midnightblue" points="73.7583,-21.6071 63.1639,-21.5095 71.3852,-28.1925 73.7583,-21.6071"/>
</g>
</g>
</svg>
