<?xml version="1.0" encoding="UTF-8" standalone="no"?>
<!DOCTYPE svg PUBLIC "-//W3C//DTD SVG 1.1//EN"
 "http://www.w3.org/Graphics/SVG/1.1/DTD/svg11.dtd">
<!-- Generated by graphviz version 2.38.0 (20140413.2041)
 -->
<!-- Title: Graphical Class Hierarchy Pages: 1 -->
<svg width="284pt" height="66pt"
 viewBox="0.00 0.00 284.00 66.00" xmlns="http://www.w3.org/2000/svg" xmlns:xlink="http://www.w3.org/1999/xlink">
<g id="graph0" class="graph" transform="scale(1 1) rotate(0) translate(4 62)">
<title>Graphical Class Hierarchy</title>
<polygon fill="white" stroke="none" points="-4,4 -4,-62 280,-62 280,4 -4,4"/>
<!-- Node1 -->
<g id="node1" class="node"><title>Node1</title>
<g id="a_node1"><a xlink:href="de/df3/interface_character_1_1_skill_1_1_i_skill.xhtml" target="_top" xlink:title="Interface for Skills.">
<polygon fill="white" stroke="black" points="0,-19.5 0,-38.5 38,-38.5 38,-19.5 0,-19.5"/>
<text text-anchor="middle" x="19" y="-26.5" font-family="Helvetica,sans-Serif" font-size="10.00">ISkill</text>
</a>
</g>
</g>
<!-- Node2 -->
<g id="node2" class="node"><title>Node2</title>
<g id="a_node2"><a xlink:href="df/dff/interface_character_1_1_skill_1_1_i_combat_skill.xhtml" target="_top" xlink:title="A Skill to be used as an Attack in Combat.">
<polygon fill="white" stroke="black" points="74,-38.5 74,-57.5 145,-57.5 145,-38.5 74,-38.5"/>
<text text-anchor="middle" x="109.5" y="-45.5" font-family="Helvetica,sans-Serif" font-size="10.00">ICombatSkill</text>
</a>
</g>
</g>
<!-- Node1&#45;&gt;Node2 -->
<g id="edge1" class="edge"><title>Node1&#45;&gt;Node2</title>
<path fill="none" stroke="midnightblue" d="M48.3709,-35.0909C56.4421,-36.8237 65.3259,-38.731 73.7308,-40.5354"/>
<polygon fill="midnightblue" stroke="midnightblue" points="48.8492,-31.6139 38.3373,-32.9368 47.3798,-38.458 48.8492,-31.6139"/>
</g>
<!-- Node4 -->
<g id="node4" class="node"><title>Node4</title>
<g id="a_node4"><a xlink:href="d1/d20/interface_character_1_1_skill_1_1_i_magic_skill.xhtml" target="_top" xlink:title="A magic Skill costs magic energy on each use.">
<polygon fill="white" stroke="black" points="77.5,-0.5 77.5,-19.5 141.5,-19.5 141.5,-0.5 77.5,-0.5"/>
<text text-anchor="middle" x="109.5" y="-7.5" font-family="Helvetica,sans-Serif" font-size="10.00">IMagicSkill</text>
</a>
</g>
</g>
<!-- Node1&#45;&gt;Node4 -->
<g id="edge3" class="edge"><title>Node1&#45;&gt;Node4</title>
<path fill="none" stroke="midnightblue" d="M48.2256,-22.9403C57.4833,-20.9527 67.8229,-18.7329 77.2885,-16.7008"/>
<polygon fill="midnightblue" stroke="midnightblue" points="47.3798,-19.542 38.3373,-25.0632 48.8492,-26.3861 47.3798,-19.542"/>
</g>
<!-- Node3 -->
<g id="node3" class="node"><title>Node3</title>
<g id="a_node3"><a xlink:href="d7/ddb/class_character_1_1_skill_1_1_melee_skill.xhtml" target="_top" xlink:title="MeleeSkill">
<polygon fill="white" stroke="black" points="197.5,-38.5 197.5,-57.5 259.5,-57.5 259.5,-38.5 197.5,-38.5"/>
<text text-anchor="middle" x="228.5" y="-45.5" font-family="Helvetica,sans-Serif" font-size="10.00">MeleeSkill</text>
</a>
</g>
</g>
<!-- Node2&#45;&gt;Node3 -->
<g id="edge2" class="edge"><title>Node2&#45;&gt;Node3</title>
<path fill="none" stroke="midnightblue" d="M155.296,-48C169.383,-48 184.593,-48 197.404,-48"/>
<polygon fill="midnightblue" stroke="midnightblue" points="155.287,-44.5001 145.287,-48 155.287,-51.5001 155.287,-44.5001"/>
</g>
<!-- Node5 -->
<g id="node5" class="node"><title>Node5</title>
<g id="a_node5"><a xlink:href="d2/d37/class_character_1_1_skill_1_1_passive_magic_skill.xhtml" target="_top" xlink:title="A passive Skill acts on the User itself.">
<polygon fill="white" stroke="black" points="181,-0.5 181,-19.5 276,-19.5 276,-0.5 181,-0.5"/>
<text text-anchor="middle" x="228.5" y="-7.5" font-family="Helvetica,sans-Serif" font-size="10.00">PassiveMagicSkill</text>
</a>
</g>
</g>
<!-- Node4&#45;&gt;Node5 -->
<g id="edge4" class="edge"><title>Node4&#45;&gt;Node5</title>
<path fill="none" stroke="midnightblue" d="M151.824,-10C161.223,-10 171.271,-10 180.874,-10"/>
<polygon fill="midnightblue" stroke="midnightblue" points="151.547,-6.5001 141.547,-10 151.547,-13.5001 151.547,-6.5001"/>
</g>
</g>
</svg>
