<?xml version="1.0" encoding="UTF-8" standalone="no"?>
<!DOCTYPE svg PUBLIC "-//W3C//DTD SVG 1.1//EN"
 "http://www.w3.org/Graphics/SVG/1.1/DTD/svg11.dtd">
<!-- Generated by graphviz version 2.38.0 (20140413.2041)
 -->
<!-- Title: Graphical Class Hierarchy Pages: 1 -->
<svg width="273pt" height="66pt"
 viewBox="0.00 0.00 273.00 66.00" xmlns="http://www.w3.org/2000/svg" xmlns:xlink="http://www.w3.org/1999/xlink">
<g id="graph0" class="graph" transform="scale(1 1) rotate(0) translate(4 62)">
<title>Graphical Class Hierarchy</title>
<polygon fill="white" stroke="none" points="-4,4 -4,-62 269,-62 269,4 -4,4"/>
<!-- Node1 -->
<g id="node1" class="node"><title>Node1</title>
<polygon fill="white" stroke="#bfbfbf" points="0,-19.5 0,-38.5 60,-38.5 60,-19.5 0,-19.5"/>
<text text-anchor="middle" x="30" y="-26.5" font-family="Helvetica,sans-Serif" font-size="10.00">Dictionary</text>
</g>
<!-- Node2 -->
<g id="node2" class="node"><title>Node2</title>
<g id="a_node2"><a xlink:href="d0/d48/class_character_1_1_stats_1_1_base_stats.xhtml" target="_top" xlink:title="BaseStats">
<polygon fill="white" stroke="black" points="96,-19.5 96,-38.5 158,-38.5 158,-19.5 96,-19.5"/>
<text text-anchor="middle" x="127" y="-26.5" font-family="Helvetica,sans-Serif" font-size="10.00">BaseStats</text>
</a>
</g>
</g>
<!-- Node1&#45;&gt;Node2 -->
<g id="edge1" class="edge"><title>Node1&#45;&gt;Node2</title>
<path fill="none" stroke="midnightblue" d="M70.2017,-29C78.7644,-29 87.6983,-29 95.8435,-29"/>
<polygon fill="midnightblue" stroke="midnightblue" points="70.0194,-25.5001 60.0193,-29 70.0193,-32.5001 70.0194,-25.5001"/>
</g>
<!-- Node3 -->
<g id="node3" class="node"><title>Node3</title>
<g id="a_node3"><a xlink:href="d3/d50/class_character_1_1_stats_1_1_enemy_stats.xhtml" target="_top" xlink:title="EnemyStats">
<polygon fill="white" stroke="black" points="194,-38.5 194,-57.5 265,-57.5 265,-38.5 194,-38.5"/>
<text text-anchor="middle" x="229.5" y="-45.5" font-family="Helvetica,sans-Serif" font-size="10.00">EnemyStats</text>
</a>
</g>
</g>
<!-- Node2&#45;&gt;Node3 -->
<g id="edge2" class="edge"><title>Node2&#45;&gt;Node3</title>
<path fill="none" stroke="midnightblue" d="M168.213,-36.6025C176.677,-38.2027 185.537,-39.8777 193.779,-41.4359"/>
<polygon fill="midnightblue" stroke="midnightblue" points="168.629,-33.1193 158.153,-34.7006 167.329,-39.9974 168.629,-33.1193"/>
</g>
<!-- Node4 -->
<g id="node4" class="node"><title>Node4</title>
<g id="a_node4"><a xlink:href="da/dcc/class_character_1_1_stats_1_1_player_stats.xhtml" target="_top" xlink:title="PlayerStats">
<polygon fill="white" stroke="black" points="195.5,-0.5 195.5,-19.5 263.5,-19.5 263.5,-0.5 195.5,-0.5"/>
<text text-anchor="middle" x="229.5" y="-7.5" font-family="Helvetica,sans-Serif" font-size="10.00">PlayerStats</text>
</a>
</g>
</g>
<!-- Node2&#45;&gt;Node4 -->
<g id="edge3" class="edge"><title>Node2&#45;&gt;Node4</title>
<path fill="none" stroke="midnightblue" d="M168.058,-21.4269C177.059,-19.7251 186.517,-17.9372 195.207,-16.2942"/>
<polygon fill="midnightblue" stroke="midnightblue" points="167.329,-18.0026 158.153,-23.2994 168.629,-24.8807 167.329,-18.0026"/>
</g>
</g>
</svg>
