<?xml version="1.0" encoding="UTF-8" standalone="no"?>
<!DOCTYPE svg PUBLIC "-//W3C//DTD SVG 1.1//EN"
 "http://www.w3.org/Graphics/SVG/1.1/DTD/svg11.dtd">
<!-- Generated by graphviz version 2.26.3 (20100126.1600)
 -->
<!-- Title: G Pages: 1 -->
<svg width="320pt" height="150pt"
 viewBox="0.00 0.00 320.00 150.00" xmlns="http://www.w3.org/2000/svg" xmlns:xlink="http://www.w3.org/1999/xlink">
<g id="graph1" class="graph" transform="scale(1 1) rotate(0) translate(4 146)">
<title>G</title>
<polygon fill="white" stroke="white" points="-4,5 -4,-146 317,-146 317,5 -4,5"/>
<!-- Node1 -->
<g id="node1" class="node"><title>Node1</title>
<a xlink:href="d2/d98/interface_action_rpg_kit_1_1_story_1_1_quest_1_1_i_objective.xhtml" target="_top" xlink:title="IObjective">
<polygon fill="white" stroke="black" points="0.5,-60.5 0.5,-81.5 61.5,-81.5 61.5,-60.5 0.5,-60.5"/>
<text text-anchor="middle" x="31" y="-68.5" font-family="Helvetica,sans-Serif" font-size="10.00">IObjective</text>
</a>
</g>
<!-- Node2 -->
<g id="node3" class="node"><title>Node2</title>
<a xlink:href="d3/d20/class_action_rpg_kit_1_1_story_1_1_quest_1_1_objective.xhtml" target="_top" xlink:title="Objective">
<polygon fill="white" stroke="black" points="98,-60.5 98,-81.5 156,-81.5 156,-60.5 98,-60.5"/>
<text text-anchor="middle" x="127" y="-68.5" font-family="Helvetica,sans-Serif" font-size="10.00">Objective</text>
</a>
</g>
<!-- Node1&#45;&gt;Node2 -->
<g id="edge2" class="edge"><title>Node1&#45;&gt;Node2</title>
<path fill="none" stroke="midnightblue" d="M71.7542,-71C80.5637,-71 89.7066,-71 97.9587,-71"/>
<polygon fill="midnightblue" stroke="midnightblue" points="71.639,-67.5001 61.6389,-71 71.6389,-74.5001 71.639,-67.5001"/>
</g>
<!-- Node3 -->
<g id="node5" class="node"><title>Node3</title>
<a xlink:href="d6/d7d/class_action_rpg_kit_1_1_tests_1_1_integration_tests_1_1_find10_herbs_objective.xhtml" target="_top" xlink:title="Find10HerbsObjective">
<polygon fill="white" stroke="black" points="195.5,-120.5 195.5,-141.5 308.5,-141.5 308.5,-120.5 195.5,-120.5"/>
<text text-anchor="middle" x="252" y="-128.5" font-family="Helvetica,sans-Serif" font-size="10.00">Find10HerbsObjective</text>
</a>
</g>
<!-- Node2&#45;&gt;Node3 -->
<g id="edge4" class="edge"><title>Node2&#45;&gt;Node3</title>
<path fill="none" stroke="midnightblue" d="M150.485,-87.271C162.528,-95.1374 177.648,-104.301 192,-111 199.562,-114.53 207.922,-117.726 215.94,-120.476"/>
<polygon fill="midnightblue" stroke="midnightblue" points="152.201,-84.2085 141.94,-81.5708 148.317,-90.0318 152.201,-84.2085"/>
</g>
<!-- Node4 -->
<g id="node7" class="node"><title>Node4</title>
<a xlink:href="d3/d5f/class_action_rpg_kit_1_1_tests_1_1_integration_tests_1_1_get_rid_of_rats_objective.xhtml" target="_top" xlink:title="GetRidOfRatsObjective">
<polygon fill="white" stroke="black" points="192,-80.5 192,-101.5 312,-101.5 312,-80.5 192,-80.5"/>
<text text-anchor="middle" x="252" y="-88.5" font-family="Helvetica,sans-Serif" font-size="10.00">GetRidOfRatsObjective</text>
</a>
</g>
<!-- Node2&#45;&gt;Node4 -->
<g id="edge6" class="edge"><title>Node2&#45;&gt;Node4</title>
<path fill="none" stroke="midnightblue" d="M166.249,-77.2799C174.398,-78.5838 183.163,-79.986 191.866,-81.3785"/>
<polygon fill="midnightblue" stroke="midnightblue" points="166.734,-73.8131 156.307,-75.6891 165.628,-80.7251 166.734,-73.8131"/>
</g>
<!-- Node5 -->
<g id="node9" class="node"><title>Node5</title>
<a xlink:href="d5/d1e/class_action_rpg_kit_1_1_tests_1_1_story_1_1_find10_herbs_objective.xhtml" target="_top" xlink:title="Find10HerbsObjective">
<polygon fill="white" stroke="black" points="195.5,-40.5 195.5,-61.5 308.5,-61.5 308.5,-40.5 195.5,-40.5"/>
<text text-anchor="middle" x="252" y="-48.5" font-family="Helvetica,sans-Serif" font-size="10.00">Find10HerbsObjective</text>
</a>
</g>
<!-- Node2&#45;&gt;Node5 -->
<g id="edge8" class="edge"><title>Node2&#45;&gt;Node5</title>
<path fill="none" stroke="midnightblue" d="M166.334,-64.7066C175.556,-63.2311 185.562,-61.6301 195.373,-60.0603"/>
<polygon fill="midnightblue" stroke="midnightblue" points="165.628,-61.2749 156.307,-66.3109 166.734,-68.1869 165.628,-61.2749"/>
</g>
<!-- Node6 -->
<g id="node11" class="node"><title>Node6</title>
<a xlink:href="dc/d33/class_action_rpg_kit_1_1_tests_1_1_story_1_1_get_rid_of_rats_objective.xhtml" target="_top" xlink:title="GetRidOfRatsObjective">
<polygon fill="white" stroke="black" points="192,-0.5 192,-21.5 312,-21.5 312,-0.5 192,-0.5"/>
<text text-anchor="middle" x="252" y="-8.5" font-family="Helvetica,sans-Serif" font-size="10.00">GetRidOfRatsObjective</text>
</a>
</g>
<!-- Node2&#45;&gt;Node6 -->
<g id="edge10" class="edge"><title>Node2&#45;&gt;Node6</title>
<path fill="none" stroke="midnightblue" d="M150.485,-54.729C162.528,-46.8626 177.648,-37.6988 192,-31 199.562,-27.4705 207.922,-24.2739 215.94,-21.5237"/>
<polygon fill="midnightblue" stroke="midnightblue" points="148.317,-51.9682 141.94,-60.4292 152.201,-57.7915 148.317,-51.9682"/>
</g>
</g>
</svg>
