<?xml version="1.0" encoding="UTF-8" standalone="no"?>
<!DOCTYPE svg PUBLIC "-//W3C//DTD SVG 1.1//EN"
 "http://www.w3.org/Graphics/SVG/1.1/DTD/svg11.dtd">
<!-- Generated by graphviz version 2.26.3 (20100126.1600)
 -->
<!-- Title: SimpleVolumeAttribute Pages: 1 -->
<svg width="138pt" height="624pt"
 viewBox="0.00 0.00 138.00 624.00" xmlns="http://www.w3.org/2000/svg" xmlns:xlink="http://www.w3.org/1999/xlink">
<g id="graph1" class="graph" transform="scale(1 1) rotate(0) translate(4 620)">
<title>SimpleVolumeAttribute</title>
<polygon fill="white" stroke="white" points="-4,5 -4,-620 135,-620 135,5 -4,5"/>
<!-- Node1 -->
<g id="node1" class="node"><title>Node1</title>
<polygon fill="#bfbfbf" stroke="black" points="-0.5,-1 -0.5,-103 130.5,-103 130.5,-1 -0.5,-1"/>
<text text-anchor="middle" x="65" y="-90" font-family="Helvetica,sans-Serif" font-size="10.00">SimpleVolumeAttribute</text>
<polyline fill="none" stroke="black" points="-0.5,-82 130.5,-82 "/>
<text text-anchor="start" x="7.5" y="-69" font-family="Helvetica,sans-Serif" font-size="10.00">+ Value</text>
<text text-anchor="start" x="7.5" y="-56" font-family="Helvetica,sans-Serif" font-size="10.00">+ MaxValue</text>
<text text-anchor="start" x="7.5" y="-43" font-family="Helvetica,sans-Serif" font-size="10.00">&#45; _currentValue</text>
<text text-anchor="start" x="7.5" y="-30" font-family="Helvetica,sans-Serif" font-size="10.00">&#45; _absoluteMaxValue</text>
<polyline fill="none" stroke="black" points="-0.5,-22 130.5,-22 "/>
<text text-anchor="start" x="7.5" y="-9" font-family="Helvetica,sans-Serif" font-size="10.00">+ SimpleVolumeAttribute()</text>
</g>
<!-- Node2 -->
<g id="node2" class="node"><title>Node2</title>
<a xlink:href="../../d5/ddc/class_action_rpg_kit_1_1_character_1_1_attribute_1_1_primary_attribute.xhtml" target="_top" xlink:title="Represents a simple float value. ">
<polygon fill="white" stroke="black" points="13.5,-140.5 13.5,-411.5 116.5,-411.5 116.5,-140.5 13.5,-140.5"/>
<text text-anchor="middle" x="65" y="-398.5" font-family="Helvetica,sans-Serif" font-size="10.00">PrimaryAttribute</text>
<polyline fill="none" stroke="black" points="13.5,-390.5 116.5,-390.5 "/>
<text text-anchor="start" x="21.5" y="-377.5" font-family="Helvetica,sans-Serif" font-size="10.00">+ Name</text>
<text text-anchor="start" x="21.5" y="-364.5" font-family="Helvetica,sans-Serif" font-size="10.00">+ BaseValue</text>
<text text-anchor="start" x="21.5" y="-351.5" font-family="Helvetica,sans-Serif" font-size="10.00">+ Value</text>
<text text-anchor="start" x="21.5" y="-338.5" font-family="Helvetica,sans-Serif" font-size="10.00">+ MaxValue</text>
<text text-anchor="start" x="21.5" y="-325.5" font-family="Helvetica,sans-Serif" font-size="10.00">+ MinValue</text>
<text text-anchor="start" x="21.5" y="-312.5" font-family="Helvetica,sans-Serif" font-size="10.00">+ Modifiers</text>
<text text-anchor="start" x="21.5" y="-299.5" font-family="Helvetica,sans-Serif" font-size="10.00">+ IsModified</text>
<text text-anchor="start" x="21.5" y="-286.5" font-family="Helvetica,sans-Serif" font-size="10.00">&#45; _name</text>
<text text-anchor="start" x="21.5" y="-273.5" font-family="Helvetica,sans-Serif" font-size="10.00">&#45; _value</text>
<text text-anchor="start" x="21.5" y="-260.5" font-family="Helvetica,sans-Serif" font-size="10.00">&#45; _minValue</text>
<text text-anchor="start" x="21.5" y="-247.5" font-family="Helvetica,sans-Serif" font-size="10.00">&#45; _maxValue</text>
<text text-anchor="start" x="21.5" y="-234.5" font-family="Helvetica,sans-Serif" font-size="10.00">&#45; _modifiers</text>
<polyline fill="none" stroke="black" points="13.5,-226.5 116.5,-226.5 "/>
<text text-anchor="start" x="21.5" y="-213.5" font-family="Helvetica,sans-Serif" font-size="10.00">+ PrimaryAttribute()</text>
<text text-anchor="start" x="21.5" y="-200.5" font-family="Helvetica,sans-Serif" font-size="10.00">+ PrimaryAttribute()</text>
<text text-anchor="start" x="21.5" y="-187.5" font-family="Helvetica,sans-Serif" font-size="10.00">+ AddModifier()</text>
<text text-anchor="start" x="21.5" y="-174.5" font-family="Helvetica,sans-Serif" font-size="10.00">+ RemoveModifier()</text>
<text text-anchor="start" x="21.5" y="-161.5" font-family="Helvetica,sans-Serif" font-size="10.00">+ ToString()</text>
<text text-anchor="start" x="21.5" y="-148.5" font-family="Helvetica,sans-Serif" font-size="10.00">+ Reset()</text>
</a>
</g>
<!-- Node2&#45;&gt;Node1 -->
<g id="edge2" class="edge"><title>Node2&#45;&gt;Node1</title>
<path fill="none" stroke="midnightblue" d="M65,-129.923C65,-120.557 65,-111.543 65,-103.178"/>
<polygon fill="none" stroke="midnightblue" points="61.5001,-130.209 65,-140.209 68.5001,-130.209 61.5001,-130.209"/>
</g>
<!-- Node3 -->
<g id="node4" class="node"><title>Node3</title>
<a xlink:href="../../d5/d7e/interface_action_rpg_kit_1_1_character_1_1_attribute_1_1_i_attribute.xhtml" target="_top" xlink:title="Interface for Attributes. ">
<polygon fill="white" stroke="black" points="13.5,-448.5 13.5,-615.5 116.5,-615.5 116.5,-448.5 13.5,-448.5"/>
<text text-anchor="middle" x="65" y="-602.5" font-family="Helvetica,sans-Serif" font-size="10.00">IAttribute</text>
<polyline fill="none" stroke="black" points="13.5,-594.5 116.5,-594.5 "/>
<text text-anchor="start" x="21.5" y="-581.5" font-family="Helvetica,sans-Serif" font-size="10.00">+ Name</text>
<text text-anchor="start" x="21.5" y="-568.5" font-family="Helvetica,sans-Serif" font-size="10.00">+ BaseValue</text>
<text text-anchor="start" x="21.5" y="-555.5" font-family="Helvetica,sans-Serif" font-size="10.00">+ Value</text>
<text text-anchor="start" x="21.5" y="-542.5" font-family="Helvetica,sans-Serif" font-size="10.00">+ MaxValue</text>
<text text-anchor="start" x="21.5" y="-529.5" font-family="Helvetica,sans-Serif" font-size="10.00">+ MinValue</text>
<text text-anchor="start" x="21.5" y="-516.5" font-family="Helvetica,sans-Serif" font-size="10.00">+ Modifiers</text>
<text text-anchor="start" x="21.5" y="-503.5" font-family="Helvetica,sans-Serif" font-size="10.00">+ IsModified</text>
<polyline fill="none" stroke="black" points="13.5,-495.5 116.5,-495.5 "/>
<text text-anchor="start" x="21.5" y="-482.5" font-family="Helvetica,sans-Serif" font-size="10.00">+ AddModifier()</text>
<text text-anchor="start" x="21.5" y="-469.5" font-family="Helvetica,sans-Serif" font-size="10.00">+ RemoveModifier()</text>
<text text-anchor="start" x="21.5" y="-456.5" font-family="Helvetica,sans-Serif" font-size="10.00">+ Reset()</text>
</a>
</g>
<!-- Node3&#45;&gt;Node2 -->
<g id="edge4" class="edge"><title>Node3&#45;&gt;Node2</title>
<path fill="none" stroke="midnightblue" d="M65,-438.085C65,-429.391 65,-420.471 65,-411.502"/>
<polygon fill="none" stroke="midnightblue" points="61.5001,-438.176 65,-448.176 68.5001,-438.176 61.5001,-438.176"/>
</g>
</g>
</svg>
