<?xml version="1.0" encoding="UTF-8" standalone="no"?>
<!DOCTYPE svg PUBLIC "-//W3C//DTD SVG 1.1//EN"
 "http://www.w3.org/Graphics/SVG/1.1/DTD/svg11.dtd">
<!-- Generated by graphviz version 2.26.3 (20100126.1600)
 -->
<!-- Title: ICombatSkill Pages: 1 -->
<svg width="108pt" height="390pt"
 viewBox="0.00 0.00 108.00 390.00" xmlns="http://www.w3.org/2000/svg" xmlns:xlink="http://www.w3.org/1999/xlink">
<g id="graph1" class="graph" transform="scale(1 1) rotate(0) translate(4 386)">
<title>ICombatSkill</title>
<polygon fill="white" stroke="white" points="-4,5 -4,-386 105,-386 105,5 -4,5"/>
<!-- Node1 -->
<g id="node1" class="node"><title>Node1</title>
<polygon fill="#bfbfbf" stroke="black" points="-0.5,-153 -0.5,-229 100.5,-229 100.5,-153 -0.5,-153"/>
<text text-anchor="middle" x="50" y="-216" font-family="Helvetica,sans-Serif" font-size="10.00">ICombatSkill</text>
<polyline fill="none" stroke="black" points="-0.5,-208 100.5,-208 "/>
<text text-anchor="start" x="7.5" y="-195" font-family="Helvetica,sans-Serif" font-size="10.00">+ Damage</text>
<text text-anchor="start" x="7.5" y="-182" font-family="Helvetica,sans-Serif" font-size="10.00">+ MaximumTargets</text>
<polyline fill="none" stroke="black" points="-0.5,-174 100.5,-174 "/>
<text text-anchor="start" x="7.5" y="-161" font-family="Helvetica,sans-Serif" font-size="10.00">+ Use()</text>
</g>
<!-- Node3 -->
<g id="node5" class="node"><title>Node3</title>
<a xlink:href="../../d4/d60/class_action_rpg_kit_1_1_character_1_1_skill_1_1_melee_skill.xhtml" target="_top" xlink:title="Allows to attack with a melee weapon.">
<polygon fill="white" stroke="black" points="-0.5,-0.5 -0.5,-115.5 100.5,-115.5 100.5,-0.5 -0.5,-0.5"/>
<text text-anchor="middle" x="50" y="-102.5" font-family="Helvetica,sans-Serif" font-size="10.00">MeleeSkill</text>
<polyline fill="none" stroke="black" points="-0.5,-94.5 100.5,-94.5 "/>
<text text-anchor="start" x="7.5" y="-81.5" font-family="Helvetica,sans-Serif" font-size="10.00">+ Damage</text>
<text text-anchor="start" x="7.5" y="-68.5" font-family="Helvetica,sans-Serif" font-size="10.00">+ MaximumTargets</text>
<polyline fill="none" stroke="black" points="-0.5,-60.5 100.5,-60.5 "/>
<text text-anchor="start" x="7.5" y="-47.5" font-family="Helvetica,sans-Serif" font-size="10.00">+ MeleeSkill()</text>
<text text-anchor="start" x="7.5" y="-34.5" font-family="Helvetica,sans-Serif" font-size="10.00">+ ToString()</text>
<text text-anchor="start" x="7.5" y="-21.5" font-family="Helvetica,sans-Serif" font-size="10.00">+ Match()</text>
<text text-anchor="start" x="7.5" y="-8.5" font-family="Helvetica,sans-Serif" font-size="10.00">+ Use()</text>
</a>
</g>
<!-- Node1&#45;&gt;Node3 -->
<g id="edge4" class="edge"><title>Node1&#45;&gt;Node3</title>
<path fill="none" stroke="midnightblue" d="M50,-142.813C50,-134.014 50,-124.751 50,-115.709"/>
<polygon fill="none" stroke="midnightblue" points="46.5001,-142.888 50,-152.888 53.5001,-142.888 46.5001,-142.888"/>
</g>
<!-- Node2 -->
<g id="node2" class="node"><title>Node2</title>
<a xlink:href="../../d5/dc7/interface_action_rpg_kit_1_1_character_1_1_skill_1_1_i_skill.xhtml" target="_top" xlink:title="Interface for Skills.">
<polygon fill="white" stroke="black" points="4.5,-266.5 4.5,-381.5 95.5,-381.5 95.5,-266.5 4.5,-266.5"/>
<text text-anchor="middle" x="50" y="-368.5" font-family="Helvetica,sans-Serif" font-size="10.00">ISkill</text>
<polyline fill="none" stroke="black" points="4.5,-360.5 95.5,-360.5 "/>
<text text-anchor="start" x="12.5" y="-347.5" font-family="Helvetica,sans-Serif" font-size="10.00">+ Id</text>
<text text-anchor="start" x="12.5" y="-334.5" font-family="Helvetica,sans-Serif" font-size="10.00">+ Name</text>
<text text-anchor="start" x="12.5" y="-321.5" font-family="Helvetica,sans-Serif" font-size="10.00">+ Description</text>
<text text-anchor="start" x="12.5" y="-308.5" font-family="Helvetica,sans-Serif" font-size="10.00">+ PreUseTime</text>
<text text-anchor="start" x="12.5" y="-295.5" font-family="Helvetica,sans-Serif" font-size="10.00">+ CooldownTime</text>
<polyline fill="none" stroke="black" points="4.5,-287.5 95.5,-287.5 "/>
<text text-anchor="start" x="12.5" y="-274.5" font-family="Helvetica,sans-Serif" font-size="10.00">+ Match()</text>
</a>
</g>
<!-- Node2&#45;&gt;Node1 -->
<g id="edge2" class="edge"><title>Node2&#45;&gt;Node1</title>
<path fill="none" stroke="midnightblue" d="M50,-256.31C50,-246.956 50,-237.633 50,-229.082"/>
<polygon fill="none" stroke="midnightblue" points="46.5001,-256.438 50,-266.438 53.5001,-256.438 46.5001,-256.438"/>
</g>
</g>
</svg>
