<?xml version="1.0" encoding="UTF-8" standalone="no"?>
<!DOCTYPE svg PUBLIC "-//W3C//DTD SVG 1.1//EN"
 "http://www.w3.org/Graphics/SVG/1.1/DTD/svg11.dtd">
<!-- Generated by graphviz version 2.26.3 (20100126.1600)
 -->
<!-- Title: G Pages: 1 -->
<svg width="288pt" height="430pt"
 viewBox="0.00 0.00 288.00 430.00" xmlns="http://www.w3.org/2000/svg" xmlns:xlink="http://www.w3.org/1999/xlink">
<g id="graph1" class="graph" transform="scale(1 1) rotate(0) translate(4 426)">
<title>G</title>
<polygon fill="white" stroke="white" points="-4,5 -4,-426 285,-426 285,5 -4,5"/>
<!-- Node1 -->
<g id="node1" class="node"><title>Node1</title>
<polygon fill="#bfbfbf" stroke="black" points="88.5,-127 88.5,-281 187.5,-281 187.5,-127 88.5,-127"/>
<text text-anchor="middle" x="138" y="-268" font-family="Helvetica,sans-Serif" font-size="10.00">BaseObjective</text>
<polyline fill="none" stroke="black" points="88.5,-260 187.5,-260 "/>
<text text-anchor="start" x="96.5" y="-247" font-family="Helvetica,sans-Serif" font-size="10.00">+ Name</text>
<text text-anchor="start" x="96.5" y="-234" font-family="Helvetica,sans-Serif" font-size="10.00">+ Description</text>
<text text-anchor="start" x="96.5" y="-221" font-family="Helvetica,sans-Serif" font-size="10.00">+ IsCompleted</text>
<text text-anchor="start" x="96.5" y="-208" font-family="Helvetica,sans-Serif" font-size="10.00">&#45; _name</text>
<text text-anchor="start" x="96.5" y="-195" font-family="Helvetica,sans-Serif" font-size="10.00">&#45; _description</text>
<polyline fill="none" stroke="black" points="88.5,-187 187.5,-187 "/>
<text text-anchor="start" x="96.5" y="-174" font-family="Helvetica,sans-Serif" font-size="10.00">+ BaseObjective()</text>
<text text-anchor="start" x="96.5" y="-161" font-family="Helvetica,sans-Serif" font-size="10.00">+ BaseObjective()</text>
<text text-anchor="start" x="96.5" y="-148" font-family="Helvetica,sans-Serif" font-size="10.00">+ CheckProgress()</text>
<text text-anchor="start" x="96.5" y="-135" font-family="Helvetica,sans-Serif" font-size="10.00">+ OnCompletion()</text>
</g>
<!-- Node3 -->
<g id="node5" class="node"><title>Node3</title>
<a xlink:href="../../d5/d1e/class_action_rpg_kit_1_1_tests_1_1_story_1_1_find10_herbs_objective.xhtml" target="_top" xlink:title="{Find10HerbsObjective\n|+ herbs\l|+ Find10HerbsObjective()\l+ CheckProgress()\l+ OnCompletion()\l}">
<polygon fill="white" stroke="black" points="0,-0.5 0,-89.5 128,-89.5 128,-0.5 0,-0.5"/>
<text text-anchor="middle" x="64" y="-76.5" font-family="Helvetica,sans-Serif" font-size="10.00">Find10HerbsObjective</text>
<polyline fill="none" stroke="black" points="0,-68.5 128,-68.5 "/>
<text text-anchor="start" x="8" y="-55.5" font-family="Helvetica,sans-Serif" font-size="10.00">+ herbs</text>
<polyline fill="none" stroke="black" points="0,-47.5 128,-47.5 "/>
<text text-anchor="start" x="8" y="-34.5" font-family="Helvetica,sans-Serif" font-size="10.00">+ Find10HerbsObjective()</text>
<text text-anchor="start" x="8" y="-21.5" font-family="Helvetica,sans-Serif" font-size="10.00">+ CheckProgress()</text>
<text text-anchor="start" x="8" y="-8.5" font-family="Helvetica,sans-Serif" font-size="10.00">+ OnCompletion()</text>
</a>
</g>
<!-- Node1&#45;&gt;Node3 -->
<g id="edge4" class="edge"><title>Node1&#45;&gt;Node3</title>
<path fill="none" stroke="midnightblue" d="M97.805,-117.635C93.3532,-108.07 88.9635,-98.6378 84.8964,-89.899"/>
<polygon fill="none" stroke="midnightblue" points="94.6911,-119.239 102.084,-126.829 101.037,-116.286 94.6911,-119.239"/>
</g>
<!-- Node4 -->
<g id="node7" class="node"><title>Node4</title>
<a xlink:href="../../dc/d33/class_action_rpg_kit_1_1_tests_1_1_story_1_1_get_rid_of_rats_objective.xhtml" target="_top" xlink:title="{GetRidOfRatsObjective\n|+ rats\l|+ GetRidOfRatsObjective()\l+ CheckProgress()\l+ OnCompletion()\l}">
<polygon fill="white" stroke="black" points="145.5,-0.5 145.5,-89.5 280.5,-89.5 280.5,-0.5 145.5,-0.5"/>
<text text-anchor="middle" x="213" y="-76.5" font-family="Helvetica,sans-Serif" font-size="10.00">GetRidOfRatsObjective</text>
<polyline fill="none" stroke="black" points="145.5,-68.5 280.5,-68.5 "/>
<text text-anchor="start" x="153.5" y="-55.5" font-family="Helvetica,sans-Serif" font-size="10.00">+ rats</text>
<polyline fill="none" stroke="black" points="145.5,-47.5 280.5,-47.5 "/>
<text text-anchor="start" x="153.5" y="-34.5" font-family="Helvetica,sans-Serif" font-size="10.00">+ GetRidOfRatsObjective()</text>
<text text-anchor="start" x="153.5" y="-21.5" font-family="Helvetica,sans-Serif" font-size="10.00">+ CheckProgress()</text>
<text text-anchor="start" x="153.5" y="-8.5" font-family="Helvetica,sans-Serif" font-size="10.00">+ OnCompletion()</text>
</a>
</g>
<!-- Node1&#45;&gt;Node4 -->
<g id="edge6" class="edge"><title>Node1&#45;&gt;Node4</title>
<path fill="none" stroke="midnightblue" d="M178.738,-117.635C183.25,-108.07 187.699,-98.6378 191.821,-89.899"/>
<polygon fill="none" stroke="midnightblue" points="175.502,-116.291 174.402,-126.829 181.833,-119.278 175.502,-116.291"/>
</g>
<!-- Node2 -->
<g id="node2" class="node"><title>Node2</title>
<a xlink:href="../../d2/d98/interface_action_rpg_kit_1_1_story_1_1_quest_1_1_i_objective.xhtml" target="_top" xlink:title="{IObjective\n|+ Name\l+ Description\l+ IsCompleted\l|+ CheckProgress()\l+ OnCompletion()\l}">
<polygon fill="white" stroke="black" points="88.5,-319 88.5,-421 187.5,-421 187.5,-319 88.5,-319"/>
<text text-anchor="middle" x="138" y="-408" font-family="Helvetica,sans-Serif" font-size="10.00">IObjective</text>
<polyline fill="none" stroke="black" points="88.5,-400 187.5,-400 "/>
<text text-anchor="start" x="96.5" y="-387" font-family="Helvetica,sans-Serif" font-size="10.00">+ Name</text>
<text text-anchor="start" x="96.5" y="-374" font-family="Helvetica,sans-Serif" font-size="10.00">+ Description</text>
<text text-anchor="start" x="96.5" y="-361" font-family="Helvetica,sans-Serif" font-size="10.00">+ IsCompleted</text>
<polyline fill="none" stroke="black" points="88.5,-353 187.5,-353 "/>
<text text-anchor="start" x="96.5" y="-340" font-family="Helvetica,sans-Serif" font-size="10.00">+ CheckProgress()</text>
<text text-anchor="start" x="96.5" y="-327" font-family="Helvetica,sans-Serif" font-size="10.00">+ OnCompletion()</text>
</a>
</g>
<!-- Node2&#45;&gt;Node1 -->
<g id="edge2" class="edge"><title>Node2&#45;&gt;Node1</title>
<path fill="none" stroke="midnightblue" d="M138,-308.575C138,-299.669 138,-290.406 138,-281.238"/>
<polygon fill="none" stroke="midnightblue" points="134.5,-308.84 138,-318.84 141.5,-308.84 134.5,-308.84"/>
</g>
</g>
</svg>
