<?xml version="1.0" encoding="UTF-8" standalone="no"?>
<!DOCTYPE svg PUBLIC "-//W3C//DTD SVG 1.1//EN"
 "http://www.w3.org/Graphics/SVG/1.1/DTD/svg11.dtd">
<!-- Generated by graphviz version 2.38.0 (20140413.2041)
 -->
<!-- Title: BaseStats Pages: 1 -->
<svg width="196pt" height="226pt"
 viewBox="0.00 0.00 195.50 226.00" xmlns="http://www.w3.org/2000/svg" xmlns:xlink="http://www.w3.org/1999/xlink">
<g id="graph0" class="graph" transform="scale(1 1) rotate(0) translate(4 222)">
<title>BaseStats</title>
<polygon fill="white" stroke="none" points="-4,4 -4,-222 191.5,-222 191.5,4 -4,4"/>
<!-- Node1 -->
<g id="node1" class="node"><title>Node1</title>
<polygon fill="#bfbfbf" stroke="black" points="28.5,-94.5 28.5,-217.5 159.5,-217.5 159.5,-94.5 28.5,-94.5"/>
<text text-anchor="middle" x="94" y="-205.5" font-family="Helvetica,sans-Serif" font-size="10.00">BaseStats</text>
<polyline fill="none" stroke="black" points="28.5,-198.5 159.5,-198.5 "/>
<text text-anchor="start" x="36.5" y="-186.5" font-family="Helvetica,sans-Serif" font-size="10.00">+ Body</text>
<text text-anchor="start" x="36.5" y="-175.5" font-family="Helvetica,sans-Serif" font-size="10.00">+ Mind</text>
<text text-anchor="start" x="36.5" y="-164.5" font-family="Helvetica,sans-Serif" font-size="10.00">+ Soul</text>
<text text-anchor="start" x="36.5" y="-153.5" font-family="Helvetica,sans-Serif" font-size="10.00">+ Experience</text>
<text text-anchor="start" x="36.5" y="-142.5" font-family="Helvetica,sans-Serif" font-size="10.00">+ Level</text>
<text text-anchor="start" x="36.5" y="-131.5" font-family="Helvetica,sans-Serif" font-size="10.00">+ Magic</text>
<text text-anchor="start" x="36.5" y="-120.5" font-family="Helvetica,sans-Serif" font-size="10.00">+ MagicRegenerationRate</text>
<polyline fill="none" stroke="black" points="28.5,-113.5 159.5,-113.5 "/>
<text text-anchor="start" x="36.5" y="-101.5" font-family="Helvetica,sans-Serif" font-size="10.00"># AssignAttributesToDict()</text>
</g>
<!-- Node2 -->
<g id="node2" class="node"><title>Node2</title>
<g id="a_node2"><a xlink:href="../../d3/d50/class_character_1_1_stats_1_1_enemy_stats.xhtml" target="_top" xlink:title="{EnemyStats\n||+ EnemyStats()\l}">
<polygon fill="white" stroke="black" points="0,-0.5 0,-57.5 86,-57.5 86,-0.5 0,-0.5"/>
<text text-anchor="middle" x="43" y="-45.5" font-family="Helvetica,sans-Serif" font-size="10.00">EnemyStats</text>
<polyline fill="none" stroke="black" points="0,-38.5 86,-38.5 "/>
<text text-anchor="middle" x="43" y="-26.5" font-family="Helvetica,sans-Serif" font-size="10.00"> </text>
<polyline fill="none" stroke="black" points="0,-19.5 86,-19.5 "/>
<text text-anchor="start" x="8" y="-7.5" font-family="Helvetica,sans-Serif" font-size="10.00">+ EnemyStats()</text>
</a>
</g>
</g>
<!-- Node1&#45;&gt;Node2 -->
<g id="edge1" class="edge"><title>Node1&#45;&gt;Node2</title>
<path fill="none" stroke="midnightblue" d="M65.4536,-85.0333C61.5154,-75.3809 57.6756,-65.9695 54.3171,-57.7379"/>
<polygon fill="none" stroke="midnightblue" points="62.2286,-86.394 69.247,-94.3308 68.7099,-83.7496 62.2286,-86.394"/>
</g>
<!-- Node3 -->
<g id="node3" class="node"><title>Node3</title>
<g id="a_node3"><a xlink:href="../../da/dcc/class_character_1_1_stats_1_1_player_stats.xhtml" target="_top" xlink:title="{PlayerStats\n||+ PlayerStats()\l}">
<polygon fill="white" stroke="black" points="104.5,-0.5 104.5,-57.5 187.5,-57.5 187.5,-0.5 104.5,-0.5"/>
<text text-anchor="middle" x="146" y="-45.5" font-family="Helvetica,sans-Serif" font-size="10.00">PlayerStats</text>
<polyline fill="none" stroke="black" points="104.5,-38.5 187.5,-38.5 "/>
<text text-anchor="middle" x="146" y="-26.5" font-family="Helvetica,sans-Serif" font-size="10.00"> </text>
<polyline fill="none" stroke="black" points="104.5,-19.5 187.5,-19.5 "/>
<text text-anchor="start" x="112.5" y="-7.5" font-family="Helvetica,sans-Serif" font-size="10.00">+ PlayerStats()</text>
</a>
</g>
</g>
<!-- Node1&#45;&gt;Node3 -->
<g id="edge2" class="edge"><title>Node1&#45;&gt;Node3</title>
<path fill="none" stroke="midnightblue" d="M123.106,-85.0333C127.122,-75.3809 131.037,-65.9695 134.461,-57.7379"/>
<polygon fill="none" stroke="midnightblue" points="119.848,-83.7535 119.238,-94.3308 126.311,-86.4422 119.848,-83.7535"/>
</g>
</g>
</svg>
