<?xml version="1.0" encoding="UTF-8" standalone="no"?>
<!DOCTYPE svg PUBLIC "-//W3C//DTD SVG 1.1//EN"
 "http://www.w3.org/Graphics/SVG/1.1/DTD/svg11.dtd">
<!-- Generated by graphviz version 2.26.3 (20100126.1600)
 -->
<!-- Title: G Pages: 1 -->
<svg width="198pt" height="224pt"
 viewBox="0.00 0.00 198.00 224.00" xmlns="http://www.w3.org/2000/svg" xmlns:xlink="http://www.w3.org/1999/xlink">
<g id="graph1" class="graph" transform="scale(1 1) rotate(0) translate(4 220)">
<title>G</title>
<polygon fill="white" stroke="white" points="-4,5 -4,-220 195,-220 195,5 -4,5"/>
<!-- Node1 -->
<g id="node1" class="node"><title>Node1</title>
<polygon fill="#bfbfbf" stroke="black" points="52,-126.5 52,-215.5 138,-215.5 138,-126.5 52,-126.5"/>
<text text-anchor="middle" x="95" y="-202.5" font-family="Helvetica,sans-Serif" font-size="10.00">IState</text>
<polyline fill="none" stroke="black" points="52,-194.5 138,-194.5 "/>
<text text-anchor="middle" x="95" y="-181.5" font-family="Helvetica,sans-Serif" font-size="10.00"> </text>
<polyline fill="none" stroke="black" points="52,-173.5 138,-173.5 "/>
<text text-anchor="start" x="60" y="-160.5" font-family="Helvetica,sans-Serif" font-size="10.00">+ EnterState()</text>
<text text-anchor="start" x="60" y="-147.5" font-family="Helvetica,sans-Serif" font-size="10.00">+ UpdateState()</text>
<text text-anchor="start" x="60" y="-134.5" font-family="Helvetica,sans-Serif" font-size="10.00">+ ExitState()</text>
</g>
<!-- Node2 -->
<g id="node3" class="node"><title>Node2</title>
<a xlink:href="../../da/d80/class_action_rpg_kit_1_1_character_1_1_idle_state.xhtml" target="_top" xlink:title="{IdleState\n||+ EnterState()\l+ ExitState()\l+ UpdateState()\l}">
<polygon fill="white" stroke="black" points="0,-0.5 0,-89.5 86,-89.5 86,-0.5 0,-0.5"/>
<text text-anchor="middle" x="43" y="-76.5" font-family="Helvetica,sans-Serif" font-size="10.00">IdleState</text>
<polyline fill="none" stroke="black" points="0,-68.5 86,-68.5 "/>
<text text-anchor="middle" x="43" y="-55.5" font-family="Helvetica,sans-Serif" font-size="10.00"> </text>
<polyline fill="none" stroke="black" points="0,-47.5 86,-47.5 "/>
<text text-anchor="start" x="8" y="-34.5" font-family="Helvetica,sans-Serif" font-size="10.00">+ EnterState()</text>
<text text-anchor="start" x="8" y="-21.5" font-family="Helvetica,sans-Serif" font-size="10.00">+ ExitState()</text>
<text text-anchor="start" x="8" y="-8.5" font-family="Helvetica,sans-Serif" font-size="10.00">+ UpdateState()</text>
</a>
</g>
<!-- Node1&#45;&gt;Node2 -->
<g id="edge2" class="edge"><title>Node1&#45;&gt;Node2</title>
<path fill="none" stroke="midnightblue" d="M72.6628,-116.875C68.9121,-107.787 65.0577,-98.4475 61.4202,-89.6335"/>
<polygon fill="none" stroke="midnightblue" points="69.4701,-118.314 76.5203,-126.222 75.9407,-115.643 69.4701,-118.314"/>
</g>
<!-- Node3 -->
<g id="node5" class="node"><title>Node3</title>
<a xlink:href="../../d2/d59/class_action_rpg_kit_1_1_character_1_1_move_state.xhtml" target="_top" xlink:title="{MoveState\n||+ EnterState()\l+ ExitState()\l+ UpdateState()\l}">
<polygon fill="white" stroke="black" points="104,-0.5 104,-89.5 190,-89.5 190,-0.5 104,-0.5"/>
<text text-anchor="middle" x="147" y="-76.5" font-family="Helvetica,sans-Serif" font-size="10.00">MoveState</text>
<polyline fill="none" stroke="black" points="104,-68.5 190,-68.5 "/>
<text text-anchor="middle" x="147" y="-55.5" font-family="Helvetica,sans-Serif" font-size="10.00"> </text>
<polyline fill="none" stroke="black" points="104,-47.5 190,-47.5 "/>
<text text-anchor="start" x="112" y="-34.5" font-family="Helvetica,sans-Serif" font-size="10.00">+ EnterState()</text>
<text text-anchor="start" x="112" y="-21.5" font-family="Helvetica,sans-Serif" font-size="10.00">+ ExitState()</text>
<text text-anchor="start" x="112" y="-8.5" font-family="Helvetica,sans-Serif" font-size="10.00">+ UpdateState()</text>
</a>
</g>
<!-- Node1&#45;&gt;Node3 -->
<g id="edge4" class="edge"><title>Node1&#45;&gt;Node3</title>
<path fill="none" stroke="midnightblue" d="M117.337,-116.875C121.088,-107.787 124.942,-98.4475 128.58,-89.6335"/>
<polygon fill="none" stroke="midnightblue" points="114.059,-115.643 113.48,-126.222 120.53,-118.314 114.059,-115.643"/>
</g>
</g>
</svg>
