<?xml version="1.0" encoding="UTF-8" standalone="no"?>
<!DOCTYPE svg PUBLIC "-//W3C//DTD SVG 1.1//EN"
 "http://www.w3.org/Graphics/SVG/1.1/DTD/svg11.dtd">
<!-- Generated by graphviz version 2.26.3 (20100126.1600)
 -->
<!-- Title: G Pages: 1 -->
<svg width="106pt" height="316pt"
 viewBox="0.00 0.00 106.00 316.00" xmlns="http://www.w3.org/2000/svg" xmlns:xlink="http://www.w3.org/1999/xlink">
<g id="graph1" class="graph" transform="scale(1 1) rotate(0) translate(4 312)">
<title>G</title>
<polygon fill="white" stroke="white" points="-4,5 -4,-312 103,-312 103,5 -4,5"/>
<!-- Node1 -->
<g id="node1" class="node"><title>Node1</title>
<polygon fill="#bfbfbf" stroke="black" points="-0.5,-205 -0.5,-307 98.5,-307 98.5,-205 -0.5,-205"/>
<text text-anchor="middle" x="49" y="-294" font-family="Helvetica,sans-Serif" font-size="10.00">IObjective</text>
<polyline fill="none" stroke="black" points="-0.5,-286 98.5,-286 "/>
<text text-anchor="start" x="7.5" y="-273" font-family="Helvetica,sans-Serif" font-size="10.00">+ Name</text>
<text text-anchor="start" x="7.5" y="-260" font-family="Helvetica,sans-Serif" font-size="10.00">+ Description</text>
<text text-anchor="start" x="7.5" y="-247" font-family="Helvetica,sans-Serif" font-size="10.00">+ IsCompleted</text>
<polyline fill="none" stroke="black" points="-0.5,-239 98.5,-239 "/>
<text text-anchor="start" x="7.5" y="-226" font-family="Helvetica,sans-Serif" font-size="10.00">+ CheckProgress()</text>
<text text-anchor="start" x="7.5" y="-213" font-family="Helvetica,sans-Serif" font-size="10.00">+ OnCompletion()</text>
</g>
<!-- Node2 -->
<g id="node3" class="node"><title>Node2</title>
<a xlink:href="../../d5/d59/class_action_rpg_kit_1_1_core_1_1_quest_1_1_base_objective.xhtml" target="_top" xlink:title="{BaseObjective\n|+ Name\l+ Description\l+ IsCompleted\l&#45; _name\l&#45; _description\l&#45; _isCompleted\l|+ BaseObjective()\l+ BaseObjective()\l+ CheckProgress()\l+ OnCompletion()\l}">
<polygon fill="white" stroke="black" points="-0.5,-0.5 -0.5,-167.5 98.5,-167.5 98.5,-0.5 -0.5,-0.5"/>
<text text-anchor="middle" x="49" y="-154.5" font-family="Helvetica,sans-Serif" font-size="10.00">BaseObjective</text>
<polyline fill="none" stroke="black" points="-0.5,-146.5 98.5,-146.5 "/>
<text text-anchor="start" x="7.5" y="-133.5" font-family="Helvetica,sans-Serif" font-size="10.00">+ Name</text>
<text text-anchor="start" x="7.5" y="-120.5" font-family="Helvetica,sans-Serif" font-size="10.00">+ Description</text>
<text text-anchor="start" x="7.5" y="-107.5" font-family="Helvetica,sans-Serif" font-size="10.00">+ IsCompleted</text>
<text text-anchor="start" x="7.5" y="-94.5" font-family="Helvetica,sans-Serif" font-size="10.00">&#45; _name</text>
<text text-anchor="start" x="7.5" y="-81.5" font-family="Helvetica,sans-Serif" font-size="10.00">&#45; _description</text>
<text text-anchor="start" x="7.5" y="-68.5" font-family="Helvetica,sans-Serif" font-size="10.00">&#45; _isCompleted</text>
<polyline fill="none" stroke="black" points="-0.5,-60.5 98.5,-60.5 "/>
<text text-anchor="start" x="7.5" y="-47.5" font-family="Helvetica,sans-Serif" font-size="10.00">+ BaseObjective()</text>
<text text-anchor="start" x="7.5" y="-34.5" font-family="Helvetica,sans-Serif" font-size="10.00">+ BaseObjective()</text>
<text text-anchor="start" x="7.5" y="-21.5" font-family="Helvetica,sans-Serif" font-size="10.00">+ CheckProgress()</text>
<text text-anchor="start" x="7.5" y="-8.5" font-family="Helvetica,sans-Serif" font-size="10.00">+ OnCompletion()</text>
</a>
</g>
<!-- Node1&#45;&gt;Node2 -->
<g id="edge2" class="edge"><title>Node1&#45;&gt;Node2</title>
<path fill="none" stroke="midnightblue" d="M49,-194.78C49,-186.026 49,-176.897 49,-167.802"/>
<polygon fill="none" stroke="midnightblue" points="45.5001,-194.86 49,-204.86 52.5001,-194.86 45.5001,-194.86"/>
</g>
</g>
</svg>
