<?xml version="1.0" encoding="UTF-8" standalone="no"?>
<!DOCTYPE svg PUBLIC "-//W3C//DTD SVG 1.1//EN"
 "http://www.w3.org/Graphics/SVG/1.1/DTD/svg11.dtd">
<!-- Generated by graphviz version 2.26.3 (20100126.1600)
 -->
<!-- Title: G Pages: 1 -->
<!--zoomable 702 -->
<svg id="main" version="1.1" xmlns="http://www.w3.org/2000/svg" xmlns:xlink="http://www.w3.org/1999/xlink" xml:space="preserve" onload="init(evt)">
        <defs>
                <circle id="rim" cx="0" cy="0" r="7"/>
                <circle id="rim2" cx="0" cy="0" r="3.5"/>
                <g id="zoomPlus">
                        <use xlink:href="#rim" fill="#404040">
                                <set attributeName="fill" to="#808080" begin="zoomplus.mouseover" end="zoomplus.mouseout"/>
                        </use>
                        <path d="M-4,0h8M0,-4v8" fill="none" stroke="white" stroke-width="1.5" pointer-events="none"/>
                </g>
                <g id="zoomMin">
                        <use xlink:href="#rim" fill="#404040">
                                <set attributeName="fill" to="#808080" begin="zoomminus.mouseover" end="zoomminus.mouseout"/>
                        </use>
                        <path d="M-4,0h8" fill="none" stroke="white" stroke-width="1.5" pointer-events="none"/>
                </g>
                <g id="dirArrow">
                        <path fill="none" stroke="white" stroke-width="1.5" d="M0,-3.0v7 M-2.5,-0.5L0,-3.0L2.5,-0.5"/>
                </g>
               <g id="resetDef">
                       <use xlink:href="#rim2" fill="#404040">
                               <set attributeName="fill" to="#808080" begin="reset.mouseover" end="reset.mouseout"/>
                       </use>
               </g>
        </defs>

<script type="text/javascript">
var viewWidth = 330;
var viewHeight = 702;
var sectionId = 'dynsection-0';
</script>
<script xlink:href="../../svgpan.js"/>
<svg id="graph" class="graph">
<g id="viewport">
<title>G</title>
<polygon fill="white" stroke="white" points="-4,5 -4,-698 327,-698 327,5 -4,5"/>
<!-- Node1 -->
<g id="node1" class="node"><title>Node1</title>
<polygon fill="#bfbfbf" stroke="black" points="69.5,-126.5 69.5,-527.5 204.5,-527.5 204.5,-126.5 69.5,-126.5"/>
<text text-anchor="middle" x="137" y="-514.5" font-family="Helvetica,sans-Serif" font-size="10.00">BaseCharacter</text>
<polyline fill="none" stroke="black" points="69.5,-506.5 204.5,-506.5 "/>
<text text-anchor="start" x="77.5" y="-493.5" font-family="Helvetica,sans-Serif" font-size="10.00">+ Name</text>
<text text-anchor="start" x="77.5" y="-480.5" font-family="Helvetica,sans-Serif" font-size="10.00">+ Stats</text>
<text text-anchor="start" x="77.5" y="-467.5" font-family="Helvetica,sans-Serif" font-size="10.00">+ Inventory</text>
<text text-anchor="start" x="77.5" y="-454.5" font-family="Helvetica,sans-Serif" font-size="10.00">+ Magic</text>
<text text-anchor="start" x="77.5" y="-441.5" font-family="Helvetica,sans-Serif" font-size="10.00">+ MagicSkills</text>
<text text-anchor="start" x="77.5" y="-428.5" font-family="Helvetica,sans-Serif" font-size="10.00">+ Life</text>
<text text-anchor="start" x="77.5" y="-415.5" font-family="Helvetica,sans-Serif" font-size="10.00">+ Enemies</text>
<text text-anchor="start" x="77.5" y="-402.5" font-family="Helvetica,sans-Serif" font-size="10.00">+ CombatSkills</text>
<text text-anchor="start" x="77.5" y="-389.5" font-family="Helvetica,sans-Serif" font-size="10.00">&#45; _magicSkills</text>
<text text-anchor="start" x="77.5" y="-376.5" font-family="Helvetica,sans-Serif" font-size="10.00">&#45; _magicSkillEndTimes</text>
<text text-anchor="start" x="77.5" y="-363.5" font-family="Helvetica,sans-Serif" font-size="10.00">&#45; _enemies</text>
<text text-anchor="start" x="77.5" y="-350.5" font-family="Helvetica,sans-Serif" font-size="10.00">&#45; _combatSkills</text>
<text text-anchor="start" x="77.5" y="-337.5" font-family="Helvetica,sans-Serif" font-size="10.00">&#45; _combatSkillEndTimes</text>
<polyline fill="none" stroke="black" points="69.5,-329.5 204.5,-329.5 "/>
<text text-anchor="start" x="77.5" y="-316.5" font-family="Helvetica,sans-Serif" font-size="10.00">+ BaseCharacter()</text>
<text text-anchor="start" x="77.5" y="-303.5" font-family="Helvetica,sans-Serif" font-size="10.00">+ BaseCharacter()</text>
<text text-anchor="start" x="77.5" y="-290.5" font-family="Helvetica,sans-Serif" font-size="10.00">+ ToString()</text>
<text text-anchor="start" x="77.5" y="-277.5" font-family="Helvetica,sans-Serif" font-size="10.00">+ LearnMagicSkill()</text>
<text text-anchor="start" x="77.5" y="-264.5" font-family="Helvetica,sans-Serif" font-size="10.00">+ TriggerMagicSkill()</text>
<text text-anchor="start" x="77.5" y="-251.5" font-family="Helvetica,sans-Serif" font-size="10.00">+ PreUseCountdown()</text>
<text text-anchor="start" x="77.5" y="-238.5" font-family="Helvetica,sans-Serif" font-size="10.00">+ AddEnemy()</text>
<text text-anchor="start" x="77.5" y="-225.5" font-family="Helvetica,sans-Serif" font-size="10.00">+ LearnCombatSkill()</text>
<text text-anchor="start" x="77.5" y="-212.5" font-family="Helvetica,sans-Serif" font-size="10.00">+ TriggerCombatSkill()</text>
<text text-anchor="start" x="77.5" y="-199.5" font-family="Helvetica,sans-Serif" font-size="10.00">+ PreUseCountdown()</text>
<text text-anchor="start" x="77.5" y="-186.5" font-family="Helvetica,sans-Serif" font-size="10.00">+ OnAttacked()</text>
<text text-anchor="start" x="77.5" y="-173.5" font-family="Helvetica,sans-Serif" font-size="10.00">&#45; UseMagicSkill()</text>
<text text-anchor="start" x="77.5" y="-160.5" font-family="Helvetica,sans-Serif" font-size="10.00">&#45; MagicSkillCanBeUsed()</text>
<text text-anchor="start" x="77.5" y="-147.5" font-family="Helvetica,sans-Serif" font-size="10.00">&#45; UseCombatSkill()</text>
<text text-anchor="start" x="77.5" y="-134.5" font-family="Helvetica,sans-Serif" font-size="10.00">&#45; CombatSkillCanBeUsed()</text>
</g>
<!-- Node5 -->
<g id="node9" class="node"><title>Node5</title>
<a xlink:href="../../d2/df0/class_action_rpg_kit_1_1_character_1_1_enemy.xhtml" target="_top" xlink:title="Representation of a Hostile, game controlled character.">
<polygon fill="white" stroke="black" points="60,-7 60,-83 128,-83 128,-7 60,-7"/>
<text text-anchor="middle" x="94" y="-70" font-family="Helvetica,sans-Serif" font-size="10.00">Enemy</text>
<polyline fill="none" stroke="black" points="60,-62 128,-62 "/>
<text text-anchor="start" x="68" y="-49" font-family="Helvetica,sans-Serif" font-size="10.00">+ Inventory</text>
<text text-anchor="start" x="68" y="-36" font-family="Helvetica,sans-Serif" font-size="10.00">&#45; _inventory</text>
<polyline fill="none" stroke="black" points="60,-28 128,-28 "/>
<text text-anchor="start" x="68" y="-15" font-family="Helvetica,sans-Serif" font-size="10.00">+ Enemy()</text>
</a>
</g>
<!-- Node1&#45;&gt;Node5 -->
<g id="edge8" class="edge"><title>Node1&#45;&gt;Node5</title>
<path fill="none" stroke="midnightblue" d="M104.872,-116.299C103.027,-104.201 101.322,-93.017 99.835,-83.2667"/>
<polygon fill="none" stroke="midnightblue" points="101.412,-116.83 106.38,-126.188 108.332,-115.774 101.412,-116.83"/>
</g>
<!-- Node6 -->
<g id="node11" class="node"><title>Node6</title>
<a xlink:href="../../d7/dd8/class_action_rpg_kit_1_1_character_1_1_player.xhtml" target="_top" xlink:title="Representation of a Player controllable character.">
<polygon fill="white" stroke="black" points="146,-0.5 146,-89.5 214,-89.5 214,-0.5 146,-0.5"/>
<text text-anchor="middle" x="180" y="-76.5" font-family="Helvetica,sans-Serif" font-size="10.00">Player</text>
<polyline fill="none" stroke="black" points="146,-68.5 214,-68.5 "/>
<text text-anchor="start" x="154" y="-55.5" font-family="Helvetica,sans-Serif" font-size="10.00">+ Inventory</text>
<text text-anchor="start" x="154" y="-42.5" font-family="Helvetica,sans-Serif" font-size="10.00">&#45; _inventory</text>
<polyline fill="none" stroke="black" points="146,-34.5 214,-34.5 "/>
<text text-anchor="start" x="154" y="-21.5" font-family="Helvetica,sans-Serif" font-size="10.00">+ Player()</text>
<text text-anchor="start" x="154" y="-8.5" font-family="Helvetica,sans-Serif" font-size="10.00">+ Player()</text>
</a>
</g>
<!-- Node1&#45;&gt;Node6 -->
<g id="edge10" class="edge"><title>Node1&#45;&gt;Node6</title>
<path fill="none" stroke="midnightblue" d="M169.152,-116.141C170.594,-106.686 171.95,-97.7913 173.183,-89.7056"/>
<polygon fill="none" stroke="midnightblue" points="165.668,-115.774 167.62,-126.188 172.588,-116.83 165.668,-115.774"/>
</g>
<!-- Node2 -->
<g id="node2" class="node"><title>Node2</title>
<a xlink:href="../../d2/df8/interface_action_rpg_kit_1_1_character_1_1_i_character.xhtml" target="_top" xlink:title="Characters populate the game world. They are defined by Stats.">
<polygon fill="white" stroke="black" points="0,-584.5 0,-673.5 66,-673.5 66,-584.5 0,-584.5"/>
<text text-anchor="middle" x="33" y="-660.5" font-family="Helvetica,sans-Serif" font-size="10.00">ICharacter</text>
<polyline fill="none" stroke="black" points="0,-652.5 66,-652.5 "/>
<text text-anchor="start" x="8" y="-639.5" font-family="Helvetica,sans-Serif" font-size="10.00">+ Name</text>
<text text-anchor="start" x="8" y="-626.5" font-family="Helvetica,sans-Serif" font-size="10.00">+ Stats</text>
<text text-anchor="start" x="8" y="-613.5" font-family="Helvetica,sans-Serif" font-size="10.00">+ Inventory</text>
<polyline fill="none" stroke="black" points="0,-605.5 66,-605.5 "/>
<text text-anchor="middle" x="33" y="-592.5" font-family="Helvetica,sans-Serif" font-size="10.00"> </text>
</a>
</g>
<!-- Node2&#45;&gt;Node1 -->
<g id="edge2" class="edge"><title>Node2&#45;&gt;Node1</title>
<path fill="none" stroke="midnightblue" d="M51.6973,-574.706C56.9783,-559.371 63.0503,-541.739 69.47,-523.097"/>
<polygon fill="none" stroke="midnightblue" points="48.2924,-573.844 48.3456,-584.439 54.9109,-576.123 48.2924,-573.844"/>
</g>
<!-- Node3 -->
<g id="node4" class="node"><title>Node3</title>
<a xlink:href="../../dd/db0/interface_action_rpg_kit_1_1_character_1_1_i_magic_user.xhtml" target="_top" xlink:title="Character can use Magic.">
<polygon fill="white" stroke="black" points="83.5,-591 83.5,-667 190.5,-667 190.5,-591 83.5,-591"/>
<text text-anchor="middle" x="137" y="-654" font-family="Helvetica,sans-Serif" font-size="10.00">IMagicUser</text>
<polyline fill="none" stroke="black" points="83.5,-646 190.5,-646 "/>
<text text-anchor="start" x="91.5" y="-633" font-family="Helvetica,sans-Serif" font-size="10.00">+ MagicSkills</text>
<polyline fill="none" stroke="black" points="83.5,-625 190.5,-625 "/>
<text text-anchor="start" x="91.5" y="-612" font-family="Helvetica,sans-Serif" font-size="10.00">+ LearnMagicSkill()</text>
<text text-anchor="start" x="91.5" y="-599" font-family="Helvetica,sans-Serif" font-size="10.00">+ TriggerMagicSkill()</text>
</a>
</g>
<!-- Node3&#45;&gt;Node1 -->
<g id="edge4" class="edge"><title>Node3&#45;&gt;Node1</title>
<path fill="none" stroke="midnightblue" d="M137,-580.554C137,-565.178 137,-547.112 137,-527.825"/>
<polygon fill="none" stroke="midnightblue" points="133.5,-580.751 137,-590.751 140.5,-580.752 133.5,-580.751"/>
</g>
<!-- Node4 -->
<g id="node6" class="node"><title>Node4</title>
<a xlink:href="../../df/d5e/interface_action_rpg_kit_1_1_character_1_1_i_fighter.xhtml" target="_top" xlink:title="Character can fight.">
<polygon fill="white" stroke="black" points="207.5,-565 207.5,-693 322.5,-693 322.5,-565 207.5,-565"/>
<text text-anchor="middle" x="265" y="-680" font-family="Helvetica,sans-Serif" font-size="10.00">IFighter</text>
<polyline fill="none" stroke="black" points="207.5,-672 322.5,-672 "/>
<text text-anchor="start" x="215.5" y="-659" font-family="Helvetica,sans-Serif" font-size="10.00">+ Life</text>
<text text-anchor="start" x="215.5" y="-646" font-family="Helvetica,sans-Serif" font-size="10.00">+ Enemies</text>
<text text-anchor="start" x="215.5" y="-633" font-family="Helvetica,sans-Serif" font-size="10.00">+ CombatSkills</text>
<polyline fill="none" stroke="black" points="207.5,-625 322.5,-625 "/>
<text text-anchor="start" x="215.5" y="-612" font-family="Helvetica,sans-Serif" font-size="10.00">+ AddEnemy()</text>
<text text-anchor="start" x="215.5" y="-599" font-family="Helvetica,sans-Serif" font-size="10.00">+ LearnCombatSkill()</text>
<text text-anchor="start" x="215.5" y="-586" font-family="Helvetica,sans-Serif" font-size="10.00">+ TriggerCombatSkill()</text>
<text text-anchor="start" x="215.5" y="-573" font-family="Helvetica,sans-Serif" font-size="10.00">+ OnAttacked()</text>
</a>
</g>
<!-- Node4&#45;&gt;Node1 -->
<g id="edge6" class="edge"><title>Node4&#45;&gt;Node1</title>
<path fill="none" stroke="midnightblue" d="M233.832,-555.462C224.888,-534.361 214.772,-510.493 204.535,-486.339"/>
<polygon fill="none" stroke="midnightblue" points="230.73,-557.112 237.854,-564.954 237.175,-554.381 230.73,-557.112"/>
</g>
</g>
</svg>
        <g id="navigator" transform="translate(0 0)" fill="#404254">
                <rect fill="#f2f5e9" fill-opacity="0.5" stroke="#606060" stroke-width=".5" x="0" y="0" width="60" height="60"/>
                <use id="zoomplus" xlink:href="#zoomPlus" x="17" y="9" onmousedown="handleZoom(evt,'in')"/>
                <use id="zoomminus" xlink:href="#zoomMin" x="42" y="9" onmousedown="handleZoom(evt,'out')"/>
                <use id="reset" xlink:href="#resetDef" x="30" y="36" onmousedown="handleReset()"/>
                <g id="arrowUp" xlink:href="#dirArrow" transform="translate(30 24)" onmousedown="handlePan(0,-1)">
                  <use xlink:href="#rim" fill="#404040">
                        <set attributeName="fill" to="#808080" begin="arrowUp.mouseover" end="arrowUp.mouseout"/>
                  </use>
                  <path fill="none" stroke="white" stroke-width="1.5" d="M0,-3.0v7 M-2.5,-0.5L0,-3.0L2.5,-0.5"/>
                </g>
                <g id="arrowRight" xlink:href="#dirArrow" transform="rotate(90) translate(36 -43)" onmousedown="handlePan(1,0)">
                  <use xlink:href="#rim" fill="#404040">
                        <set attributeName="fill" to="#808080" begin="arrowRight.mouseover" end="arrowRight.mouseout"/>
                  </use>
                  <path fill="none" stroke="white" stroke-width="1.5" d="M0,-3.0v7 M-2.5,-0.5L0,-3.0L2.5,-0.5"/>
                </g>
                <g id="arrowDown" xlink:href="#dirArrow" transform="rotate(180) translate(-30 -48)" onmousedown="handlePan(0,1)">
                  <use xlink:href="#rim" fill="#404040">
                        <set attributeName="fill" to="#808080" begin="arrowDown.mouseover" end="arrowDown.mouseout"/>
                  </use>
                  <path fill="none" stroke="white" stroke-width="1.5" d="M0,-3.0v7 M-2.5,-0.5L0,-3.0L2.5,-0.5"/>
                </g>
                <g id="arrowLeft" xlink:href="#dirArrow" transform="rotate(270) translate(-36 17)" onmousedown="handlePan(-1,0)">
                  <use xlink:href="#rim" fill="#404040">
                        <set attributeName="fill" to="#808080" begin="arrowLeft.mouseover" end="arrowLeft.mouseout"/>
                  </use>
                  <path fill="none" stroke="white" stroke-width="1.5" d="M0,-3.0v7 M-2.5,-0.5L0,-3.0L2.5,-0.5"/>
                </g>
        </g>
</svg>
