<?xml version="1.0" encoding="UTF-8" standalone="no"?>
<!DOCTYPE svg PUBLIC "-//W3C//DTD SVG 1.1//EN"
 "http://www.w3.org/Graphics/SVG/1.1/DTD/svg11.dtd">
<!-- Generated by graphviz version 2.26.3 (20100126.1600)
 -->
<!-- Title: G Pages: 1 -->
<svg width="124pt" height="316pt"
 viewBox="0.00 0.00 124.00 316.00" xmlns="http://www.w3.org/2000/svg" xmlns:xlink="http://www.w3.org/1999/xlink">
<g id="graph1" class="graph" transform="scale(1 1) rotate(0) translate(4 312)">
<title>G</title>
<polygon fill="white" stroke="white" points="-4,5 -4,-312 121,-312 121,5 -4,5"/>
<!-- Node1 -->
<g id="node1" class="node"><title>Node1</title>
<polygon fill="#bfbfbf" stroke="black" points="24,-218.5 24,-307.5 92,-307.5 92,-218.5 24,-218.5"/>
<text text-anchor="middle" x="58" y="-294.5" font-family="Helvetica,sans-Serif" font-size="10.00">IModifier</text>
<polyline fill="none" stroke="black" points="24,-286.5 92,-286.5 "/>
<text text-anchor="start" x="32" y="-273.5" font-family="Helvetica,sans-Serif" font-size="10.00">+ Name</text>
<text text-anchor="start" x="32" y="-260.5" font-family="Helvetica,sans-Serif" font-size="10.00">+ Value</text>
<text text-anchor="start" x="32" y="-247.5" font-family="Helvetica,sans-Serif" font-size="10.00">+ IsActive</text>
<polyline fill="none" stroke="black" points="24,-239.5 92,-239.5 "/>
<text text-anchor="start" x="32" y="-226.5" font-family="Helvetica,sans-Serif" font-size="10.00">+ Activate()</text>
</g>
<!-- Node2 -->
<g id="node3" class="node"><title>Node2</title>
<a xlink:href="../../dd/d62/class_action_rpg_kit_1_1_core_1_1_character_1_1_attribute_1_1_time_based_modifier.xhtml" target="_top" xlink:title="Modifier that affects an attribute over a certain period of time.">
<polygon fill="white" stroke="black" points="0,-1 0,-181 116,-181 116,-1 0,-1"/>
<text text-anchor="middle" x="58" y="-168" font-family="Helvetica,sans-Serif" font-size="10.00">TimeBasedModifier</text>
<polyline fill="none" stroke="black" points="0,-160 116,-160 "/>
<text text-anchor="start" x="8" y="-147" font-family="Helvetica,sans-Serif" font-size="10.00">+ Name</text>
<text text-anchor="start" x="8" y="-134" font-family="Helvetica,sans-Serif" font-size="10.00">+ Value</text>
<text text-anchor="start" x="8" y="-121" font-family="Helvetica,sans-Serif" font-size="10.00">+ RemainingTime</text>
<text text-anchor="start" x="8" y="-108" font-family="Helvetica,sans-Serif" font-size="10.00">+ IsActive</text>
<text text-anchor="start" x="8" y="-95" font-family="Helvetica,sans-Serif" font-size="10.00">&#45; _name</text>
<text text-anchor="start" x="8" y="-82" font-family="Helvetica,sans-Serif" font-size="10.00">&#45; _value</text>
<text text-anchor="start" x="8" y="-69" font-family="Helvetica,sans-Serif" font-size="10.00">&#45; _duration</text>
<text text-anchor="start" x="8" y="-56" font-family="Helvetica,sans-Serif" font-size="10.00">&#45; _endTime</text>
<polyline fill="none" stroke="black" points="0,-48 116,-48 "/>
<text text-anchor="start" x="8" y="-35" font-family="Helvetica,sans-Serif" font-size="10.00">+ TimeBasedModifier()</text>
<text text-anchor="start" x="8" y="-22" font-family="Helvetica,sans-Serif" font-size="10.00">+ Activate()</text>
<text text-anchor="start" x="8" y="-9" font-family="Helvetica,sans-Serif" font-size="10.00">+ ToString()</text>
</a>
</g>
<!-- Node1&#45;&gt;Node2 -->
<g id="edge2" class="edge"><title>Node1&#45;&gt;Node2</title>
<path fill="none" stroke="midnightblue" d="M58,-208.039C58,-199.444 58,-190.372 58,-181.235"/>
<polygon fill="none" stroke="midnightblue" points="54.5001,-208.258 58,-218.258 61.5001,-208.258 54.5001,-208.258"/>
</g>
</g>
</svg>
