<?xml version="1.0" encoding="UTF-8" standalone="no"?>
<!DOCTYPE svg PUBLIC "-//W3C//DTD SVG 1.1//EN"
 "http://www.w3.org/Graphics/SVG/1.1/DTD/svg11.dtd">
<!-- Generated by graphviz version 2.26.3 (20100126.1600)
 -->
<!-- Title: G Pages: 1 -->
<svg width="406pt" height="224pt"
 viewBox="0.00 0.00 406.00 224.00" xmlns="http://www.w3.org/2000/svg" xmlns:xlink="http://www.w3.org/1999/xlink">
<g id="graph1" class="graph" transform="scale(1 1) rotate(0) translate(4 220)">
<title>G</title>
<polygon fill="white" stroke="white" points="-4,5 -4,-220 403,-220 403,5 -4,5"/>
<!-- Node1 -->
<g id="node1" class="node"><title>Node1</title>
<polygon fill="#bfbfbf" stroke="black" points="156,-126.5 156,-215.5 242,-215.5 242,-126.5 156,-126.5"/>
<text text-anchor="middle" x="199" y="-202.5" font-family="Helvetica,sans-Serif" font-size="10.00">IState</text>
<polyline fill="none" stroke="black" points="156,-194.5 242,-194.5 "/>
<text text-anchor="middle" x="199" y="-181.5" font-family="Helvetica,sans-Serif" font-size="10.00"> </text>
<polyline fill="none" stroke="black" points="156,-173.5 242,-173.5 "/>
<text text-anchor="start" x="164" y="-160.5" font-family="Helvetica,sans-Serif" font-size="10.00">+ EnterState()</text>
<text text-anchor="start" x="164" y="-147.5" font-family="Helvetica,sans-Serif" font-size="10.00">+ ExitState()</text>
<text text-anchor="start" x="164" y="-134.5" font-family="Helvetica,sans-Serif" font-size="10.00">+ UpdateState()</text>
</g>
<!-- Node2 -->
<g id="node3" class="node"><title>Node2</title>
<a xlink:href="../../df/d02/class_action_rpg_kit_1_1_character_1_1_alert_state.xhtml" target="_top" xlink:title="{AlertState\n||+ EnterState()\l+ ExitState()\l+ UpdateState()\l}">
<polygon fill="white" stroke="black" points="0,-0.5 0,-89.5 86,-89.5 86,-0.5 0,-0.5"/>
<text text-anchor="middle" x="43" y="-76.5" font-family="Helvetica,sans-Serif" font-size="10.00">AlertState</text>
<polyline fill="none" stroke="black" points="0,-68.5 86,-68.5 "/>
<text text-anchor="middle" x="43" y="-55.5" font-family="Helvetica,sans-Serif" font-size="10.00"> </text>
<polyline fill="none" stroke="black" points="0,-47.5 86,-47.5 "/>
<text text-anchor="start" x="8" y="-34.5" font-family="Helvetica,sans-Serif" font-size="10.00">+ EnterState()</text>
<text text-anchor="start" x="8" y="-21.5" font-family="Helvetica,sans-Serif" font-size="10.00">+ ExitState()</text>
<text text-anchor="start" x="8" y="-8.5" font-family="Helvetica,sans-Serif" font-size="10.00">+ UpdateState()</text>
</a>
</g>
<!-- Node1&#45;&gt;Node2 -->
<g id="edge2" class="edge"><title>Node1&#45;&gt;Node2</title>
<path fill="none" stroke="midnightblue" d="M147.708,-131.895C130.778,-118.764 111.947,-103.917 95,-90 92.1398,-87.6512 89.2098,-85.2114 86.2688,-82.737"/>
<polygon fill="none" stroke="midnightblue" points="145.799,-134.842 155.85,-138.191 150.081,-129.305 145.799,-134.842"/>
</g>
<!-- Node3 -->
<g id="node5" class="node"><title>Node3</title>
<a xlink:href="../../d4/d2e/class_action_rpg_kit_1_1_character_1_1_attack_state.xhtml" target="_top" xlink:title="{AttackState\n||+ EnterState()\l+ ExitState()\l+ UpdateState()\l}">
<polygon fill="white" stroke="black" points="104,-0.5 104,-89.5 190,-89.5 190,-0.5 104,-0.5"/>
<text text-anchor="middle" x="147" y="-76.5" font-family="Helvetica,sans-Serif" font-size="10.00">AttackState</text>
<polyline fill="none" stroke="black" points="104,-68.5 190,-68.5 "/>
<text text-anchor="middle" x="147" y="-55.5" font-family="Helvetica,sans-Serif" font-size="10.00"> </text>
<polyline fill="none" stroke="black" points="104,-47.5 190,-47.5 "/>
<text text-anchor="start" x="112" y="-34.5" font-family="Helvetica,sans-Serif" font-size="10.00">+ EnterState()</text>
<text text-anchor="start" x="112" y="-21.5" font-family="Helvetica,sans-Serif" font-size="10.00">+ ExitState()</text>
<text text-anchor="start" x="112" y="-8.5" font-family="Helvetica,sans-Serif" font-size="10.00">+ UpdateState()</text>
</a>
</g>
<!-- Node1&#45;&gt;Node3 -->
<g id="edge4" class="edge"><title>Node1&#45;&gt;Node3</title>
<path fill="none" stroke="midnightblue" d="M176.663,-116.875C172.912,-107.787 169.058,-98.4475 165.42,-89.6335"/>
<polygon fill="none" stroke="midnightblue" points="173.47,-118.314 180.52,-126.222 179.941,-115.643 173.47,-118.314"/>
</g>
<!-- Node4 -->
<g id="node7" class="node"><title>Node4</title>
<a xlink:href="../../d7/d11/class_action_rpg_kit_1_1_character_1_1_chase_state.xhtml" target="_top" xlink:title="{ChaseState\n||+ EnterState()\l+ ExitState()\l+ UpdateState()\l}">
<polygon fill="white" stroke="black" points="208,-0.5 208,-89.5 294,-89.5 294,-0.5 208,-0.5"/>
<text text-anchor="middle" x="251" y="-76.5" font-family="Helvetica,sans-Serif" font-size="10.00">ChaseState</text>
<polyline fill="none" stroke="black" points="208,-68.5 294,-68.5 "/>
<text text-anchor="middle" x="251" y="-55.5" font-family="Helvetica,sans-Serif" font-size="10.00"> </text>
<polyline fill="none" stroke="black" points="208,-47.5 294,-47.5 "/>
<text text-anchor="start" x="216" y="-34.5" font-family="Helvetica,sans-Serif" font-size="10.00">+ EnterState()</text>
<text text-anchor="start" x="216" y="-21.5" font-family="Helvetica,sans-Serif" font-size="10.00">+ ExitState()</text>
<text text-anchor="start" x="216" y="-8.5" font-family="Helvetica,sans-Serif" font-size="10.00">+ UpdateState()</text>
</a>
</g>
<!-- Node1&#45;&gt;Node4 -->
<g id="edge6" class="edge"><title>Node1&#45;&gt;Node4</title>
<path fill="none" stroke="midnightblue" d="M221.337,-116.875C225.088,-107.787 228.942,-98.4475 232.58,-89.6335"/>
<polygon fill="none" stroke="midnightblue" points="218.059,-115.643 217.48,-126.222 224.53,-118.314 218.059,-115.643"/>
</g>
<!-- Node5 -->
<g id="node9" class="node"><title>Node5</title>
<a xlink:href="../../da/d80/class_action_rpg_kit_1_1_character_1_1_idle_state.xhtml" target="_top" xlink:title="The initial State of a Character.">
<polygon fill="white" stroke="black" points="312,-0.5 312,-89.5 398,-89.5 398,-0.5 312,-0.5"/>
<text text-anchor="middle" x="355" y="-76.5" font-family="Helvetica,sans-Serif" font-size="10.00">IdleState</text>
<polyline fill="none" stroke="black" points="312,-68.5 398,-68.5 "/>
<text text-anchor="middle" x="355" y="-55.5" font-family="Helvetica,sans-Serif" font-size="10.00"> </text>
<polyline fill="none" stroke="black" points="312,-47.5 398,-47.5 "/>
<text text-anchor="start" x="320" y="-34.5" font-family="Helvetica,sans-Serif" font-size="10.00">+ EnterState()</text>
<text text-anchor="start" x="320" y="-21.5" font-family="Helvetica,sans-Serif" font-size="10.00">+ ExitState()</text>
<text text-anchor="start" x="320" y="-8.5" font-family="Helvetica,sans-Serif" font-size="10.00">+ UpdateState()</text>
</a>
</g>
<!-- Node1&#45;&gt;Node5 -->
<g id="edge8" class="edge"><title>Node1&#45;&gt;Node5</title>
<path fill="none" stroke="midnightblue" d="M250.292,-131.895C267.222,-118.764 286.053,-103.917 303,-90 305.86,-87.6512 308.79,-85.2114 311.731,-82.737"/>
<polygon fill="none" stroke="midnightblue" points="247.919,-129.305 242.15,-138.191 252.201,-134.842 247.919,-129.305"/>
</g>
</g>
</svg>
