<?xml version="1.0" encoding="UTF-8" standalone="no"?>
<!DOCTYPE svg PUBLIC "-//W3C//DTD SVG 1.1//EN"
 "http://www.w3.org/Graphics/SVG/1.1/DTD/svg11.dtd">
<!-- Generated by graphviz version 2.26.3 (20100126.1600)
 -->
<!-- Title: BaseCharacter Pages: 1 -->
<!--zoomable 678 -->
<svg id="main" version="1.1" xmlns="http://www.w3.org/2000/svg" xmlns:xlink="http://www.w3.org/1999/xlink" xml:space="preserve" onload="init(evt)">
<style type="text/css"><![CDATA[
.edge:hover path { stroke: red; }
.edge:hover polygon { stroke: red; fill: red; }
]]></style>
<script type="text/javascript"><![CDATA[
var edges = document.getElementsByTagName('g');
if (edges && edges.length) {
  for (var i=0;i<edges.length;i++) {
    if (edges[i].id.substr(0,4)=='edge') {
      edges[i].setAttribute('class','edge');
    }
  }
}
]]></script>
        <defs>
                <circle id="rim" cx="0" cy="0" r="7"/>
                <circle id="rim2" cx="0" cy="0" r="3.5"/>
                <g id="zoomPlus">
                        <use xlink:href="#rim" fill="#404040">
                                <set attributeName="fill" to="#808080" begin="zoomplus.mouseover" end="zoomplus.mouseout"/>
                        </use>
                        <path d="M-4,0h8M0,-4v8" fill="none" stroke="white" stroke-width="1.5" pointer-events="none"/>
                </g>
                <g id="zoomMin">
                        <use xlink:href="#rim" fill="#404040">
                                <set attributeName="fill" to="#808080" begin="zoomminus.mouseover" end="zoomminus.mouseout"/>
                        </use>
                        <path d="M-4,0h8" fill="none" stroke="white" stroke-width="1.5" pointer-events="none"/>
                </g>
                <g id="dirArrow">
                        <path fill="none" stroke="white" stroke-width="1.5" d="M0,-3.0v7 M-2.5,-0.5L0,-3.0L2.5,-0.5"/>
                </g>
               <g id="resetDef">
                       <use xlink:href="#rim2" fill="#404040">
                               <set attributeName="fill" to="#808080" begin="reset.mouseover" end="reset.mouseout"/>
                       </use>
               </g>
        </defs>

<script type="text/javascript">
var viewWidth = 326;
var viewHeight = 678;
var sectionId = 'dynsection-0';
</script>
<script xlink:href="../../svgpan.js"/>
<svg id="graph" class="graph">
<g id="viewport">
<title>BaseCharacter</title>
<polygon fill="white" stroke="white" points="-4,5 -4,-674 323,-674 323,5 -4,5"/>
<!-- Node1 -->
<g id="node1" class="node"><title>Node1</title>
<polygon fill="#bfbfbf" stroke="black" points="65.5,-115 65.5,-503 200.5,-503 200.5,-115 65.5,-115"/>
<text text-anchor="middle" x="133" y="-490" font-family="Helvetica,sans-Serif" font-size="10.00">BaseCharacter</text>
<polyline fill="none" stroke="black" points="65.5,-482 200.5,-482 "/>
<text text-anchor="start" x="73.5" y="-469" font-family="Helvetica,sans-Serif" font-size="10.00">+ Name</text>
<text text-anchor="start" x="73.5" y="-456" font-family="Helvetica,sans-Serif" font-size="10.00">+ Stats</text>
<text text-anchor="start" x="73.5" y="-443" font-family="Helvetica,sans-Serif" font-size="10.00">+ Magic</text>
<text text-anchor="start" x="73.5" y="-430" font-family="Helvetica,sans-Serif" font-size="10.00">+ MagicSkills</text>
<text text-anchor="start" x="73.5" y="-417" font-family="Helvetica,sans-Serif" font-size="10.00">+ Life</text>
<text text-anchor="start" x="73.5" y="-404" font-family="Helvetica,sans-Serif" font-size="10.00">+ Enemies</text>
<text text-anchor="start" x="73.5" y="-391" font-family="Helvetica,sans-Serif" font-size="10.00">+ CombatSkills</text>
<text text-anchor="start" x="73.5" y="-378" font-family="Helvetica,sans-Serif" font-size="10.00">&#45; _magicSkills</text>
<text text-anchor="start" x="73.5" y="-365" font-family="Helvetica,sans-Serif" font-size="10.00">&#45; _magicSkillEndTimes</text>
<text text-anchor="start" x="73.5" y="-352" font-family="Helvetica,sans-Serif" font-size="10.00">&#45; _enemies</text>
<text text-anchor="start" x="73.5" y="-339" font-family="Helvetica,sans-Serif" font-size="10.00">&#45; _combatSkills</text>
<text text-anchor="start" x="73.5" y="-326" font-family="Helvetica,sans-Serif" font-size="10.00">&#45; _combatSkillEndTimes</text>
<polyline fill="none" stroke="black" points="65.5,-318 200.5,-318 "/>
<text text-anchor="start" x="73.5" y="-305" font-family="Helvetica,sans-Serif" font-size="10.00">+ BaseCharacter()</text>
<text text-anchor="start" x="73.5" y="-292" font-family="Helvetica,sans-Serif" font-size="10.00">+ BaseCharacter()</text>
<text text-anchor="start" x="73.5" y="-279" font-family="Helvetica,sans-Serif" font-size="10.00">+ ToString()</text>
<text text-anchor="start" x="73.5" y="-266" font-family="Helvetica,sans-Serif" font-size="10.00">+ LearnMagicSkill()</text>
<text text-anchor="start" x="73.5" y="-253" font-family="Helvetica,sans-Serif" font-size="10.00">+ TriggerMagicSkill()</text>
<text text-anchor="start" x="73.5" y="-240" font-family="Helvetica,sans-Serif" font-size="10.00">+ PreUseCountdown()</text>
<text text-anchor="start" x="73.5" y="-227" font-family="Helvetica,sans-Serif" font-size="10.00">+ AddEnemy()</text>
<text text-anchor="start" x="73.5" y="-214" font-family="Helvetica,sans-Serif" font-size="10.00">+ LearnCombatSkill()</text>
<text text-anchor="start" x="73.5" y="-201" font-family="Helvetica,sans-Serif" font-size="10.00">+ TriggerCombatSkill()</text>
<text text-anchor="start" x="73.5" y="-188" font-family="Helvetica,sans-Serif" font-size="10.00">+ PreUseCountdown()</text>
<text text-anchor="start" x="73.5" y="-175" font-family="Helvetica,sans-Serif" font-size="10.00">+ OnAttacked()</text>
<text text-anchor="start" x="73.5" y="-162" font-family="Helvetica,sans-Serif" font-size="10.00">&#45; UseMagicSkill()</text>
<text text-anchor="start" x="73.5" y="-149" font-family="Helvetica,sans-Serif" font-size="10.00">&#45; MagicSkillCanBeUsed()</text>
<text text-anchor="start" x="73.5" y="-136" font-family="Helvetica,sans-Serif" font-size="10.00">&#45; UseCombatSkill()</text>
<text text-anchor="start" x="73.5" y="-123" font-family="Helvetica,sans-Serif" font-size="10.00">&#45; CombatSkillCanBeUsed()</text>
</g>
<!-- Node5 -->
<g id="node9" class="node"><title>Node5</title>
<a xlink:href="../../d2/df0/class_action_rpg_kit_1_1_character_1_1_enemy.xhtml" target="_top" xlink:title="Representation of a Hostile, game controlled character.">
<polygon fill="white" stroke="black" points="63,-7.5 63,-70.5 125,-70.5 125,-7.5 63,-7.5"/>
<text text-anchor="middle" x="94" y="-57.5" font-family="Helvetica,sans-Serif" font-size="10.00">Enemy</text>
<polyline fill="none" stroke="black" points="63,-49.5 125,-49.5 "/>
<text text-anchor="middle" x="94" y="-36.5" font-family="Helvetica,sans-Serif" font-size="10.00"> </text>
<polyline fill="none" stroke="black" points="63,-28.5 125,-28.5 "/>
<text text-anchor="start" x="71" y="-15.5" font-family="Helvetica,sans-Serif" font-size="10.00">+ Enemy()</text>
</a>
</g>
<!-- Node1&#45;&gt;Node5 -->
<g id="edge8" class="edge"><title>Node1&#45;&gt;Node5</title>
<path fill="none" stroke="midnightblue" d="M103.52,-104.909C101.667,-92.0824 99.9792,-80.3948 98.5561,-70.5423"/>
<polygon fill="none" stroke="midnightblue" points="100.074,-105.532 104.967,-114.929 107.002,-104.531 100.074,-105.532"/>
</g>
<!-- Node6 -->
<g id="node11" class="node"><title>Node6</title>
<a xlink:href="../../d7/dd8/class_action_rpg_kit_1_1_character_1_1_player.xhtml" target="_top" xlink:title="Representation of a Player controllable character.">
<polygon fill="white" stroke="black" points="142.5,-1 142.5,-77 201.5,-77 201.5,-1 142.5,-1"/>
<text text-anchor="middle" x="172" y="-64" font-family="Helvetica,sans-Serif" font-size="10.00">Player</text>
<polyline fill="none" stroke="black" points="142.5,-56 201.5,-56 "/>
<text text-anchor="middle" x="172" y="-43" font-family="Helvetica,sans-Serif" font-size="10.00"> </text>
<polyline fill="none" stroke="black" points="142.5,-35 201.5,-35 "/>
<text text-anchor="start" x="150.5" y="-22" font-family="Helvetica,sans-Serif" font-size="10.00">+ Player()</text>
<text text-anchor="start" x="150.5" y="-9" font-family="Helvetica,sans-Serif" font-size="10.00">+ Player()</text>
</a>
</g>
<!-- Node1&#45;&gt;Node6 -->
<g id="edge10" class="edge"><title>Node1&#45;&gt;Node6</title>
<path fill="none" stroke="midnightblue" d="M162.465,-105.011C163.928,-94.882 165.289,-85.4614 166.498,-77.0917"/>
<polygon fill="none" stroke="midnightblue" points="158.998,-104.531 161.033,-114.929 165.926,-105.532 158.998,-104.531"/>
</g>
<!-- Node2 -->
<g id="node2" class="node"><title>Node2</title>
<a xlink:href="../../d2/df8/interface_action_rpg_kit_1_1_character_1_1_i_character.xhtml" target="_top" xlink:title="Characters populate the game world. They are defined by Stats.">
<polygon fill="white" stroke="black" points="0,-567 0,-643 62,-643 62,-567 0,-567"/>
<text text-anchor="middle" x="31" y="-630" font-family="Helvetica,sans-Serif" font-size="10.00">ICharacter</text>
<polyline fill="none" stroke="black" points="0,-622 62,-622 "/>
<text text-anchor="start" x="8" y="-609" font-family="Helvetica,sans-Serif" font-size="10.00">+ Name</text>
<text text-anchor="start" x="8" y="-596" font-family="Helvetica,sans-Serif" font-size="10.00">+ Stats</text>
<polyline fill="none" stroke="black" points="0,-588 62,-588 "/>
<text text-anchor="middle" x="31" y="-575" font-family="Helvetica,sans-Serif" font-size="10.00"> </text>
</a>
</g>
<!-- Node2&#45;&gt;Node1 -->
<g id="edge2" class="edge"><title>Node2&#45;&gt;Node1</title>
<path fill="none" stroke="midnightblue" d="M47.5252,-557.044C52.9187,-541.393 59.2795,-522.934 66.058,-503.263"/>
<polygon fill="none" stroke="midnightblue" points="44.0749,-556.314 44.1259,-566.909 50.6929,-558.595 44.0749,-556.314"/>
</g>
<!-- Node3 -->
<g id="node4" class="node"><title>Node3</title>
<a xlink:href="../../dd/db0/interface_action_rpg_kit_1_1_character_1_1_i_magic_user.xhtml" target="_top" xlink:title="Character can use Magic.">
<polygon fill="white" stroke="black" points="79.5,-567 79.5,-643 186.5,-643 186.5,-567 79.5,-567"/>
<text text-anchor="middle" x="133" y="-630" font-family="Helvetica,sans-Serif" font-size="10.00">IMagicUser</text>
<polyline fill="none" stroke="black" points="79.5,-622 186.5,-622 "/>
<text text-anchor="start" x="87.5" y="-609" font-family="Helvetica,sans-Serif" font-size="10.00">+ MagicSkills</text>
<polyline fill="none" stroke="black" points="79.5,-601 186.5,-601 "/>
<text text-anchor="start" x="87.5" y="-588" font-family="Helvetica,sans-Serif" font-size="10.00">+ LearnMagicSkill()</text>
<text text-anchor="start" x="87.5" y="-575" font-family="Helvetica,sans-Serif" font-size="10.00">+ TriggerMagicSkill()</text>
</a>
</g>
<!-- Node3&#45;&gt;Node1 -->
<g id="edge4" class="edge"><title>Node3&#45;&gt;Node1</title>
<path fill="none" stroke="midnightblue" d="M133,-556.597C133,-541.041 133,-522.747 133,-503.263"/>
<polygon fill="none" stroke="midnightblue" points="129.5,-556.909 133,-566.909 136.5,-556.909 129.5,-556.909"/>
</g>
<!-- Node4 -->
<g id="node6" class="node"><title>Node4</title>
<a xlink:href="../../df/d5e/interface_action_rpg_kit_1_1_character_1_1_i_fighter.xhtml" target="_top" xlink:title="Character can fight.">
<polygon fill="white" stroke="black" points="203.5,-541 203.5,-669 318.5,-669 318.5,-541 203.5,-541"/>
<text text-anchor="middle" x="261" y="-656" font-family="Helvetica,sans-Serif" font-size="10.00">IFighter</text>
<polyline fill="none" stroke="black" points="203.5,-648 318.5,-648 "/>
<text text-anchor="start" x="211.5" y="-635" font-family="Helvetica,sans-Serif" font-size="10.00">+ Life</text>
<text text-anchor="start" x="211.5" y="-622" font-family="Helvetica,sans-Serif" font-size="10.00">+ Enemies</text>
<text text-anchor="start" x="211.5" y="-609" font-family="Helvetica,sans-Serif" font-size="10.00">+ CombatSkills</text>
<polyline fill="none" stroke="black" points="203.5,-601 318.5,-601 "/>
<text text-anchor="start" x="211.5" y="-588" font-family="Helvetica,sans-Serif" font-size="10.00">+ AddEnemy()</text>
<text text-anchor="start" x="211.5" y="-575" font-family="Helvetica,sans-Serif" font-size="10.00">+ LearnCombatSkill()</text>
<text text-anchor="start" x="211.5" y="-562" font-family="Helvetica,sans-Serif" font-size="10.00">+ TriggerCombatSkill()</text>
<text text-anchor="start" x="211.5" y="-549" font-family="Helvetica,sans-Serif" font-size="10.00">+ OnAttacked()</text>
</a>
</g>
<!-- Node4&#45;&gt;Node1 -->
<g id="edge6" class="edge"><title>Node4&#45;&gt;Node1</title>
<path fill="none" stroke="midnightblue" d="M229.14,-531.324C220.36,-511.02 210.49,-488.196 200.506,-465.108"/>
<polygon fill="none" stroke="midnightblue" points="226.044,-532.983 233.226,-540.772 232.469,-530.205 226.044,-532.983"/>
</g>
</g>
</svg>
        <g id="navigator" transform="translate(0 0)" fill="#404254">
                <rect fill="#f2f5e9" fill-opacity="0.5" stroke="#606060" stroke-width=".5" x="0" y="0" width="60" height="60"/>
                <use id="zoomplus" xlink:href="#zoomPlus" x="17" y="9" onmousedown="handleZoom(evt,'in')"/>
                <use id="zoomminus" xlink:href="#zoomMin" x="42" y="9" onmousedown="handleZoom(evt,'out')"/>
                <use id="reset" xlink:href="#resetDef" x="30" y="36" onmousedown="handleReset()"/>
                <g id="arrowUp" xlink:href="#dirArrow" transform="translate(30 24)" onmousedown="handlePan(0,-1)">
                  <use xlink:href="#rim" fill="#404040">
                        <set attributeName="fill" to="#808080" begin="arrowUp.mouseover" end="arrowUp.mouseout"/>
                  </use>
                  <path fill="none" stroke="white" stroke-width="1.5" d="M0,-3.0v7 M-2.5,-0.5L0,-3.0L2.5,-0.5"/>
                </g>
                <g id="arrowRight" xlink:href="#dirArrow" transform="rotate(90) translate(36 -43)" onmousedown="handlePan(1,0)">
                  <use xlink:href="#rim" fill="#404040">
                        <set attributeName="fill" to="#808080" begin="arrowRight.mouseover" end="arrowRight.mouseout"/>
                  </use>
                  <path fill="none" stroke="white" stroke-width="1.5" d="M0,-3.0v7 M-2.5,-0.5L0,-3.0L2.5,-0.5"/>
                </g>
                <g id="arrowDown" xlink:href="#dirArrow" transform="rotate(180) translate(-30 -48)" onmousedown="handlePan(0,1)">
                  <use xlink:href="#rim" fill="#404040">
                        <set attributeName="fill" to="#808080" begin="arrowDown.mouseover" end="arrowDown.mouseout"/>
                  </use>
                  <path fill="none" stroke="white" stroke-width="1.5" d="M0,-3.0v7 M-2.5,-0.5L0,-3.0L2.5,-0.5"/>
                </g>
                <g id="arrowLeft" xlink:href="#dirArrow" transform="rotate(270) translate(-36 17)" onmousedown="handlePan(-1,0)">
                  <use xlink:href="#rim" fill="#404040">
                        <set attributeName="fill" to="#808080" begin="arrowLeft.mouseover" end="arrowLeft.mouseout"/>
                  </use>
                  <path fill="none" stroke="white" stroke-width="1.5" d="M0,-3.0v7 M-2.5,-0.5L0,-3.0L2.5,-0.5"/>
                </g>
        </g>
        <svg viewBox="0 0 15 15" width="100%" height="30px" preserveAspectRatio="xMaxYMin meet">
         <g id="arrow_out" transform="scale(0.3 0.3)">
          <a xlink:href="class_action_rpg_kit_1_1_character_1_1_base_character__inherit__graph_org.svg" target="_base">
           <rect id="button" ry="5" rx="5" y="6" x="6" height="38" width="38"
                fill="#f2f5e9" fill-opacity="0.5" stroke="#606060" stroke-width="1.0"/>
           <path id="arrow"
             d="M 11.500037,31.436501 C 11.940474,20.09759 22.043105,11.32322 32.158766,21.979434 L 37.068811,17.246167 C 37.068811,17.246167 37.088388,32 37.088388,32 L 22.160133,31.978069 C 22.160133,31.978069 26.997745,27.140456 26.997745,27.140456 C 18.528582,18.264221 13.291696,25.230495 11.500037,31.436501 z"
             style="fill:#404040;"/>
          </a>
         </g>
        </svg>
</svg>
