<?xml version="1.0" encoding="UTF-8" standalone="no"?>
<!DOCTYPE svg PUBLIC "-//W3C//DTD SVG 1.1//EN"
 "http://www.w3.org/Graphics/SVG/1.1/DTD/svg11.dtd">
<!-- Generated by graphviz version 2.26.3 (20100126.1600)
 -->
<!-- Title: ICharacter Pages: 1 -->
<svg width="146pt" height="626pt"
 viewBox="0.00 0.00 146.00 626.00" xmlns="http://www.w3.org/2000/svg" xmlns:xlink="http://www.w3.org/1999/xlink">
<g id="graph1" class="graph" transform="scale(1 1) rotate(0) translate(4 622)">
<title>ICharacter</title>
<polygon fill="white" stroke="white" points="-4,5 -4,-622 143,-622 143,5 -4,5"/>
<!-- Node1 -->
<g id="node1" class="node"><title>Node1</title>
<polygon fill="#bfbfbf" stroke="black" points="39,-541 39,-617 101,-617 101,-541 39,-541"/>
<text text-anchor="middle" x="70" y="-604" font-family="Helvetica,sans-Serif" font-size="10.00">ICharacter</text>
<polyline fill="none" stroke="black" points="39,-596 101,-596 "/>
<text text-anchor="start" x="47" y="-583" font-family="Helvetica,sans-Serif" font-size="10.00">+ Name</text>
<text text-anchor="start" x="47" y="-570" font-family="Helvetica,sans-Serif" font-size="10.00">+ Stats</text>
<polyline fill="none" stroke="black" points="39,-562 101,-562 "/>
<text text-anchor="middle" x="70" y="-549" font-family="Helvetica,sans-Serif" font-size="10.00"> </text>
</g>
<!-- Node2 -->
<g id="node3" class="node"><title>Node2</title>
<a xlink:href="../../d9/d5c/class_action_rpg_kit_1_1_character_1_1_base_character.xhtml" target="_top" xlink:title="Base implementation of a Character.">
<polygon fill="white" stroke="black" points="2.5,-115 2.5,-503 137.5,-503 137.5,-115 2.5,-115"/>
<text text-anchor="middle" x="70" y="-490" font-family="Helvetica,sans-Serif" font-size="10.00">BaseCharacter</text>
<polyline fill="none" stroke="black" points="2.5,-482 137.5,-482 "/>
<text text-anchor="start" x="10.5" y="-469" font-family="Helvetica,sans-Serif" font-size="10.00">+ Name</text>
<text text-anchor="start" x="10.5" y="-456" font-family="Helvetica,sans-Serif" font-size="10.00">+ Stats</text>
<text text-anchor="start" x="10.5" y="-443" font-family="Helvetica,sans-Serif" font-size="10.00">+ Magic</text>
<text text-anchor="start" x="10.5" y="-430" font-family="Helvetica,sans-Serif" font-size="10.00">+ MagicSkills</text>
<text text-anchor="start" x="10.5" y="-417" font-family="Helvetica,sans-Serif" font-size="10.00">+ Life</text>
<text text-anchor="start" x="10.5" y="-404" font-family="Helvetica,sans-Serif" font-size="10.00">+ Enemies</text>
<text text-anchor="start" x="10.5" y="-391" font-family="Helvetica,sans-Serif" font-size="10.00">+ CombatSkills</text>
<text text-anchor="start" x="10.5" y="-378" font-family="Helvetica,sans-Serif" font-size="10.00">&#45; _magicSkills</text>
<text text-anchor="start" x="10.5" y="-365" font-family="Helvetica,sans-Serif" font-size="10.00">&#45; _magicSkillEndTimes</text>
<text text-anchor="start" x="10.5" y="-352" font-family="Helvetica,sans-Serif" font-size="10.00">&#45; _enemies</text>
<text text-anchor="start" x="10.5" y="-339" font-family="Helvetica,sans-Serif" font-size="10.00">&#45; _combatSkills</text>
<text text-anchor="start" x="10.5" y="-326" font-family="Helvetica,sans-Serif" font-size="10.00">&#45; _combatSkillEndTimes</text>
<polyline fill="none" stroke="black" points="2.5,-318 137.5,-318 "/>
<text text-anchor="start" x="10.5" y="-305" font-family="Helvetica,sans-Serif" font-size="10.00">+ BaseCharacter()</text>
<text text-anchor="start" x="10.5" y="-292" font-family="Helvetica,sans-Serif" font-size="10.00">+ BaseCharacter()</text>
<text text-anchor="start" x="10.5" y="-279" font-family="Helvetica,sans-Serif" font-size="10.00">+ ToString()</text>
<text text-anchor="start" x="10.5" y="-266" font-family="Helvetica,sans-Serif" font-size="10.00">+ LearnMagicSkill()</text>
<text text-anchor="start" x="10.5" y="-253" font-family="Helvetica,sans-Serif" font-size="10.00">+ TriggerMagicSkill()</text>
<text text-anchor="start" x="10.5" y="-240" font-family="Helvetica,sans-Serif" font-size="10.00">+ PreUseCountdown()</text>
<text text-anchor="start" x="10.5" y="-227" font-family="Helvetica,sans-Serif" font-size="10.00">+ AddEnemy()</text>
<text text-anchor="start" x="10.5" y="-214" font-family="Helvetica,sans-Serif" font-size="10.00">+ LearnCombatSkill()</text>
<text text-anchor="start" x="10.5" y="-201" font-family="Helvetica,sans-Serif" font-size="10.00">+ TriggerCombatSkill()</text>
<text text-anchor="start" x="10.5" y="-188" font-family="Helvetica,sans-Serif" font-size="10.00">+ PreUseCountdown()</text>
<text text-anchor="start" x="10.5" y="-175" font-family="Helvetica,sans-Serif" font-size="10.00">+ OnAttacked()</text>
<text text-anchor="start" x="10.5" y="-162" font-family="Helvetica,sans-Serif" font-size="10.00">&#45; UseMagicSkill()</text>
<text text-anchor="start" x="10.5" y="-149" font-family="Helvetica,sans-Serif" font-size="10.00">&#45; MagicSkillCanBeUsed()</text>
<text text-anchor="start" x="10.5" y="-136" font-family="Helvetica,sans-Serif" font-size="10.00">&#45; UseCombatSkill()</text>
<text text-anchor="start" x="10.5" y="-123" font-family="Helvetica,sans-Serif" font-size="10.00">&#45; CombatSkillCanBeUsed()</text>
</a>
</g>
<!-- Node1&#45;&gt;Node2 -->
<g id="edge2" class="edge"><title>Node1&#45;&gt;Node2</title>
<path fill="none" stroke="midnightblue" d="M70,-530.868C70,-522.309 70,-512.94 70,-503.043"/>
<polygon fill="none" stroke="midnightblue" points="66.5001,-530.888 70,-540.888 73.5001,-530.888 66.5001,-530.888"/>
</g>
<!-- Node3 -->
<g id="node5" class="node"><title>Node3</title>
<a xlink:href="../../d2/df0/class_action_rpg_kit_1_1_character_1_1_enemy.xhtml" target="_top" xlink:title="Representation of a Hostile, game controlled character.">
<polygon fill="white" stroke="black" points="0,-7.5 0,-70.5 62,-70.5 62,-7.5 0,-7.5"/>
<text text-anchor="middle" x="31" y="-57.5" font-family="Helvetica,sans-Serif" font-size="10.00">Enemy</text>
<polyline fill="none" stroke="black" points="0,-49.5 62,-49.5 "/>
<text text-anchor="middle" x="31" y="-36.5" font-family="Helvetica,sans-Serif" font-size="10.00"> </text>
<polyline fill="none" stroke="black" points="0,-28.5 62,-28.5 "/>
<text text-anchor="start" x="8" y="-15.5" font-family="Helvetica,sans-Serif" font-size="10.00">+ Enemy()</text>
</a>
</g>
<!-- Node2&#45;&gt;Node3 -->
<g id="edge4" class="edge"><title>Node2&#45;&gt;Node3</title>
<path fill="none" stroke="midnightblue" d="M40.5202,-104.909C38.6675,-92.0824 36.9792,-80.3948 35.5561,-70.5423"/>
<polygon fill="none" stroke="midnightblue" points="37.0737,-105.532 41.9675,-114.929 44.0018,-104.531 37.0737,-105.532"/>
</g>
<!-- Node4 -->
<g id="node7" class="node"><title>Node4</title>
<a xlink:href="../../d7/dd8/class_action_rpg_kit_1_1_character_1_1_player.xhtml" target="_top" xlink:title="Representation of a Player controllable character.">
<polygon fill="white" stroke="black" points="79.5,-1 79.5,-77 138.5,-77 138.5,-1 79.5,-1"/>
<text text-anchor="middle" x="109" y="-64" font-family="Helvetica,sans-Serif" font-size="10.00">Player</text>
<polyline fill="none" stroke="black" points="79.5,-56 138.5,-56 "/>
<text text-anchor="middle" x="109" y="-43" font-family="Helvetica,sans-Serif" font-size="10.00"> </text>
<polyline fill="none" stroke="black" points="79.5,-35 138.5,-35 "/>
<text text-anchor="start" x="87.5" y="-22" font-family="Helvetica,sans-Serif" font-size="10.00">+ Player()</text>
<text text-anchor="start" x="87.5" y="-9" font-family="Helvetica,sans-Serif" font-size="10.00">+ Player()</text>
</a>
</g>
<!-- Node2&#45;&gt;Node4 -->
<g id="edge6" class="edge"><title>Node2&#45;&gt;Node4</title>
<path fill="none" stroke="midnightblue" d="M99.4651,-105.011C100.928,-94.882 102.289,-85.4614 103.498,-77.0917"/>
<polygon fill="none" stroke="midnightblue" points="95.9982,-104.531 98.0325,-114.929 102.926,-105.532 95.9982,-104.531"/>
</g>
</g>
</svg>
