<?xml version="1.0" encoding="UTF-8" standalone="no"?>
<!DOCTYPE svg PUBLIC "-//W3C//DTD SVG 1.1//EN"
 "http://www.w3.org/Graphics/SVG/1.1/DTD/svg11.dtd">
<!-- Generated by graphviz version 2.26.3 (20100126.1600)
 -->
<!-- Title: G Pages: 1 -->
<svg width="110pt" height="276pt"
 viewBox="0.00 0.00 110.00 276.00" xmlns="http://www.w3.org/2000/svg" xmlns:xlink="http://www.w3.org/1999/xlink">
<g id="graph1" class="graph" transform="scale(1 1) rotate(0) translate(4 272)">
<title>G</title>
<polygon fill="white" stroke="white" points="-4,5 -4,-272 107,-272 107,5 -4,5"/>
<!-- Node1 -->
<g id="node1" class="node"><title>Node1</title>
<polygon fill="#bfbfbf" stroke="black" points="0,-0.5 0,-141.5 102,-141.5 102,-0.5 0,-0.5"/>
<text text-anchor="middle" x="51" y="-128.5" font-family="Helvetica,sans-Serif" font-size="10.00">SimpleInventory</text>
<polyline fill="none" stroke="black" points="0,-120.5 102,-120.5 "/>
<text text-anchor="start" x="8" y="-107.5" font-family="Helvetica,sans-Serif" font-size="10.00">+ Items</text>
<text text-anchor="start" x="8" y="-94.5" font-family="Helvetica,sans-Serif" font-size="10.00">+ Quantities</text>
<text text-anchor="start" x="8" y="-81.5" font-family="Helvetica,sans-Serif" font-size="10.00">+ ItemCount</text>
<text text-anchor="start" x="8" y="-68.5" font-family="Helvetica,sans-Serif" font-size="10.00">&#45; _items</text>
<text text-anchor="start" x="8" y="-55.5" font-family="Helvetica,sans-Serif" font-size="10.00">&#45; _quantities</text>
<polyline fill="none" stroke="black" points="0,-47.5 102,-47.5 "/>
<text text-anchor="start" x="8" y="-34.5" font-family="Helvetica,sans-Serif" font-size="10.00">+ SimpleInventory()</text>
<text text-anchor="start" x="8" y="-21.5" font-family="Helvetica,sans-Serif" font-size="10.00">+ SimpleInventory()</text>
<text text-anchor="start" x="8" y="-8.5" font-family="Helvetica,sans-Serif" font-size="10.00">+ ToString()</text>
</g>
<!-- Node2 -->
<g id="node2" class="node"><title>Node2</title>
<a xlink:href="../../d4/d07/interface_action_rpg_kit_1_1_character_1_1_i_inventory.xhtml" target="_top" xlink:title="An inventory holds Items.">
<polygon fill="white" stroke="black" points="15.5,-178.5 15.5,-267.5 86.5,-267.5 86.5,-178.5 15.5,-178.5"/>
<text text-anchor="middle" x="51" y="-254.5" font-family="Helvetica,sans-Serif" font-size="10.00">IInventory</text>
<polyline fill="none" stroke="black" points="15.5,-246.5 86.5,-246.5 "/>
<text text-anchor="start" x="23.5" y="-233.5" font-family="Helvetica,sans-Serif" font-size="10.00">+ Items</text>
<text text-anchor="start" x="23.5" y="-220.5" font-family="Helvetica,sans-Serif" font-size="10.00">+ Quantities</text>
<text text-anchor="start" x="23.5" y="-207.5" font-family="Helvetica,sans-Serif" font-size="10.00">+ ItemCount</text>
<polyline fill="none" stroke="black" points="15.5,-199.5 86.5,-199.5 "/>
<text text-anchor="middle" x="51" y="-186.5" font-family="Helvetica,sans-Serif" font-size="10.00"> </text>
</a>
</g>
<!-- Node2&#45;&gt;Node1 -->
<g id="edge2" class="edge"><title>Node2&#45;&gt;Node1</title>
<path fill="none" stroke="midnightblue" d="M51,-168.013C51,-159.465 51,-150.532 51,-141.695"/>
<polygon fill="none" stroke="midnightblue" points="47.5001,-168.217 51,-178.217 54.5001,-168.217 47.5001,-168.217"/>
</g>
</g>
</svg>
