<?xml version="1.0" encoding="UTF-8" standalone="no"?>
<!DOCTYPE svg PUBLIC "-//W3C//DTD SVG 1.1//EN"
 "http://www.w3.org/Graphics/SVG/1.1/DTD/svg11.dtd">
<!-- Generated by graphviz version 2.26.3 (20100126.1600)
 -->
<!-- Title: G Pages: 1 -->
<!--zoomable 754 -->
<svg id="main" version="1.1" xmlns="http://www.w3.org/2000/svg" xmlns:xlink="http://www.w3.org/1999/xlink" xml:space="preserve" onload="init(evt)">
        <defs>
                <circle id="rim" cx="0" cy="0" r="7"/>
                <circle id="rim2" cx="0" cy="0" r="3.5"/>
                <g id="zoomPlus">
                        <use xlink:href="#rim" fill="#404040">
                                <set attributeName="fill" to="#808080" begin="zoomplus.mouseover" end="zoomplus.mouseout"/>
                        </use>
                        <path d="M-4,0h8M0,-4v8" fill="none" stroke="white" stroke-width="1.5" pointer-events="none"/>
                </g>
                <g id="zoomMin">
                        <use xlink:href="#rim" fill="#404040">
                                <set attributeName="fill" to="#808080" begin="zoomminus.mouseover" end="zoomminus.mouseout"/>
                        </use>
                        <path d="M-4,0h8" fill="none" stroke="white" stroke-width="1.5" pointer-events="none"/>
                </g>
                <g id="dirArrow">
                        <path fill="none" stroke="white" stroke-width="1.5" d="M0,-3.0v7 M-2.5,-0.5L0,-3.0L2.5,-0.5"/>
                </g>
               <g id="resetDef">
                       <use xlink:href="#rim2" fill="#404040">
                               <set attributeName="fill" to="#808080" begin="reset.mouseover" end="reset.mouseout"/>
                       </use>
               </g>
        </defs>

<script type="text/javascript">
var viewWidth = 436;
var viewHeight = 754;
var sectionId = 'dynsection-0';
</script>
<script xlink:href="../../svgpan.js"/>
<svg id="graph" class="graph">
<g id="viewport">
<title>G</title>
<polygon fill="white" stroke="white" points="-4,5 -4,-750 433,-750 433,5 -4,5"/>
<!-- Node1 -->
<g id="node1" class="node"><title>Node1</title>
<polygon fill="#bfbfbf" stroke="black" points="153,-0.5 153,-89.5 221,-89.5 221,-0.5 153,-0.5"/>
<text text-anchor="middle" x="187" y="-76.5" font-family="Helvetica,sans-Serif" font-size="10.00">Enemy</text>
<polyline fill="none" stroke="black" points="153,-68.5 221,-68.5 "/>
<text text-anchor="start" x="161" y="-55.5" font-family="Helvetica,sans-Serif" font-size="10.00">+ Inventory</text>
<text text-anchor="start" x="161" y="-42.5" font-family="Helvetica,sans-Serif" font-size="10.00">&#45; _inventory</text>
<polyline fill="none" stroke="black" points="153,-34.5 221,-34.5 "/>
<text text-anchor="start" x="161" y="-21.5" font-family="Helvetica,sans-Serif" font-size="10.00">+ Enemy()</text>
<text text-anchor="start" x="161" y="-8.5" font-family="Helvetica,sans-Serif" font-size="10.00">+ Enemy()</text>
</g>
<!-- Node2 -->
<g id="node2" class="node"><title>Node2</title>
<a xlink:href="../../d9/d5c/class_action_rpg_kit_1_1_character_1_1_base_character.xhtml" target="_top" xlink:title="Base implementation of a Character.">
<polygon fill="white" stroke="black" points="119.5,-126.5 119.5,-579.5 254.5,-579.5 254.5,-126.5 119.5,-126.5"/>
<text text-anchor="middle" x="187" y="-566.5" font-family="Helvetica,sans-Serif" font-size="10.00">BaseCharacter</text>
<polyline fill="none" stroke="black" points="119.5,-558.5 254.5,-558.5 "/>
<text text-anchor="start" x="127.5" y="-545.5" font-family="Helvetica,sans-Serif" font-size="10.00">+ _idleState</text>
<text text-anchor="start" x="127.5" y="-532.5" font-family="Helvetica,sans-Serif" font-size="10.00">+ _moveState</text>
<text text-anchor="start" x="127.5" y="-519.5" font-family="Helvetica,sans-Serif" font-size="10.00">+ Position</text>
<text text-anchor="start" x="127.5" y="-506.5" font-family="Helvetica,sans-Serif" font-size="10.00">+ Name</text>
<text text-anchor="start" x="127.5" y="-493.5" font-family="Helvetica,sans-Serif" font-size="10.00">+ Stats</text>
<text text-anchor="start" x="127.5" y="-480.5" font-family="Helvetica,sans-Serif" font-size="10.00">+ Inventory</text>
<text text-anchor="start" x="127.5" y="-467.5" font-family="Helvetica,sans-Serif" font-size="10.00">+ CurrentState</text>
<text text-anchor="start" x="127.5" y="-454.5" font-family="Helvetica,sans-Serif" font-size="10.00">+ Magic</text>
<text text-anchor="start" x="127.5" y="-441.5" font-family="Helvetica,sans-Serif" font-size="10.00">+ MagicSkills</text>
<text text-anchor="start" x="127.5" y="-428.5" font-family="Helvetica,sans-Serif" font-size="10.00">+ Life</text>
<text text-anchor="start" x="127.5" y="-415.5" font-family="Helvetica,sans-Serif" font-size="10.00">+ Enemies</text>
<text text-anchor="start" x="127.5" y="-402.5" font-family="Helvetica,sans-Serif" font-size="10.00">+ CombatSkills</text>
<text text-anchor="start" x="127.5" y="-389.5" font-family="Helvetica,sans-Serif" font-size="10.00">&#45; _magicSkills</text>
<text text-anchor="start" x="127.5" y="-376.5" font-family="Helvetica,sans-Serif" font-size="10.00">&#45; _magicSkillEndTimes</text>
<text text-anchor="start" x="127.5" y="-363.5" font-family="Helvetica,sans-Serif" font-size="10.00">&#45; _enemies</text>
<text text-anchor="start" x="127.5" y="-350.5" font-family="Helvetica,sans-Serif" font-size="10.00">&#45; _combatSkills</text>
<text text-anchor="start" x="127.5" y="-337.5" font-family="Helvetica,sans-Serif" font-size="10.00">&#45; _combatSkillEndTimes</text>
<polyline fill="none" stroke="black" points="119.5,-329.5 254.5,-329.5 "/>
<text text-anchor="start" x="127.5" y="-316.5" font-family="Helvetica,sans-Serif" font-size="10.00">+ BaseCharacter()</text>
<text text-anchor="start" x="127.5" y="-303.5" font-family="Helvetica,sans-Serif" font-size="10.00">+ BaseCharacter()</text>
<text text-anchor="start" x="127.5" y="-290.5" font-family="Helvetica,sans-Serif" font-size="10.00">+ ToString()</text>
<text text-anchor="start" x="127.5" y="-277.5" font-family="Helvetica,sans-Serif" font-size="10.00">+ LearnMagicSkill()</text>
<text text-anchor="start" x="127.5" y="-264.5" font-family="Helvetica,sans-Serif" font-size="10.00">+ TriggerMagicSkill()</text>
<text text-anchor="start" x="127.5" y="-251.5" font-family="Helvetica,sans-Serif" font-size="10.00">+ PreUseCountdown()</text>
<text text-anchor="start" x="127.5" y="-238.5" font-family="Helvetica,sans-Serif" font-size="10.00">+ AddEnemy()</text>
<text text-anchor="start" x="127.5" y="-225.5" font-family="Helvetica,sans-Serif" font-size="10.00">+ LearnCombatSkill()</text>
<text text-anchor="start" x="127.5" y="-212.5" font-family="Helvetica,sans-Serif" font-size="10.00">+ TriggerCombatSkill()</text>
<text text-anchor="start" x="127.5" y="-199.5" font-family="Helvetica,sans-Serif" font-size="10.00">+ PreUseCountdown()</text>
<text text-anchor="start" x="127.5" y="-186.5" font-family="Helvetica,sans-Serif" font-size="10.00">+ OnAttacked()</text>
<text text-anchor="start" x="127.5" y="-173.5" font-family="Helvetica,sans-Serif" font-size="10.00">&#45; UseMagicSkill()</text>
<text text-anchor="start" x="127.5" y="-160.5" font-family="Helvetica,sans-Serif" font-size="10.00">&#45; MagicSkillCanBeUsed()</text>
<text text-anchor="start" x="127.5" y="-147.5" font-family="Helvetica,sans-Serif" font-size="10.00">&#45; UseCombatSkill()</text>
<text text-anchor="start" x="127.5" y="-134.5" font-family="Helvetica,sans-Serif" font-size="10.00">&#45; CombatSkillCanBeUsed()</text>
</a>
</g>
<!-- Node2&#45;&gt;Node1 -->
<g id="edge2" class="edge"><title>Node2&#45;&gt;Node1</title>
<path fill="none" stroke="midnightblue" d="M187,-116.16C187,-106.606 187,-97.6571 187,-89.5468"/>
<polygon fill="none" stroke="midnightblue" points="183.5,-116.326 187,-126.326 190.5,-116.326 183.5,-116.326"/>
</g>
<!-- Node3 -->
<g id="node4" class="node"><title>Node3</title>
<a xlink:href="../../de/d0d/interface_action_rpg_kit_1_1_core_1_1_i_game_object.xhtml" target="_top" xlink:title="{IGameObject\n|+ Position\l|}">
<polygon fill="white" stroke="black" points="0,-649.5 0,-712.5 74,-712.5 74,-649.5 0,-649.5"/>
<text text-anchor="middle" x="37" y="-699.5" font-family="Helvetica,sans-Serif" font-size="10.00">IGameObject</text>
<polyline fill="none" stroke="black" points="0,-691.5 74,-691.5 "/>
<text text-anchor="start" x="8" y="-678.5" font-family="Helvetica,sans-Serif" font-size="10.00">+ Position</text>
<polyline fill="none" stroke="black" points="0,-670.5 74,-670.5 "/>
<text text-anchor="middle" x="37" y="-657.5" font-family="Helvetica,sans-Serif" font-size="10.00"> </text>
</a>
</g>
<!-- Node3&#45;&gt;Node2 -->
<g id="edge4" class="edge"><title>Node3&#45;&gt;Node2</title>
<path fill="none" stroke="midnightblue" d="M55.8431,-639.796C71.9624,-604.549 96.1806,-551.592 119.436,-500.74"/>
<polygon fill="none" stroke="midnightblue" points="52.4949,-638.702 51.5189,-649.252 58.8608,-641.613 52.4949,-638.702"/>
</g>
<!-- Node4 -->
<g id="node6" class="node"><title>Node4</title>
<a xlink:href="../../d2/df8/interface_action_rpg_kit_1_1_character_1_1_i_character.xhtml" target="_top" xlink:title="Characters populate the game world. They are defined by Stats.">
<polygon fill="white" stroke="black" points="91.5,-630 91.5,-732 172.5,-732 172.5,-630 91.5,-630"/>
<text text-anchor="middle" x="132" y="-719" font-family="Helvetica,sans-Serif" font-size="10.00">ICharacter</text>
<polyline fill="none" stroke="black" points="91.5,-711 172.5,-711 "/>
<text text-anchor="start" x="99.5" y="-698" font-family="Helvetica,sans-Serif" font-size="10.00">+ Name</text>
<text text-anchor="start" x="99.5" y="-685" font-family="Helvetica,sans-Serif" font-size="10.00">+ Stats</text>
<text text-anchor="start" x="99.5" y="-672" font-family="Helvetica,sans-Serif" font-size="10.00">+ Inventory</text>
<text text-anchor="start" x="99.5" y="-659" font-family="Helvetica,sans-Serif" font-size="10.00">+ CurrentState</text>
<polyline fill="none" stroke="black" points="91.5,-651 172.5,-651 "/>
<text text-anchor="middle" x="132" y="-638" font-family="Helvetica,sans-Serif" font-size="10.00"> </text>
</a>
</g>
<!-- Node4&#45;&gt;Node2 -->
<g id="edge6" class="edge"><title>Node4&#45;&gt;Node2</title>
<path fill="none" stroke="midnightblue" d="M142.264,-619.79C144.315,-607.56 146.579,-594.053 148.969,-579.801"/>
<polygon fill="none" stroke="midnightblue" points="138.796,-619.309 140.594,-629.75 145.699,-620.467 138.796,-619.309"/>
</g>
<!-- Node5 -->
<g id="node8" class="node"><title>Node5</title>
<a xlink:href="../../dd/db0/interface_action_rpg_kit_1_1_character_1_1_i_magic_user.xhtml" target="_top" xlink:title="Character can use Magic.">
<polygon fill="white" stroke="black" points="189.5,-643 189.5,-719 296.5,-719 296.5,-643 189.5,-643"/>
<text text-anchor="middle" x="243" y="-706" font-family="Helvetica,sans-Serif" font-size="10.00">IMagicUser</text>
<polyline fill="none" stroke="black" points="189.5,-698 296.5,-698 "/>
<text text-anchor="start" x="197.5" y="-685" font-family="Helvetica,sans-Serif" font-size="10.00">+ MagicSkills</text>
<polyline fill="none" stroke="black" points="189.5,-677 296.5,-677 "/>
<text text-anchor="start" x="197.5" y="-664" font-family="Helvetica,sans-Serif" font-size="10.00">+ LearnMagicSkill()</text>
<text text-anchor="start" x="197.5" y="-651" font-family="Helvetica,sans-Serif" font-size="10.00">+ TriggerMagicSkill()</text>
</a>
</g>
<!-- Node5&#45;&gt;Node2 -->
<g id="edge8" class="edge"><title>Node5&#45;&gt;Node2</title>
<path fill="none" stroke="midnightblue" d="M234.731,-632.565C232.111,-617.221 229.023,-599.133 225.698,-579.657"/>
<polygon fill="none" stroke="midnightblue" points="231.333,-633.464 236.466,-642.732 238.234,-632.286 231.333,-633.464"/>
</g>
<!-- Node6 -->
<g id="node10" class="node"><title>Node6</title>
<a xlink:href="../../df/d5e/interface_action_rpg_kit_1_1_character_1_1_i_fighter.xhtml" target="_top" xlink:title="Character can fight.">
<polygon fill="white" stroke="black" points="313.5,-617 313.5,-745 428.5,-745 428.5,-617 313.5,-617"/>
<text text-anchor="middle" x="371" y="-732" font-family="Helvetica,sans-Serif" font-size="10.00">IFighter</text>
<polyline fill="none" stroke="black" points="313.5,-724 428.5,-724 "/>
<text text-anchor="start" x="321.5" y="-711" font-family="Helvetica,sans-Serif" font-size="10.00">+ Life</text>
<text text-anchor="start" x="321.5" y="-698" font-family="Helvetica,sans-Serif" font-size="10.00">+ Enemies</text>
<text text-anchor="start" x="321.5" y="-685" font-family="Helvetica,sans-Serif" font-size="10.00">+ CombatSkills</text>
<polyline fill="none" stroke="black" points="313.5,-677 428.5,-677 "/>
<text text-anchor="start" x="321.5" y="-664" font-family="Helvetica,sans-Serif" font-size="10.00">+ AddEnemy()</text>
<text text-anchor="start" x="321.5" y="-651" font-family="Helvetica,sans-Serif" font-size="10.00">+ LearnCombatSkill()</text>
<text text-anchor="start" x="321.5" y="-638" font-family="Helvetica,sans-Serif" font-size="10.00">+ TriggerCombatSkill()</text>
<text text-anchor="start" x="321.5" y="-625" font-family="Helvetica,sans-Serif" font-size="10.00">+ OnAttacked()</text>
</a>
</g>
<!-- Node6&#45;&gt;Node2 -->
<g id="edge10" class="edge"><title>Node6&#45;&gt;Node2</title>
<path fill="none" stroke="midnightblue" d="M330.159,-608.196C307.986,-568.671 280.001,-518.785 254.668,-473.626"/>
<polygon fill="none" stroke="midnightblue" points="327.141,-609.971 335.086,-616.98 333.246,-606.546 327.141,-609.971"/>
</g>
</g>
</svg>
        <g id="navigator" transform="translate(0 0)" fill="#404254">
                <rect fill="#f2f5e9" fill-opacity="0.5" stroke="#606060" stroke-width=".5" x="0" y="0" width="60" height="60"/>
                <use id="zoomplus" xlink:href="#zoomPlus" x="17" y="9" onmousedown="handleZoom(evt,'in')"/>
                <use id="zoomminus" xlink:href="#zoomMin" x="42" y="9" onmousedown="handleZoom(evt,'out')"/>
                <use id="reset" xlink:href="#resetDef" x="30" y="36" onmousedown="handleReset()"/>
                <g id="arrowUp" xlink:href="#dirArrow" transform="translate(30 24)" onmousedown="handlePan(0,-1)">
                  <use xlink:href="#rim" fill="#404040">
                        <set attributeName="fill" to="#808080" begin="arrowUp.mouseover" end="arrowUp.mouseout"/>
                  </use>
                  <path fill="none" stroke="white" stroke-width="1.5" d="M0,-3.0v7 M-2.5,-0.5L0,-3.0L2.5,-0.5"/>
                </g>
                <g id="arrowRight" xlink:href="#dirArrow" transform="rotate(90) translate(36 -43)" onmousedown="handlePan(1,0)">
                  <use xlink:href="#rim" fill="#404040">
                        <set attributeName="fill" to="#808080" begin="arrowRight.mouseover" end="arrowRight.mouseout"/>
                  </use>
                  <path fill="none" stroke="white" stroke-width="1.5" d="M0,-3.0v7 M-2.5,-0.5L0,-3.0L2.5,-0.5"/>
                </g>
                <g id="arrowDown" xlink:href="#dirArrow" transform="rotate(180) translate(-30 -48)" onmousedown="handlePan(0,1)">
                  <use xlink:href="#rim" fill="#404040">
                        <set attributeName="fill" to="#808080" begin="arrowDown.mouseover" end="arrowDown.mouseout"/>
                  </use>
                  <path fill="none" stroke="white" stroke-width="1.5" d="M0,-3.0v7 M-2.5,-0.5L0,-3.0L2.5,-0.5"/>
                </g>
                <g id="arrowLeft" xlink:href="#dirArrow" transform="rotate(270) translate(-36 17)" onmousedown="handlePan(-1,0)">
                  <use xlink:href="#rim" fill="#404040">
                        <set attributeName="fill" to="#808080" begin="arrowLeft.mouseover" end="arrowLeft.mouseout"/>
                  </use>
                  <path fill="none" stroke="white" stroke-width="1.5" d="M0,-3.0v7 M-2.5,-0.5L0,-3.0L2.5,-0.5"/>
                </g>
        </g>
</svg>
