<?xml version="1.0" encoding="UTF-8" standalone="no"?>
<!DOCTYPE svg PUBLIC "-//W3C//DTD SVG 1.1//EN"
 "http://www.w3.org/Graphics/SVG/1.1/DTD/svg11.dtd">
<!-- Generated by graphviz version 2.26.3 (20100126.1600)
 -->
<!-- Title: BaseQuest Pages: 1 -->
<svg width="142pt" height="532pt"
 viewBox="0.00 0.00 142.00 532.00" xmlns="http://www.w3.org/2000/svg" xmlns:xlink="http://www.w3.org/1999/xlink">
<g id="graph1" class="graph" transform="scale(1 1) rotate(0) translate(4 528)">
<title>BaseQuest</title>
<polygon fill="white" stroke="white" points="-4,5 -4,-528 139,-528 139,5 -4,5"/>
<!-- Node1 -->
<g id="node1" class="node"><title>Node1</title>
<polygon fill="#bfbfbf" stroke="black" points="-0.5,-126.5 -0.5,-345.5 134.5,-345.5 134.5,-126.5 -0.5,-126.5"/>
<text text-anchor="middle" x="67" y="-332.5" font-family="Helvetica,sans-Serif" font-size="10.00">BaseQuest</text>
<polyline fill="none" stroke="black" points="-0.5,-324.5 134.5,-324.5 "/>
<text text-anchor="start" x="7.5" y="-311.5" font-family="Helvetica,sans-Serif" font-size="10.00">+ Name</text>
<text text-anchor="start" x="7.5" y="-298.5" font-family="Helvetica,sans-Serif" font-size="10.00">+ Description</text>
<text text-anchor="start" x="7.5" y="-285.5" font-family="Helvetica,sans-Serif" font-size="10.00">+ Experience</text>
<text text-anchor="start" x="7.5" y="-272.5" font-family="Helvetica,sans-Serif" font-size="10.00">+ Objectives</text>
<text text-anchor="start" x="7.5" y="-259.5" font-family="Helvetica,sans-Serif" font-size="10.00">+ IsCompleted</text>
<text text-anchor="start" x="7.5" y="-246.5" font-family="Helvetica,sans-Serif" font-size="10.00">&#45; _name</text>
<text text-anchor="start" x="7.5" y="-233.5" font-family="Helvetica,sans-Serif" font-size="10.00">&#45; _description</text>
<text text-anchor="start" x="7.5" y="-220.5" font-family="Helvetica,sans-Serif" font-size="10.00">&#45; _experience</text>
<text text-anchor="start" x="7.5" y="-207.5" font-family="Helvetica,sans-Serif" font-size="10.00">&#45; _objectives</text>
<polyline fill="none" stroke="black" points="-0.5,-199.5 134.5,-199.5 "/>
<text text-anchor="start" x="7.5" y="-186.5" font-family="Helvetica,sans-Serif" font-size="10.00">+ BaseQuest()</text>
<text text-anchor="start" x="7.5" y="-173.5" font-family="Helvetica,sans-Serif" font-size="10.00">+ BaseQuest()</text>
<text text-anchor="start" x="7.5" y="-160.5" font-family="Helvetica,sans-Serif" font-size="10.00">+ CheckProgress()</text>
<text text-anchor="start" x="7.5" y="-147.5" font-family="Helvetica,sans-Serif" font-size="10.00">+ OnObjectiveCompletion()</text>
<text text-anchor="start" x="7.5" y="-134.5" font-family="Helvetica,sans-Serif" font-size="10.00">+ OnCompletion()</text>
</g>
<!-- Node3 -->
<g id="node5" class="node"><title>Node3</title>
<a xlink:href="../../d0/dc5/class_action_rpg_kit_1_1_tests_1_1_story_1_1_cleanse_the_cellars.xhtml" target="_top" xlink:title="{CleanseTheCellars\n||+ CleanseTheCellars()\l+ OnObjectiveCompletion()\l+ OnCompletion()\l}">
<polygon fill="white" stroke="black" points="-0.5,-0.5 -0.5,-89.5 134.5,-89.5 134.5,-0.5 -0.5,-0.5"/>
<text text-anchor="middle" x="67" y="-76.5" font-family="Helvetica,sans-Serif" font-size="10.00">CleanseTheCellars</text>
<polyline fill="none" stroke="black" points="-0.5,-68.5 134.5,-68.5 "/>
<text text-anchor="middle" x="67" y="-55.5" font-family="Helvetica,sans-Serif" font-size="10.00"> </text>
<polyline fill="none" stroke="black" points="-0.5,-47.5 134.5,-47.5 "/>
<text text-anchor="start" x="7.5" y="-34.5" font-family="Helvetica,sans-Serif" font-size="10.00">+ CleanseTheCellars()</text>
<text text-anchor="start" x="7.5" y="-21.5" font-family="Helvetica,sans-Serif" font-size="10.00">+ OnObjectiveCompletion()</text>
<text text-anchor="start" x="7.5" y="-8.5" font-family="Helvetica,sans-Serif" font-size="10.00">+ OnCompletion()</text>
</a>
</g>
<!-- Node1&#45;&gt;Node3 -->
<g id="edge4" class="edge"><title>Node1&#45;&gt;Node3</title>
<path fill="none" stroke="midnightblue" d="M67,-116.167C67,-106.95 67,-98.0566 67,-89.863"/>
<polygon fill="none" stroke="midnightblue" points="63.5001,-116.278 67,-126.278 70.5001,-116.278 63.5001,-116.278"/>
</g>
<!-- Node2 -->
<g id="node2" class="node"><title>Node2</title>
<a xlink:href="../../dd/dd3/interface_action_rpg_kit_1_1_story_1_1_quest_1_1_i_quest.xhtml" target="_top" xlink:title="Interface for Quests. ">
<polygon fill="white" stroke="black" points="-0.5,-382.5 -0.5,-523.5 134.5,-523.5 134.5,-382.5 -0.5,-382.5"/>
<text text-anchor="middle" x="67" y="-510.5" font-family="Helvetica,sans-Serif" font-size="10.00">IQuest</text>
<polyline fill="none" stroke="black" points="-0.5,-502.5 134.5,-502.5 "/>
<text text-anchor="start" x="7.5" y="-489.5" font-family="Helvetica,sans-Serif" font-size="10.00">+ Name</text>
<text text-anchor="start" x="7.5" y="-476.5" font-family="Helvetica,sans-Serif" font-size="10.00">+ Description</text>
<text text-anchor="start" x="7.5" y="-463.5" font-family="Helvetica,sans-Serif" font-size="10.00">+ Experience</text>
<text text-anchor="start" x="7.5" y="-450.5" font-family="Helvetica,sans-Serif" font-size="10.00">+ Objectives</text>
<text text-anchor="start" x="7.5" y="-437.5" font-family="Helvetica,sans-Serif" font-size="10.00">+ IsCompleted</text>
<polyline fill="none" stroke="black" points="-0.5,-429.5 134.5,-429.5 "/>
<text text-anchor="start" x="7.5" y="-416.5" font-family="Helvetica,sans-Serif" font-size="10.00">+ CheckProgress()</text>
<text text-anchor="start" x="7.5" y="-403.5" font-family="Helvetica,sans-Serif" font-size="10.00">+ OnObjectiveCompletion()</text>
<text text-anchor="start" x="7.5" y="-390.5" font-family="Helvetica,sans-Serif" font-size="10.00">+ OnCompletion()</text>
</a>
</g>
<!-- Node2&#45;&gt;Node1 -->
<g id="edge2" class="edge"><title>Node2&#45;&gt;Node1</title>
<path fill="none" stroke="midnightblue" d="M67,-372.187C67,-363.506 67,-354.572 67,-345.628"/>
<polygon fill="none" stroke="midnightblue" points="63.5001,-372.246 67,-382.246 70.5001,-372.246 63.5001,-372.246"/>
</g>
</g>
</svg>
