<?xml version="1.0" encoding="UTF-8" standalone="no"?>
<!DOCTYPE svg PUBLIC "-//W3C//DTD SVG 1.1//EN"
 "http://www.w3.org/Graphics/SVG/1.1/DTD/svg11.dtd">
<!-- Generated by graphviz version 2.26.3 (20100126.1600)
 -->
<!-- Title: IMagicSkill Pages: 1 -->
<svg width="136pt" height="428pt"
 viewBox="0.00 0.00 136.00 428.00" xmlns="http://www.w3.org/2000/svg" xmlns:xlink="http://www.w3.org/1999/xlink">
<g id="graph1" class="graph" transform="scale(1 1) rotate(0) translate(4 424)">
<title>IMagicSkill</title>
<polygon fill="white" stroke="white" points="-4,5 -4,-424 133,-424 133,5 -4,5"/>
<!-- Node1 -->
<g id="node1" class="node"><title>Node1</title>
<polygon fill="#bfbfbf" stroke="black" points="31.5,-204.5 31.5,-267.5 96.5,-267.5 96.5,-204.5 31.5,-204.5"/>
<text text-anchor="middle" x="64" y="-254.5" font-family="Helvetica,sans-Serif" font-size="10.00">IMagicSkill</text>
<polyline fill="none" stroke="black" points="31.5,-246.5 96.5,-246.5 "/>
<text text-anchor="start" x="39.5" y="-233.5" font-family="Helvetica,sans-Serif" font-size="10.00">+ Cost</text>
<polyline fill="none" stroke="black" points="31.5,-225.5 96.5,-225.5 "/>
<text text-anchor="start" x="39.5" y="-212.5" font-family="Helvetica,sans-Serif" font-size="10.00">+ Use()</text>
</g>
<!-- Node3 -->
<g id="node5" class="node"><title>Node3</title>
<a xlink:href="../../dc/dac/class_action_rpg_kit_1_1_character_1_1_skill_1_1_passive_magic_skill.xhtml" target="_top" xlink:title="A passive MagicSkill adds buffs on the User itself.">
<polygon fill="white" stroke="black" points="0,-0.5 0,-167.5 128,-167.5 128,-0.5 0,-0.5"/>
<text text-anchor="middle" x="64" y="-154.5" font-family="Helvetica,sans-Serif" font-size="10.00">PassiveMagicSkill</text>
<polyline fill="none" stroke="black" points="0,-146.5 128,-146.5 "/>
<text text-anchor="start" x="8" y="-133.5" font-family="Helvetica,sans-Serif" font-size="10.00">+ Cost</text>
<text text-anchor="start" x="8" y="-120.5" font-family="Helvetica,sans-Serif" font-size="10.00">&#45; _duration</text>
<text text-anchor="start" x="8" y="-107.5" font-family="Helvetica,sans-Serif" font-size="10.00">&#45; _endTime</text>
<text text-anchor="start" x="8" y="-94.5" font-family="Helvetica,sans-Serif" font-size="10.00">&#45; _modifierValue</text>
<text text-anchor="start" x="8" y="-81.5" font-family="Helvetica,sans-Serif" font-size="10.00">&#45; _modifiedAttributeName</text>
<polyline fill="none" stroke="black" points="0,-73.5 128,-73.5 "/>
<text text-anchor="start" x="8" y="-60.5" font-family="Helvetica,sans-Serif" font-size="10.00">+ PassiveMagicSkill()</text>
<text text-anchor="start" x="8" y="-47.5" font-family="Helvetica,sans-Serif" font-size="10.00">+ ToString()</text>
<text text-anchor="start" x="8" y="-34.5" font-family="Helvetica,sans-Serif" font-size="10.00">+ Match()</text>
<text text-anchor="start" x="8" y="-21.5" font-family="Helvetica,sans-Serif" font-size="10.00">+ Use()</text>
<text text-anchor="start" x="8" y="-8.5" font-family="Helvetica,sans-Serif" font-size="10.00">&#45; GetModifier()</text>
</a>
</g>
<!-- Node1&#45;&gt;Node3 -->
<g id="edge4" class="edge"><title>Node1&#45;&gt;Node3</title>
<path fill="none" stroke="midnightblue" d="M64,-194.081C64,-185.826 64,-176.894 64,-167.812"/>
<polygon fill="none" stroke="midnightblue" points="60.5001,-194.136 64,-204.136 67.5001,-194.136 60.5001,-194.136"/>
</g>
<!-- Node2 -->
<g id="node2" class="node"><title>Node2</title>
<a xlink:href="../../d5/dc7/interface_action_rpg_kit_1_1_character_1_1_skill_1_1_i_skill.xhtml" target="_top" xlink:title="Interface for Skills.">
<polygon fill="white" stroke="black" points="18.5,-304.5 18.5,-419.5 109.5,-419.5 109.5,-304.5 18.5,-304.5"/>
<text text-anchor="middle" x="64" y="-406.5" font-family="Helvetica,sans-Serif" font-size="10.00">ISkill</text>
<polyline fill="none" stroke="black" points="18.5,-398.5 109.5,-398.5 "/>
<text text-anchor="start" x="26.5" y="-385.5" font-family="Helvetica,sans-Serif" font-size="10.00">+ Id</text>
<text text-anchor="start" x="26.5" y="-372.5" font-family="Helvetica,sans-Serif" font-size="10.00">+ Name</text>
<text text-anchor="start" x="26.5" y="-359.5" font-family="Helvetica,sans-Serif" font-size="10.00">+ Description</text>
<text text-anchor="start" x="26.5" y="-346.5" font-family="Helvetica,sans-Serif" font-size="10.00">+ PreUseTime</text>
<text text-anchor="start" x="26.5" y="-333.5" font-family="Helvetica,sans-Serif" font-size="10.00">+ CooldownTime</text>
<polyline fill="none" stroke="black" points="18.5,-325.5 109.5,-325.5 "/>
<text text-anchor="start" x="26.5" y="-312.5" font-family="Helvetica,sans-Serif" font-size="10.00">+ Match()</text>
</a>
</g>
<!-- Node2&#45;&gt;Node1 -->
<g id="edge2" class="edge"><title>Node2&#45;&gt;Node1</title>
<path fill="none" stroke="midnightblue" d="M64,-294.141C64,-284.921 64,-275.841 64,-267.696"/>
<polygon fill="none" stroke="midnightblue" points="60.5001,-294.163 64,-304.163 67.5001,-294.163 60.5001,-294.163"/>
</g>
</g>
</svg>
