<?xml version="1.0" encoding="UTF-8" standalone="no"?>
<!DOCTYPE svg PUBLIC "-//W3C//DTD SVG 1.1//EN"
 "http://www.w3.org/Graphics/SVG/1.1/DTD/svg11.dtd">
<!-- Generated by graphviz version 2.26.3 (20100126.1600)
 -->
<!-- Title: G Pages: 1 -->
<svg width="136pt" height="416pt"
 viewBox="0.00 0.00 136.00 416.00" xmlns="http://www.w3.org/2000/svg" xmlns:xlink="http://www.w3.org/1999/xlink">
<g id="graph1" class="graph" transform="scale(1 1) rotate(0) translate(4 412)">
<title>G</title>
<polygon fill="white" stroke="white" points="-4,5 -4,-412 133,-412 133,5 -4,5"/>
<!-- Node1 -->
<g id="node1" class="node"><title>Node1</title>
<polygon fill="#bfbfbf" stroke="black" points="31.5,-192.5 31.5,-255.5 96.5,-255.5 96.5,-192.5 31.5,-192.5"/>
<text text-anchor="middle" x="64" y="-242.5" font-family="Helvetica,sans-Serif" font-size="10.00">IMagicSkill</text>
<polyline fill="none" stroke="black" points="31.5,-234.5 96.5,-234.5 "/>
<text text-anchor="start" x="39.5" y="-221.5" font-family="Helvetica,sans-Serif" font-size="10.00">+ Cost</text>
<polyline fill="none" stroke="black" points="31.5,-213.5 96.5,-213.5 "/>
<text text-anchor="start" x="39.5" y="-200.5" font-family="Helvetica,sans-Serif" font-size="10.00">+ Use()</text>
</g>
<!-- Node3 -->
<g id="node5" class="node"><title>Node3</title>
<a xlink:href="../../dc/dac/class_action_rpg_kit_1_1_character_1_1_skill_1_1_passive_magic_skill.xhtml" target="_top" xlink:title="A passive MagicSkill adds buffs on the User itself.">
<polygon fill="white" stroke="black" points="0,-1 0,-155 128,-155 128,-1 0,-1"/>
<text text-anchor="middle" x="64" y="-142" font-family="Helvetica,sans-Serif" font-size="10.00">PassiveMagicSkill</text>
<polyline fill="none" stroke="black" points="0,-134 128,-134 "/>
<text text-anchor="start" x="8" y="-121" font-family="Helvetica,sans-Serif" font-size="10.00">+ Cost</text>
<text text-anchor="start" x="8" y="-108" font-family="Helvetica,sans-Serif" font-size="10.00">&#45; _duration</text>
<text text-anchor="start" x="8" y="-95" font-family="Helvetica,sans-Serif" font-size="10.00">&#45; _modifierValue</text>
<text text-anchor="start" x="8" y="-82" font-family="Helvetica,sans-Serif" font-size="10.00">&#45; _modifiedAttributeName</text>
<polyline fill="none" stroke="black" points="0,-74 128,-74 "/>
<text text-anchor="start" x="8" y="-61" font-family="Helvetica,sans-Serif" font-size="10.00">+ PassiveMagicSkill()</text>
<text text-anchor="start" x="8" y="-48" font-family="Helvetica,sans-Serif" font-size="10.00">+ ToString()</text>
<text text-anchor="start" x="8" y="-35" font-family="Helvetica,sans-Serif" font-size="10.00">+ Match()</text>
<text text-anchor="start" x="8" y="-22" font-family="Helvetica,sans-Serif" font-size="10.00">+ Use()</text>
<text text-anchor="start" x="8" y="-9" font-family="Helvetica,sans-Serif" font-size="10.00">&#45; GetModifier()</text>
</a>
</g>
<!-- Node1&#45;&gt;Node3 -->
<g id="edge4" class="edge"><title>Node1&#45;&gt;Node3</title>
<path fill="none" stroke="midnightblue" d="M64,-182.288C64,-173.742 64,-164.491 64,-155.148"/>
<polygon fill="none" stroke="midnightblue" points="60.5001,-182.32 64,-192.32 67.5001,-182.32 60.5001,-182.32"/>
</g>
<!-- Node2 -->
<g id="node2" class="node"><title>Node2</title>
<a xlink:href="../../d5/dc7/interface_action_rpg_kit_1_1_character_1_1_skill_1_1_i_skill.xhtml" target="_top" xlink:title="Interface for Skills.">
<polygon fill="white" stroke="black" points="18.5,-292.5 18.5,-407.5 109.5,-407.5 109.5,-292.5 18.5,-292.5"/>
<text text-anchor="middle" x="64" y="-394.5" font-family="Helvetica,sans-Serif" font-size="10.00">ISkill</text>
<polyline fill="none" stroke="black" points="18.5,-386.5 109.5,-386.5 "/>
<text text-anchor="start" x="26.5" y="-373.5" font-family="Helvetica,sans-Serif" font-size="10.00">+ Id</text>
<text text-anchor="start" x="26.5" y="-360.5" font-family="Helvetica,sans-Serif" font-size="10.00">+ Name</text>
<text text-anchor="start" x="26.5" y="-347.5" font-family="Helvetica,sans-Serif" font-size="10.00">+ Description</text>
<text text-anchor="start" x="26.5" y="-334.5" font-family="Helvetica,sans-Serif" font-size="10.00">+ PreUseTime</text>
<text text-anchor="start" x="26.5" y="-321.5" font-family="Helvetica,sans-Serif" font-size="10.00">+ CooldownTime</text>
<polyline fill="none" stroke="black" points="18.5,-313.5 109.5,-313.5 "/>
<text text-anchor="start" x="26.5" y="-300.5" font-family="Helvetica,sans-Serif" font-size="10.00">+ Match()</text>
</a>
</g>
<!-- Node2&#45;&gt;Node1 -->
<g id="edge2" class="edge"><title>Node2&#45;&gt;Node1</title>
<path fill="none" stroke="midnightblue" d="M64,-282.141C64,-272.921 64,-263.841 64,-255.696"/>
<polygon fill="none" stroke="midnightblue" points="60.5001,-282.163 64,-292.163 67.5001,-282.163 60.5001,-282.163"/>
</g>
</g>
</svg>
