<?xml version="1.0" encoding="UTF-8" standalone="no"?>
<!DOCTYPE svg PUBLIC "-//W3C//DTD SVG 1.1//EN"
 "http://www.w3.org/Graphics/SVG/1.1/DTD/svg11.dtd">
<!-- Generated by graphviz version 2.38.0 (20140413.2041)
 -->
<!-- Title: IMagicSkill Pages: 1 -->
<svg width="134pt" height="507pt"
 viewBox="0.00 0.00 134.00 507.00" xmlns="http://www.w3.org/2000/svg" xmlns:xlink="http://www.w3.org/1999/xlink">
<g id="graph0" class="graph" transform="scale(1 1) rotate(0) translate(4 503)">
<title>IMagicSkill</title>
<polygon fill="white" stroke="none" points="-4,4 -4,-503 130,-503 130,4 -4,4"/>
<!-- Node1 -->
<g id="node1" class="node"><title>Node1</title>
<polygon fill="#bfbfbf" stroke="black" points="31,-292.5 31,-349.5 95,-349.5 95,-292.5 31,-292.5"/>
<text text-anchor="middle" x="63" y="-337.5" font-family="Helvetica,sans-Serif" font-size="10.00">IMagicSkill</text>
<polyline fill="none" stroke="black" points="31,-330.5 95,-330.5 "/>
<text text-anchor="start" x="39" y="-318.5" font-family="Helvetica,sans-Serif" font-size="10.00">+ Cost</text>
<polyline fill="none" stroke="black" points="31,-311.5 95,-311.5 "/>
<text text-anchor="middle" x="63" y="-299.5" font-family="Helvetica,sans-Serif" font-size="10.00"> </text>
</g>
<!-- Node3 -->
<g id="node3" class="node"><title>Node3</title>
<g id="a_node3"><a xlink:href="../../d2/d37/class_character_1_1_skill_1_1_passive_magic_skill.xhtml" target="_top" xlink:title="A passive Skill acts on the User itself.">
<polygon fill="white" stroke="black" points="0,-0.5 0,-255.5 126,-255.5 126,-0.5 0,-0.5"/>
<text text-anchor="middle" x="63" y="-243.5" font-family="Helvetica,sans-Serif" font-size="10.00">PassiveMagicSkill</text>
<polyline fill="none" stroke="black" points="0,-236.5 126,-236.5 "/>
<text text-anchor="start" x="8" y="-224.5" font-family="Helvetica,sans-Serif" font-size="10.00">+ Id</text>
<text text-anchor="start" x="8" y="-213.5" font-family="Helvetica,sans-Serif" font-size="10.00">+ Name</text>
<text text-anchor="start" x="8" y="-202.5" font-family="Helvetica,sans-Serif" font-size="10.00">+ Description</text>
<text text-anchor="start" x="8" y="-191.5" font-family="Helvetica,sans-Serif" font-size="10.00">+ Cost</text>
<text text-anchor="start" x="8" y="-180.5" font-family="Helvetica,sans-Serif" font-size="10.00">+ CooldownTime</text>
<text text-anchor="start" x="8" y="-169.5" font-family="Helvetica,sans-Serif" font-size="10.00">+ PreUseTime</text>
<text text-anchor="start" x="8" y="-158.5" font-family="Helvetica,sans-Serif" font-size="10.00">&#45; _id</text>
<text text-anchor="start" x="8" y="-147.5" font-family="Helvetica,sans-Serif" font-size="10.00">&#45; _name</text>
<text text-anchor="start" x="8" y="-136.5" font-family="Helvetica,sans-Serif" font-size="10.00">&#45; _description</text>
<text text-anchor="start" x="8" y="-125.5" font-family="Helvetica,sans-Serif" font-size="10.00">&#45; _cost</text>
<text text-anchor="start" x="8" y="-114.5" font-family="Helvetica,sans-Serif" font-size="10.00">&#45; _duration</text>
<text text-anchor="start" x="8" y="-103.5" font-family="Helvetica,sans-Serif" font-size="10.00">&#45; _preUseTime</text>
<text text-anchor="start" x="8" y="-92.5" font-family="Helvetica,sans-Serif" font-size="10.00">&#45; _cooldownTime</text>
<text text-anchor="start" x="8" y="-81.5" font-family="Helvetica,sans-Serif" font-size="10.00">&#45; _endTime</text>
<text text-anchor="start" x="8" y="-70.5" font-family="Helvetica,sans-Serif" font-size="10.00">&#45; _modifierValue</text>
<text text-anchor="start" x="8" y="-59.5" font-family="Helvetica,sans-Serif" font-size="10.00">&#45; _modifiedAttributeName</text>
<polyline fill="none" stroke="black" points="0,-52.5 126,-52.5 "/>
<text text-anchor="start" x="8" y="-40.5" font-family="Helvetica,sans-Serif" font-size="10.00">+ PassiveMagicSkill()</text>
<text text-anchor="start" x="8" y="-29.5" font-family="Helvetica,sans-Serif" font-size="10.00">+ Match()</text>
<text text-anchor="start" x="8" y="-18.5" font-family="Helvetica,sans-Serif" font-size="10.00">+ Use()</text>
<text text-anchor="start" x="8" y="-7.5" font-family="Helvetica,sans-Serif" font-size="10.00">&#45; GetModifier()</text>
</a>
</g>
</g>
<!-- Node1&#45;&gt;Node3 -->
<g id="edge2" class="edge"><title>Node1&#45;&gt;Node3</title>
<path fill="none" stroke="midnightblue" d="M63,-282.196C63,-274.157 63,-265.246 63,-255.881"/>
<polygon fill="none" stroke="midnightblue" points="59.5001,-282.227 63,-292.227 66.5001,-282.227 59.5001,-282.227"/>
</g>
<!-- Node2 -->
<g id="node2" class="node"><title>Node2</title>
<g id="a_node2"><a xlink:href="../../de/df3/interface_character_1_1_skill_1_1_i_skill.xhtml" target="_top" xlink:title="Interface for Skills.">
<polygon fill="white" stroke="black" points="18.5,-386.5 18.5,-498.5 107.5,-498.5 107.5,-386.5 18.5,-386.5"/>
<text text-anchor="middle" x="63" y="-486.5" font-family="Helvetica,sans-Serif" font-size="10.00">ISkill</text>
<polyline fill="none" stroke="black" points="18.5,-479.5 107.5,-479.5 "/>
<text text-anchor="start" x="26.5" y="-467.5" font-family="Helvetica,sans-Serif" font-size="10.00">+ Id</text>
<text text-anchor="start" x="26.5" y="-456.5" font-family="Helvetica,sans-Serif" font-size="10.00">+ Name</text>
<text text-anchor="start" x="26.5" y="-445.5" font-family="Helvetica,sans-Serif" font-size="10.00">+ Description</text>
<text text-anchor="start" x="26.5" y="-434.5" font-family="Helvetica,sans-Serif" font-size="10.00">+ PreUseTime</text>
<text text-anchor="start" x="26.5" y="-423.5" font-family="Helvetica,sans-Serif" font-size="10.00">+ CooldownTime</text>
<polyline fill="none" stroke="black" points="18.5,-416.5 107.5,-416.5 "/>
<text text-anchor="start" x="26.5" y="-404.5" font-family="Helvetica,sans-Serif" font-size="10.00">+ Match()</text>
<text text-anchor="start" x="26.5" y="-393.5" font-family="Helvetica,sans-Serif" font-size="10.00">+ Use()</text>
</a>
</g>
</g>
<!-- Node2&#45;&gt;Node1 -->
<g id="edge1" class="edge"><title>Node2&#45;&gt;Node1</title>
<path fill="none" stroke="midnightblue" d="M63,-376.146C63,-366.817 63,-357.672 63,-349.631"/>
<polygon fill="none" stroke="midnightblue" points="59.5001,-376.297 63,-386.297 66.5001,-376.297 59.5001,-376.297"/>
</g>
</g>
</svg>
