<?xml version="1.0" encoding="UTF-8" standalone="no"?>
<!DOCTYPE svg PUBLIC "-//W3C//DTD SVG 1.1//EN"
 "http://www.w3.org/Graphics/SVG/1.1/DTD/svg11.dtd">
<!-- Generated by graphviz version 2.26.3 (20100126.1600)
 -->
<!-- Title: G Pages: 1 -->
<svg width="140pt" height="290pt"
 viewBox="0.00 0.00 140.00 290.00" xmlns="http://www.w3.org/2000/svg" xmlns:xlink="http://www.w3.org/1999/xlink">
<g id="graph1" class="graph" transform="scale(1 1) rotate(0) translate(4 286)">
<title>G</title>
<polygon fill="white" stroke="white" points="-4,5 -4,-286 137,-286 137,5 -4,5"/>
<!-- Node1 -->
<g id="node1" class="node"><title>Node1</title>
<polygon fill="#bfbfbf" stroke="black" points="24.5,-0.5 24.5,-63.5 107.5,-63.5 107.5,-0.5 24.5,-0.5"/>
<text text-anchor="middle" x="66" y="-50.5" font-family="Helvetica,sans-Serif" font-size="10.00">PlayerStats</text>
<polyline fill="none" stroke="black" points="24.5,-42.5 107.5,-42.5 "/>
<text text-anchor="middle" x="66" y="-29.5" font-family="Helvetica,sans-Serif" font-size="10.00"> </text>
<polyline fill="none" stroke="black" points="24.5,-21.5 107.5,-21.5 "/>
<text text-anchor="start" x="32.5" y="-8.5" font-family="Helvetica,sans-Serif" font-size="10.00">+ PlayerStats()</text>
</g>
<!-- Node2 -->
<g id="node2" class="node"><title>Node2</title>
<a xlink:href="../../db/dd8/class_action_rpg_kit_1_1_character_1_1_stats_1_1_base_stats.xhtml" target="_top" xlink:title="{BaseStats\n|+ Body\l+ Mind\l+ Soul\l+ Experience\l+ Level\l+ Life\l+ Magic\l+ MagicRegenerationRate\l+ AlertnessRange\l+ AttackRange\l|# AssignAttributesToDict()\l}">
<polygon fill="white" stroke="black" points="0,-101 0,-281 132,-281 132,-101 0,-101"/>
<text text-anchor="middle" x="66" y="-268" font-family="Helvetica,sans-Serif" font-size="10.00">BaseStats</text>
<polyline fill="none" stroke="black" points="0,-260 132,-260 "/>
<text text-anchor="start" x="8" y="-247" font-family="Helvetica,sans-Serif" font-size="10.00">+ Body</text>
<text text-anchor="start" x="8" y="-234" font-family="Helvetica,sans-Serif" font-size="10.00">+ Mind</text>
<text text-anchor="start" x="8" y="-221" font-family="Helvetica,sans-Serif" font-size="10.00">+ Soul</text>
<text text-anchor="start" x="8" y="-208" font-family="Helvetica,sans-Serif" font-size="10.00">+ Experience</text>
<text text-anchor="start" x="8" y="-195" font-family="Helvetica,sans-Serif" font-size="10.00">+ Level</text>
<text text-anchor="start" x="8" y="-182" font-family="Helvetica,sans-Serif" font-size="10.00">+ Life</text>
<text text-anchor="start" x="8" y="-169" font-family="Helvetica,sans-Serif" font-size="10.00">+ Magic</text>
<text text-anchor="start" x="8" y="-156" font-family="Helvetica,sans-Serif" font-size="10.00">+ MagicRegenerationRate</text>
<text text-anchor="start" x="8" y="-143" font-family="Helvetica,sans-Serif" font-size="10.00">+ AlertnessRange</text>
<text text-anchor="start" x="8" y="-130" font-family="Helvetica,sans-Serif" font-size="10.00">+ AttackRange</text>
<polyline fill="none" stroke="black" points="0,-122 132,-122 "/>
<text text-anchor="start" x="8" y="-109" font-family="Helvetica,sans-Serif" font-size="10.00"># AssignAttributesToDict()</text>
</a>
</g>
<!-- Node2&#45;&gt;Node1 -->
<g id="edge2" class="edge"><title>Node2&#45;&gt;Node1</title>
<path fill="none" stroke="midnightblue" d="M66,-90.6223C66,-80.9698 66,-71.7593 66,-63.6168"/>
<polygon fill="none" stroke="midnightblue" points="62.5001,-90.8149 66,-100.815 69.5001,-90.815 62.5001,-90.8149"/>
</g>
</g>
</svg>
