<?xml version="1.0" encoding="UTF-8" standalone="no"?>
<!DOCTYPE svg PUBLIC "-//W3C//DTD SVG 1.1//EN"
 "http://www.w3.org/Graphics/SVG/1.1/DTD/svg11.dtd">
<!-- Generated by graphviz version 2.26.3 (20100126.1600)
 -->
<!-- Title: G Pages: 1 -->
<svg width="82pt" height="324pt"
 viewBox="0.00 0.00 82.00 324.00" xmlns="http://www.w3.org/2000/svg" xmlns:xlink="http://www.w3.org/1999/xlink">
<g id="graph1" class="graph" transform="scale(1 1) rotate(0) translate(4 320)">
<title>G</title>
<polygon fill="white" stroke="white" points="-4,5 -4,-320 79,-320 79,5 -4,5"/>
<!-- Node1 -->
<g id="node1" class="node"><title>Node1</title>
<polygon fill="#bfbfbf" stroke="black" points="3.5,-0.5 3.5,-63.5 70.5,-63.5 70.5,-0.5 3.5,-0.5"/>
<text text-anchor="middle" x="37" y="-50.5" font-family="Helvetica,sans-Serif" font-size="10.00">UsableItem</text>
<polyline fill="none" stroke="black" points="3.5,-42.5 70.5,-42.5 "/>
<text text-anchor="middle" x="37" y="-29.5" font-family="Helvetica,sans-Serif" font-size="10.00"> </text>
<polyline fill="none" stroke="black" points="3.5,-21.5 70.5,-21.5 "/>
<text text-anchor="middle" x="37" y="-8.5" font-family="Helvetica,sans-Serif" font-size="10.00"> </text>
</g>
<!-- Node2 -->
<g id="node2" class="node"><title>Node2</title>
<a xlink:href="../../d3/dfb/class_action_rpg_kit_1_1_item_1_1_base_item.xhtml" target="_top" xlink:title="Basic implementation of the IItem.">
<polygon fill="white" stroke="black" points="-0.5,-100.5 -0.5,-189.5 74.5,-189.5 74.5,-100.5 -0.5,-100.5"/>
<text text-anchor="middle" x="37" y="-176.5" font-family="Helvetica,sans-Serif" font-size="10.00">BaseItem</text>
<polyline fill="none" stroke="black" points="-0.5,-168.5 74.5,-168.5 "/>
<text text-anchor="start" x="7.5" y="-155.5" font-family="Helvetica,sans-Serif" font-size="10.00">+ Id</text>
<text text-anchor="start" x="7.5" y="-142.5" font-family="Helvetica,sans-Serif" font-size="10.00">+ Name</text>
<text text-anchor="start" x="7.5" y="-129.5" font-family="Helvetica,sans-Serif" font-size="10.00">+ Description</text>
<polyline fill="none" stroke="black" points="-0.5,-121.5 74.5,-121.5 "/>
<text text-anchor="middle" x="37" y="-108.5" font-family="Helvetica,sans-Serif" font-size="10.00"> </text>
</a>
</g>
<!-- Node2&#45;&gt;Node1 -->
<g id="edge2" class="edge"><title>Node2&#45;&gt;Node1</title>
<path fill="none" stroke="midnightblue" d="M37,-90.1957C37,-81.1456 37,-72.0374 37,-63.801"/>
<polygon fill="none" stroke="midnightblue" points="33.5001,-90.3394 37,-100.339 40.5001,-90.3394 33.5001,-90.3394"/>
</g>
<!-- Node3 -->
<g id="node4" class="node"><title>Node3</title>
<a xlink:href="../../d3/d77/interface_action_rpg_kit_1_1_item_1_1_i_item.xhtml" target="_top" xlink:title="An Item is something that is usable by Characters.">
<polygon fill="white" stroke="black" points="-0.5,-226.5 -0.5,-315.5 74.5,-315.5 74.5,-226.5 -0.5,-226.5"/>
<text text-anchor="middle" x="37" y="-302.5" font-family="Helvetica,sans-Serif" font-size="10.00">IItem</text>
<polyline fill="none" stroke="black" points="-0.5,-294.5 74.5,-294.5 "/>
<text text-anchor="start" x="7.5" y="-281.5" font-family="Helvetica,sans-Serif" font-size="10.00">+ Id</text>
<text text-anchor="start" x="7.5" y="-268.5" font-family="Helvetica,sans-Serif" font-size="10.00">+ Name</text>
<text text-anchor="start" x="7.5" y="-255.5" font-family="Helvetica,sans-Serif" font-size="10.00">+ Description</text>
<polyline fill="none" stroke="black" points="-0.5,-247.5 74.5,-247.5 "/>
<text text-anchor="middle" x="37" y="-234.5" font-family="Helvetica,sans-Serif" font-size="10.00"> </text>
</a>
</g>
<!-- Node3&#45;&gt;Node2 -->
<g id="edge4" class="edge"><title>Node3&#45;&gt;Node2</title>
<path fill="none" stroke="midnightblue" d="M37,-216.013C37,-207.198 37,-198.169 37,-189.633"/>
<polygon fill="none" stroke="midnightblue" points="33.5001,-216.222 37,-226.222 40.5001,-216.222 33.5001,-216.222"/>
</g>
</g>
</svg>
