<?xml version="1.0" encoding="UTF-8" standalone="no"?>
<!DOCTYPE svg PUBLIC "-//W3C//DTD SVG 1.1//EN"
 "http://www.w3.org/Graphics/SVG/1.1/DTD/svg11.dtd">
<!-- Generated by graphviz version 2.26.3 (20100126.1600)
 -->
<!-- Title: G Pages: 1 -->
<svg width="288pt" height="416pt"
 viewBox="0.00 0.00 288.00 416.00" xmlns="http://www.w3.org/2000/svg" xmlns:xlink="http://www.w3.org/1999/xlink">
<g id="graph1" class="graph" transform="scale(1 1) rotate(0) translate(4 412)">
<title>G</title>
<polygon fill="white" stroke="white" points="-4,5 -4,-412 285,-412 285,5 -4,5"/>
<!-- Node1 -->
<g id="node1" class="node"><title>Node1</title>
<polygon fill="#bfbfbf" stroke="black" points="88.5,-126.5 88.5,-267.5 187.5,-267.5 187.5,-126.5 88.5,-126.5"/>
<text text-anchor="middle" x="138" y="-254.5" font-family="Helvetica,sans-Serif" font-size="10.00">BaseObjective</text>
<polyline fill="none" stroke="black" points="88.5,-246.5 187.5,-246.5 "/>
<text text-anchor="start" x="96.5" y="-233.5" font-family="Helvetica,sans-Serif" font-size="10.00">+ Name</text>
<text text-anchor="start" x="96.5" y="-220.5" font-family="Helvetica,sans-Serif" font-size="10.00">+ Description</text>
<text text-anchor="start" x="96.5" y="-207.5" font-family="Helvetica,sans-Serif" font-size="10.00">+ IsCompleted</text>
<polyline fill="none" stroke="black" points="88.5,-199.5 187.5,-199.5 "/>
<text text-anchor="start" x="96.5" y="-186.5" font-family="Helvetica,sans-Serif" font-size="10.00">+ BaseObjective()</text>
<text text-anchor="start" x="96.5" y="-173.5" font-family="Helvetica,sans-Serif" font-size="10.00">+ BaseObjective()</text>
<text text-anchor="start" x="96.5" y="-160.5" font-family="Helvetica,sans-Serif" font-size="10.00">+ ToString()</text>
<text text-anchor="start" x="96.5" y="-147.5" font-family="Helvetica,sans-Serif" font-size="10.00">+ CheckProgress()</text>
<text text-anchor="start" x="96.5" y="-134.5" font-family="Helvetica,sans-Serif" font-size="10.00">+ OnCompletion()</text>
</g>
<!-- Node3 -->
<g id="node5" class="node"><title>Node3</title>
<a xlink:href="../../d6/d7d/class_action_rpg_kit_1_1_tests_1_1_integration_tests_1_1_find10_herbs_objective.xhtml" target="_top" xlink:title="{Find10HerbsObjective\n|+ herbs\l|+ Find10HerbsObjective()\l+ CheckProgress()\l+ OnCompletion()\l}">
<polygon fill="white" stroke="black" points="0,-0.5 0,-89.5 128,-89.5 128,-0.5 0,-0.5"/>
<text text-anchor="middle" x="64" y="-76.5" font-family="Helvetica,sans-Serif" font-size="10.00">Find10HerbsObjective</text>
<polyline fill="none" stroke="black" points="0,-68.5 128,-68.5 "/>
<text text-anchor="start" x="8" y="-55.5" font-family="Helvetica,sans-Serif" font-size="10.00">+ herbs</text>
<polyline fill="none" stroke="black" points="0,-47.5 128,-47.5 "/>
<text text-anchor="start" x="8" y="-34.5" font-family="Helvetica,sans-Serif" font-size="10.00">+ Find10HerbsObjective()</text>
<text text-anchor="start" x="8" y="-21.5" font-family="Helvetica,sans-Serif" font-size="10.00">+ CheckProgress()</text>
<text text-anchor="start" x="8" y="-8.5" font-family="Helvetica,sans-Serif" font-size="10.00">+ OnCompletion()</text>
</a>
</g>
<!-- Node1&#45;&gt;Node3 -->
<g id="edge4" class="edge"><title>Node1&#45;&gt;Node3</title>
<path fill="none" stroke="midnightblue" d="M92.4619,-117.313C87.9164,-107.902 83.5459,-98.5663 79.6324,-89.8855"/>
<polygon fill="none" stroke="midnightblue" points="89.3351,-118.886 96.8645,-126.34 95.6268,-115.818 89.3351,-118.886"/>
</g>
<!-- Node1&#45;&gt;Node3 -->
<g id="edge8" class="edge"><title>Node1&#45;&gt;Node3</title>
<path fill="none" stroke="midnightblue" d="M105.948,-117.313C101.33,-107.902 96.6108,-98.5663 92.0719,-89.8855"/>
<polygon fill="none" stroke="midnightblue" points="102.816,-118.876 110.335,-126.34 109.112,-115.816 102.816,-118.876"/>
</g>
<!-- Node4 -->
<g id="node7" class="node"><title>Node4</title>
<a xlink:href="../../d3/d5f/class_action_rpg_kit_1_1_tests_1_1_integration_tests_1_1_get_rid_of_rats_objective.xhtml" target="_top" xlink:title="{GetRidOfRatsObjective\n|+ rats\l|+ GetRidOfRatsObjective()\l+ CheckProgress()\l+ OnCompletion()\l}">
<polygon fill="white" stroke="black" points="145.5,-0.5 145.5,-89.5 280.5,-89.5 280.5,-0.5 145.5,-0.5"/>
<text text-anchor="middle" x="213" y="-76.5" font-family="Helvetica,sans-Serif" font-size="10.00">GetRidOfRatsObjective</text>
<polyline fill="none" stroke="black" points="145.5,-68.5 280.5,-68.5 "/>
<text text-anchor="start" x="153.5" y="-55.5" font-family="Helvetica,sans-Serif" font-size="10.00">+ rats</text>
<polyline fill="none" stroke="black" points="145.5,-47.5 280.5,-47.5 "/>
<text text-anchor="start" x="153.5" y="-34.5" font-family="Helvetica,sans-Serif" font-size="10.00">+ GetRidOfRatsObjective()</text>
<text text-anchor="start" x="153.5" y="-21.5" font-family="Helvetica,sans-Serif" font-size="10.00">+ CheckProgress()</text>
<text text-anchor="start" x="153.5" y="-8.5" font-family="Helvetica,sans-Serif" font-size="10.00">+ OnCompletion()</text>
</a>
</g>
<!-- Node1&#45;&gt;Node4 -->
<g id="edge6" class="edge"><title>Node1&#45;&gt;Node4</title>
<path fill="none" stroke="midnightblue" d="M170.576,-117.313C175.256,-107.902 180.037,-98.5663 184.633,-89.8855"/>
<polygon fill="none" stroke="midnightblue" points="167.409,-115.822 166.13,-126.34 173.689,-118.916 167.409,-115.822"/>
</g>
<!-- Node1&#45;&gt;Node4 -->
<g id="edge10" class="edge"><title>Node1&#45;&gt;Node4</title>
<path fill="none" stroke="midnightblue" d="M184.062,-117.313C188.67,-107.902 193.102,-98.5663 197.072,-89.8855"/>
<polygon fill="none" stroke="midnightblue" points="180.894,-115.824 179.6,-126.34 187.169,-118.926 180.894,-115.824"/>
</g>
<!-- Node2 -->
<g id="node2" class="node"><title>Node2</title>
<a xlink:href="../../d2/d98/interface_action_rpg_kit_1_1_story_1_1_quest_1_1_i_objective.xhtml" target="_top" xlink:title="{IObjective\n|+ Name\l+ Description\l+ IsCompleted\l|+ CheckProgress()\l+ OnCompletion()\l}">
<polygon fill="white" stroke="black" points="88.5,-305 88.5,-407 187.5,-407 187.5,-305 88.5,-305"/>
<text text-anchor="middle" x="138" y="-394" font-family="Helvetica,sans-Serif" font-size="10.00">IObjective</text>
<polyline fill="none" stroke="black" points="88.5,-386 187.5,-386 "/>
<text text-anchor="start" x="96.5" y="-373" font-family="Helvetica,sans-Serif" font-size="10.00">+ Name</text>
<text text-anchor="start" x="96.5" y="-360" font-family="Helvetica,sans-Serif" font-size="10.00">+ Description</text>
<text text-anchor="start" x="96.5" y="-347" font-family="Helvetica,sans-Serif" font-size="10.00">+ IsCompleted</text>
<polyline fill="none" stroke="black" points="88.5,-339 187.5,-339 "/>
<text text-anchor="start" x="96.5" y="-326" font-family="Helvetica,sans-Serif" font-size="10.00">+ CheckProgress()</text>
<text text-anchor="start" x="96.5" y="-313" font-family="Helvetica,sans-Serif" font-size="10.00">+ OnCompletion()</text>
</a>
</g>
<!-- Node2&#45;&gt;Node1 -->
<g id="edge2" class="edge"><title>Node2&#45;&gt;Node1</title>
<path fill="none" stroke="midnightblue" d="M138,-294.659C138,-285.86 138,-276.748 138,-267.785"/>
<polygon fill="none" stroke="midnightblue" points="134.5,-294.816 138,-304.816 141.5,-294.816 134.5,-294.816"/>
</g>
</g>
</svg>
