<?xml version="1.0" encoding="UTF-8" standalone="no"?>
<!DOCTYPE svg PUBLIC "-//W3C//DTD SVG 1.1//EN"
 "http://www.w3.org/Graphics/SVG/1.1/DTD/svg11.dtd">
<!-- Generated by graphviz version 2.26.3 (20100126.1600)
 -->
<!-- Title: G Pages: 1 -->
<svg width="194pt" height="264pt"
 viewBox="0.00 0.00 194.00 264.00" xmlns="http://www.w3.org/2000/svg" xmlns:xlink="http://www.w3.org/1999/xlink">
<g id="graph1" class="graph" transform="scale(1 1) rotate(0) translate(4 260)">
<title>G</title>
<polygon fill="white" stroke="white" points="-4,5 -4,-260 191,-260 191,5 -4,5"/>
<!-- Node1 -->
<g id="node1" class="node"><title>Node1</title>
<polygon fill="#bfbfbf" stroke="black" points="28,-101 28,-255 160,-255 160,-101 28,-101"/>
<text text-anchor="middle" x="94" y="-242" font-family="Helvetica,sans-Serif" font-size="10.00">BaseStats</text>
<polyline fill="none" stroke="black" points="28,-234 160,-234 "/>
<text text-anchor="start" x="36" y="-221" font-family="Helvetica,sans-Serif" font-size="10.00">+ Body</text>
<text text-anchor="start" x="36" y="-208" font-family="Helvetica,sans-Serif" font-size="10.00">+ Mind</text>
<text text-anchor="start" x="36" y="-195" font-family="Helvetica,sans-Serif" font-size="10.00">+ Soul</text>
<text text-anchor="start" x="36" y="-182" font-family="Helvetica,sans-Serif" font-size="10.00">+ Experience</text>
<text text-anchor="start" x="36" y="-169" font-family="Helvetica,sans-Serif" font-size="10.00">+ Level</text>
<text text-anchor="start" x="36" y="-156" font-family="Helvetica,sans-Serif" font-size="10.00">+ Life</text>
<text text-anchor="start" x="36" y="-143" font-family="Helvetica,sans-Serif" font-size="10.00">+ Magic</text>
<text text-anchor="start" x="36" y="-130" font-family="Helvetica,sans-Serif" font-size="10.00">+ MagicRegenerationRate</text>
<polyline fill="none" stroke="black" points="28,-122 160,-122 "/>
<text text-anchor="start" x="36" y="-109" font-family="Helvetica,sans-Serif" font-size="10.00"># AssignAttributesToDict()</text>
</g>
<!-- Node2 -->
<g id="node3" class="node"><title>Node2</title>
<a xlink:href="../../df/d7d/class_action_rpg_kit_1_1_character_1_1_stats_1_1_enemy_stats.xhtml" target="_top" xlink:title="{EnemyStats\n||+ EnemyStats()\l}">
<polygon fill="white" stroke="black" points="0,-0.5 0,-63.5 86,-63.5 86,-0.5 0,-0.5"/>
<text text-anchor="middle" x="43" y="-50.5" font-family="Helvetica,sans-Serif" font-size="10.00">EnemyStats</text>
<polyline fill="none" stroke="black" points="0,-42.5 86,-42.5 "/>
<text text-anchor="middle" x="43" y="-29.5" font-family="Helvetica,sans-Serif" font-size="10.00"> </text>
<polyline fill="none" stroke="black" points="0,-21.5 86,-21.5 "/>
<text text-anchor="start" x="8" y="-8.5" font-family="Helvetica,sans-Serif" font-size="10.00">+ EnemyStats()</text>
</a>
</g>
<!-- Node1&#45;&gt;Node2 -->
<g id="edge2" class="edge"><title>Node1&#45;&gt;Node2</title>
<path fill="none" stroke="midnightblue" d="M63.6934,-91.2399C60.2672,-81.4316 56.9611,-71.9672 54.0348,-63.5899"/>
<polygon fill="none" stroke="midnightblue" points="60.4046,-92.4385 67.0066,-100.725 67.013,-90.13 60.4046,-92.4385"/>
</g>
<!-- Node3 -->
<g id="node5" class="node"><title>Node3</title>
<a xlink:href="../../d7/dbc/class_action_rpg_kit_1_1_character_1_1_stats_1_1_player_stats.xhtml" target="_top" xlink:title="{PlayerStats\n||+ PlayerStats()\l}">
<polygon fill="white" stroke="black" points="103.5,-0.5 103.5,-63.5 186.5,-63.5 186.5,-0.5 103.5,-0.5"/>
<text text-anchor="middle" x="145" y="-50.5" font-family="Helvetica,sans-Serif" font-size="10.00">PlayerStats</text>
<polyline fill="none" stroke="black" points="103.5,-42.5 186.5,-42.5 "/>
<text text-anchor="middle" x="145" y="-29.5" font-family="Helvetica,sans-Serif" font-size="10.00"> </text>
<polyline fill="none" stroke="black" points="103.5,-21.5 186.5,-21.5 "/>
<text text-anchor="start" x="111.5" y="-8.5" font-family="Helvetica,sans-Serif" font-size="10.00">+ PlayerStats()</text>
</a>
</g>
<!-- Node1&#45;&gt;Node3 -->
<g id="edge4" class="edge"><title>Node1&#45;&gt;Node3</title>
<path fill="none" stroke="midnightblue" d="M124.307,-91.2399C127.733,-81.4316 131.039,-71.9672 133.965,-63.5899"/>
<polygon fill="none" stroke="midnightblue" points="120.987,-90.13 120.993,-100.725 127.595,-92.4385 120.987,-90.13"/>
</g>
</g>
</svg>
