<?xml version="1.0" encoding="UTF-8" standalone="no"?>
<!DOCTYPE svg PUBLIC "-//W3C//DTD SVG 1.1//EN"
 "http://www.w3.org/Graphics/SVG/1.1/DTD/svg11.dtd">
<!-- Generated by graphviz version 2.38.0 (20140413.2041)
 -->
<!-- Title: Enemy Pages: 1 -->
<svg width="325pt" height="452pt"
 viewBox="0.00 0.00 325.00 452.00" xmlns="http://www.w3.org/2000/svg" xmlns:xlink="http://www.w3.org/1999/xlink">
<g id="graph0" class="graph" transform="scale(1 1) rotate(0) translate(4 448)">
<title>Enemy</title>
<polygon fill="white" stroke="none" points="-4,4 -4,-448 321,-448 321,4 -4,4"/>
<!-- Node1 -->
<g id="node1" class="node"><title>Node1</title>
<polygon fill="#bfbfbf" stroke="black" points="101.5,-0.5 101.5,-57.5 163.5,-57.5 163.5,-0.5 101.5,-0.5"/>
<text text-anchor="middle" x="132.5" y="-45.5" font-family="Helvetica,sans-Serif" font-size="10.00">Enemy</text>
<polyline fill="none" stroke="black" points="101.5,-38.5 163.5,-38.5 "/>
<text text-anchor="middle" x="132.5" y="-26.5" font-family="Helvetica,sans-Serif" font-size="10.00"> </text>
<polyline fill="none" stroke="black" points="101.5,-19.5 163.5,-19.5 "/>
<text text-anchor="start" x="109.5" y="-7.5" font-family="Helvetica,sans-Serif" font-size="10.00">+ Enemy()</text>
</g>
<!-- Node2 -->
<g id="node2" class="node"><title>Node2</title>
<g id="a_node2"><a xlink:href="../../d0/dd4/class_character_1_1_base_character.xhtml" target="_top" xlink:title="Base implementation of a Character.">
<polygon fill="white" stroke="black" points="70,-94.5 70,-327.5 195,-327.5 195,-94.5 70,-94.5"/>
<text text-anchor="middle" x="132.5" y="-315.5" font-family="Helvetica,sans-Serif" font-size="10.00">BaseCharacter</text>
<polyline fill="none" stroke="black" points="70,-308.5 195,-308.5 "/>
<text text-anchor="start" x="78" y="-296.5" font-family="Helvetica,sans-Serif" font-size="10.00">+ Name</text>
<text text-anchor="start" x="78" y="-285.5" font-family="Helvetica,sans-Serif" font-size="10.00">+ Stats</text>
<text text-anchor="start" x="78" y="-274.5" font-family="Helvetica,sans-Serif" font-size="10.00">+ MagicSkills</text>
<text text-anchor="start" x="78" y="-263.5" font-family="Helvetica,sans-Serif" font-size="10.00">+ Enemies</text>
<text text-anchor="start" x="78" y="-252.5" font-family="Helvetica,sans-Serif" font-size="10.00">+ CombatSkills</text>
<text text-anchor="start" x="78" y="-241.5" font-family="Helvetica,sans-Serif" font-size="10.00">&#45; _name</text>
<text text-anchor="start" x="78" y="-230.5" font-family="Helvetica,sans-Serif" font-size="10.00">&#45; _stats</text>
<text text-anchor="start" x="78" y="-219.5" font-family="Helvetica,sans-Serif" font-size="10.00">&#45; _magicSkills</text>
<text text-anchor="start" x="78" y="-208.5" font-family="Helvetica,sans-Serif" font-size="10.00">&#45; _magicSkillEndTimes</text>
<text text-anchor="start" x="78" y="-197.5" font-family="Helvetica,sans-Serif" font-size="10.00">&#45; _combatSkills</text>
<polyline fill="none" stroke="black" points="70,-190.5 195,-190.5 "/>
<text text-anchor="start" x="78" y="-178.5" font-family="Helvetica,sans-Serif" font-size="10.00">+ BaseCharacter()</text>
<text text-anchor="start" x="78" y="-167.5" font-family="Helvetica,sans-Serif" font-size="10.00">+ LearnMagicSkill()</text>
<text text-anchor="start" x="78" y="-156.5" font-family="Helvetica,sans-Serif" font-size="10.00">+ TriggerMagicSkill()</text>
<text text-anchor="start" x="78" y="-145.5" font-family="Helvetica,sans-Serif" font-size="10.00">+ PreUseCountdown()</text>
<text text-anchor="start" x="78" y="-134.5" font-family="Helvetica,sans-Serif" font-size="10.00">+ LearnCombatSkill()</text>
<text text-anchor="start" x="78" y="-123.5" font-family="Helvetica,sans-Serif" font-size="10.00">+ TriggerCombatSkill()</text>
<text text-anchor="start" x="78" y="-112.5" font-family="Helvetica,sans-Serif" font-size="10.00">&#45; MagicSkillCanBeUsed()</text>
<text text-anchor="start" x="78" y="-101.5" font-family="Helvetica,sans-Serif" font-size="10.00">&#45; UseMagicSkill()</text>
</a>
</g>
</g>
<!-- Node2&#45;&gt;Node1 -->
<g id="edge1" class="edge"><title>Node2&#45;&gt;Node1</title>
<path fill="none" stroke="midnightblue" d="M132.5,-84.1826C132.5,-74.5117 132.5,-65.5002 132.5,-57.7105"/>
<polygon fill="none" stroke="midnightblue" points="129,-84.4757 132.5,-94.4757 136,-84.4757 129,-84.4757"/>
</g>
<!-- Node3 -->
<g id="node3" class="node"><title>Node3</title>
<g id="a_node3"><a xlink:href="../../dd/d20/interface_character_1_1_i_character.xhtml" target="_top" xlink:title="Characters populate the game world. They are defined by Stats.">
<polygon fill="white" stroke="black" points="0,-370 0,-438 61,-438 61,-370 0,-370"/>
<text text-anchor="middle" x="30.5" y="-426" font-family="Helvetica,sans-Serif" font-size="10.00">ICharacter</text>
<polyline fill="none" stroke="black" points="0,-419 61,-419 "/>
<text text-anchor="start" x="8" y="-407" font-family="Helvetica,sans-Serif" font-size="10.00">+ Name</text>
<text text-anchor="start" x="8" y="-396" font-family="Helvetica,sans-Serif" font-size="10.00">+ Stats</text>
<polyline fill="none" stroke="black" points="0,-389 61,-389 "/>
<text text-anchor="middle" x="30.5" y="-377" font-family="Helvetica,sans-Serif" font-size="10.00"> </text>
</a>
</g>
</g>
<!-- Node3&#45;&gt;Node2 -->
<g id="edge2" class="edge"><title>Node3&#45;&gt;Node2</title>
<path fill="none" stroke="midnightblue" d="M53.0413,-360.79C58.4444,-350.673 64.4743,-339.381 70.7307,-327.666"/>
<polygon fill="none" stroke="midnightblue" points="49.8904,-359.261 48.267,-369.73 56.0651,-362.558 49.8904,-359.261"/>
</g>
<!-- Node4 -->
<g id="node4" class="node"><title>Node4</title>
<g id="a_node4"><a xlink:href="../../d7/dd1/interface_character_1_1_i_magic_user.xhtml" target="_top" xlink:title="Character can use Magic.">
<polygon fill="white" stroke="black" points="79.5,-370 79.5,-438 185.5,-438 185.5,-370 79.5,-370"/>
<text text-anchor="middle" x="132.5" y="-426" font-family="Helvetica,sans-Serif" font-size="10.00">IMagicUser</text>
<polyline fill="none" stroke="black" points="79.5,-419 185.5,-419 "/>
<text text-anchor="start" x="87.5" y="-407" font-family="Helvetica,sans-Serif" font-size="10.00">+ MagicSkills</text>
<polyline fill="none" stroke="black" points="79.5,-400 185.5,-400 "/>
<text text-anchor="start" x="87.5" y="-388" font-family="Helvetica,sans-Serif" font-size="10.00">+ LearnMagicSkill()</text>
<text text-anchor="start" x="87.5" y="-377" font-family="Helvetica,sans-Serif" font-size="10.00">+ TriggerMagicSkill()</text>
</a>
</g>
</g>
<!-- Node4&#45;&gt;Node2 -->
<g id="edge3" class="edge"><title>Node4&#45;&gt;Node2</title>
<path fill="none" stroke="midnightblue" d="M132.5,-359.546C132.5,-349.75 132.5,-338.903 132.5,-327.666"/>
<polygon fill="none" stroke="midnightblue" points="129,-359.73 132.5,-369.73 136,-359.73 129,-359.73"/>
</g>
<!-- Node5 -->
<g id="node5" class="node"><title>Node5</title>
<g id="a_node5"><a xlink:href="../../d2/d26/interface_character_1_1_i_fighter.xhtml" target="_top" xlink:title="Character can fight.">
<polygon fill="white" stroke="black" points="204,-364.5 204,-443.5 317,-443.5 317,-364.5 204,-364.5"/>
<text text-anchor="middle" x="260.5" y="-431.5" font-family="Helvetica,sans-Serif" font-size="10.00">IFighter</text>
<polyline fill="none" stroke="black" points="204,-424.5 317,-424.5 "/>
<text text-anchor="start" x="212" y="-412.5" font-family="Helvetica,sans-Serif" font-size="10.00">+ Enemies</text>
<text text-anchor="start" x="212" y="-401.5" font-family="Helvetica,sans-Serif" font-size="10.00">+ CombatSkills</text>
<polyline fill="none" stroke="black" points="204,-394.5 317,-394.5 "/>
<text text-anchor="start" x="212" y="-382.5" font-family="Helvetica,sans-Serif" font-size="10.00">+ LearnCombatSkill()</text>
<text text-anchor="start" x="212" y="-371.5" font-family="Helvetica,sans-Serif" font-size="10.00">+ TriggerCombatSkill()</text>
</a>
</g>
</g>
<!-- Node5&#45;&gt;Node2 -->
<g id="edge4" class="edge"><title>Node5&#45;&gt;Node2</title>
<path fill="none" stroke="midnightblue" d="M228.757,-355.633C218.525,-340.366 206.804,-322.876 195.144,-305.476"/>
<polygon fill="none" stroke="midnightblue" points="226.123,-357.99 234.597,-364.348 231.938,-354.093 226.123,-357.99"/>
</g>
</g>
</svg>
