<?xml version="1.0" encoding="UTF-8" standalone="no"?>
<!DOCTYPE svg PUBLIC "-//W3C//DTD SVG 1.1//EN"
 "http://www.w3.org/Graphics/SVG/1.1/DTD/svg11.dtd">
<!-- Generated by graphviz version 2.26.3 (20100126.1600)
 -->
<!-- Title: Tests Pages: 1 -->
<svg width="284pt" height="113pt"
 viewBox="0.00 0.00 284.00 113.00" xmlns="http://www.w3.org/2000/svg" xmlns:xlink="http://www.w3.org/1999/xlink">
<g id="graph1" class="graph" transform="scale(1 1) rotate(0) translate(4 109)">
<title>Tests</title>
<polygon fill="white" stroke="white" points="-4,5 -4,-109 281,-109 281,5 -4,5"/>
<g id="graph2" class="cluster"><title>clusterdir_9ecb837a21b60474ce98456d518a780a</title>
<a xlink:href="dir_9ecb837a21b60474ce98456d518a780a.xhtml" target="_top" xlink:title="ActionRpgKit">
<polygon fill="#ddddee" stroke="black" points="8,-8 8,-97 268,-97 268,-8 8,-8"/>
<text text-anchor="middle" x="138" y="-84" font-family="Helvetica,sans-Serif" font-size="10.00">ActionRpgKit</text>
</a>
</g>
<g id="graph3" class="cluster"><title>clusterdir_85c4bcfa5ceba710e89aab0b6a79eab3</title>
<a xlink:href="dir_85c4bcfa5ceba710e89aab0b6a79eab3.xhtml" target="_top">
<polygon fill="#eeeeff" stroke="black" points="16,-16 16,-68 260,-68 260,-16 16,-16"/>
</a>
</g>
<!-- dir_85c4bcfa5ceba710e89aab0b6a79eab3 -->
<g id="node3" class="node"><title>dir_85c4bcfa5ceba710e89aab0b6a79eab3</title>
<text text-anchor="middle" x="225" y="-39.5" font-family="Helvetica,sans-Serif" font-size="10.00">Tests</text>
</g>
<!-- dir_eb8aa5641b11310a1f9ff781c1bea516 -->
<g id="node4" class="node"><title>dir_eb8aa5641b11310a1f9ff781c1bea516</title>
<a xlink:href="dir_eb8aa5641b11310a1f9ff781c1bea516.xhtml" target="_top" xlink:title="GameController">
<polygon fill="white" stroke="black" points="180,-60 96,-60 96,-24 180,-24 180,-60"/>
<text text-anchor="middle" x="138" y="-39.5" font-family="Helvetica,sans-Serif" font-size="10.00">GameController</text>
</a>
</g>
<!-- dir_a6b7c5ba7c0e70ffaeb7c35caad60821 -->
<g id="node5" class="node"><title>dir_a6b7c5ba7c0e70ffaeb7c35caad60821</title>
<a xlink:href="dir_a6b7c5ba7c0e70ffaeb7c35caad60821.xhtml" target="_top" xlink:title="Story">
<polygon fill="white" stroke="black" points="78,-60 24,-60 24,-24 78,-24 78,-60"/>
<text text-anchor="middle" x="51" y="-39.5" font-family="Helvetica,sans-Serif" font-size="10.00">Story</text>
</a>
</g>
</g>
</svg>
