<?xml version="1.0" encoding="UTF-8" standalone="no"?>
<!DOCTYPE svg PUBLIC "-//W3C//DTD SVG 1.1//EN"
 "http://www.w3.org/Graphics/SVG/1.1/DTD/svg11.dtd">
<!-- Generated by graphviz version 2.26.3 (20100126.1600)
 -->
<!-- Title: Graphical Class Hierarchy Pages: 1 -->
<svg width="342pt" height="70pt"
 viewBox="0.00 0.00 342.00 70.00" xmlns="http://www.w3.org/2000/svg" xmlns:xlink="http://www.w3.org/1999/xlink">
<g id="graph1" class="graph" transform="scale(1 1) rotate(0) translate(4 66)">
<title>Graphical Class Hierarchy</title>
<polygon fill="white" stroke="white" points="-4,5 -4,-66 339,-66 339,5 -4,5"/>
<!-- Node1 -->
<g id="node1" class="node"><title>Node1</title>
<a xlink:href="d2/d98/interface_action_rpg_kit_1_1_story_1_1_quest_1_1_i_objective.xhtml" target="_top" xlink:title="IObjective">
<polygon fill="white" stroke="black" points="0.5,-20.5 0.5,-41.5 61.5,-41.5 61.5,-20.5 0.5,-20.5"/>
<text text-anchor="middle" x="31" y="-28.5" font-family="Helvetica,sans-Serif" font-size="10.00">IObjective</text>
</a>
</g>
<!-- Node2 -->
<g id="node3" class="node"><title>Node2</title>
<a xlink:href="dd/d14/class_action_rpg_kit_1_1_story_1_1_quest_1_1_base_objective.xhtml" target="_top" xlink:title="BaseObjective">
<polygon fill="white" stroke="black" points="98,-20.5 98,-41.5 178,-41.5 178,-20.5 98,-20.5"/>
<text text-anchor="middle" x="138" y="-28.5" font-family="Helvetica,sans-Serif" font-size="10.00">BaseObjective</text>
</a>
</g>
<!-- Node1&#45;&gt;Node2 -->
<g id="edge2" class="edge"><title>Node1&#45;&gt;Node2</title>
<path fill="none" stroke="midnightblue" d="M71.7608,-31C80.2773,-31 89.2512,-31 97.7492,-31"/>
<polygon fill="midnightblue" stroke="midnightblue" points="71.6619,-27.5001 61.6619,-31 71.6619,-34.5001 71.6619,-27.5001"/>
</g>
<!-- Node3 -->
<g id="node5" class="node"><title>Node3</title>
<a xlink:href="d5/d1e/class_action_rpg_kit_1_1_tests_1_1_story_1_1_find10_herbs_objective.xhtml" target="_top" xlink:title="Find10HerbsObjective">
<polygon fill="white" stroke="black" points="217.5,-40.5 217.5,-61.5 330.5,-61.5 330.5,-40.5 217.5,-40.5"/>
<text text-anchor="middle" x="274" y="-48.5" font-family="Helvetica,sans-Serif" font-size="10.00">Find10HerbsObjective</text>
</a>
</g>
<!-- Node2&#45;&gt;Node3 -->
<g id="edge4" class="edge"><title>Node2&#45;&gt;Node3</title>
<path fill="none" stroke="midnightblue" d="M188.145,-38.3743C197.648,-39.7718 207.652,-41.2429 217.339,-42.6675"/>
<polygon fill="midnightblue" stroke="midnightblue" points="188.472,-34.8848 178.069,-36.8925 187.453,-41.8103 188.472,-34.8848"/>
</g>
<!-- Node4 -->
<g id="node7" class="node"><title>Node4</title>
<a xlink:href="dc/d33/class_action_rpg_kit_1_1_tests_1_1_story_1_1_get_rid_of_rats_objective.xhtml" target="_top" xlink:title="GetRidOfRatsObjective">
<polygon fill="white" stroke="black" points="214,-0.5 214,-21.5 334,-21.5 334,-0.5 214,-0.5"/>
<text text-anchor="middle" x="274" y="-8.5" font-family="Helvetica,sans-Serif" font-size="10.00">GetRidOfRatsObjective</text>
</a>
</g>
<!-- Node2&#45;&gt;Node4 -->
<g id="edge6" class="edge"><title>Node2&#45;&gt;Node4</title>
<path fill="none" stroke="midnightblue" d="M188.055,-23.639C196.431,-22.4072 205.199,-21.1178 213.798,-19.8533"/>
<polygon fill="midnightblue" stroke="midnightblue" points="187.453,-20.1897 178.069,-25.1075 188.472,-27.1152 187.453,-20.1897"/>
</g>
</g>
</svg>
