<?xml version="1.0" encoding="UTF-8" standalone="no"?>
<!DOCTYPE svg PUBLIC "-//W3C//DTD SVG 1.1//EN"
 "http://www.w3.org/Graphics/SVG/1.1/DTD/svg11.dtd">
<!-- Generated by graphviz version 2.26.3 (20100126.1600)
 -->
<!-- Title: G Pages: 1 -->
<svg width="284pt" height="150pt"
 viewBox="0.00 0.00 284.00 150.00" xmlns="http://www.w3.org/2000/svg" xmlns:xlink="http://www.w3.org/1999/xlink">
<g id="graph1" class="graph" transform="scale(1 1) rotate(0) translate(4 146)">
<title>G</title>
<polygon fill="white" stroke="white" points="-4,5 -4,-146 281,-146 281,5 -4,5"/>
<!-- Node1 -->
<g id="node1" class="node"><title>Node1</title>
<a xlink:href="d2/df8/interface_action_rpg_kit_1_1_character_1_1_i_character.xhtml" target="_top" xlink:title="Characters populate the game world. They are defined by Stats.">
<polygon fill="white" stroke="black" points="6,-120.5 6,-141.5 68,-141.5 68,-120.5 6,-120.5"/>
<text text-anchor="middle" x="37" y="-128.5" font-family="Helvetica,sans-Serif" font-size="10.00">ICharacter</text>
</a>
</g>
<!-- Node2 -->
<g id="node3" class="node"><title>Node2</title>
<a xlink:href="d9/d5c/class_action_rpg_kit_1_1_character_1_1_base_character.xhtml" target="_top" xlink:title="Base implementation of a Character.">
<polygon fill="white" stroke="black" points="110,-60.5 110,-81.5 192,-81.5 192,-60.5 110,-60.5"/>
<text text-anchor="middle" x="151" y="-68.5" font-family="Helvetica,sans-Serif" font-size="10.00">BaseCharacter</text>
</a>
</g>
<!-- Node1&#45;&gt;Node2 -->
<g id="edge2" class="edge"><title>Node1&#45;&gt;Node2</title>
<path fill="none" stroke="midnightblue" d="M66.1932,-115.635C86.3928,-105.004 112.763,-91.1247 130.699,-81.6846"/>
<polygon fill="midnightblue" stroke="midnightblue" points="64.3376,-112.657 57.1185,-120.411 67.5978,-118.851 64.3376,-112.657"/>
</g>
<!-- Node3 -->
<g id="node5" class="node"><title>Node3</title>
<a xlink:href="d2/df0/class_action_rpg_kit_1_1_character_1_1_enemy.xhtml" target="_top" xlink:title="Representation of a Hostile, game controlled character.">
<polygon fill="white" stroke="black" points="228.5,-80.5 228.5,-101.5 275.5,-101.5 275.5,-80.5 228.5,-80.5"/>
<text text-anchor="middle" x="252" y="-88.5" font-family="Helvetica,sans-Serif" font-size="10.00">Enemy</text>
</a>
</g>
<!-- Node2&#45;&gt;Node3 -->
<g id="edge4" class="edge"><title>Node2&#45;&gt;Node3</title>
<path fill="none" stroke="midnightblue" d="M202.023,-81.1036C211.231,-82.9269 220.415,-84.7456 228.352,-86.3172"/>
<polygon fill="midnightblue" stroke="midnightblue" points="202.57,-77.644 192.081,-79.1348 201.21,-84.5107 202.57,-77.644"/>
</g>
<!-- Node4 -->
<g id="node7" class="node"><title>Node4</title>
<a xlink:href="d7/dd8/class_action_rpg_kit_1_1_character_1_1_player.xhtml" target="_top" xlink:title="Representation of a Player controllable character.">
<polygon fill="white" stroke="black" points="230,-40.5 230,-61.5 274,-61.5 274,-40.5 230,-40.5"/>
<text text-anchor="middle" x="252" y="-48.5" font-family="Helvetica,sans-Serif" font-size="10.00">Player</text>
</a>
</g>
<!-- Node2&#45;&gt;Node4 -->
<g id="edge6" class="edge"><title>Node2&#45;&gt;Node4</title>
<path fill="none" stroke="midnightblue" d="M202.158,-60.8697C211.875,-58.9455 221.56,-57.0277 229.773,-55.4015"/>
<polygon fill="midnightblue" stroke="midnightblue" points="201.21,-57.4893 192.081,-62.8652 202.57,-64.356 201.21,-57.4893"/>
</g>
<!-- Node5 -->
<g id="node8" class="node"><title>Node5</title>
<a xlink:href="df/d5e/interface_action_rpg_kit_1_1_character_1_1_i_fighter.xhtml" target="_top" xlink:title="Character can fight.">
<polygon fill="white" stroke="black" points="12,-80.5 12,-101.5 62,-101.5 62,-80.5 12,-80.5"/>
<text text-anchor="middle" x="37" y="-88.5" font-family="Helvetica,sans-Serif" font-size="10.00">IFighter</text>
</a>
</g>
<!-- Node5&#45;&gt;Node2 -->
<g id="edge8" class="edge"><title>Node5&#45;&gt;Node2</title>
<path fill="none" stroke="midnightblue" d="M72.0738,-84.8467C84.0368,-82.7479 97.5202,-80.3824 109.913,-78.2083"/>
<polygon fill="midnightblue" stroke="midnightblue" points="71.2625,-81.4355 62.0178,-86.6109 72.4722,-88.3302 71.2625,-81.4355"/>
</g>
<!-- Node6 -->
<g id="node10" class="node"><title>Node6</title>
<a xlink:href="de/d0d/interface_action_rpg_kit_1_1_core_1_1_i_game_object.xhtml" target="_top" xlink:title="IGameObject">
<polygon fill="white" stroke="black" points="0,-40.5 0,-61.5 74,-61.5 74,-40.5 0,-40.5"/>
<text text-anchor="middle" x="37" y="-48.5" font-family="Helvetica,sans-Serif" font-size="10.00">IGameObject</text>
</a>
</g>
<!-- Node6&#45;&gt;Node2 -->
<g id="edge10" class="edge"><title>Node6&#45;&gt;Node2</title>
<path fill="none" stroke="midnightblue" d="M83.9102,-59.2299C92.507,-60.7381 101.42,-62.3018 109.833,-63.7778"/>
<polygon fill="midnightblue" stroke="midnightblue" points="84.4669,-55.7742 74.0125,-57.4934 83.2573,-62.6689 84.4669,-55.7742"/>
</g>
<!-- Node7 -->
<g id="node12" class="node"><title>Node7</title>
<a xlink:href="dd/db0/interface_action_rpg_kit_1_1_character_1_1_i_magic_user.xhtml" target="_top" xlink:title="Character can use Magic.">
<polygon fill="white" stroke="black" points="3.5,-0.5 3.5,-21.5 70.5,-21.5 70.5,-0.5 3.5,-0.5"/>
<text text-anchor="middle" x="37" y="-8.5" font-family="Helvetica,sans-Serif" font-size="10.00">IMagicUser</text>
</a>
</g>
<!-- Node7&#45;&gt;Node2 -->
<g id="edge12" class="edge"><title>Node7&#45;&gt;Node2</title>
<path fill="none" stroke="midnightblue" d="M66.1932,-26.3649C86.3928,-36.9962 112.763,-50.8753 130.699,-60.3154"/>
<polygon fill="midnightblue" stroke="midnightblue" points="67.5978,-23.149 57.1185,-21.5887 64.3376,-29.3434 67.5978,-23.149"/>
</g>
</g>
</svg>
