<?xml version="1.0" encoding="UTF-8" standalone="no"?>
<!DOCTYPE svg PUBLIC "-//W3C//DTD SVG 1.1//EN"
 "http://www.w3.org/Graphics/SVG/1.1/DTD/svg11.dtd">
<!-- Generated by graphviz version 2.26.3 (20100126.1600)
 -->
<!-- Title: Graphical Class Hierarchy Pages: 1 -->
<svg width="312pt" height="70pt"
 viewBox="0.00 0.00 312.00 70.00" xmlns="http://www.w3.org/2000/svg" xmlns:xlink="http://www.w3.org/1999/xlink">
<g id="graph1" class="graph" transform="scale(1 1) rotate(0) translate(4 66)">
<title>Graphical Class Hierarchy</title>
<polygon fill="white" stroke="white" points="-4,5 -4,-66 309,-66 309,5 -4,5"/>
<!-- Node1 -->
<g id="node1" class="node"><title>Node1</title>
<polygon fill="white" stroke="#bfbfbf" points="0.5,-14 0.5,-48 97.5,-48 97.5,-14 0.5,-14"/>
<text text-anchor="start" x="8.5" y="-35" font-family="Helvetica,sans-Serif" font-size="10.00">Dictionary&lt; string,</text>
<text text-anchor="middle" x="49" y="-22" font-family="Helvetica,sans-Serif" font-size="10.00"> IAttribute &gt;</text>
</g>
<!-- Node2 -->
<g id="node3" class="node"><title>Node2</title>
<a xlink:href="db/dd8/class_action_rpg_kit_1_1_character_1_1_stats_1_1_base_stats.xhtml" target="_top" xlink:title="BaseStats">
<polygon fill="white" stroke="black" points="134,-20.5 134,-41.5 196,-41.5 196,-20.5 134,-20.5"/>
<text text-anchor="middle" x="165" y="-28.5" font-family="Helvetica,sans-Serif" font-size="10.00">BaseStats</text>
</a>
</g>
<!-- Node1&#45;&gt;Node2 -->
<g id="edge2" class="edge"><title>Node1&#45;&gt;Node2</title>
<path fill="none" stroke="midnightblue" d="M107.69,-31C116.729,-31 125.746,-31 133.862,-31"/>
<polygon fill="midnightblue" stroke="midnightblue" points="107.522,-27.5001 97.5223,-31 107.522,-34.5001 107.522,-27.5001"/>
</g>
<!-- Node3 -->
<g id="node5" class="node"><title>Node3</title>
<a xlink:href="df/d7d/class_action_rpg_kit_1_1_character_1_1_stats_1_1_enemy_stats.xhtml" target="_top" xlink:title="EnemyStats">
<polygon fill="white" stroke="black" points="232.5,-40.5 232.5,-61.5 303.5,-61.5 303.5,-40.5 232.5,-40.5"/>
<text text-anchor="middle" x="268" y="-48.5" font-family="Helvetica,sans-Serif" font-size="10.00">EnemyStats</text>
</a>
</g>
<!-- Node2&#45;&gt;Node3 -->
<g id="edge4" class="edge"><title>Node2&#45;&gt;Node3</title>
<path fill="none" stroke="midnightblue" d="M206.086,-38.9779C214.735,-40.6574 223.793,-42.4162 232.229,-44.0541"/>
<polygon fill="midnightblue" stroke="midnightblue" points="206.667,-35.5253 196.183,-37.0549 205.332,-42.397 206.667,-35.5253"/>
</g>
<!-- Node4 -->
<g id="node7" class="node"><title>Node4</title>
<a xlink:href="d7/dbc/class_action_rpg_kit_1_1_character_1_1_stats_1_1_player_stats.xhtml" target="_top" xlink:title="PlayerStats">
<polygon fill="white" stroke="black" points="234,-0.5 234,-21.5 302,-21.5 302,-0.5 234,-0.5"/>
<text text-anchor="middle" x="268" y="-8.5" font-family="Helvetica,sans-Serif" font-size="10.00">PlayerStats</text>
</a>
</g>
<!-- Node2&#45;&gt;Node4 -->
<g id="edge6" class="edge"><title>Node2&#45;&gt;Node4</title>
<path fill="none" stroke="midnightblue" d="M206.216,-22.9969C215.327,-21.2277 224.887,-19.3715 233.689,-17.6623"/>
<polygon fill="midnightblue" stroke="midnightblue" points="205.332,-19.603 196.183,-24.9451 206.667,-26.4747 205.332,-19.603"/>
</g>
</g>
</svg>
