<?xml version="1.0" encoding="UTF-8" standalone="no"?>
<!DOCTYPE svg PUBLIC "-//W3C//DTD SVG 1.1//EN"
 "http://www.w3.org/Graphics/SVG/1.1/DTD/svg11.dtd">
<!-- Generated by graphviz version 2.26.3 (20100126.1600)
 -->
<!-- Title: G Pages: 1 -->
<svg width="270pt" height="70pt"
 viewBox="0.00 0.00 270.00 70.00" xmlns="http://www.w3.org/2000/svg" xmlns:xlink="http://www.w3.org/1999/xlink">
<g id="graph1" class="graph" transform="scale(1 1) rotate(0) translate(4 66)">
<title>G</title>
<polygon fill="white" stroke="white" points="-4,5 -4,-66 267,-66 267,5 -4,5"/>
<!-- Node1 -->
<g id="node1" class="node"><title>Node1</title>
<a xlink:href="dd/dd3/interface_action_rpg_kit_1_1_story_1_1_quest_1_1_i_quest.xhtml" target="_top" xlink:title="Interface for Quests.">
<polygon fill="white" stroke="black" points="0,-20.5 0,-41.5 46,-41.5 46,-20.5 0,-20.5"/>
<text text-anchor="middle" x="23" y="-28.5" font-family="Helvetica,sans-Serif" font-size="10.00">IQuest</text>
</a>
</g>
<!-- Node2 -->
<g id="node3" class="node"><title>Node2</title>
<a xlink:href="d3/dd9/class_action_rpg_kit_1_1_story_1_1_quest_1_1_quest.xhtml" target="_top" xlink:title="Quest">
<polygon fill="white" stroke="black" points="82.5,-20.5 82.5,-41.5 125.5,-41.5 125.5,-20.5 82.5,-20.5"/>
<text text-anchor="middle" x="104" y="-28.5" font-family="Helvetica,sans-Serif" font-size="10.00">Quest</text>
</a>
</g>
<!-- Node1&#45;&gt;Node2 -->
<g id="edge2" class="edge"><title>Node1&#45;&gt;Node2</title>
<path fill="none" stroke="midnightblue" d="M56.668,-31C65.3276,-31 74.4164,-31 82.2885,-31"/>
<polygon fill="midnightblue" stroke="midnightblue" points="56.4286,-27.5001 46.4286,-31 56.4285,-34.5001 56.4286,-27.5001"/>
</g>
<!-- Node3 -->
<g id="node5" class="node"><title>Node3</title>
<a xlink:href="dc/d01/class_action_rpg_kit_1_1_tests_1_1_integration_tests_1_1_cleanse_the_cellars.xhtml" target="_top" xlink:title="CleanseTheCellars">
<polygon fill="white" stroke="black" points="162,-40.5 162,-61.5 262,-61.5 262,-40.5 162,-40.5"/>
<text text-anchor="middle" x="212" y="-48.5" font-family="Helvetica,sans-Serif" font-size="10.00">CleanseTheCellars</text>
</a>
</g>
<!-- Node2&#45;&gt;Node3 -->
<g id="edge4" class="edge"><title>Node2&#45;&gt;Node3</title>
<path fill="none" stroke="midnightblue" d="M135.522,-36.8374C143.778,-38.3663 152.888,-40.0533 161.855,-41.7138"/>
<polygon fill="midnightblue" stroke="midnightblue" points="136.066,-33.3787 125.596,-34.9992 134.791,-40.2617 136.066,-33.3787"/>
</g>
<!-- Node4 -->
<g id="node7" class="node"><title>Node4</title>
<a xlink:href="d0/dc5/class_action_rpg_kit_1_1_tests_1_1_story_1_1_cleanse_the_cellars.xhtml" target="_top" xlink:title="CleanseTheCellars">
<polygon fill="white" stroke="black" points="162,-0.5 162,-21.5 262,-21.5 262,-0.5 162,-0.5"/>
<text text-anchor="middle" x="212" y="-8.5" font-family="Helvetica,sans-Serif" font-size="10.00">CleanseTheCellars</text>
</a>
</g>
<!-- Node2&#45;&gt;Node4 -->
<g id="edge6" class="edge"><title>Node2&#45;&gt;Node4</title>
<path fill="none" stroke="midnightblue" d="M135.522,-25.1626C143.778,-23.6337 152.888,-21.9467 161.855,-20.2862"/>
<polygon fill="midnightblue" stroke="midnightblue" points="134.791,-21.7383 125.596,-27.0008 136.066,-28.6213 134.791,-21.7383"/>
</g>
</g>
</svg>
