<?xml version="1.0" encoding="UTF-8" standalone="no"?>
<!DOCTYPE svg PUBLIC "-//W3C//DTD SVG 1.1//EN"
 "http://www.w3.org/Graphics/SVG/1.1/DTD/svg11.dtd">
<!-- Generated by graphviz version 2.26.3 (20100126.1600)
 -->
<!-- Title: G Pages: 1 -->
<svg width="290pt" height="110pt"
 viewBox="0.00 0.00 290.00 110.00" xmlns="http://www.w3.org/2000/svg" xmlns:xlink="http://www.w3.org/1999/xlink">
<g id="graph1" class="graph" transform="scale(1 1) rotate(0) translate(4 106)">
<title>G</title>
<polygon fill="white" stroke="white" points="-4,5 -4,-106 287,-106 287,5 -4,5"/>
<!-- Node1 -->
<g id="node1" class="node"><title>Node1</title>
<a xlink:href="d5/dc7/interface_action_rpg_kit_1_1_character_1_1_skill_1_1_i_skill.xhtml" target="_top" xlink:title="Interface for Skills.">
<polygon fill="white" stroke="black" points="0,-40.5 0,-61.5 38,-61.5 38,-40.5 0,-40.5"/>
<text text-anchor="middle" x="19" y="-48.5" font-family="Helvetica,sans-Serif" font-size="10.00">ISkill</text>
</a>
</g>
<!-- Node2 -->
<g id="node3" class="node"><title>Node2</title>
<a xlink:href="dc/db7/class_action_rpg_kit_1_1_character_1_1_skill_1_1_base_skill.xhtml" target="_top" xlink:title="A basic Skill implementation.">
<polygon fill="white" stroke="black" points="82,-40.5 82,-61.5 140,-61.5 140,-40.5 82,-40.5"/>
<text text-anchor="middle" x="111" y="-48.5" font-family="Helvetica,sans-Serif" font-size="10.00">BaseSkill</text>
</a>
</g>
<!-- Node1&#45;&gt;Node2 -->
<g id="edge2" class="edge"><title>Node1&#45;&gt;Node2</title>
<path fill="none" stroke="midnightblue" d="M48.216,-51C58.9448,-51 71.0853,-51 81.8116,-51"/>
<polygon fill="midnightblue" stroke="midnightblue" points="48.0625,-47.5001 38.0625,-51 48.0624,-54.5001 48.0625,-47.5001"/>
</g>
<!-- Node5 -->
<g id="node9" class="node"><title>Node5</title>
<a xlink:href="d4/dbe/interface_action_rpg_kit_1_1_character_1_1_skill_1_1_i_combat_skill.xhtml" target="_top" xlink:title="A Skill to be used as an Attack in Combat.">
<polygon fill="white" stroke="black" points="74.5,-80.5 74.5,-101.5 147.5,-101.5 147.5,-80.5 74.5,-80.5"/>
<text text-anchor="middle" x="111" y="-88.5" font-family="Helvetica,sans-Serif" font-size="10.00">ICombatSkill</text>
</a>
</g>
<!-- Node1&#45;&gt;Node5 -->
<g id="edge8" class="edge"><title>Node1&#45;&gt;Node5</title>
<path fill="none" stroke="midnightblue" d="M47.5974,-63.4336C60.1367,-68.8855 74.6996,-75.2172 86.704,-80.4365"/>
<polygon fill="midnightblue" stroke="midnightblue" points="48.6287,-60.0656 38.0625,-59.288 45.8376,-66.4851 48.6287,-60.0656"/>
</g>
<!-- Node6 -->
<g id="node12" class="node"><title>Node6</title>
<a xlink:href="d7/dd4/interface_action_rpg_kit_1_1_character_1_1_skill_1_1_i_magic_skill.xhtml" target="_top" xlink:title="A magic Skill costs magic energy on each use.">
<polygon fill="white" stroke="black" points="78.5,-0.5 78.5,-21.5 143.5,-21.5 143.5,-0.5 78.5,-0.5"/>
<text text-anchor="middle" x="111" y="-8.5" font-family="Helvetica,sans-Serif" font-size="10.00">IMagicSkill</text>
</a>
</g>
<!-- Node1&#45;&gt;Node6 -->
<g id="edge12" class="edge"><title>Node1&#45;&gt;Node6</title>
<path fill="none" stroke="midnightblue" d="M47.5974,-38.5664C60.1367,-33.1145 74.6996,-26.7828 86.704,-21.5635"/>
<polygon fill="midnightblue" stroke="midnightblue" points="45.8376,-35.5149 38.0625,-42.712 48.6287,-41.9344 45.8376,-35.5149"/>
</g>
<!-- Node3 -->
<g id="node5" class="node"><title>Node3</title>
<a xlink:href="d4/d60/class_action_rpg_kit_1_1_character_1_1_skill_1_1_melee_skill.xhtml" target="_top" xlink:title="Allows to attack with a melee weapon.">
<polygon fill="white" stroke="black" points="202,-60.5 202,-81.5 264,-81.5 264,-60.5 202,-60.5"/>
<text text-anchor="middle" x="233" y="-68.5" font-family="Helvetica,sans-Serif" font-size="10.00">MeleeSkill</text>
</a>
</g>
<!-- Node2&#45;&gt;Node3 -->
<g id="edge4" class="edge"><title>Node2&#45;&gt;Node3</title>
<path fill="none" stroke="midnightblue" d="M150.249,-57.4343C166.96,-60.1738 186.177,-63.3242 201.884,-65.899"/>
<polygon fill="midnightblue" stroke="midnightblue" points="150.657,-53.9544 140.222,-55.7905 149.524,-60.8622 150.657,-53.9544"/>
</g>
<!-- Node4 -->
<g id="node7" class="node"><title>Node4</title>
<a xlink:href="dc/dac/class_action_rpg_kit_1_1_character_1_1_skill_1_1_passive_magic_skill.xhtml" target="_top" xlink:title="A passive MagicSkill adds buffs on the User itself.">
<polygon fill="white" stroke="black" points="184.5,-10.5 184.5,-31.5 281.5,-31.5 281.5,-10.5 184.5,-10.5"/>
<text text-anchor="middle" x="233" y="-18.5" font-family="Helvetica,sans-Serif" font-size="10.00">PassiveMagicSkill</text>
</a>
</g>
<!-- Node2&#45;&gt;Node4 -->
<g id="edge6" class="edge"><title>Node2&#45;&gt;Node4</title>
<path fill="none" stroke="midnightblue" d="M150.099,-41.3855C162.874,-38.2441 177.126,-34.7394 190.162,-31.534"/>
<polygon fill="midnightblue" stroke="midnightblue" points="149.097,-38.0275 140.222,-43.8143 150.769,-44.825 149.097,-38.0275"/>
</g>
<!-- Node5&#45;&gt;Node3 -->
<g id="edge10" class="edge"><title>Node5&#45;&gt;Node3</title>
<path fill="none" stroke="midnightblue" d="M157.599,-83.3608C172.38,-80.9377 188.357,-78.3186 201.782,-76.1176"/>
<polygon fill="midnightblue" stroke="midnightblue" points="156.906,-79.9276 147.604,-84.9993 158.039,-86.8354 156.906,-79.9276"/>
</g>
<!-- Node6&#45;&gt;Node4 -->
<g id="edge14" class="edge"><title>Node6&#45;&gt;Node4</title>
<path fill="none" stroke="midnightblue" d="M153.965,-14.5218C163.725,-15.3218 174.162,-16.1772 184.147,-16.9956"/>
<polygon fill="midnightblue" stroke="midnightblue" points="153.946,-11.0085 143.694,-13.6798 153.374,-17.9851 153.946,-11.0085"/>
</g>
</g>
</svg>
