<?xml version="1.0" encoding="UTF-8" standalone="no"?>
<!DOCTYPE svg PUBLIC "-//W3C//DTD SVG 1.1//EN"
 "http://www.w3.org/Graphics/SVG/1.1/DTD/svg11.dtd">
<!-- Generated by graphviz version 2.26.3 (20100126.1600)
 -->
<!-- Title: G Pages: 1 -->
<svg width="178pt" height="70pt"
 viewBox="0.00 0.00 178.00 70.00" xmlns="http://www.w3.org/2000/svg" xmlns:xlink="http://www.w3.org/1999/xlink">
<g id="graph1" class="graph" transform="scale(1 1) rotate(0) translate(4 66)">
<title>G</title>
<polygon fill="white" stroke="white" points="-4,5 -4,-66 175,-66 175,5 -4,5"/>
<!-- Node1 -->
<g id="node1" class="node"><title>Node1</title>
<a xlink:href="db/dd8/class_action_rpg_kit_1_1_character_1_1_stats_1_1_base_stats.xhtml" target="_top" xlink:title="BaseStats">
<polygon fill="white" stroke="black" points="0,-20.5 0,-41.5 62,-41.5 62,-20.5 0,-20.5"/>
<text text-anchor="middle" x="31" y="-28.5" font-family="Helvetica,sans-Serif" font-size="10.00">BaseStats</text>
</a>
</g>
<!-- Node2 -->
<g id="node3" class="node"><title>Node2</title>
<a xlink:href="df/d7d/class_action_rpg_kit_1_1_character_1_1_stats_1_1_enemy_stats.xhtml" target="_top" xlink:title="EnemyStats">
<polygon fill="white" stroke="black" points="98.5,-40.5 98.5,-61.5 169.5,-61.5 169.5,-40.5 98.5,-40.5"/>
<text text-anchor="middle" x="134" y="-48.5" font-family="Helvetica,sans-Serif" font-size="10.00">EnemyStats</text>
</a>
</g>
<!-- Node1&#45;&gt;Node2 -->
<g id="edge2" class="edge"><title>Node1&#45;&gt;Node2</title>
<path fill="none" stroke="midnightblue" d="M72.0864,-38.9779C80.7354,-40.6574 89.7933,-42.4162 98.2286,-44.0541"/>
<polygon fill="midnightblue" stroke="midnightblue" points="72.6667,-35.5253 62.1829,-37.0549 71.3324,-42.397 72.6667,-35.5253"/>
</g>
<!-- Node3 -->
<g id="node5" class="node"><title>Node3</title>
<a xlink:href="d7/dbc/class_action_rpg_kit_1_1_character_1_1_stats_1_1_player_stats.xhtml" target="_top" xlink:title="PlayerStats">
<polygon fill="white" stroke="black" points="100,-0.5 100,-21.5 168,-21.5 168,-0.5 100,-0.5"/>
<text text-anchor="middle" x="134" y="-8.5" font-family="Helvetica,sans-Serif" font-size="10.00">PlayerStats</text>
</a>
</g>
<!-- Node1&#45;&gt;Node3 -->
<g id="edge4" class="edge"><title>Node1&#45;&gt;Node3</title>
<path fill="none" stroke="midnightblue" d="M72.2157,-22.9969C81.3273,-21.2277 90.8866,-19.3715 99.6891,-17.6623"/>
<polygon fill="midnightblue" stroke="midnightblue" points="71.3324,-19.603 62.1829,-24.9451 72.6667,-26.4747 71.3324,-19.603"/>
</g>
</g>
</svg>
