<?xml version="1.0" encoding="UTF-8" standalone="no"?>
<!DOCTYPE svg PUBLIC "-//W3C//DTD SVG 1.1//EN"
 "http://www.w3.org/Graphics/SVG/1.1/DTD/svg11.dtd">
<!-- Generated by graphviz version 2.26.3 (20100126.1600)
 -->
<!-- Title: G Pages: 1 -->
<svg width="342pt" height="150pt"
 viewBox="0.00 0.00 342.00 150.00" xmlns="http://www.w3.org/2000/svg" xmlns:xlink="http://www.w3.org/1999/xlink">
<g id="graph1" class="graph" transform="scale(1 1) rotate(0) translate(4 146)">
<title>G</title>
<polygon fill="white" stroke="white" points="-4,5 -4,-146 339,-146 339,5 -4,5"/>
<!-- Node1 -->
<g id="node1" class="node"><title>Node1</title>
<a xlink:href="d2/d98/interface_action_rpg_kit_1_1_story_1_1_quest_1_1_i_objective.xhtml" target="_top" xlink:title="IObjective">
<polygon fill="white" stroke="black" points="0.5,-60.5 0.5,-81.5 61.5,-81.5 61.5,-60.5 0.5,-60.5"/>
<text text-anchor="middle" x="31" y="-68.5" font-family="Helvetica,sans-Serif" font-size="10.00">IObjective</text>
</a>
</g>
<!-- Node2 -->
<g id="node3" class="node"><title>Node2</title>
<a xlink:href="dd/d14/class_action_rpg_kit_1_1_story_1_1_quest_1_1_base_objective.xhtml" target="_top" xlink:title="BaseObjective">
<polygon fill="white" stroke="black" points="98,-60.5 98,-81.5 178,-81.5 178,-60.5 98,-60.5"/>
<text text-anchor="middle" x="138" y="-68.5" font-family="Helvetica,sans-Serif" font-size="10.00">BaseObjective</text>
</a>
</g>
<!-- Node1&#45;&gt;Node2 -->
<g id="edge2" class="edge"><title>Node1&#45;&gt;Node2</title>
<path fill="none" stroke="midnightblue" d="M71.7608,-71C80.2773,-71 89.2512,-71 97.7492,-71"/>
<polygon fill="midnightblue" stroke="midnightblue" points="71.6619,-67.5001 61.6619,-71 71.6619,-74.5001 71.6619,-67.5001"/>
</g>
<!-- Node3 -->
<g id="node5" class="node"><title>Node3</title>
<a xlink:href="d6/d7d/class_action_rpg_kit_1_1_tests_1_1_integration_tests_1_1_find10_herbs_objective.xhtml" target="_top" xlink:title="Find10HerbsObjective">
<polygon fill="white" stroke="black" points="217.5,-120.5 217.5,-141.5 330.5,-141.5 330.5,-120.5 217.5,-120.5"/>
<text text-anchor="middle" x="274" y="-128.5" font-family="Helvetica,sans-Serif" font-size="10.00">Find10HerbsObjective</text>
</a>
</g>
<!-- Node2&#45;&gt;Node3 -->
<g id="edge4" class="edge"><title>Node2&#45;&gt;Node3</title>
<path fill="none" stroke="midnightblue" d="M164.837,-86.4958C179.156,-94.4101 197.236,-103.851 214,-111 221.979,-114.403 230.747,-117.61 239.058,-120.418"/>
<polygon fill="midnightblue" stroke="midnightblue" points="166.457,-83.3914 156.022,-81.5547 163.034,-89.4975 166.457,-83.3914"/>
</g>
<!-- Node4 -->
<g id="node7" class="node"><title>Node4</title>
<a xlink:href="d3/d5f/class_action_rpg_kit_1_1_tests_1_1_integration_tests_1_1_get_rid_of_rats_objective.xhtml" target="_top" xlink:title="GetRidOfRatsObjective">
<polygon fill="white" stroke="black" points="214,-80.5 214,-101.5 334,-101.5 334,-80.5 214,-80.5"/>
<text text-anchor="middle" x="274" y="-88.5" font-family="Helvetica,sans-Serif" font-size="10.00">GetRidOfRatsObjective</text>
</a>
</g>
<!-- Node2&#45;&gt;Node4 -->
<g id="edge6" class="edge"><title>Node2&#45;&gt;Node4</title>
<path fill="none" stroke="midnightblue" d="M188.055,-78.361C196.431,-79.5928 205.199,-80.8822 213.798,-82.1467"/>
<polygon fill="midnightblue" stroke="midnightblue" points="188.472,-74.8848 178.069,-76.8925 187.453,-81.8103 188.472,-74.8848"/>
</g>
<!-- Node5 -->
<g id="node9" class="node"><title>Node5</title>
<a xlink:href="d5/d1e/class_action_rpg_kit_1_1_tests_1_1_story_1_1_find10_herbs_objective.xhtml" target="_top" xlink:title="Find10HerbsObjective">
<polygon fill="white" stroke="black" points="217.5,-40.5 217.5,-61.5 330.5,-61.5 330.5,-40.5 217.5,-40.5"/>
<text text-anchor="middle" x="274" y="-48.5" font-family="Helvetica,sans-Serif" font-size="10.00">Find10HerbsObjective</text>
</a>
</g>
<!-- Node2&#45;&gt;Node5 -->
<g id="edge8" class="edge"><title>Node2&#45;&gt;Node5</title>
<path fill="none" stroke="midnightblue" d="M188.145,-63.6257C197.648,-62.2282 207.652,-60.7571 217.339,-59.3325"/>
<polygon fill="midnightblue" stroke="midnightblue" points="187.453,-60.1897 178.069,-65.1075 188.472,-67.1152 187.453,-60.1897"/>
</g>
<!-- Node6 -->
<g id="node11" class="node"><title>Node6</title>
<a xlink:href="dc/d33/class_action_rpg_kit_1_1_tests_1_1_story_1_1_get_rid_of_rats_objective.xhtml" target="_top" xlink:title="GetRidOfRatsObjective">
<polygon fill="white" stroke="black" points="214,-0.5 214,-21.5 334,-21.5 334,-0.5 214,-0.5"/>
<text text-anchor="middle" x="274" y="-8.5" font-family="Helvetica,sans-Serif" font-size="10.00">GetRidOfRatsObjective</text>
</a>
</g>
<!-- Node2&#45;&gt;Node6 -->
<g id="edge10" class="edge"><title>Node2&#45;&gt;Node6</title>
<path fill="none" stroke="midnightblue" d="M164.837,-55.5042C179.156,-47.5899 197.236,-38.1492 214,-31 221.979,-27.5972 230.747,-24.39 239.058,-21.5816"/>
<polygon fill="midnightblue" stroke="midnightblue" points="163.034,-52.5025 156.022,-60.4453 166.457,-58.6086 163.034,-52.5025"/>
</g>
</g>
</svg>
