<?xml version="1.0" encoding="UTF-8" standalone="no"?>
<!DOCTYPE svg PUBLIC "-//W3C//DTD SVG 1.1//EN"
 "http://www.w3.org/Graphics/SVG/1.1/DTD/svg11.dtd">
<!-- Generated by graphviz version 2.26.3 (20100126.1600)
 -->
<!-- Title: G Pages: 1 -->
<svg width="182pt" height="70pt"
 viewBox="0.00 0.00 182.00 70.00" xmlns="http://www.w3.org/2000/svg" xmlns:xlink="http://www.w3.org/1999/xlink">
<g id="graph1" class="graph" transform="scale(1 1) rotate(0) translate(4 66)">
<title>G</title>
<polygon fill="white" stroke="white" points="-4,5 -4,-66 179,-66 179,5 -4,5"/>
<!-- Node1 -->
<g id="node1" class="node"><title>Node1</title>
<a xlink:href="d4/d9c/class_action_rpg_kit_1_1_story_1_1_storyline.xhtml" target="_top" xlink:title="The flow of the story.">
<polygon fill="white" stroke="black" points="0.5,-20.5 0.5,-41.5 55.5,-41.5 55.5,-20.5 0.5,-20.5"/>
<text text-anchor="middle" x="28" y="-28.5" font-family="Helvetica,sans-Serif" font-size="10.00">Storyline</text>
</a>
</g>
<!-- Node2 -->
<g id="node3" class="node"><title>Node2</title>
<a xlink:href="d0/db9/class_action_rpg_kit_1_1_tests_1_1_integration_tests_1_1_game_storyline.xhtml" target="_top" xlink:title="GameStoryline">
<polygon fill="white" stroke="black" points="92.5,-40.5 92.5,-61.5 173.5,-61.5 173.5,-40.5 92.5,-40.5"/>
<text text-anchor="middle" x="133" y="-48.5" font-family="Helvetica,sans-Serif" font-size="10.00">GameStoryline</text>
</a>
</g>
<!-- Node1&#45;&gt;Node2 -->
<g id="edge2" class="edge"><title>Node1&#45;&gt;Node2</title>
<path fill="none" stroke="midnightblue" d="M65.4228,-38.1282C74.0895,-39.779 83.3552,-41.5438 92.16,-43.221"/>
<polygon fill="midnightblue" stroke="midnightblue" points="66.0658,-34.6878 55.5875,-36.2548 64.756,-41.5642 66.0658,-34.6878"/>
</g>
<!-- Node3 -->
<g id="node5" class="node"><title>Node3</title>
<a xlink:href="d0/d7c/class_action_rpg_kit_1_1_tests_1_1_story_1_1_game_storyline.xhtml" target="_top" xlink:title="GameStoryline">
<polygon fill="white" stroke="black" points="92.5,-0.5 92.5,-21.5 173.5,-21.5 173.5,-0.5 92.5,-0.5"/>
<text text-anchor="middle" x="133" y="-8.5" font-family="Helvetica,sans-Serif" font-size="10.00">GameStoryline</text>
</a>
</g>
<!-- Node1&#45;&gt;Node3 -->
<g id="edge4" class="edge"><title>Node1&#45;&gt;Node3</title>
<path fill="none" stroke="midnightblue" d="M65.4228,-23.8718C74.0895,-22.221 83.3552,-20.4562 92.16,-18.779"/>
<polygon fill="midnightblue" stroke="midnightblue" points="64.756,-20.4358 55.5875,-25.7452 66.0658,-27.3122 64.756,-20.4358"/>
</g>
</g>
</svg>
