<?xml version="1.0" encoding="UTF-8" standalone="no"?>
<!DOCTYPE svg PUBLIC "-//W3C//DTD SVG 1.1//EN"
 "http://www.w3.org/Graphics/SVG/1.1/DTD/svg11.dtd">
<!-- Generated by graphviz version 2.26.3 (20100126.1600)
 -->
<!-- Title: G Pages: 1 -->
<svg width="124pt" height="264pt"
 viewBox="0.00 0.00 124.00 264.00" xmlns="http://www.w3.org/2000/svg" xmlns:xlink="http://www.w3.org/1999/xlink">
<g id="graph1" class="graph" transform="scale(1 1) rotate(0) translate(4 260)">
<title>G</title>
<polygon fill="white" stroke="white" points="-4,5 -4,-260 121,-260 121,5 -4,5"/>
<!-- Node1 -->
<g id="node1" class="node"><title>Node1</title>
<polygon fill="#bfbfbf" stroke="black" points="0,-101 0,-255 116,-255 116,-101 0,-101"/>
<text text-anchor="middle" x="58" y="-242" font-family="Helvetica,sans-Serif" font-size="10.00">Storyline</text>
<polyline fill="none" stroke="black" points="0,-234 116,-234 "/>
<text text-anchor="start" x="8" y="-221" font-family="Helvetica,sans-Serif" font-size="10.00">+ Chapters</text>
<text text-anchor="start" x="8" y="-208" font-family="Helvetica,sans-Serif" font-size="10.00">+ CurrentChapter</text>
<text text-anchor="start" x="8" y="-195" font-family="Helvetica,sans-Serif" font-size="10.00">&#45; _currentChapterIndex</text>
<polyline fill="none" stroke="black" points="0,-187 116,-187 "/>
<text text-anchor="start" x="8" y="-174" font-family="Helvetica,sans-Serif" font-size="10.00">+ ToString()</text>
<text text-anchor="start" x="8" y="-161" font-family="Helvetica,sans-Serif" font-size="10.00">+ Start()</text>
<text text-anchor="start" x="8" y="-148" font-family="Helvetica,sans-Serif" font-size="10.00">+ NextChapter()</text>
<text text-anchor="start" x="8" y="-135" font-family="Helvetica,sans-Serif" font-size="10.00">+ End()</text>
<text text-anchor="start" x="8" y="-122" font-family="Helvetica,sans-Serif" font-size="10.00">+ CheckProgress()</text>
<text text-anchor="start" x="8" y="-109" font-family="Helvetica,sans-Serif" font-size="10.00">+ CreateFromXml()</text>
</g>
<!-- Node2 -->
<g id="node3" class="node"><title>Node2</title>
<a xlink:href="../../d0/db9/class_action_rpg_kit_1_1_tests_1_1_integration_tests_1_1_game_storyline.xhtml" target="_top" xlink:title="{GameStoryline\n||+ GameStoryline()\l}">
<polygon fill="white" stroke="black" points="10,-0.5 10,-63.5 106,-63.5 106,-0.5 10,-0.5"/>
<text text-anchor="middle" x="58" y="-50.5" font-family="Helvetica,sans-Serif" font-size="10.00">GameStoryline</text>
<polyline fill="none" stroke="black" points="10,-42.5 106,-42.5 "/>
<text text-anchor="middle" x="58" y="-29.5" font-family="Helvetica,sans-Serif" font-size="10.00"> </text>
<polyline fill="none" stroke="black" points="10,-21.5 106,-21.5 "/>
<text text-anchor="start" x="18" y="-8.5" font-family="Helvetica,sans-Serif" font-size="10.00">+ GameStoryline()</text>
</a>
</g>
<!-- Node1&#45;&gt;Node2 -->
<g id="edge2" class="edge"><title>Node1&#45;&gt;Node2</title>
<path fill="none" stroke="midnightblue" d="M51.3676,-90.6336C51.5264,-81.0418 51.8461,-71.7945 52.3268,-63.5899"/>
<polygon fill="none" stroke="midnightblue" points="47.8669,-90.6882 51.2603,-100.725 54.8665,-90.7626 47.8669,-90.6882"/>
</g>
<!-- Node1&#45;&gt;Node2 -->
<g id="edge4" class="edge"><title>Node1&#45;&gt;Node2</title>
<path fill="none" stroke="midnightblue" d="M64.6324,-90.6336C64.4736,-81.0418 64.1539,-71.7945 63.6732,-63.5899"/>
<polygon fill="none" stroke="midnightblue" points="61.1335,-90.7626 64.7397,-100.725 68.1331,-90.6882 61.1335,-90.7626"/>
</g>
</g>
</svg>
