<?xml version="1.0" encoding="UTF-8" standalone="no"?>
<!DOCTYPE svg PUBLIC "-//W3C//DTD SVG 1.1//EN"
 "http://www.w3.org/Graphics/SVG/1.1/DTD/svg11.dtd">
<!-- Generated by graphviz version 2.26.3 (20100126.1600)
 -->
<!-- Title: G Pages: 1 -->
<svg width="212pt" height="238pt"
 viewBox="0.00 0.00 212.00 238.00" xmlns="http://www.w3.org/2000/svg" xmlns:xlink="http://www.w3.org/1999/xlink">
<g id="graph1" class="graph" transform="scale(1 1) rotate(0) translate(4 234)">
<title>G</title>
<polygon fill="white" stroke="white" points="-4,5 -4,-234 209,-234 209,5 -4,5"/>
<!-- Node1 -->
<g id="node1" class="node"><title>Node1</title>
<polygon fill="#bfbfbf" stroke="black" points="51.5,-101 51.5,-229 150.5,-229 150.5,-101 51.5,-101"/>
<text text-anchor="middle" x="101" y="-216" font-family="Helvetica,sans-Serif" font-size="10.00">Chapter</text>
<polyline fill="none" stroke="black" points="51.5,-208 150.5,-208 "/>
<text text-anchor="start" x="59.5" y="-195" font-family="Helvetica,sans-Serif" font-size="10.00">+ Name</text>
<text text-anchor="start" x="59.5" y="-182" font-family="Helvetica,sans-Serif" font-size="10.00">+ Description</text>
<text text-anchor="start" x="59.5" y="-169" font-family="Helvetica,sans-Serif" font-size="10.00">+ Quests</text>
<text text-anchor="start" x="59.5" y="-156" font-family="Helvetica,sans-Serif" font-size="10.00">+ IsCompleted</text>
<polyline fill="none" stroke="black" points="51.5,-148 150.5,-148 "/>
<text text-anchor="start" x="59.5" y="-135" font-family="Helvetica,sans-Serif" font-size="10.00">+ CheckProgress()</text>
<text text-anchor="start" x="59.5" y="-122" font-family="Helvetica,sans-Serif" font-size="10.00">+ OnCompletion()</text>
<text text-anchor="start" x="59.5" y="-109" font-family="Helvetica,sans-Serif" font-size="10.00">+ ToString()</text>
</g>
<!-- Node2 -->
<g id="node3" class="node"><title>Node2</title>
<a xlink:href="../../d8/d3d/class_action_rpg_kit_1_1_tests_1_1_integration_tests_1_1_epilog_chapter.xhtml" target="_top" xlink:title="{EpilogChapter\n||+ EpilogChapter()\l}">
<polygon fill="white" stroke="black" points="-0.5,-0.5 -0.5,-63.5 92.5,-63.5 92.5,-0.5 -0.5,-0.5"/>
<text text-anchor="middle" x="46" y="-50.5" font-family="Helvetica,sans-Serif" font-size="10.00">EpilogChapter</text>
<polyline fill="none" stroke="black" points="-0.5,-42.5 92.5,-42.5 "/>
<text text-anchor="middle" x="46" y="-29.5" font-family="Helvetica,sans-Serif" font-size="10.00"> </text>
<polyline fill="none" stroke="black" points="-0.5,-21.5 92.5,-21.5 "/>
<text text-anchor="start" x="7.5" y="-8.5" font-family="Helvetica,sans-Serif" font-size="10.00">+ EpilogChapter()</text>
</a>
</g>
<!-- Node1&#45;&gt;Node2 -->
<g id="edge2" class="edge"><title>Node1&#45;&gt;Node2</title>
<path fill="none" stroke="midnightblue" d="M63.8811,-91.4813C59.9536,-81.7587 56.3042,-72.2384 53.2817,-63.7644"/>
<polygon fill="none" stroke="midnightblue" points="60.686,-92.9148 67.7203,-100.837 67.162,-90.2573 60.686,-92.9148"/>
</g>
<!-- Node1&#45;&gt;Node2 -->
<g id="edge6" class="edge"><title>Node1&#45;&gt;Node2</title>
<path fill="none" stroke="midnightblue" d="M77.314,-91.4813C73.2002,-81.7587 68.9757,-72.2384 64.9896,-63.7644"/>
<polygon fill="none" stroke="midnightblue" points="74.1356,-92.9532 81.2129,-100.837 80.597,-90.2605 74.1356,-92.9532"/>
</g>
<!-- Node3 -->
<g id="node5" class="node"><title>Node3</title>
<a xlink:href="../../d4/db9/class_action_rpg_kit_1_1_tests_1_1_integration_tests_1_1_prolog_chapter.xhtml" target="_top" xlink:title="{PrologChapter\n||+ PrologChapter()\l}">
<polygon fill="white" stroke="black" points="110,-0.5 110,-63.5 204,-63.5 204,-0.5 110,-0.5"/>
<text text-anchor="middle" x="157" y="-50.5" font-family="Helvetica,sans-Serif" font-size="10.00">PrologChapter</text>
<polyline fill="none" stroke="black" points="110,-42.5 204,-42.5 "/>
<text text-anchor="middle" x="157" y="-29.5" font-family="Helvetica,sans-Serif" font-size="10.00"> </text>
<polyline fill="none" stroke="black" points="110,-21.5 204,-21.5 "/>
<text text-anchor="start" x="118" y="-8.5" font-family="Helvetica,sans-Serif" font-size="10.00">+ PrologChapter()</text>
</a>
</g>
<!-- Node1&#45;&gt;Node3 -->
<g id="edge4" class="edge"><title>Node1&#45;&gt;Node3</title>
<path fill="none" stroke="midnightblue" d="M125.239,-91.4813C129.426,-81.7587 133.722,-72.2384 137.772,-63.7644"/>
<polygon fill="none" stroke="midnightblue" points="121.953,-90.2647 121.27,-100.837 128.397,-92.9986 121.953,-90.2647"/>
</g>
<!-- Node1&#45;&gt;Node3 -->
<g id="edge8" class="edge"><title>Node1&#45;&gt;Node3</title>
<path fill="none" stroke="midnightblue" d="M138.672,-91.4813C142.672,-81.7587 146.393,-72.2384 149.479,-63.7644"/>
<polygon fill="none" stroke="midnightblue" points="135.388,-90.2611 134.762,-100.837 141.847,-92.9601 135.388,-90.2611"/>
</g>
</g>
</svg>
