<?xml version="1.0" encoding="UTF-8" standalone="no"?>
<!DOCTYPE svg PUBLIC "-//W3C//DTD SVG 1.1//EN"
 "http://www.w3.org/Graphics/SVG/1.1/DTD/svg11.dtd">
<!-- Generated by graphviz version 2.26.3 (20100126.1600)
 -->
<!-- Title: G Pages: 1 -->
<svg width="212pt" height="224pt"
 viewBox="0.00 0.00 212.00 224.00" xmlns="http://www.w3.org/2000/svg" xmlns:xlink="http://www.w3.org/1999/xlink">
<g id="graph1" class="graph" transform="scale(1 1) rotate(0) translate(4 220)">
<title>G</title>
<polygon fill="white" stroke="white" points="-4,5 -4,-220 209,-220 209,5 -4,5"/>
<!-- Node1 -->
<g id="node1" class="node"><title>Node1</title>
<polygon fill="#bfbfbf" stroke="black" points="51.5,-100.5 51.5,-215.5 150.5,-215.5 150.5,-100.5 51.5,-100.5"/>
<text text-anchor="middle" x="101" y="-202.5" font-family="Helvetica,sans-Serif" font-size="10.00">Chapter</text>
<polyline fill="none" stroke="black" points="51.5,-194.5 150.5,-194.5 "/>
<text text-anchor="start" x="59.5" y="-181.5" font-family="Helvetica,sans-Serif" font-size="10.00">+ Name</text>
<text text-anchor="start" x="59.5" y="-168.5" font-family="Helvetica,sans-Serif" font-size="10.00">+ Description</text>
<text text-anchor="start" x="59.5" y="-155.5" font-family="Helvetica,sans-Serif" font-size="10.00">+ Quests</text>
<text text-anchor="start" x="59.5" y="-142.5" font-family="Helvetica,sans-Serif" font-size="10.00">+ IsCompleted</text>
<polyline fill="none" stroke="black" points="51.5,-134.5 150.5,-134.5 "/>
<text text-anchor="start" x="59.5" y="-121.5" font-family="Helvetica,sans-Serif" font-size="10.00">+ CheckProgress()</text>
<text text-anchor="start" x="59.5" y="-108.5" font-family="Helvetica,sans-Serif" font-size="10.00">+ OnCompletion()</text>
</g>
<!-- Node2 -->
<g id="node3" class="node"><title>Node2</title>
<a xlink:href="../../d2/d12/class_action_rpg_kit_1_1_tests_1_1_story_1_1_epilog_chapter.xhtml" target="_top" xlink:title="{EpilogChapter\n||+ EpilogChapter()\l}">
<polygon fill="white" stroke="black" points="-0.5,-0.5 -0.5,-63.5 92.5,-63.5 92.5,-0.5 -0.5,-0.5"/>
<text text-anchor="middle" x="46" y="-50.5" font-family="Helvetica,sans-Serif" font-size="10.00">EpilogChapter</text>
<polyline fill="none" stroke="black" points="-0.5,-42.5 92.5,-42.5 "/>
<text text-anchor="middle" x="46" y="-29.5" font-family="Helvetica,sans-Serif" font-size="10.00"> </text>
<polyline fill="none" stroke="black" points="-0.5,-21.5 92.5,-21.5 "/>
<text text-anchor="start" x="7.5" y="-8.5" font-family="Helvetica,sans-Serif" font-size="10.00">+ EpilogChapter()</text>
</a>
</g>
<!-- Node1&#45;&gt;Node2 -->
<g id="edge2" class="edge"><title>Node1&#45;&gt;Node2</title>
<path fill="none" stroke="midnightblue" d="M71.636,-90.7297C67.5232,-81.3078 63.4664,-72.0138 59.8355,-63.696"/>
<polygon fill="none" stroke="midnightblue" points="68.5453,-92.3981 75.7536,-100.163 74.9607,-89.5977 68.5453,-92.3981"/>
</g>
<!-- Node3 -->
<g id="node5" class="node"><title>Node3</title>
<a xlink:href="../../d5/d4f/class_action_rpg_kit_1_1_tests_1_1_story_1_1_prolog_chapter.xhtml" target="_top" xlink:title="{PrologChapter\n||+ PrologChapter()\l}">
<polygon fill="white" stroke="black" points="110,-0.5 110,-63.5 204,-63.5 204,-0.5 110,-0.5"/>
<text text-anchor="middle" x="157" y="-50.5" font-family="Helvetica,sans-Serif" font-size="10.00">PrologChapter</text>
<polyline fill="none" stroke="black" points="110,-42.5 204,-42.5 "/>
<text text-anchor="middle" x="157" y="-29.5" font-family="Helvetica,sans-Serif" font-size="10.00"> </text>
<polyline fill="none" stroke="black" points="110,-21.5 204,-21.5 "/>
<text text-anchor="start" x="118" y="-8.5" font-family="Helvetica,sans-Serif" font-size="10.00">+ PrologChapter()</text>
</a>
</g>
<!-- Node1&#45;&gt;Node3 -->
<g id="edge4" class="edge"><title>Node1&#45;&gt;Node3</title>
<path fill="none" stroke="midnightblue" d="M130.767,-91.0242C134.999,-81.5015 139.178,-72.1005 142.913,-63.696"/>
<polygon fill="none" stroke="midnightblue" points="127.569,-89.6032 126.705,-100.163 133.965,-92.4462 127.569,-89.6032"/>
</g>
</g>
</svg>
