<?xml version="1.0" encoding="UTF-8" standalone="no"?>
<!DOCTYPE svg PUBLIC "-//W3C//DTD SVG 1.1//EN"
 "http://www.w3.org/Graphics/SVG/1.1/DTD/svg11.dtd">
<!-- Generated by graphviz version 2.26.3 (20100126.1600)
 -->
<!-- Title: G Pages: 1 -->
<svg width="212pt" height="238pt"
 viewBox="0.00 0.00 212.00 238.00" xmlns="http://www.w3.org/2000/svg" xmlns:xlink="http://www.w3.org/1999/xlink">
<g id="graph1" class="graph" transform="scale(1 1) rotate(0) translate(4 234)">
<title>G</title>
<polygon fill="white" stroke="white" points="-4,5 -4,-234 209,-234 209,5 -4,5"/>
<!-- Node1 -->
<g id="node1" class="node"><title>Node1</title>
<polygon fill="#bfbfbf" stroke="black" points="51.5,-101 51.5,-229 150.5,-229 150.5,-101 51.5,-101"/>
<text text-anchor="middle" x="101" y="-216" font-family="Helvetica,sans-Serif" font-size="10.00">Chapter</text>
<polyline fill="none" stroke="black" points="51.5,-208 150.5,-208 "/>
<text text-anchor="start" x="59.5" y="-195" font-family="Helvetica,sans-Serif" font-size="10.00">+ Name</text>
<text text-anchor="start" x="59.5" y="-182" font-family="Helvetica,sans-Serif" font-size="10.00">+ Description</text>
<text text-anchor="start" x="59.5" y="-169" font-family="Helvetica,sans-Serif" font-size="10.00">+ Quests</text>
<text text-anchor="start" x="59.5" y="-156" font-family="Helvetica,sans-Serif" font-size="10.00">+ IsCompleted</text>
<polyline fill="none" stroke="black" points="51.5,-148 150.5,-148 "/>
<text text-anchor="start" x="59.5" y="-135" font-family="Helvetica,sans-Serif" font-size="10.00">+ CheckProgress()</text>
<text text-anchor="start" x="59.5" y="-122" font-family="Helvetica,sans-Serif" font-size="10.00">+ OnCompletion()</text>
<text text-anchor="start" x="59.5" y="-109" font-family="Helvetica,sans-Serif" font-size="10.00">+ ToString()</text>
</g>
<!-- Node2 -->
<g id="node3" class="node"><title>Node2</title>
<a xlink:href="../../d2/d12/class_action_rpg_kit_1_1_tests_1_1_story_1_1_epilog_chapter.xhtml" target="_top" xlink:title="{EpilogChapter\n||+ EpilogChapter()\l}">
<polygon fill="white" stroke="black" points="-0.5,-0.5 -0.5,-63.5 92.5,-63.5 92.5,-0.5 -0.5,-0.5"/>
<text text-anchor="middle" x="46" y="-50.5" font-family="Helvetica,sans-Serif" font-size="10.00">EpilogChapter</text>
<polyline fill="none" stroke="black" points="-0.5,-42.5 92.5,-42.5 "/>
<text text-anchor="middle" x="46" y="-29.5" font-family="Helvetica,sans-Serif" font-size="10.00"> </text>
<polyline fill="none" stroke="black" points="-0.5,-21.5 92.5,-21.5 "/>
<text text-anchor="start" x="7.5" y="-8.5" font-family="Helvetica,sans-Serif" font-size="10.00">+ EpilogChapter()</text>
</a>
</g>
<!-- Node1&#45;&gt;Node2 -->
<g id="edge2" class="edge"><title>Node1&#45;&gt;Node2</title>
<path fill="none" stroke="midnightblue" d="M70.5975,-91.4813C66.5769,-81.7587 62.6399,-72.2384 59.1356,-63.7644"/>
<polygon fill="none" stroke="midnightblue" points="67.4107,-92.934 74.4666,-100.837 73.8794,-90.2589 67.4107,-92.934"/>
</g>
<!-- Node3 -->
<g id="node5" class="node"><title>Node3</title>
<a xlink:href="../../d5/d4f/class_action_rpg_kit_1_1_tests_1_1_story_1_1_prolog_chapter.xhtml" target="_top" xlink:title="{PrologChapter\n||+ PrologChapter()\l}">
<polygon fill="white" stroke="black" points="110,-0.5 110,-63.5 204,-63.5 204,-0.5 110,-0.5"/>
<text text-anchor="middle" x="157" y="-50.5" font-family="Helvetica,sans-Serif" font-size="10.00">PrologChapter</text>
<polyline fill="none" stroke="black" points="110,-42.5 204,-42.5 "/>
<text text-anchor="middle" x="157" y="-29.5" font-family="Helvetica,sans-Serif" font-size="10.00"> </text>
<polyline fill="none" stroke="black" points="110,-21.5 204,-21.5 "/>
<text text-anchor="start" x="118" y="-8.5" font-family="Helvetica,sans-Serif" font-size="10.00">+ PrologChapter()</text>
</a>
</g>
<!-- Node1&#45;&gt;Node3 -->
<g id="edge4" class="edge"><title>Node1&#45;&gt;Node3</title>
<path fill="none" stroke="midnightblue" d="M131.955,-91.4813C136.049,-81.7587 140.058,-72.2384 143.626,-63.7644"/>
<polygon fill="none" stroke="midnightblue" points="128.671,-90.2629 128.016,-100.837 135.122,-92.9793 128.671,-90.2629"/>
</g>
</g>
</svg>
