<?xml version="1.0" encoding="UTF-8" standalone="no"?>
<!DOCTYPE svg PUBLIC "-//W3C//DTD SVG 1.1//EN"
 "http://www.w3.org/Graphics/SVG/1.1/DTD/svg11.dtd">
<!-- Generated by graphviz version 2.38.0 (20140413.2041)
 -->
<!-- Title: PlayerStats Pages: 1 -->
<svg width="139pt" height="226pt"
 viewBox="0.00 0.00 139.00 226.00" xmlns="http://www.w3.org/2000/svg" xmlns:xlink="http://www.w3.org/1999/xlink">
<g id="graph0" class="graph" transform="scale(1 1) rotate(0) translate(4 222)">
<title>PlayerStats</title>
<polygon fill="white" stroke="none" points="-4,4 -4,-222 135,-222 135,4 -4,4"/>
<!-- Node1 -->
<g id="node1" class="node"><title>Node1</title>
<polygon fill="#bfbfbf" stroke="black" points="24,-0.5 24,-57.5 107,-57.5 107,-0.5 24,-0.5"/>
<text text-anchor="middle" x="65.5" y="-45.5" font-family="Helvetica,sans-Serif" font-size="10.00">PlayerStats</text>
<polyline fill="none" stroke="black" points="24,-38.5 107,-38.5 "/>
<text text-anchor="middle" x="65.5" y="-26.5" font-family="Helvetica,sans-Serif" font-size="10.00"> </text>
<polyline fill="none" stroke="black" points="24,-19.5 107,-19.5 "/>
<text text-anchor="start" x="32" y="-7.5" font-family="Helvetica,sans-Serif" font-size="10.00">+ PlayerStats()</text>
</g>
<!-- Node2 -->
<g id="node2" class="node"><title>Node2</title>
<g id="a_node2"><a xlink:href="../../d0/d48/class_character_1_1_stats_1_1_base_stats.xhtml" target="_top" xlink:title="{BaseStats\n|+ Body\l+ Mind\l+ Soul\l+ Experience\l+ Level\l+ Magic\l+ MagicRegenerationRate\l|# AssignAttributesToDict()\l}">
<polygon fill="white" stroke="black" points="0,-94.5 0,-217.5 131,-217.5 131,-94.5 0,-94.5"/>
<text text-anchor="middle" x="65.5" y="-205.5" font-family="Helvetica,sans-Serif" font-size="10.00">BaseStats</text>
<polyline fill="none" stroke="black" points="0,-198.5 131,-198.5 "/>
<text text-anchor="start" x="8" y="-186.5" font-family="Helvetica,sans-Serif" font-size="10.00">+ Body</text>
<text text-anchor="start" x="8" y="-175.5" font-family="Helvetica,sans-Serif" font-size="10.00">+ Mind</text>
<text text-anchor="start" x="8" y="-164.5" font-family="Helvetica,sans-Serif" font-size="10.00">+ Soul</text>
<text text-anchor="start" x="8" y="-153.5" font-family="Helvetica,sans-Serif" font-size="10.00">+ Experience</text>
<text text-anchor="start" x="8" y="-142.5" font-family="Helvetica,sans-Serif" font-size="10.00">+ Level</text>
<text text-anchor="start" x="8" y="-131.5" font-family="Helvetica,sans-Serif" font-size="10.00">+ Magic</text>
<text text-anchor="start" x="8" y="-120.5" font-family="Helvetica,sans-Serif" font-size="10.00">+ MagicRegenerationRate</text>
<polyline fill="none" stroke="black" points="0,-113.5 131,-113.5 "/>
<text text-anchor="start" x="8" y="-101.5" font-family="Helvetica,sans-Serif" font-size="10.00"># AssignAttributesToDict()</text>
</a>
</g>
</g>
<!-- Node2&#45;&gt;Node1 -->
<g id="edge1" class="edge"><title>Node2&#45;&gt;Node1</title>
<path fill="none" stroke="midnightblue" d="M65.5,-84.1384C65.5,-74.7999 65.5,-65.715 65.5,-57.7379"/>
<polygon fill="none" stroke="midnightblue" points="62.0001,-84.3308 65.5,-94.3308 69.0001,-84.3309 62.0001,-84.3308"/>
</g>
</g>
</svg>
