<?xml version="1.0" encoding="UTF-8" standalone="no"?>
<!DOCTYPE svg PUBLIC "-//W3C//DTD SVG 1.1//EN"
 "http://www.w3.org/Graphics/SVG/1.1/DTD/svg11.dtd">
<!-- Generated by graphviz version 2.38.0 (20140413.2041)
 -->
<!-- Title: BaseItem Pages: 1 -->
<svg width="83pt" height="237pt"
 viewBox="0.00 0.00 83.00 237.00" xmlns="http://www.w3.org/2000/svg" xmlns:xlink="http://www.w3.org/1999/xlink">
<g id="graph0" class="graph" transform="scale(1 1) rotate(0) translate(4 233)">
<title>BaseItem</title>
<polygon fill="white" stroke="none" points="-4,4 -4,-233 79,-233 79,4 -4,4"/>
<!-- Node1 -->
<g id="node1" class="node"><title>Node1</title>
<polygon fill="#bfbfbf" stroke="black" points="0,-0.5 0,-112.5 75,-112.5 75,-0.5 0,-0.5"/>
<text text-anchor="middle" x="37.5" y="-100.5" font-family="Helvetica,sans-Serif" font-size="10.00">BaseItem</text>
<polyline fill="none" stroke="black" points="0,-93.5 75,-93.5 "/>
<text text-anchor="start" x="8" y="-81.5" font-family="Helvetica,sans-Serif" font-size="10.00">+ Id</text>
<text text-anchor="start" x="8" y="-70.5" font-family="Helvetica,sans-Serif" font-size="10.00">+ Name</text>
<text text-anchor="start" x="8" y="-59.5" font-family="Helvetica,sans-Serif" font-size="10.00">+ Description</text>
<text text-anchor="start" x="8" y="-48.5" font-family="Helvetica,sans-Serif" font-size="10.00">&#45; _id</text>
<text text-anchor="start" x="8" y="-37.5" font-family="Helvetica,sans-Serif" font-size="10.00">&#45; _name</text>
<text text-anchor="start" x="8" y="-26.5" font-family="Helvetica,sans-Serif" font-size="10.00">&#45; _description</text>
<polyline fill="none" stroke="black" points="0,-19.5 75,-19.5 "/>
<text text-anchor="middle" x="37.5" y="-7.5" font-family="Helvetica,sans-Serif" font-size="10.00"> </text>
</g>
<!-- Node2 -->
<g id="node2" class="node"><title>Node2</title>
<g id="a_node2"><a xlink:href="../../d8/d71/interface_action_rpg_kit_1_1_core_1_1_item_1_1_i_item.xhtml" target="_top" xlink:title="{IItem\n|+ Id\l+ Name\l+ Description\l|}">
<polygon fill="white" stroke="black" points="0.5,-149.5 0.5,-228.5 74.5,-228.5 74.5,-149.5 0.5,-149.5"/>
<text text-anchor="middle" x="37.5" y="-216.5" font-family="Helvetica,sans-Serif" font-size="10.00">IItem</text>
<polyline fill="none" stroke="black" points="0.5,-209.5 74.5,-209.5 "/>
<text text-anchor="start" x="8.5" y="-197.5" font-family="Helvetica,sans-Serif" font-size="10.00">+ Id</text>
<text text-anchor="start" x="8.5" y="-186.5" font-family="Helvetica,sans-Serif" font-size="10.00">+ Name</text>
<text text-anchor="start" x="8.5" y="-175.5" font-family="Helvetica,sans-Serif" font-size="10.00">+ Description</text>
<polyline fill="none" stroke="black" points="0.5,-168.5 74.5,-168.5 "/>
<text text-anchor="middle" x="37.5" y="-156.5" font-family="Helvetica,sans-Serif" font-size="10.00"> </text>
</a>
</g>
</g>
<!-- Node2&#45;&gt;Node1 -->
<g id="edge1" class="edge"><title>Node2&#45;&gt;Node1</title>
<path fill="none" stroke="midnightblue" d="M37.5,-139.012C37.5,-130.464 37.5,-121.518 37.5,-112.814"/>
<polygon fill="none" stroke="midnightblue" points="34.0001,-139.199 37.5,-149.199 41.0001,-139.199 34.0001,-139.199"/>
</g>
</g>
</svg>
