<?xml version="1.0" encoding="UTF-8" standalone="no"?>
<!DOCTYPE svg PUBLIC "-//W3C//DTD SVG 1.1//EN"
 "http://www.w3.org/Graphics/SVG/1.1/DTD/svg11.dtd">
<!-- Generated by graphviz version 2.26.3 (20100126.1600)
 -->
<!-- Title: G Pages: 1 -->
<svg width="124pt" height="250pt"
 viewBox="0.00 0.00 124.00 250.00" xmlns="http://www.w3.org/2000/svg" xmlns:xlink="http://www.w3.org/1999/xlink">
<g id="graph1" class="graph" transform="scale(1 1) rotate(0) translate(4 246)">
<title>G</title>
<polygon fill="white" stroke="white" points="-4,5 -4,-246 121,-246 121,5 -4,5"/>
<!-- Node1 -->
<g id="node1" class="node"><title>Node1</title>
<polygon fill="#bfbfbf" stroke="black" points="0,-100.5 0,-241.5 116,-241.5 116,-100.5 0,-100.5"/>
<text text-anchor="middle" x="58" y="-228.5" font-family="Helvetica,sans-Serif" font-size="10.00">Storyline</text>
<polyline fill="none" stroke="black" points="0,-220.5 116,-220.5 "/>
<text text-anchor="start" x="8" y="-207.5" font-family="Helvetica,sans-Serif" font-size="10.00">+ Chapters</text>
<text text-anchor="start" x="8" y="-194.5" font-family="Helvetica,sans-Serif" font-size="10.00">+ CurrentChapter</text>
<text text-anchor="start" x="8" y="-181.5" font-family="Helvetica,sans-Serif" font-size="10.00">&#45; _currentChapterIndex</text>
<polyline fill="none" stroke="black" points="0,-173.5 116,-173.5 "/>
<text text-anchor="start" x="8" y="-160.5" font-family="Helvetica,sans-Serif" font-size="10.00">+ ToString()</text>
<text text-anchor="start" x="8" y="-147.5" font-family="Helvetica,sans-Serif" font-size="10.00">+ Start()</text>
<text text-anchor="start" x="8" y="-134.5" font-family="Helvetica,sans-Serif" font-size="10.00">+ NextChapter()</text>
<text text-anchor="start" x="8" y="-121.5" font-family="Helvetica,sans-Serif" font-size="10.00">+ End()</text>
<text text-anchor="start" x="8" y="-108.5" font-family="Helvetica,sans-Serif" font-size="10.00">+ CheckProgress()</text>
</g>
<!-- Node2 -->
<g id="node3" class="node"><title>Node2</title>
<a xlink:href="../../d4/d25/class_action_rpg_kit_1_1_tests_1_1_game_storyline.xhtml" target="_top" xlink:title="{GameStoryline\n||+ GameStoryline()\l}">
<polygon fill="white" stroke="black" points="10,-0.5 10,-63.5 106,-63.5 106,-0.5 10,-0.5"/>
<text text-anchor="middle" x="58" y="-50.5" font-family="Helvetica,sans-Serif" font-size="10.00">GameStoryline</text>
<polyline fill="none" stroke="black" points="10,-42.5 106,-42.5 "/>
<text text-anchor="middle" x="58" y="-29.5" font-family="Helvetica,sans-Serif" font-size="10.00"> </text>
<polyline fill="none" stroke="black" points="10,-21.5 106,-21.5 "/>
<text text-anchor="start" x="18" y="-8.5" font-family="Helvetica,sans-Serif" font-size="10.00">+ GameStoryline()</text>
</a>
</g>
<!-- Node1&#45;&gt;Node2 -->
<g id="edge2" class="edge"><title>Node1&#45;&gt;Node2</title>
<path fill="none" stroke="midnightblue" d="M51.3319,-90.0622C51.4668,-80.7193 51.7684,-71.6599 52.2367,-63.5847"/>
<polygon fill="none" stroke="midnightblue" points="47.8304,-90.2509 51.2509,-100.278 54.8302,-90.3065 47.8304,-90.2509"/>
</g>
<!-- Node1&#45;&gt;Node2 -->
<g id="edge4" class="edge"><title>Node1&#45;&gt;Node2</title>
<path fill="none" stroke="midnightblue" d="M64.6681,-90.0622C64.5332,-80.7193 64.2316,-71.6599 63.7633,-63.5847"/>
<polygon fill="none" stroke="midnightblue" points="61.1698,-90.3065 64.7491,-100.278 68.1696,-90.2509 61.1698,-90.3065"/>
</g>
</g>
</svg>
