<?xml version="1.0" encoding="UTF-8" standalone="no"?>
<!DOCTYPE svg PUBLIC "-//W3C//DTD SVG 1.1//EN"
 "http://www.w3.org/Graphics/SVG/1.1/DTD/svg11.dtd">
<!-- Generated by graphviz version 2.26.3 (20100126.1600)
 -->
<!-- Title: G Pages: 1 -->
<svg width="124pt" height="238pt"
 viewBox="0.00 0.00 124.00 238.00" xmlns="http://www.w3.org/2000/svg" xmlns:xlink="http://www.w3.org/1999/xlink">
<g id="graph1" class="graph" transform="scale(1 1) rotate(0) translate(4 234)">
<title>G</title>
<polygon fill="white" stroke="white" points="-4,5 -4,-234 121,-234 121,5 -4,5"/>
<!-- Node1 -->
<g id="node1" class="node"><title>Node1</title>
<polygon fill="#bfbfbf" stroke="black" points="0,-101 0,-229 116,-229 116,-101 0,-101"/>
<text text-anchor="middle" x="58" y="-216" font-family="Helvetica,sans-Serif" font-size="10.00">Storyline</text>
<polyline fill="none" stroke="black" points="0,-208 116,-208 "/>
<text text-anchor="start" x="8" y="-195" font-family="Helvetica,sans-Serif" font-size="10.00">+ Chapters</text>
<text text-anchor="start" x="8" y="-182" font-family="Helvetica,sans-Serif" font-size="10.00">+ CurrentChapter</text>
<text text-anchor="start" x="8" y="-169" font-family="Helvetica,sans-Serif" font-size="10.00">&#45; _currentChapterIndex</text>
<polyline fill="none" stroke="black" points="0,-161 116,-161 "/>
<text text-anchor="start" x="8" y="-148" font-family="Helvetica,sans-Serif" font-size="10.00">+ Start()</text>
<text text-anchor="start" x="8" y="-135" font-family="Helvetica,sans-Serif" font-size="10.00">+ NextChapter()</text>
<text text-anchor="start" x="8" y="-122" font-family="Helvetica,sans-Serif" font-size="10.00">+ End()</text>
<text text-anchor="start" x="8" y="-109" font-family="Helvetica,sans-Serif" font-size="10.00">+ CheckProgress()</text>
</g>
<!-- Node2 -->
<g id="node3" class="node"><title>Node2</title>
<a xlink:href="../../d0/d7c/class_action_rpg_kit_1_1_tests_1_1_story_1_1_game_storyline.xhtml" target="_top" xlink:title="{GameStoryline\n||+ GameStoryline()\l}">
<polygon fill="white" stroke="black" points="10,-0.5 10,-63.5 106,-63.5 106,-0.5 10,-0.5"/>
<text text-anchor="middle" x="58" y="-50.5" font-family="Helvetica,sans-Serif" font-size="10.00">GameStoryline</text>
<polyline fill="none" stroke="black" points="10,-42.5 106,-42.5 "/>
<text text-anchor="middle" x="58" y="-29.5" font-family="Helvetica,sans-Serif" font-size="10.00"> </text>
<polyline fill="none" stroke="black" points="10,-21.5 106,-21.5 "/>
<text text-anchor="start" x="18" y="-8.5" font-family="Helvetica,sans-Serif" font-size="10.00">+ GameStoryline()</text>
</a>
</g>
<!-- Node1&#45;&gt;Node2 -->
<g id="edge2" class="edge"><title>Node1&#45;&gt;Node2</title>
<path fill="none" stroke="midnightblue" d="M58,-90.5798C58,-81.1708 58,-71.9763 58,-63.7644"/>
<polygon fill="none" stroke="midnightblue" points="54.5001,-90.8374 58,-100.837 61.5001,-90.8375 54.5001,-90.8374"/>
</g>
</g>
</svg>
