<?xml version="1.0" encoding="UTF-8" standalone="no"?>
<!DOCTYPE svg PUBLIC "-//W3C//DTD SVG 1.1//EN"
 "http://www.w3.org/Graphics/SVG/1.1/DTD/svg11.dtd">
<!-- Generated by graphviz version 2.26.3 (20100126.1600)
 -->
<!-- Title: IAttribute Pages: 1 -->
<svg width="270pt" height="776pt"
 viewBox="0.00 0.00 270.00 776.00" xmlns="http://www.w3.org/2000/svg" xmlns:xlink="http://www.w3.org/1999/xlink">
<g id="graph1" class="graph" transform="scale(1 1) rotate(0) translate(4 772)">
<title>IAttribute</title>
<polygon fill="white" stroke="white" points="-4,5 -4,-772 267,-772 267,5 -4,5"/>
<!-- Node1 -->
<g id="node1" class="node"><title>Node1</title>
<polygon fill="#bfbfbf" stroke="black" points="75.5,-600.5 75.5,-767.5 178.5,-767.5 178.5,-600.5 75.5,-600.5"/>
<text text-anchor="middle" x="127" y="-754.5" font-family="Helvetica,sans-Serif" font-size="10.00">IAttribute</text>
<polyline fill="none" stroke="black" points="75.5,-746.5 178.5,-746.5 "/>
<text text-anchor="start" x="83.5" y="-733.5" font-family="Helvetica,sans-Serif" font-size="10.00">+ Name</text>
<text text-anchor="start" x="83.5" y="-720.5" font-family="Helvetica,sans-Serif" font-size="10.00">+ BaseValue</text>
<text text-anchor="start" x="83.5" y="-707.5" font-family="Helvetica,sans-Serif" font-size="10.00">+ Value</text>
<text text-anchor="start" x="83.5" y="-694.5" font-family="Helvetica,sans-Serif" font-size="10.00">+ MaxValue</text>
<text text-anchor="start" x="83.5" y="-681.5" font-family="Helvetica,sans-Serif" font-size="10.00">+ MinValue</text>
<text text-anchor="start" x="83.5" y="-668.5" font-family="Helvetica,sans-Serif" font-size="10.00">+ Modifiers</text>
<text text-anchor="start" x="83.5" y="-655.5" font-family="Helvetica,sans-Serif" font-size="10.00">+ IsModified</text>
<polyline fill="none" stroke="black" points="75.5,-647.5 178.5,-647.5 "/>
<text text-anchor="start" x="83.5" y="-634.5" font-family="Helvetica,sans-Serif" font-size="10.00">+ AddModifier()</text>
<text text-anchor="start" x="83.5" y="-621.5" font-family="Helvetica,sans-Serif" font-size="10.00">+ RemoveModifier()</text>
<text text-anchor="start" x="83.5" y="-608.5" font-family="Helvetica,sans-Serif" font-size="10.00">+ Reset()</text>
</g>
<!-- Node2 -->
<g id="node3" class="node"><title>Node2</title>
<a xlink:href="../../d5/ddc/class_action_rpg_kit_1_1_character_1_1_attribute_1_1_primary_attribute.xhtml" target="_top" xlink:title="Represents a simple float value. ">
<polygon fill="white" stroke="black" points="75.5,-292.5 75.5,-563.5 178.5,-563.5 178.5,-292.5 75.5,-292.5"/>
<text text-anchor="middle" x="127" y="-550.5" font-family="Helvetica,sans-Serif" font-size="10.00">PrimaryAttribute</text>
<polyline fill="none" stroke="black" points="75.5,-542.5 178.5,-542.5 "/>
<text text-anchor="start" x="83.5" y="-529.5" font-family="Helvetica,sans-Serif" font-size="10.00">+ Name</text>
<text text-anchor="start" x="83.5" y="-516.5" font-family="Helvetica,sans-Serif" font-size="10.00">+ BaseValue</text>
<text text-anchor="start" x="83.5" y="-503.5" font-family="Helvetica,sans-Serif" font-size="10.00">+ Value</text>
<text text-anchor="start" x="83.5" y="-490.5" font-family="Helvetica,sans-Serif" font-size="10.00">+ MaxValue</text>
<text text-anchor="start" x="83.5" y="-477.5" font-family="Helvetica,sans-Serif" font-size="10.00">+ MinValue</text>
<text text-anchor="start" x="83.5" y="-464.5" font-family="Helvetica,sans-Serif" font-size="10.00">+ Modifiers</text>
<text text-anchor="start" x="83.5" y="-451.5" font-family="Helvetica,sans-Serif" font-size="10.00">+ IsModified</text>
<text text-anchor="start" x="83.5" y="-438.5" font-family="Helvetica,sans-Serif" font-size="10.00">&#45; _name</text>
<text text-anchor="start" x="83.5" y="-425.5" font-family="Helvetica,sans-Serif" font-size="10.00">&#45; _value</text>
<text text-anchor="start" x="83.5" y="-412.5" font-family="Helvetica,sans-Serif" font-size="10.00">&#45; _minValue</text>
<text text-anchor="start" x="83.5" y="-399.5" font-family="Helvetica,sans-Serif" font-size="10.00">&#45; _maxValue</text>
<text text-anchor="start" x="83.5" y="-386.5" font-family="Helvetica,sans-Serif" font-size="10.00">&#45; _modifiers</text>
<polyline fill="none" stroke="black" points="75.5,-378.5 178.5,-378.5 "/>
<text text-anchor="start" x="83.5" y="-365.5" font-family="Helvetica,sans-Serif" font-size="10.00">+ PrimaryAttribute()</text>
<text text-anchor="start" x="83.5" y="-352.5" font-family="Helvetica,sans-Serif" font-size="10.00">+ PrimaryAttribute()</text>
<text text-anchor="start" x="83.5" y="-339.5" font-family="Helvetica,sans-Serif" font-size="10.00">+ AddModifier()</text>
<text text-anchor="start" x="83.5" y="-326.5" font-family="Helvetica,sans-Serif" font-size="10.00">+ RemoveModifier()</text>
<text text-anchor="start" x="83.5" y="-313.5" font-family="Helvetica,sans-Serif" font-size="10.00">+ ToString()</text>
<text text-anchor="start" x="83.5" y="-300.5" font-family="Helvetica,sans-Serif" font-size="10.00">+ Reset()</text>
</a>
</g>
<!-- Node1&#45;&gt;Node2 -->
<g id="edge2" class="edge"><title>Node1&#45;&gt;Node2</title>
<path fill="none" stroke="midnightblue" d="M127,-590.085C127,-581.391 127,-572.471 127,-563.502"/>
<polygon fill="none" stroke="midnightblue" points="123.5,-590.176 127,-600.176 130.5,-590.176 123.5,-590.176"/>
</g>
<!-- Node3 -->
<g id="node5" class="node"><title>Node3</title>
<a xlink:href="../../df/d43/class_action_rpg_kit_1_1_character_1_1_attribute_1_1_secondary_attribute.xhtml" target="_top" xlink:title="The Value is calculated through a given formula. ">
<polygon fill="white" stroke="black" points="-0.5,-140.5 -0.5,-255.5 114.5,-255.5 114.5,-140.5 -0.5,-140.5"/>
<text text-anchor="middle" x="57" y="-242.5" font-family="Helvetica,sans-Serif" font-size="10.00">SecondaryAttribute</text>
<polyline fill="none" stroke="black" points="-0.5,-234.5 114.5,-234.5 "/>
<text text-anchor="start" x="7.5" y="-221.5" font-family="Helvetica,sans-Serif" font-size="10.00">+ BaseValue</text>
<text text-anchor="start" x="7.5" y="-208.5" font-family="Helvetica,sans-Serif" font-size="10.00"># _formula</text>
<text text-anchor="start" x="7.5" y="-195.5" font-family="Helvetica,sans-Serif" font-size="10.00"># _attributes</text>
<polyline fill="none" stroke="black" points="-0.5,-187.5 114.5,-187.5 "/>
<text text-anchor="start" x="7.5" y="-174.5" font-family="Helvetica,sans-Serif" font-size="10.00">+ Formula()</text>
<text text-anchor="start" x="7.5" y="-161.5" font-family="Helvetica,sans-Serif" font-size="10.00">+ SecondaryAttribute()</text>
<text text-anchor="start" x="7.5" y="-148.5" font-family="Helvetica,sans-Serif" font-size="10.00">+ SecondaryAttribute()</text>
</a>
</g>
<!-- Node2&#45;&gt;Node3 -->
<g id="edge4" class="edge"><title>Node2&#45;&gt;Node3</title>
<path fill="none" stroke="midnightblue" d="M82.6993,-282.441C79.8722,-273.152 77.1324,-264.149 74.5613,-255.701"/>
<polygon fill="none" stroke="midnightblue" points="79.4136,-283.666 85.6737,-292.213 86.1103,-281.628 79.4136,-283.666"/>
</g>
<!-- Node5 -->
<g id="node9" class="node"><title>Node5</title>
<a xlink:href="../../db/d9c/class_action_rpg_kit_1_1_character_1_1_attribute_1_1_simple_volume_attribute.xhtml" target="_top" xlink:title="The base value is a simple float as opposed to a formula based. ">
<polygon fill="white" stroke="black" points="131.5,-147 131.5,-249 262.5,-249 262.5,-147 131.5,-147"/>
<text text-anchor="middle" x="197" y="-236" font-family="Helvetica,sans-Serif" font-size="10.00">SimpleVolumeAttribute</text>
<polyline fill="none" stroke="black" points="131.5,-228 262.5,-228 "/>
<text text-anchor="start" x="139.5" y="-215" font-family="Helvetica,sans-Serif" font-size="10.00">+ Value</text>
<text text-anchor="start" x="139.5" y="-202" font-family="Helvetica,sans-Serif" font-size="10.00">+ MaxValue</text>
<text text-anchor="start" x="139.5" y="-189" font-family="Helvetica,sans-Serif" font-size="10.00">&#45; _currentValue</text>
<text text-anchor="start" x="139.5" y="-176" font-family="Helvetica,sans-Serif" font-size="10.00">&#45; _absoluteMaxValue</text>
<polyline fill="none" stroke="black" points="131.5,-168 262.5,-168 "/>
<text text-anchor="start" x="139.5" y="-155" font-family="Helvetica,sans-Serif" font-size="10.00">+ SimpleVolumeAttribute()</text>
</a>
</g>
<!-- Node2&#45;&gt;Node5 -->
<g id="edge8" class="edge"><title>Node2&#45;&gt;Node5</title>
<path fill="none" stroke="midnightblue" d="M171.243,-282.629C174.847,-270.788 178.31,-259.41 181.464,-249.048"/>
<polygon fill="none" stroke="midnightblue" points="167.89,-281.628 168.326,-292.213 174.586,-283.666 167.89,-281.628"/>
</g>
<!-- Node4 -->
<g id="node7" class="node"><title>Node4</title>
<a xlink:href="../../d6/ddf/class_action_rpg_kit_1_1_character_1_1_attribute_1_1_volume_attribute.xhtml" target="_top" xlink:title="Represents a volume of something, e.g. magic, life. The base value is derived through a formula and s...">
<polygon fill="white" stroke="black" points="3,-1 3,-103 111,-103 111,-1 3,-1"/>
<text text-anchor="middle" x="57" y="-90" font-family="Helvetica,sans-Serif" font-size="10.00">VolumeAttribute</text>
<polyline fill="none" stroke="black" points="3,-82 111,-82 "/>
<text text-anchor="start" x="11" y="-69" font-family="Helvetica,sans-Serif" font-size="10.00">+ Value</text>
<text text-anchor="start" x="11" y="-56" font-family="Helvetica,sans-Serif" font-size="10.00">+ MaxValue</text>
<text text-anchor="start" x="11" y="-43" font-family="Helvetica,sans-Serif" font-size="10.00">&#45; _currentValue</text>
<text text-anchor="start" x="11" y="-30" font-family="Helvetica,sans-Serif" font-size="10.00">&#45; _absoluteMaxValue</text>
<polyline fill="none" stroke="black" points="3,-22 111,-22 "/>
<text text-anchor="start" x="11" y="-9" font-family="Helvetica,sans-Serif" font-size="10.00">+ VolumeAttribute()</text>
</a>
</g>
<!-- Node3&#45;&gt;Node4 -->
<g id="edge6" class="edge"><title>Node3&#45;&gt;Node4</title>
<path fill="none" stroke="midnightblue" d="M57,-130.122C57,-121.044 57,-111.86 57,-103.134"/>
<polygon fill="none" stroke="midnightblue" points="53.5001,-130.297 57,-140.297 60.5001,-130.297 53.5001,-130.297"/>
</g>
</g>
</svg>
