<?xml version="1.0" encoding="UTF-8" standalone="no"?>
<!DOCTYPE svg PUBLIC "-//W3C//DTD SVG 1.1//EN"
 "http://www.w3.org/Graphics/SVG/1.1/DTD/svg11.dtd">
<!-- Generated by graphviz version 2.26.3 (20100126.1600)
 -->
<!-- Title: Player Pages: 1 -->
<svg width="326pt" height="678pt"
 viewBox="0.00 0.00 326.00 678.00" xmlns="http://www.w3.org/2000/svg" xmlns:xlink="http://www.w3.org/1999/xlink">
<g id="graph1" class="graph" transform="scale(1 1) rotate(0) translate(4 674)">
<title>Player</title>
<polygon fill="white" stroke="white" points="-4,5 -4,-674 323,-674 323,5 -4,5"/>
<!-- Node1 -->
<g id="node1" class="node"><title>Node1</title>
<polygon fill="#bfbfbf" stroke="black" points="103.5,-1 103.5,-77 162.5,-77 162.5,-1 103.5,-1"/>
<text text-anchor="middle" x="133" y="-64" font-family="Helvetica,sans-Serif" font-size="10.00">Player</text>
<polyline fill="none" stroke="black" points="103.5,-56 162.5,-56 "/>
<text text-anchor="middle" x="133" y="-43" font-family="Helvetica,sans-Serif" font-size="10.00"> </text>
<polyline fill="none" stroke="black" points="103.5,-35 162.5,-35 "/>
<text text-anchor="start" x="111.5" y="-22" font-family="Helvetica,sans-Serif" font-size="10.00">+ Player()</text>
<text text-anchor="start" x="111.5" y="-9" font-family="Helvetica,sans-Serif" font-size="10.00">+ Player()</text>
</g>
<!-- Node2 -->
<g id="node2" class="node"><title>Node2</title>
<a xlink:href="../../d9/d5c/class_action_rpg_kit_1_1_character_1_1_base_character.xhtml" target="_top" xlink:title="Base implementation of a Character.">
<polygon fill="white" stroke="black" points="65.5,-115 65.5,-503 200.5,-503 200.5,-115 65.5,-115"/>
<text text-anchor="middle" x="133" y="-490" font-family="Helvetica,sans-Serif" font-size="10.00">BaseCharacter</text>
<polyline fill="none" stroke="black" points="65.5,-482 200.5,-482 "/>
<text text-anchor="start" x="73.5" y="-469" font-family="Helvetica,sans-Serif" font-size="10.00">+ Name</text>
<text text-anchor="start" x="73.5" y="-456" font-family="Helvetica,sans-Serif" font-size="10.00">+ Stats</text>
<text text-anchor="start" x="73.5" y="-443" font-family="Helvetica,sans-Serif" font-size="10.00">+ Magic</text>
<text text-anchor="start" x="73.5" y="-430" font-family="Helvetica,sans-Serif" font-size="10.00">+ MagicSkills</text>
<text text-anchor="start" x="73.5" y="-417" font-family="Helvetica,sans-Serif" font-size="10.00">+ Life</text>
<text text-anchor="start" x="73.5" y="-404" font-family="Helvetica,sans-Serif" font-size="10.00">+ Enemies</text>
<text text-anchor="start" x="73.5" y="-391" font-family="Helvetica,sans-Serif" font-size="10.00">+ CombatSkills</text>
<text text-anchor="start" x="73.5" y="-378" font-family="Helvetica,sans-Serif" font-size="10.00">&#45; _magicSkills</text>
<text text-anchor="start" x="73.5" y="-365" font-family="Helvetica,sans-Serif" font-size="10.00">&#45; _magicSkillEndTimes</text>
<text text-anchor="start" x="73.5" y="-352" font-family="Helvetica,sans-Serif" font-size="10.00">&#45; _enemies</text>
<text text-anchor="start" x="73.5" y="-339" font-family="Helvetica,sans-Serif" font-size="10.00">&#45; _combatSkills</text>
<text text-anchor="start" x="73.5" y="-326" font-family="Helvetica,sans-Serif" font-size="10.00">&#45; _combatSkillEndTimes</text>
<polyline fill="none" stroke="black" points="65.5,-318 200.5,-318 "/>
<text text-anchor="start" x="73.5" y="-305" font-family="Helvetica,sans-Serif" font-size="10.00">+ BaseCharacter()</text>
<text text-anchor="start" x="73.5" y="-292" font-family="Helvetica,sans-Serif" font-size="10.00">+ BaseCharacter()</text>
<text text-anchor="start" x="73.5" y="-279" font-family="Helvetica,sans-Serif" font-size="10.00">+ ToString()</text>
<text text-anchor="start" x="73.5" y="-266" font-family="Helvetica,sans-Serif" font-size="10.00">+ LearnMagicSkill()</text>
<text text-anchor="start" x="73.5" y="-253" font-family="Helvetica,sans-Serif" font-size="10.00">+ TriggerMagicSkill()</text>
<text text-anchor="start" x="73.5" y="-240" font-family="Helvetica,sans-Serif" font-size="10.00">+ PreUseCountdown()</text>
<text text-anchor="start" x="73.5" y="-227" font-family="Helvetica,sans-Serif" font-size="10.00">+ AddEnemy()</text>
<text text-anchor="start" x="73.5" y="-214" font-family="Helvetica,sans-Serif" font-size="10.00">+ LearnCombatSkill()</text>
<text text-anchor="start" x="73.5" y="-201" font-family="Helvetica,sans-Serif" font-size="10.00">+ TriggerCombatSkill()</text>
<text text-anchor="start" x="73.5" y="-188" font-family="Helvetica,sans-Serif" font-size="10.00">+ PreUseCountdown()</text>
<text text-anchor="start" x="73.5" y="-175" font-family="Helvetica,sans-Serif" font-size="10.00">+ OnAttacked()</text>
<text text-anchor="start" x="73.5" y="-162" font-family="Helvetica,sans-Serif" font-size="10.00">&#45; UseMagicSkill()</text>
<text text-anchor="start" x="73.5" y="-149" font-family="Helvetica,sans-Serif" font-size="10.00">&#45; MagicSkillCanBeUsed()</text>
<text text-anchor="start" x="73.5" y="-136" font-family="Helvetica,sans-Serif" font-size="10.00">&#45; UseCombatSkill()</text>
<text text-anchor="start" x="73.5" y="-123" font-family="Helvetica,sans-Serif" font-size="10.00">&#45; CombatSkillCanBeUsed()</text>
</a>
</g>
<!-- Node2&#45;&gt;Node1 -->
<g id="edge2" class="edge"><title>Node2&#45;&gt;Node1</title>
<path fill="none" stroke="midnightblue" d="M133,-104.698C133,-94.6879 133,-85.3751 133,-77.0917"/>
<polygon fill="none" stroke="midnightblue" points="129.5,-104.929 133,-114.929 136.5,-104.929 129.5,-104.929"/>
</g>
<!-- Node3 -->
<g id="node4" class="node"><title>Node3</title>
<a xlink:href="../../d2/df8/interface_action_rpg_kit_1_1_character_1_1_i_character.xhtml" target="_top" xlink:title="Characters populate the game world. They are defined by Stats.">
<polygon fill="white" stroke="black" points="0,-567 0,-643 62,-643 62,-567 0,-567"/>
<text text-anchor="middle" x="31" y="-630" font-family="Helvetica,sans-Serif" font-size="10.00">ICharacter</text>
<polyline fill="none" stroke="black" points="0,-622 62,-622 "/>
<text text-anchor="start" x="8" y="-609" font-family="Helvetica,sans-Serif" font-size="10.00">+ Name</text>
<text text-anchor="start" x="8" y="-596" font-family="Helvetica,sans-Serif" font-size="10.00">+ Stats</text>
<polyline fill="none" stroke="black" points="0,-588 62,-588 "/>
<text text-anchor="middle" x="31" y="-575" font-family="Helvetica,sans-Serif" font-size="10.00"> </text>
</a>
</g>
<!-- Node3&#45;&gt;Node2 -->
<g id="edge4" class="edge"><title>Node3&#45;&gt;Node2</title>
<path fill="none" stroke="midnightblue" d="M47.5252,-557.044C52.9187,-541.393 59.2795,-522.934 66.058,-503.263"/>
<polygon fill="none" stroke="midnightblue" points="44.0749,-556.314 44.1259,-566.909 50.6929,-558.595 44.0749,-556.314"/>
</g>
<!-- Node4 -->
<g id="node6" class="node"><title>Node4</title>
<a xlink:href="../../dd/db0/interface_action_rpg_kit_1_1_character_1_1_i_magic_user.xhtml" target="_top" xlink:title="Character can use Magic.">
<polygon fill="white" stroke="black" points="79.5,-567 79.5,-643 186.5,-643 186.5,-567 79.5,-567"/>
<text text-anchor="middle" x="133" y="-630" font-family="Helvetica,sans-Serif" font-size="10.00">IMagicUser</text>
<polyline fill="none" stroke="black" points="79.5,-622 186.5,-622 "/>
<text text-anchor="start" x="87.5" y="-609" font-family="Helvetica,sans-Serif" font-size="10.00">+ MagicSkills</text>
<polyline fill="none" stroke="black" points="79.5,-601 186.5,-601 "/>
<text text-anchor="start" x="87.5" y="-588" font-family="Helvetica,sans-Serif" font-size="10.00">+ LearnMagicSkill()</text>
<text text-anchor="start" x="87.5" y="-575" font-family="Helvetica,sans-Serif" font-size="10.00">+ TriggerMagicSkill()</text>
</a>
</g>
<!-- Node4&#45;&gt;Node2 -->
<g id="edge6" class="edge"><title>Node4&#45;&gt;Node2</title>
<path fill="none" stroke="midnightblue" d="M133,-556.597C133,-541.041 133,-522.747 133,-503.263"/>
<polygon fill="none" stroke="midnightblue" points="129.5,-556.909 133,-566.909 136.5,-556.909 129.5,-556.909"/>
</g>
<!-- Node5 -->
<g id="node8" class="node"><title>Node5</title>
<a xlink:href="../../df/d5e/interface_action_rpg_kit_1_1_character_1_1_i_fighter.xhtml" target="_top" xlink:title="Character can fight.">
<polygon fill="white" stroke="black" points="203.5,-541 203.5,-669 318.5,-669 318.5,-541 203.5,-541"/>
<text text-anchor="middle" x="261" y="-656" font-family="Helvetica,sans-Serif" font-size="10.00">IFighter</text>
<polyline fill="none" stroke="black" points="203.5,-648 318.5,-648 "/>
<text text-anchor="start" x="211.5" y="-635" font-family="Helvetica,sans-Serif" font-size="10.00">+ Life</text>
<text text-anchor="start" x="211.5" y="-622" font-family="Helvetica,sans-Serif" font-size="10.00">+ Enemies</text>
<text text-anchor="start" x="211.5" y="-609" font-family="Helvetica,sans-Serif" font-size="10.00">+ CombatSkills</text>
<polyline fill="none" stroke="black" points="203.5,-601 318.5,-601 "/>
<text text-anchor="start" x="211.5" y="-588" font-family="Helvetica,sans-Serif" font-size="10.00">+ AddEnemy()</text>
<text text-anchor="start" x="211.5" y="-575" font-family="Helvetica,sans-Serif" font-size="10.00">+ LearnCombatSkill()</text>
<text text-anchor="start" x="211.5" y="-562" font-family="Helvetica,sans-Serif" font-size="10.00">+ TriggerCombatSkill()</text>
<text text-anchor="start" x="211.5" y="-549" font-family="Helvetica,sans-Serif" font-size="10.00">+ OnAttacked()</text>
</a>
</g>
<!-- Node5&#45;&gt;Node2 -->
<g id="edge8" class="edge"><title>Node5&#45;&gt;Node2</title>
<path fill="none" stroke="midnightblue" d="M229.14,-531.324C220.36,-511.02 210.49,-488.196 200.506,-465.108"/>
<polygon fill="none" stroke="midnightblue" points="226.044,-532.983 233.226,-540.772 232.469,-530.205 226.044,-532.983"/>
</g>
</g>
</svg>
