<?xml version="1.0" encoding="UTF-8" standalone="no"?>
<!DOCTYPE svg PUBLIC "-//W3C//DTD SVG 1.1//EN"
 "http://www.w3.org/Graphics/SVG/1.1/DTD/svg11.dtd">
<!-- Generated by graphviz version 2.26.3 (20100126.1600)
 -->
<!-- Title: ISkill Pages: 1 -->
<!--zoomable 494 -->
<svg id="main" version="1.1" xmlns="http://www.w3.org/2000/svg" xmlns:xlink="http://www.w3.org/1999/xlink" xml:space="preserve" onload="init(evt)">
<style type="text/css"><![CDATA[
.edge:hover path { stroke: red; }
.edge:hover polygon { stroke: red; fill: red; }
]]></style>
<script type="text/javascript"><![CDATA[
var edges = document.getElementsByTagName('g');
if (edges && edges.length) {
  for (var i=0;i<edges.length;i++) {
    if (edges[i].id.substr(0,4)=='edge') {
      edges[i].setAttribute('class','edge');
    }
  }
}
]]></script>
        <defs>
                <circle id="rim" cx="0" cy="0" r="7"/>
                <circle id="rim2" cx="0" cy="0" r="3.5"/>
                <g id="zoomPlus">
                        <use xlink:href="#rim" fill="#404040">
                                <set attributeName="fill" to="#808080" begin="zoomplus.mouseover" end="zoomplus.mouseout"/>
                        </use>
                        <path d="M-4,0h8M0,-4v8" fill="none" stroke="white" stroke-width="1.5" pointer-events="none"/>
                </g>
                <g id="zoomMin">
                        <use xlink:href="#rim" fill="#404040">
                                <set attributeName="fill" to="#808080" begin="zoomminus.mouseover" end="zoomminus.mouseout"/>
                        </use>
                        <path d="M-4,0h8" fill="none" stroke="white" stroke-width="1.5" pointer-events="none"/>
                </g>
                <g id="dirArrow">
                        <path fill="none" stroke="white" stroke-width="1.5" d="M0,-3.0v7 M-2.5,-0.5L0,-3.0L2.5,-0.5"/>
                </g>
               <g id="resetDef">
                       <use xlink:href="#rim2" fill="#404040">
                               <set attributeName="fill" to="#808080" begin="reset.mouseover" end="reset.mouseout"/>
                       </use>
               </g>
        </defs>

<script type="text/javascript">
var viewWidth = 311;
var viewHeight = 494;
var sectionId = 'dynsection-0';
</script>
<script xlink:href="../../svgpan.js"/>
<svg id="graph" class="graph">
<g id="viewport">
<title>ISkill</title>
<polygon fill="white" stroke="white" points="-4,5 -4,-490 308,-490 308,5 -4,5"/>
<!-- Node1 -->
<g id="node1" class="node"><title>Node1</title>
<polygon fill="#bfbfbf" stroke="black" points="117.5,-370.5 117.5,-485.5 208.5,-485.5 208.5,-370.5 117.5,-370.5"/>
<text text-anchor="middle" x="163" y="-472.5" font-family="Helvetica,sans-Serif" font-size="10.00">ISkill</text>
<polyline fill="none" stroke="black" points="117.5,-464.5 208.5,-464.5 "/>
<text text-anchor="start" x="125.5" y="-451.5" font-family="Helvetica,sans-Serif" font-size="10.00">+ Id</text>
<text text-anchor="start" x="125.5" y="-438.5" font-family="Helvetica,sans-Serif" font-size="10.00">+ Name</text>
<text text-anchor="start" x="125.5" y="-425.5" font-family="Helvetica,sans-Serif" font-size="10.00">+ Description</text>
<text text-anchor="start" x="125.5" y="-412.5" font-family="Helvetica,sans-Serif" font-size="10.00">+ PreUseTime</text>
<text text-anchor="start" x="125.5" y="-399.5" font-family="Helvetica,sans-Serif" font-size="10.00">+ CooldownTime</text>
<polyline fill="none" stroke="black" points="117.5,-391.5 208.5,-391.5 "/>
<text text-anchor="start" x="125.5" y="-378.5" font-family="Helvetica,sans-Serif" font-size="10.00">+ Match()</text>
</g>
<!-- Node2 -->
<g id="node3" class="node"><title>Node2</title>
<a xlink:href="../../dc/db7/class_action_rpg_kit_1_1_character_1_1_skill_1_1_base_skill.xhtml" target="_top" xlink:title="A basic Skill implementation.">
<polygon fill="white" stroke="black" points="117.5,-205 117.5,-333 208.5,-333 208.5,-205 117.5,-205"/>
<text text-anchor="middle" x="163" y="-320" font-family="Helvetica,sans-Serif" font-size="10.00">BaseSkill</text>
<polyline fill="none" stroke="black" points="117.5,-312 208.5,-312 "/>
<text text-anchor="start" x="125.5" y="-299" font-family="Helvetica,sans-Serif" font-size="10.00">+ Id</text>
<text text-anchor="start" x="125.5" y="-286" font-family="Helvetica,sans-Serif" font-size="10.00">+ Name</text>
<text text-anchor="start" x="125.5" y="-273" font-family="Helvetica,sans-Serif" font-size="10.00">+ Description</text>
<text text-anchor="start" x="125.5" y="-260" font-family="Helvetica,sans-Serif" font-size="10.00">+ CooldownTime</text>
<text text-anchor="start" x="125.5" y="-247" font-family="Helvetica,sans-Serif" font-size="10.00">+ PreUseTime</text>
<polyline fill="none" stroke="black" points="117.5,-239 208.5,-239 "/>
<text text-anchor="start" x="125.5" y="-226" font-family="Helvetica,sans-Serif" font-size="10.00">+ BaseSkill()</text>
<text text-anchor="start" x="125.5" y="-213" font-family="Helvetica,sans-Serif" font-size="10.00">+ Match()</text>
</a>
</g>
<!-- Node1&#45;&gt;Node2 -->
<g id="edge2" class="edge"><title>Node1&#45;&gt;Node2</title>
<path fill="none" stroke="midnightblue" d="M163,-359.892C163,-351.057 163,-342.031 163,-333.262"/>
<polygon fill="none" stroke="midnightblue" points="159.5,-360.148 163,-370.148 166.5,-360.148 159.5,-360.148"/>
</g>
<!-- Node5 -->
<g id="node9" class="node"><title>Node5</title>
<a xlink:href="../../d4/dbe/interface_action_rpg_kit_1_1_character_1_1_skill_1_1_i_combat_skill.xhtml" target="_top" xlink:title="A Skill to be used as an Attack in Combat.">
<polygon fill="white" stroke="black" points="-0.5,-231 -0.5,-307 100.5,-307 100.5,-231 -0.5,-231"/>
<text text-anchor="middle" x="50" y="-294" font-family="Helvetica,sans-Serif" font-size="10.00">ICombatSkill</text>
<polyline fill="none" stroke="black" points="-0.5,-286 100.5,-286 "/>
<text text-anchor="start" x="7.5" y="-273" font-family="Helvetica,sans-Serif" font-size="10.00">+ Damage</text>
<text text-anchor="start" x="7.5" y="-260" font-family="Helvetica,sans-Serif" font-size="10.00">+ MaximumTargets</text>
<polyline fill="none" stroke="black" points="-0.5,-252 100.5,-252 "/>
<text text-anchor="start" x="7.5" y="-239" font-family="Helvetica,sans-Serif" font-size="10.00">+ Use()</text>
</a>
</g>
<!-- Node1&#45;&gt;Node5 -->
<g id="edge8" class="edge"><title>Node1&#45;&gt;Node5</title>
<path fill="none" stroke="midnightblue" d="M116.058,-361.949C102.805,-343.301 88.8293,-323.636 77.1629,-307.22"/>
<polygon fill="none" stroke="midnightblue" points="113.239,-364.024 121.885,-370.148 118.945,-359.969 113.239,-364.024"/>
</g>
<!-- Node6 -->
<g id="node12" class="node"><title>Node6</title>
<a xlink:href="../../d7/dd4/interface_action_rpg_kit_1_1_character_1_1_skill_1_1_i_magic_skill.xhtml" target="_top" xlink:title="A magic Skill costs magic energy on each use.">
<polygon fill="white" stroke="black" points="225.5,-237.5 225.5,-300.5 290.5,-300.5 290.5,-237.5 225.5,-237.5"/>
<text text-anchor="middle" x="258" y="-287.5" font-family="Helvetica,sans-Serif" font-size="10.00">IMagicSkill</text>
<polyline fill="none" stroke="black" points="225.5,-279.5 290.5,-279.5 "/>
<text text-anchor="start" x="233.5" y="-266.5" font-family="Helvetica,sans-Serif" font-size="10.00">+ Cost</text>
<polyline fill="none" stroke="black" points="225.5,-258.5 290.5,-258.5 "/>
<text text-anchor="start" x="233.5" y="-245.5" font-family="Helvetica,sans-Serif" font-size="10.00">+ Use()</text>
</a>
</g>
<!-- Node1&#45;&gt;Node6 -->
<g id="edge12" class="edge"><title>Node1&#45;&gt;Node6</title>
<path fill="none" stroke="midnightblue" d="M202.716,-361.528C215.302,-340.463 228.637,-318.144 239.057,-300.705"/>
<polygon fill="none" stroke="midnightblue" points="199.69,-359.768 197.566,-370.148 205.7,-363.358 199.69,-359.768"/>
</g>
<!-- Node3 -->
<g id="node5" class="node"><title>Node3</title>
<a xlink:href="../../d4/d60/class_action_rpg_kit_1_1_character_1_1_skill_1_1_melee_skill.xhtml" target="_top" xlink:title="Allows to attack with a melee weapon.">
<polygon fill="white" stroke="black" points="18.5,-26.5 18.5,-141.5 119.5,-141.5 119.5,-26.5 18.5,-26.5"/>
<text text-anchor="middle" x="69" y="-128.5" font-family="Helvetica,sans-Serif" font-size="10.00">MeleeSkill</text>
<polyline fill="none" stroke="black" points="18.5,-120.5 119.5,-120.5 "/>
<text text-anchor="start" x="26.5" y="-107.5" font-family="Helvetica,sans-Serif" font-size="10.00">+ Damage</text>
<text text-anchor="start" x="26.5" y="-94.5" font-family="Helvetica,sans-Serif" font-size="10.00">+ MaximumTargets</text>
<polyline fill="none" stroke="black" points="18.5,-86.5 119.5,-86.5 "/>
<text text-anchor="start" x="26.5" y="-73.5" font-family="Helvetica,sans-Serif" font-size="10.00">+ MeleeSkill()</text>
<text text-anchor="start" x="26.5" y="-60.5" font-family="Helvetica,sans-Serif" font-size="10.00">+ ToString()</text>
<text text-anchor="start" x="26.5" y="-47.5" font-family="Helvetica,sans-Serif" font-size="10.00">+ Match()</text>
<text text-anchor="start" x="26.5" y="-34.5" font-family="Helvetica,sans-Serif" font-size="10.00">+ Use()</text>
</a>
</g>
<!-- Node2&#45;&gt;Node3 -->
<g id="edge4" class="edge"><title>Node2&#45;&gt;Node3</title>
<path fill="none" stroke="midnightblue" d="M125.674,-195.539C116.557,-177.596 106.933,-158.655 98.2545,-141.575"/>
<polygon fill="none" stroke="midnightblue" points="122.737,-197.485 130.387,-204.815 128.978,-194.315 122.737,-197.485"/>
</g>
<!-- Node4 -->
<g id="node7" class="node"><title>Node4</title>
<a xlink:href="../../dc/dac/class_action_rpg_kit_1_1_character_1_1_skill_1_1_passive_magic_skill.xhtml" target="_top" xlink:title="A passive MagicSkill adds buffs on the User itself.">
<polygon fill="white" stroke="black" points="175,-0.5 175,-167.5 303,-167.5 303,-0.5 175,-0.5"/>
<text text-anchor="middle" x="239" y="-154.5" font-family="Helvetica,sans-Serif" font-size="10.00">PassiveMagicSkill</text>
<polyline fill="none" stroke="black" points="175,-146.5 303,-146.5 "/>
<text text-anchor="start" x="183" y="-133.5" font-family="Helvetica,sans-Serif" font-size="10.00">+ Cost</text>
<text text-anchor="start" x="183" y="-120.5" font-family="Helvetica,sans-Serif" font-size="10.00">&#45; _duration</text>
<text text-anchor="start" x="183" y="-107.5" font-family="Helvetica,sans-Serif" font-size="10.00">&#45; _endTime</text>
<text text-anchor="start" x="183" y="-94.5" font-family="Helvetica,sans-Serif" font-size="10.00">&#45; _modifierValue</text>
<text text-anchor="start" x="183" y="-81.5" font-family="Helvetica,sans-Serif" font-size="10.00">&#45; _modifiedAttributeName</text>
<polyline fill="none" stroke="black" points="175,-73.5 303,-73.5 "/>
<text text-anchor="start" x="183" y="-60.5" font-family="Helvetica,sans-Serif" font-size="10.00">+ PassiveMagicSkill()</text>
<text text-anchor="start" x="183" y="-47.5" font-family="Helvetica,sans-Serif" font-size="10.00">+ ToString()</text>
<text text-anchor="start" x="183" y="-34.5" font-family="Helvetica,sans-Serif" font-size="10.00">+ Match()</text>
<text text-anchor="start" x="183" y="-21.5" font-family="Helvetica,sans-Serif" font-size="10.00">+ Use()</text>
<text text-anchor="start" x="183" y="-8.5" font-family="Helvetica,sans-Serif" font-size="10.00">&#45; GetModifier()</text>
</a>
</g>
<!-- Node2&#45;&gt;Node4 -->
<g id="edge6" class="edge"><title>Node2&#45;&gt;Node4</title>
<path fill="none" stroke="midnightblue" d="M193.232,-195.408C196.983,-186.277 200.84,-176.889 204.648,-167.621"/>
<polygon fill="none" stroke="midnightblue" points="189.93,-194.235 189.368,-204.815 196.405,-196.895 189.93,-194.235"/>
</g>
<!-- Node5&#45;&gt;Node3 -->
<g id="edge10" class="edge"><title>Node5&#45;&gt;Node3</title>
<path fill="none" stroke="midnightblue" d="M54.966,-220.647C57.4513,-196.448 60.4774,-166.983 63.0825,-141.618"/>
<polygon fill="none" stroke="midnightblue" points="51.4769,-220.363 53.9368,-230.668 58.4402,-221.078 51.4769,-220.363"/>
</g>
<!-- Node6&#45;&gt;Node4 -->
<g id="edge14" class="edge"><title>Node6&#45;&gt;Node4</title>
<path fill="none" stroke="midnightblue" d="M253.663,-226.771C251.864,-209.25 249.709,-188.273 247.613,-167.863"/>
<polygon fill="none" stroke="midnightblue" points="250.23,-227.607 254.734,-237.197 257.194,-226.892 250.23,-227.607"/>
</g>
</g>
</svg>
        <g id="navigator" transform="translate(0 0)" fill="#404254">
                <rect fill="#f2f5e9" fill-opacity="0.5" stroke="#606060" stroke-width=".5" x="0" y="0" width="60" height="60"/>
                <use id="zoomplus" xlink:href="#zoomPlus" x="17" y="9" onmousedown="handleZoom(evt,'in')"/>
                <use id="zoomminus" xlink:href="#zoomMin" x="42" y="9" onmousedown="handleZoom(evt,'out')"/>
                <use id="reset" xlink:href="#resetDef" x="30" y="36" onmousedown="handleReset()"/>
                <g id="arrowUp" xlink:href="#dirArrow" transform="translate(30 24)" onmousedown="handlePan(0,-1)">
                  <use xlink:href="#rim" fill="#404040">
                        <set attributeName="fill" to="#808080" begin="arrowUp.mouseover" end="arrowUp.mouseout"/>
                  </use>
                  <path fill="none" stroke="white" stroke-width="1.5" d="M0,-3.0v7 M-2.5,-0.5L0,-3.0L2.5,-0.5"/>
                </g>
                <g id="arrowRight" xlink:href="#dirArrow" transform="rotate(90) translate(36 -43)" onmousedown="handlePan(1,0)">
                  <use xlink:href="#rim" fill="#404040">
                        <set attributeName="fill" to="#808080" begin="arrowRight.mouseover" end="arrowRight.mouseout"/>
                  </use>
                  <path fill="none" stroke="white" stroke-width="1.5" d="M0,-3.0v7 M-2.5,-0.5L0,-3.0L2.5,-0.5"/>
                </g>
                <g id="arrowDown" xlink:href="#dirArrow" transform="rotate(180) translate(-30 -48)" onmousedown="handlePan(0,1)">
                  <use xlink:href="#rim" fill="#404040">
                        <set attributeName="fill" to="#808080" begin="arrowDown.mouseover" end="arrowDown.mouseout"/>
                  </use>
                  <path fill="none" stroke="white" stroke-width="1.5" d="M0,-3.0v7 M-2.5,-0.5L0,-3.0L2.5,-0.5"/>
                </g>
                <g id="arrowLeft" xlink:href="#dirArrow" transform="rotate(270) translate(-36 17)" onmousedown="handlePan(-1,0)">
                  <use xlink:href="#rim" fill="#404040">
                        <set attributeName="fill" to="#808080" begin="arrowLeft.mouseover" end="arrowLeft.mouseout"/>
                  </use>
                  <path fill="none" stroke="white" stroke-width="1.5" d="M0,-3.0v7 M-2.5,-0.5L0,-3.0L2.5,-0.5"/>
                </g>
        </g>
        <svg viewBox="0 0 15 15" width="100%" height="30px" preserveAspectRatio="xMaxYMin meet">
         <g id="arrow_out" transform="scale(0.3 0.3)">
          <a xlink:href="interface_action_rpg_kit_1_1_character_1_1_skill_1_1_i_skill__inherit__graph_org.svg" target="_base">
           <rect id="button" ry="5" rx="5" y="6" x="6" height="38" width="38"
                fill="#f2f5e9" fill-opacity="0.5" stroke="#606060" stroke-width="1.0"/>
           <path id="arrow"
             d="M 11.500037,31.436501 C 11.940474,20.09759 22.043105,11.32322 32.158766,21.979434 L 37.068811,17.246167 C 37.068811,17.246167 37.088388,32 37.088388,32 L 22.160133,31.978069 C 22.160133,31.978069 26.997745,27.140456 26.997745,27.140456 C 18.528582,18.264221 13.291696,25.230495 11.500037,31.436501 z"
             style="fill:#404040;"/>
          </a>
         </g>
        </svg>
</svg>
