<?xml version="1.0" encoding="UTF-8" standalone="no"?>
<!DOCTYPE svg PUBLIC "-//W3C//DTD SVG 1.1//EN"
 "http://www.w3.org/Graphics/SVG/1.1/DTD/svg11.dtd">
<!-- Generated by graphviz version 2.26.3 (20100126.1600)
 -->
<!-- Title: G Pages: 1 -->
<svg width="92pt" height="186pt"
 viewBox="0.00 0.00 92.00 186.00" xmlns="http://www.w3.org/2000/svg" xmlns:xlink="http://www.w3.org/1999/xlink">
<g id="graph1" class="graph" transform="scale(1 1) rotate(0) translate(4 182)">
<title>G</title>
<polygon fill="white" stroke="white" points="-4,5 -4,-182 89,-182 89,5 -4,5"/>
<!-- Node1 -->
<g id="node1" class="node"><title>Node1</title>
<polygon fill="#bfbfbf" stroke="black" points="-0.5,-1 -0.5,-77 84.5,-77 84.5,-1 -0.5,-1"/>
<text text-anchor="middle" x="42" y="-64" font-family="Helvetica,sans-Serif" font-size="10.00">PlayerInventory</text>
<polyline fill="none" stroke="black" points="-0.5,-56 84.5,-56 "/>
<text text-anchor="start" x="7.5" y="-43" font-family="Helvetica,sans-Serif" font-size="10.00">+ Items</text>
<text text-anchor="start" x="7.5" y="-30" font-family="Helvetica,sans-Serif" font-size="10.00">&#45; _items</text>
<polyline fill="none" stroke="black" points="-0.5,-22 84.5,-22 "/>
<text text-anchor="middle" x="42" y="-9" font-family="Helvetica,sans-Serif" font-size="10.00"> </text>
</g>
<!-- Node2 -->
<g id="node2" class="node"><title>Node2</title>
<a xlink:href="../../d4/d07/interface_action_rpg_kit_1_1_character_1_1_i_inventory.xhtml" target="_top" xlink:title="An inventory holds Items.">
<polygon fill="white" stroke="black" points="12,-114.5 12,-177.5 72,-177.5 72,-114.5 12,-114.5"/>
<text text-anchor="middle" x="42" y="-164.5" font-family="Helvetica,sans-Serif" font-size="10.00">IInventory</text>
<polyline fill="none" stroke="black" points="12,-156.5 72,-156.5 "/>
<text text-anchor="start" x="20" y="-143.5" font-family="Helvetica,sans-Serif" font-size="10.00">+ Items</text>
<polyline fill="none" stroke="black" points="12,-135.5 72,-135.5 "/>
<text text-anchor="middle" x="42" y="-122.5" font-family="Helvetica,sans-Serif" font-size="10.00"> </text>
</a>
</g>
<!-- Node2&#45;&gt;Node1 -->
<g id="edge2" class="edge"><title>Node2&#45;&gt;Node1</title>
<path fill="none" stroke="midnightblue" d="M42,-104.253C42,-95.3105 42,-85.907 42,-77.1103"/>
<polygon fill="none" stroke="midnightblue" points="38.5001,-104.475 42,-114.475 45.5001,-104.475 38.5001,-104.475"/>
</g>
</g>
</svg>
