<?xml version="1.0" encoding="UTF-8" standalone="no"?>
<!DOCTYPE svg PUBLIC "-//W3C//DTD SVG 1.1//EN"
 "http://www.w3.org/Graphics/SVG/1.1/DTD/svg11.dtd">
<!-- Generated by graphviz version 2.38.0 (20140413.2041)
 -->
<!-- Title: PreUseCountdown Pages: 1 -->
<svg width="381pt" height="28pt"
 viewBox="0.00 0.00 381.00 28.00" xmlns="http://www.w3.org/2000/svg" xmlns:xlink="http://www.w3.org/1999/xlink">
<g id="graph0" class="graph" transform="scale(1 1) rotate(0) translate(4 24)">
<title>PreUseCountdown</title>
<polygon fill="white" stroke="none" points="-4,4 -4,-24 377,-24 377,4 -4,4"/>
<!-- Node1 -->
<g id="node1" class="node"><title>Node1</title>
<polygon fill="#bfbfbf" stroke="black" points="0,-0.5 0,-19.5 97,-19.5 97,-0.5 0,-0.5"/>
<text text-anchor="middle" x="48.5" y="-7.5" font-family="Helvetica,sans-Serif" font-size="10.00">PreUseCountdown</text>
</g>
<!-- Node2 -->
<g id="node2" class="node"><title>Node2</title>
<g id="a_node2"><a xlink:href="../../d0/dd4/class_character_1_1_base_character.xhtml#a3600fb9e5435e3769e23d2d6774a223c" target="_top" xlink:title="Triggers the use of the Skill">
<polygon fill="white" stroke="black" points="133,-0.5 133,-19.5 212,-19.5 212,-0.5 133,-0.5"/>
<text text-anchor="middle" x="172.5" y="-7.5" font-family="Helvetica,sans-Serif" font-size="10.00">UseMagicSkill</text>
</a>
</g>
</g>
<!-- Node1&#45;&gt;Node2 -->
<g id="edge1" class="edge"><title>Node1&#45;&gt;Node2</title>
<path fill="none" stroke="midnightblue" d="M97.0177,-10C105.484,-10 114.316,-10 122.815,-10"/>
<polygon fill="midnightblue" stroke="midnightblue" points="122.969,-13.5001 132.969,-10 122.969,-6.5001 122.969,-13.5001"/>
</g>
<!-- Node3 -->
<g id="node3" class="node"><title>Node3</title>
<g id="a_node3"><a xlink:href="../../de/df3/interface_character_1_1_skill_1_1_i_skill.xhtml#a7a08b6338032d47a2bd9b46a79ee9d32" target="_top" xlink:title="The Skill is used and takes effect.">
<polygon fill="white" stroke="black" points="248,-0.5 248,-19.5 373,-19.5 373,-0.5 248,-0.5"/>
<text text-anchor="middle" x="310.5" y="-7.5" font-family="Helvetica,sans-Serif" font-size="10.00">Character.Skill.ISkill.Use</text>
</a>
</g>
</g>
<!-- Node2&#45;&gt;Node3 -->
<g id="edge2" class="edge"><title>Node2&#45;&gt;Node3</title>
<path fill="none" stroke="midnightblue" d="M212.108,-10C220.21,-10 229.002,-10 237.876,-10"/>
<polygon fill="midnightblue" stroke="midnightblue" points="237.898,-13.5001 247.898,-10 237.898,-6.5001 237.898,-13.5001"/>
</g>
</g>
</svg>
