<?xml version="1.0" encoding="UTF-8" standalone="no"?>
<!DOCTYPE svg PUBLIC "-//W3C//DTD SVG 1.1//EN"
 "http://www.w3.org/Graphics/SVG/1.1/DTD/svg11.dtd">
<!-- Generated by graphviz version 2.38.0 (20140413.2041)
 -->
<!-- Title: TriggerMagicSkill Pages: 1 -->
<svg width="524pt" height="66pt"
 viewBox="0.00 0.00 524.00 66.00" xmlns="http://www.w3.org/2000/svg" xmlns:xlink="http://www.w3.org/1999/xlink">
<g id="graph0" class="graph" transform="scale(1 1) rotate(0) translate(4 62)">
<title>TriggerMagicSkill</title>
<polygon fill="white" stroke="none" points="-4,4 -4,-62 520,-62 520,4 -4,4"/>
<!-- Node1 -->
<g id="node1" class="node"><title>Node1</title>
<polygon fill="#bfbfbf" stroke="black" points="0,-19.5 0,-38.5 91,-38.5 91,-19.5 0,-19.5"/>
<text text-anchor="middle" x="45.5" y="-26.5" font-family="Helvetica,sans-Serif" font-size="10.00">TriggerMagicSkill</text>
</g>
<!-- Node2 -->
<g id="node2" class="node"><title>Node2</title>
<g id="a_node2"><a xlink:href="../../d0/dd4/class_character_1_1_base_character.xhtml#a6ca26c67610944d71599b84699b5a561" target="_top" xlink:title="Check if the character knows the magic skill, has enough magic energy and is not in cooldown of the S...">
<polygon fill="white" stroke="black" points="127,-38.5 127,-57.5 240,-57.5 240,-38.5 127,-38.5"/>
<text text-anchor="middle" x="183.5" y="-45.5" font-family="Helvetica,sans-Serif" font-size="10.00">MagicSkillCanBeUsed</text>
</a>
</g>
</g>
<!-- Node1&#45;&gt;Node2 -->
<g id="edge1" class="edge"><title>Node1&#45;&gt;Node2</title>
<path fill="none" stroke="midnightblue" d="M91.0315,-35.2213C99.2721,-36.3726 108.037,-37.5971 116.752,-38.8146"/>
<polygon fill="midnightblue" stroke="midnightblue" points="116.538,-42.3186 126.926,-40.236 117.507,-35.386 116.538,-42.3186"/>
</g>
<!-- Node3 -->
<g id="node3" class="node"><title>Node3</title>
<g id="a_node3"><a xlink:href="../../d0/dd4/class_character_1_1_base_character.xhtml#a659e03205f114d34aaf956e0a04ecf0e" target="_top" xlink:title="A countdown before the Skill takes action.">
<polygon fill="white" stroke="black" points="135,-0.5 135,-19.5 232,-19.5 232,-0.5 135,-0.5"/>
<text text-anchor="middle" x="183.5" y="-7.5" font-family="Helvetica,sans-Serif" font-size="10.00">PreUseCountdown</text>
</a>
</g>
</g>
<!-- Node1&#45;&gt;Node3 -->
<g id="edge2" class="edge"><title>Node1&#45;&gt;Node3</title>
<path fill="none" stroke="midnightblue" d="M91.0315,-22.7787C101.707,-21.2872 113.263,-19.6728 124.451,-18.1097"/>
<polygon fill="midnightblue" stroke="midnightblue" points="125.168,-21.5437 134.587,-16.6937 124.199,-14.611 125.168,-21.5437"/>
</g>
<!-- Node4 -->
<g id="node4" class="node"><title>Node4</title>
<g id="a_node4"><a xlink:href="../../d0/dd4/class_character_1_1_base_character.xhtml#a3600fb9e5435e3769e23d2d6774a223c" target="_top" xlink:title="Triggers the use of the Skill">
<polygon fill="white" stroke="black" points="276,-0.5 276,-19.5 355,-19.5 355,-0.5 276,-0.5"/>
<text text-anchor="middle" x="315.5" y="-7.5" font-family="Helvetica,sans-Serif" font-size="10.00">UseMagicSkill</text>
</a>
</g>
</g>
<!-- Node3&#45;&gt;Node4 -->
<g id="edge3" class="edge"><title>Node3&#45;&gt;Node4</title>
<path fill="none" stroke="midnightblue" d="M232.169,-10C243.042,-10 254.613,-10 265.539,-10"/>
<polygon fill="midnightblue" stroke="midnightblue" points="265.774,-13.5001 275.774,-10 265.773,-6.5001 265.774,-13.5001"/>
</g>
<!-- Node5 -->
<g id="node5" class="node"><title>Node5</title>
<g id="a_node5"><a xlink:href="../../de/df3/interface_character_1_1_skill_1_1_i_skill.xhtml#a7a08b6338032d47a2bd9b46a79ee9d32" target="_top" xlink:title="The Skill is used and takes effect.">
<polygon fill="white" stroke="black" points="391,-0.5 391,-19.5 516,-19.5 516,-0.5 391,-0.5"/>
<text text-anchor="middle" x="453.5" y="-7.5" font-family="Helvetica,sans-Serif" font-size="10.00">Character.Skill.ISkill.Use</text>
</a>
</g>
</g>
<!-- Node4&#45;&gt;Node5 -->
<g id="edge4" class="edge"><title>Node4&#45;&gt;Node5</title>
<path fill="none" stroke="midnightblue" d="M355.108,-10C363.21,-10 372.002,-10 380.876,-10"/>
<polygon fill="midnightblue" stroke="midnightblue" points="380.898,-13.5001 390.898,-10 380.898,-6.5001 380.898,-13.5001"/>
</g>
</g>
</svg>
