<?xml version="1.0" encoding="UTF-8" standalone="no"?>
<!DOCTYPE svg PUBLIC "-//W3C//DTD SVG 1.1//EN"
 "http://www.w3.org/Graphics/SVG/1.1/DTD/svg11.dtd">
<!-- Generated by graphviz version 2.38.0 (20140413.2041)
 -->
<!-- Title: UseMagicSkill Pages: 1 -->
<svg width="347pt" height="28pt"
 viewBox="0.00 0.00 347.00 28.00" xmlns="http://www.w3.org/2000/svg" xmlns:xlink="http://www.w3.org/1999/xlink">
<g id="graph0" class="graph" transform="scale(1 1) rotate(0) translate(4 24)">
<title>UseMagicSkill</title>
<polygon fill="white" stroke="none" points="-4,4 -4,-24 343,-24 343,4 -4,4"/>
<!-- Node1 -->
<g id="node1" class="node"><title>Node1</title>
<polygon fill="#bfbfbf" stroke="black" points="0,-0.5 0,-19.5 79,-19.5 79,-0.5 0,-0.5"/>
<text text-anchor="middle" x="39.5" y="-7.5" font-family="Helvetica,sans-Serif" font-size="10.00">UseMagicSkill</text>
</g>
<!-- Node2 -->
<g id="node2" class="node"><title>Node2</title>
<g id="a_node2"><a xlink:href="../../d0/dd4/class_character_1_1_base_character.xhtml#a659e03205f114d34aaf956e0a04ecf0e" target="_top" xlink:title="A countdown before the Skill takes action.">
<polygon fill="white" stroke="black" points="115,-0.5 115,-19.5 212,-19.5 212,-0.5 115,-0.5"/>
<text text-anchor="middle" x="163.5" y="-7.5" font-family="Helvetica,sans-Serif" font-size="10.00">PreUseCountdown</text>
</a>
</g>
</g>
<!-- Node1&#45;&gt;Node2 -->
<g id="edge1" class="edge"><title>Node1&#45;&gt;Node2</title>
<path fill="none" stroke="midnightblue" d="M89.162,-10C97.5802,-10 106.326,-10 114.72,-10"/>
<polygon fill="midnightblue" stroke="midnightblue" points="89.1016,-6.5001 79.1016,-10 89.1015,-13.5001 89.1016,-6.5001"/>
</g>
<!-- Node3 -->
<g id="node3" class="node"><title>Node3</title>
<g id="a_node3"><a xlink:href="../../d0/dd4/class_character_1_1_base_character.xhtml#a0e5eb777b972a974cdedad228429369e" target="_top" xlink:title="Trigger the given MagicSkill.">
<polygon fill="white" stroke="black" points="248,-0.5 248,-19.5 339,-19.5 339,-0.5 248,-0.5"/>
<text text-anchor="middle" x="293.5" y="-7.5" font-family="Helvetica,sans-Serif" font-size="10.00">TriggerMagicSkill</text>
</a>
</g>
</g>
<!-- Node2&#45;&gt;Node3 -->
<g id="edge2" class="edge"><title>Node2&#45;&gt;Node3</title>
<path fill="none" stroke="midnightblue" d="M222.425,-10C230.93,-10 239.58,-10 247.766,-10"/>
<polygon fill="midnightblue" stroke="midnightblue" points="222.163,-6.5001 212.162,-10 222.162,-13.5001 222.163,-6.5001"/>
</g>
</g>
</svg>
